G04*
G04 #@! TF.GenerationSoftware,Altium Limited,Altium Designer,24.0.1 (36)*
G04*
G04 Layer_Physical_Order=2*
G04 Layer_Color=36540*
%FSLAX44Y44*%
%MOMM*%
G71*
G04*
G04 #@! TF.SameCoordinates,3B49473D-73B2-42EE-9F38-8EB038721B03*
G04*
G04*
G04 #@! TF.FilePolarity,Positive*
G04*
G01*
G75*
%ADD10C,0.2000*%
%ADD16C,0.2540*%
%ADD57C,0.3000*%
%ADD58R,1.5000X1.5000*%
%ADD59C,3.3160*%
%ADD60C,0.5500*%
%ADD61C,0.7000*%
%ADD63C,1.2080*%
%ADD64C,2.2000*%
%ADD65O,4.5000X2.2500*%
%ADD66O,2.2500X4.5000*%
%ADD67O,2.5000X5.0000*%
G36*
X953577Y1216056D02*
X954997Y1215468D01*
X956276Y1214613D01*
X957363Y1213526D01*
X958218Y1212248D01*
X958806Y1210827D01*
X959106Y1209319D01*
Y1208550D01*
Y511700D01*
Y510931D01*
X958806Y509423D01*
X958218Y508003D01*
X957363Y506724D01*
X956276Y505637D01*
X954998Y504782D01*
X953577Y504194D01*
X952069Y503894D01*
X951300D01*
X286250Y503894D01*
X265931D01*
X264423Y504194D01*
X263002Y504782D01*
X261724Y505637D01*
X260637Y506724D01*
X259782Y508002D01*
X259194Y509423D01*
X258894Y510931D01*
Y511700D01*
Y688745D01*
X260164Y689086D01*
X260748Y688075D01*
X263075Y685748D01*
X265925Y684102D01*
X269104Y683250D01*
X272396D01*
X275575Y684102D01*
X278425Y685748D01*
X280753Y688075D01*
X282398Y690925D01*
X283250Y694104D01*
Y697396D01*
X282398Y700575D01*
X280753Y703425D01*
X278425Y705752D01*
X275575Y707398D01*
X272396Y708250D01*
X269104D01*
X265925Y707398D01*
X263075Y705752D01*
X260748Y703425D01*
X260164Y702414D01*
X258894Y702755D01*
Y1208550D01*
Y1209319D01*
X259194Y1210827D01*
X259782Y1212247D01*
X260637Y1213526D01*
X261724Y1214613D01*
X263002Y1215468D01*
X264423Y1216056D01*
X265931Y1216356D01*
X952069D01*
X953577Y1216056D01*
D02*
G37*
%LPC*%
G36*
X866633Y1210620D02*
X866020D01*
Y1192770D01*
X883870D01*
Y1193383D01*
X883135Y1197077D01*
X881694Y1200557D01*
X879601Y1203688D01*
X876938Y1206351D01*
X873807Y1208444D01*
X870327Y1209885D01*
X866633Y1210620D01*
D02*
G37*
G36*
X863480D02*
X862867D01*
X859173Y1209885D01*
X855693Y1208444D01*
X852562Y1206351D01*
X849899Y1203688D01*
X847806Y1200557D01*
X846365Y1197077D01*
X845630Y1193383D01*
Y1192770D01*
X863480D01*
Y1210620D01*
D02*
G37*
G36*
X883870Y1190230D02*
X866020D01*
Y1172380D01*
X866633D01*
X870327Y1173115D01*
X873807Y1174556D01*
X876938Y1176648D01*
X879601Y1179312D01*
X881694Y1182443D01*
X883135Y1185923D01*
X883870Y1189617D01*
Y1190230D01*
D02*
G37*
G36*
X863480D02*
X845630D01*
Y1189617D01*
X846365Y1185923D01*
X847806Y1182443D01*
X849899Y1179312D01*
X852562Y1176648D01*
X855693Y1174556D01*
X859173Y1173115D01*
X862867Y1172380D01*
X863480D01*
Y1190230D01*
D02*
G37*
G36*
X539745Y1174980D02*
X537755D01*
X535918Y1174219D01*
X534511Y1172812D01*
X533750Y1170975D01*
Y1168985D01*
X534511Y1167148D01*
X535918Y1165741D01*
X537755Y1164980D01*
X539745D01*
X541582Y1165741D01*
X542989Y1167148D01*
X543750Y1168985D01*
Y1170975D01*
X542989Y1172812D01*
X541582Y1174219D01*
X539745Y1174980D01*
D02*
G37*
G36*
X846020Y1169542D02*
Y1162270D01*
X853292D01*
X852745Y1164312D01*
X851616Y1166268D01*
X850018Y1167866D01*
X848062Y1168995D01*
X846020Y1169542D01*
D02*
G37*
G36*
X853292Y1159730D02*
X846020D01*
Y1152458D01*
X848062Y1153005D01*
X850018Y1154134D01*
X851616Y1155732D01*
X852745Y1157688D01*
X853292Y1159730D01*
D02*
G37*
G36*
X830743Y1173540D02*
X828757D01*
X826840Y1173026D01*
X825120Y1172033D01*
X823716Y1170630D01*
X822724Y1168910D01*
X822210Y1166993D01*
Y1165007D01*
X822724Y1163090D01*
X823716Y1161370D01*
X825120Y1159967D01*
X826840Y1158974D01*
X828757Y1158460D01*
X830743D01*
X832660Y1158974D01*
X834380Y1159967D01*
X834900Y1160487D01*
X836170Y1159961D01*
Y1159871D01*
X836755Y1157688D01*
X837884Y1155732D01*
X839482Y1154134D01*
X841438Y1153005D01*
X843480Y1152458D01*
Y1161000D01*
Y1169542D01*
X841438Y1168995D01*
X839482Y1167866D01*
X838560Y1166944D01*
X838163Y1166959D01*
X837189Y1167369D01*
X836776Y1168910D01*
X835783Y1170630D01*
X834380Y1172033D01*
X832660Y1173026D01*
X830743Y1173540D01*
D02*
G37*
G36*
X473531Y1188330D02*
X469969D01*
X466476Y1187635D01*
X463186Y1186272D01*
X460225Y1184294D01*
X457706Y1181775D01*
X455728Y1178814D01*
X454365Y1175524D01*
X453670Y1172031D01*
Y1168469D01*
X454365Y1164976D01*
X455728Y1161686D01*
X457706Y1158725D01*
X460225Y1156206D01*
X463186Y1154228D01*
X466476Y1152865D01*
X469969Y1152170D01*
X473531D01*
X477024Y1152865D01*
X480314Y1154228D01*
X483275Y1156206D01*
X485794Y1158725D01*
X487772Y1161686D01*
X489135Y1164976D01*
X489830Y1168469D01*
Y1172031D01*
X489135Y1175524D01*
X487772Y1178814D01*
X485794Y1181775D01*
X483275Y1184294D01*
X480314Y1186272D01*
X477024Y1187635D01*
X473531Y1188330D01*
D02*
G37*
G36*
X301781D02*
X298219D01*
X294726Y1187635D01*
X291436Y1186272D01*
X288475Y1184294D01*
X285956Y1181775D01*
X283978Y1178814D01*
X282615Y1175524D01*
X281920Y1172031D01*
Y1168469D01*
X282615Y1164976D01*
X283978Y1161686D01*
X285956Y1158725D01*
X288475Y1156206D01*
X291436Y1154228D01*
X294726Y1152865D01*
X298219Y1152170D01*
X301781D01*
X305274Y1152865D01*
X308564Y1154228D01*
X311525Y1156206D01*
X314044Y1158725D01*
X316022Y1161686D01*
X317385Y1164976D01*
X318080Y1168469D01*
Y1172031D01*
X317385Y1175524D01*
X316022Y1178814D01*
X314044Y1181775D01*
X311525Y1184294D01*
X308564Y1186272D01*
X305274Y1187635D01*
X301781Y1188330D01*
D02*
G37*
G36*
X583495Y1159750D02*
X581505D01*
X579668Y1158989D01*
X578261Y1157582D01*
X577500Y1155745D01*
Y1153755D01*
X578261Y1151918D01*
X579668Y1150511D01*
X581505Y1149750D01*
X583495D01*
X585332Y1150511D01*
X586739Y1151918D01*
X587500Y1153755D01*
Y1155745D01*
X586739Y1157582D01*
X585332Y1158989D01*
X583495Y1159750D01*
D02*
G37*
G36*
X830743Y1153540D02*
X828757D01*
X826840Y1153026D01*
X825120Y1152034D01*
X823716Y1150630D01*
X822724Y1148910D01*
X822210Y1146993D01*
Y1145007D01*
X822724Y1143090D01*
X823716Y1141370D01*
X825120Y1139967D01*
X826840Y1138974D01*
X828757Y1138460D01*
X830743D01*
X832660Y1138974D01*
X834380Y1139967D01*
X835783Y1141370D01*
X836776Y1143090D01*
X837290Y1145007D01*
Y1146993D01*
X836776Y1148910D01*
X835783Y1150630D01*
X834380Y1152034D01*
X832660Y1153026D01*
X830743Y1153540D01*
D02*
G37*
G36*
X556520Y1136347D02*
Y1133770D01*
X559097D01*
X558675Y1134789D01*
X557538Y1135925D01*
X556520Y1136347D01*
D02*
G37*
G36*
X553980D02*
X552962Y1135925D01*
X551825Y1134789D01*
X551403Y1133770D01*
X553980D01*
Y1136347D01*
D02*
G37*
G36*
X501495Y1141250D02*
X499505D01*
X497668Y1140489D01*
X496261Y1139082D01*
X495500Y1137245D01*
Y1135255D01*
X496261Y1133418D01*
X497668Y1132011D01*
X499505Y1131250D01*
X501495D01*
X503332Y1132011D01*
X504739Y1133418D01*
X505500Y1135255D01*
Y1137245D01*
X504739Y1139082D01*
X503332Y1140489D01*
X501495Y1141250D01*
D02*
G37*
G36*
X559097Y1131230D02*
X556520D01*
Y1128653D01*
X557538Y1129075D01*
X558675Y1130211D01*
X559097Y1131230D01*
D02*
G37*
G36*
X553980D02*
X551403D01*
X551825Y1130211D01*
X552962Y1129075D01*
X553980Y1128653D01*
Y1131230D01*
D02*
G37*
G36*
X845743Y1143540D02*
X843757D01*
X841840Y1143026D01*
X840120Y1142034D01*
X838716Y1140630D01*
X837724Y1138910D01*
X837210Y1136993D01*
Y1135007D01*
X837724Y1133090D01*
X838716Y1131370D01*
X840120Y1129967D01*
X841840Y1128974D01*
X843757Y1128460D01*
X845743D01*
X847660Y1128974D01*
X849380Y1129967D01*
X850783Y1131370D01*
X851776Y1133090D01*
X852290Y1135007D01*
Y1136993D01*
X851776Y1138910D01*
X850783Y1140630D01*
X849380Y1142034D01*
X847660Y1143026D01*
X845743Y1143540D01*
D02*
G37*
G36*
X831020Y1134542D02*
Y1127270D01*
X838292D01*
X837745Y1129312D01*
X836616Y1131268D01*
X835018Y1132866D01*
X833062Y1133995D01*
X831020Y1134542D01*
D02*
G37*
G36*
X828480D02*
X826438Y1133995D01*
X824482Y1132866D01*
X822884Y1131268D01*
X821755Y1129312D01*
X821208Y1127270D01*
X828480D01*
Y1134542D01*
D02*
G37*
G36*
X562270Y1126847D02*
Y1124270D01*
X564847D01*
X564425Y1125288D01*
X563288Y1126425D01*
X562270Y1126847D01*
D02*
G37*
G36*
X559730D02*
X558712Y1126425D01*
X557575Y1125288D01*
X557153Y1124270D01*
X559730D01*
Y1126847D01*
D02*
G37*
G36*
X550770D02*
Y1124270D01*
X553347D01*
X552925Y1125288D01*
X551788Y1126425D01*
X550770Y1126847D01*
D02*
G37*
G36*
X548230D02*
X547211Y1126425D01*
X546075Y1125288D01*
X545653Y1124270D01*
X548230D01*
Y1126847D01*
D02*
G37*
G36*
X484495Y1134000D02*
X482505D01*
X480668Y1133239D01*
X479261Y1131832D01*
X478500Y1129995D01*
Y1128005D01*
X479261Y1126168D01*
X480668Y1124761D01*
X482505Y1124000D01*
X484495D01*
X486332Y1124761D01*
X487739Y1126168D01*
X488500Y1128005D01*
Y1129995D01*
X487739Y1131832D01*
X486332Y1133239D01*
X484495Y1134000D01*
D02*
G37*
G36*
X564847Y1121730D02*
X562270D01*
Y1119153D01*
X563288Y1119575D01*
X564425Y1120712D01*
X564847Y1121730D01*
D02*
G37*
G36*
X559730D02*
X557153D01*
X557575Y1120712D01*
X558712Y1119575D01*
X559730Y1119153D01*
Y1121730D01*
D02*
G37*
G36*
X553347D02*
X550770D01*
Y1119153D01*
X551788Y1119575D01*
X552925Y1120712D01*
X553347Y1121730D01*
D02*
G37*
G36*
X548230D02*
X545653D01*
X546075Y1120712D01*
X547211Y1119575D01*
X548230Y1119153D01*
Y1121730D01*
D02*
G37*
G36*
X838292Y1124730D02*
X831020D01*
Y1117458D01*
X833062Y1118005D01*
X835018Y1119134D01*
X836616Y1120732D01*
X837745Y1122688D01*
X838292Y1124730D01*
D02*
G37*
G36*
X828480D02*
X821208D01*
X821755Y1122688D01*
X822884Y1120732D01*
X824482Y1119134D01*
X826438Y1118005D01*
X828480Y1117458D01*
Y1124730D01*
D02*
G37*
G36*
X556520Y1117347D02*
Y1114770D01*
X559097D01*
X558675Y1115788D01*
X557538Y1116925D01*
X556520Y1117347D01*
D02*
G37*
G36*
X553980D02*
X552962Y1116925D01*
X551825Y1115788D01*
X551403Y1114770D01*
X553980D01*
Y1117347D01*
D02*
G37*
G36*
X787245Y1130000D02*
X785255D01*
X783418Y1129239D01*
X782011Y1127832D01*
X781250Y1125995D01*
Y1124005D01*
X782011Y1122168D01*
X782917Y1121262D01*
X783276Y1120432D01*
X782917Y1119602D01*
X782011Y1118696D01*
X781250Y1116858D01*
Y1114869D01*
X782011Y1113031D01*
X783418Y1111625D01*
X785255Y1110864D01*
X787245D01*
X789082Y1111625D01*
X790489Y1113031D01*
X791250Y1114869D01*
Y1116858D01*
X790489Y1118696D01*
X789583Y1119602D01*
X789224Y1120432D01*
X789583Y1121262D01*
X790489Y1122168D01*
X791250Y1124005D01*
Y1125995D01*
X790489Y1127832D01*
X789082Y1129239D01*
X787245Y1130000D01*
D02*
G37*
G36*
X559097Y1112230D02*
X556520D01*
Y1109653D01*
X557538Y1110075D01*
X558675Y1111211D01*
X559097Y1112230D01*
D02*
G37*
G36*
X553980D02*
X551403D01*
X551825Y1111211D01*
X552962Y1110075D01*
X553980Y1109653D01*
Y1112230D01*
D02*
G37*
G36*
X845743Y1123540D02*
X843757D01*
X841840Y1123026D01*
X840120Y1122033D01*
X838716Y1120630D01*
X837724Y1118910D01*
X837210Y1116993D01*
Y1115007D01*
X837724Y1113090D01*
X838716Y1111370D01*
X840120Y1109967D01*
X841840Y1108974D01*
X843757Y1108460D01*
X845743D01*
X847660Y1108974D01*
X849380Y1109967D01*
X850783Y1111370D01*
X851776Y1113090D01*
X852290Y1115007D01*
Y1116993D01*
X851776Y1118910D01*
X850783Y1120630D01*
X849380Y1122033D01*
X847660Y1123026D01*
X845743Y1123540D01*
D02*
G37*
G36*
X830743Y1113540D02*
X828757D01*
X826840Y1113026D01*
X825120Y1112033D01*
X823716Y1110630D01*
X822724Y1108910D01*
X822210Y1106993D01*
Y1105007D01*
X822724Y1103090D01*
X823716Y1101370D01*
X825120Y1099967D01*
X826840Y1098974D01*
X828757Y1098460D01*
X830743D01*
X832660Y1098974D01*
X834380Y1099967D01*
X835783Y1101370D01*
X836776Y1103090D01*
X837290Y1105007D01*
Y1106993D01*
X836776Y1108910D01*
X835783Y1110630D01*
X834380Y1112033D01*
X832660Y1113026D01*
X830743Y1113540D01*
D02*
G37*
G36*
X845743Y1098540D02*
X843757D01*
X841840Y1098026D01*
X840120Y1097033D01*
X838716Y1095630D01*
X837724Y1093910D01*
X837210Y1091993D01*
Y1090699D01*
X835940Y1090359D01*
X835783Y1090630D01*
X834380Y1092034D01*
X832660Y1093026D01*
X830743Y1093540D01*
X828757D01*
X826840Y1093026D01*
X825120Y1092034D01*
X823716Y1090630D01*
X822724Y1088910D01*
X822210Y1086993D01*
Y1085007D01*
X822724Y1083090D01*
X823716Y1081370D01*
X825120Y1079967D01*
X826840Y1078974D01*
X828757Y1078460D01*
X830743D01*
X832660Y1078974D01*
X834380Y1079967D01*
X835783Y1081370D01*
X836776Y1083090D01*
X837290Y1085007D01*
Y1086301D01*
X838560Y1086641D01*
X838716Y1086370D01*
X840120Y1084967D01*
X841840Y1083974D01*
X843757Y1083460D01*
X845743D01*
X847660Y1083974D01*
X849380Y1084967D01*
X850783Y1086370D01*
X851776Y1088090D01*
X852290Y1090007D01*
Y1091993D01*
X851776Y1093910D01*
X850783Y1095630D01*
X849380Y1097033D01*
X847660Y1098026D01*
X845743Y1098540D01*
D02*
G37*
G36*
X498995Y1100250D02*
X497005D01*
X495168Y1099489D01*
X493761Y1098082D01*
X493000Y1096245D01*
Y1094255D01*
X493761Y1092418D01*
X495168Y1091011D01*
X497005Y1090250D01*
X498995D01*
X500832Y1091011D01*
X502239Y1092418D01*
X503000Y1094255D01*
Y1096245D01*
X502239Y1098082D01*
X500832Y1099489D01*
X498995Y1100250D01*
D02*
G37*
G36*
X538745Y1097500D02*
X536755D01*
X534918Y1096739D01*
X533511Y1095332D01*
X532750Y1093495D01*
Y1091505D01*
X533511Y1089668D01*
X534918Y1088261D01*
X536755Y1087500D01*
X538745D01*
X540582Y1088261D01*
X541989Y1089668D01*
X542750Y1091505D01*
Y1093495D01*
X541989Y1095332D01*
X540582Y1096739D01*
X538745Y1097500D01*
D02*
G37*
G36*
X582995Y1087000D02*
X581005D01*
X579168Y1086239D01*
X577761Y1084832D01*
X577000Y1082995D01*
Y1081005D01*
X577761Y1079168D01*
X579168Y1077761D01*
X581005Y1077000D01*
X582995D01*
X584832Y1077761D01*
X586239Y1079168D01*
X587000Y1081005D01*
Y1082995D01*
X586239Y1084832D01*
X584832Y1086239D01*
X582995Y1087000D01*
D02*
G37*
G36*
X527164Y1083750D02*
X525175D01*
X523337Y1082989D01*
X521931Y1081582D01*
X521169Y1079745D01*
Y1077755D01*
X521931Y1075918D01*
X523337Y1074511D01*
X525175Y1073750D01*
X527164D01*
X529002Y1074511D01*
X530408Y1075918D01*
X531169Y1077755D01*
Y1079745D01*
X530408Y1081582D01*
X529002Y1082989D01*
X527164Y1083750D01*
D02*
G37*
G36*
X866633Y1079620D02*
X866020D01*
Y1061770D01*
X883870D01*
Y1062383D01*
X883135Y1066077D01*
X881694Y1069557D01*
X879601Y1072688D01*
X876938Y1075351D01*
X873807Y1077444D01*
X870327Y1078885D01*
X866633Y1079620D01*
D02*
G37*
G36*
X863480D02*
X862867D01*
X859173Y1078885D01*
X855693Y1077444D01*
X852562Y1075351D01*
X849899Y1072688D01*
X847806Y1069557D01*
X846365Y1066077D01*
X845630Y1062383D01*
Y1061770D01*
X863480D01*
Y1079620D01*
D02*
G37*
G36*
X746984Y1070750D02*
X744995D01*
X743157Y1069989D01*
X741750Y1068582D01*
X740989Y1066745D01*
Y1064755D01*
X741750Y1062918D01*
X743157Y1061511D01*
X744995Y1060750D01*
X746984D01*
X748821Y1061511D01*
X750228Y1062918D01*
X750989Y1064755D01*
Y1066745D01*
X750228Y1068582D01*
X748821Y1069989D01*
X746984Y1070750D01*
D02*
G37*
G36*
X883870Y1059230D02*
X866020D01*
Y1041380D01*
X866633D01*
X870327Y1042115D01*
X873807Y1043556D01*
X876938Y1045649D01*
X879601Y1048312D01*
X881694Y1051443D01*
X883135Y1054923D01*
X883870Y1058617D01*
Y1059230D01*
D02*
G37*
G36*
X863480D02*
X845630D01*
Y1058617D01*
X846365Y1054923D01*
X847806Y1051443D01*
X849899Y1048312D01*
X852562Y1045649D01*
X855693Y1043556D01*
X859173Y1042115D01*
X862867Y1041380D01*
X863480D01*
Y1059230D01*
D02*
G37*
G36*
X486745Y1045750D02*
X484755D01*
X482918Y1044989D01*
X481511Y1043582D01*
X480750Y1041745D01*
Y1039755D01*
X481511Y1037918D01*
X482918Y1036511D01*
X484755Y1035750D01*
X486745D01*
X488582Y1036511D01*
X489989Y1037918D01*
X490750Y1039755D01*
Y1041745D01*
X489989Y1043582D01*
X488582Y1044989D01*
X486745Y1045750D01*
D02*
G37*
G36*
X588495Y1037750D02*
X586505D01*
X584668Y1036989D01*
X583261Y1035582D01*
X582500Y1033745D01*
Y1031755D01*
X583261Y1029918D01*
X584668Y1028511D01*
X586505Y1027750D01*
X588495D01*
X590332Y1028511D01*
X591739Y1029918D01*
X592500Y1031755D01*
Y1033745D01*
X591739Y1035582D01*
X590332Y1036989D01*
X588495Y1037750D01*
D02*
G37*
G36*
X536761Y1048250D02*
X534772D01*
X532934Y1047489D01*
X531528Y1046082D01*
X530766Y1044245D01*
Y1042255D01*
X531528Y1040418D01*
X532934Y1039011D01*
X534311Y1038441D01*
X534058Y1037171D01*
X533834D01*
X531997Y1036410D01*
X530590Y1035003D01*
X529829Y1033166D01*
Y1031176D01*
X530590Y1029339D01*
X531997Y1027932D01*
X533834Y1027171D01*
X535824D01*
X537661Y1027932D01*
X539068Y1029339D01*
X539829Y1031176D01*
Y1033166D01*
X539068Y1035003D01*
X537661Y1036410D01*
X536285Y1036980D01*
X536537Y1038250D01*
X536761D01*
X538599Y1039011D01*
X540005Y1040418D01*
X540766Y1042255D01*
Y1044245D01*
X540005Y1046082D01*
X538599Y1047489D01*
X536761Y1048250D01*
D02*
G37*
G36*
X866133Y1034620D02*
X865520D01*
Y1016770D01*
X883370D01*
Y1017383D01*
X882635Y1021077D01*
X881194Y1024557D01*
X879101Y1027688D01*
X876438Y1030351D01*
X873307Y1032444D01*
X869827Y1033885D01*
X866133Y1034620D01*
D02*
G37*
G36*
X862980D02*
X862367D01*
X858673Y1033885D01*
X855193Y1032444D01*
X852062Y1030351D01*
X849398Y1027688D01*
X847306Y1024557D01*
X845865Y1021077D01*
X845130Y1017383D01*
Y1016770D01*
X862980D01*
Y1034620D01*
D02*
G37*
G36*
X347040Y1016790D02*
X338270D01*
Y1008020D01*
X347040D01*
Y1016790D01*
D02*
G37*
G36*
X335730D02*
X326960D01*
Y1008020D01*
X335730D01*
Y1016790D01*
D02*
G37*
G36*
X422200Y1015750D02*
X404200D01*
Y997750D01*
X422200D01*
Y1015750D01*
D02*
G37*
G36*
X396800D02*
X378800D01*
Y997750D01*
X396800D01*
Y1015750D01*
D02*
G37*
G36*
X371400D02*
X353400D01*
Y997750D01*
X371400D01*
Y1015750D01*
D02*
G37*
G36*
X347040Y1005480D02*
X338270D01*
Y996710D01*
X347040D01*
Y1005480D01*
D02*
G37*
G36*
X335730D02*
X326960D01*
Y996710D01*
X335730D01*
Y1005480D01*
D02*
G37*
G36*
X883370Y1014230D02*
X865520D01*
Y996380D01*
X866133D01*
X869827Y997115D01*
X873307Y998556D01*
X876438Y1000648D01*
X879101Y1003312D01*
X881194Y1006443D01*
X882635Y1009923D01*
X883370Y1013617D01*
Y1014230D01*
D02*
G37*
G36*
X862980D02*
X845130D01*
Y1013617D01*
X845865Y1009923D01*
X847306Y1006443D01*
X849398Y1003312D01*
X852062Y1000648D01*
X855193Y998556D01*
X858673Y997115D01*
X862367Y996380D01*
X862980D01*
Y1014230D01*
D02*
G37*
G36*
X575745Y1003750D02*
X573755D01*
X571918Y1002989D01*
X570511Y1001582D01*
X569750Y999745D01*
Y997755D01*
X570511Y995918D01*
X571918Y994511D01*
X573755Y993750D01*
X575745D01*
X577582Y994511D01*
X578989Y995918D01*
X579750Y997755D01*
Y999745D01*
X578989Y1001582D01*
X577582Y1002989D01*
X575745Y1003750D01*
D02*
G37*
G36*
X845520Y993542D02*
Y986270D01*
X852792D01*
X852245Y988312D01*
X851116Y990268D01*
X849518Y991866D01*
X847562Y992995D01*
X845520Y993542D01*
D02*
G37*
G36*
X409745Y990750D02*
X407755D01*
X405918Y989989D01*
X404511Y988582D01*
X403750Y986745D01*
Y984755D01*
X404511Y982918D01*
X405918Y981511D01*
X407755Y980750D01*
X409745D01*
X411582Y981511D01*
X412989Y982918D01*
X413750Y984755D01*
Y986745D01*
X412989Y988582D01*
X411582Y989989D01*
X409745Y990750D01*
D02*
G37*
G36*
X852792Y983730D02*
X845520D01*
Y976458D01*
X847562Y977005D01*
X849518Y978134D01*
X851116Y979732D01*
X852245Y981688D01*
X852792Y983730D01*
D02*
G37*
G36*
X830243Y997540D02*
X828257D01*
X826340Y997026D01*
X824620Y996033D01*
X823216Y994630D01*
X822224Y992910D01*
X821710Y990993D01*
Y989007D01*
X822224Y987090D01*
X823216Y985370D01*
X824620Y983967D01*
X826340Y982974D01*
X828257Y982460D01*
X830243D01*
X832160Y982974D01*
X833880Y983967D01*
X834400Y984487D01*
X835670Y983961D01*
Y983870D01*
X836255Y981688D01*
X837384Y979732D01*
X838982Y978134D01*
X840938Y977005D01*
X842980Y976458D01*
Y985000D01*
Y993542D01*
X840938Y992995D01*
X838982Y991866D01*
X838060Y990944D01*
X837663Y990959D01*
X836689Y991369D01*
X836276Y992910D01*
X835284Y994630D01*
X833880Y996033D01*
X832160Y997026D01*
X830243Y997540D01*
D02*
G37*
G36*
X587141Y982965D02*
X585152D01*
X583314Y982204D01*
X581908Y980797D01*
X581147Y978960D01*
Y976971D01*
X581908Y975133D01*
X583314Y973726D01*
X585152Y972965D01*
X587141D01*
X588979Y973726D01*
X590385Y975133D01*
X591146Y976971D01*
Y978960D01*
X590385Y980797D01*
X588979Y982204D01*
X587141Y982965D01*
D02*
G37*
G36*
X447245Y981250D02*
X445255D01*
X443418Y980489D01*
X442011Y979082D01*
X441250Y977245D01*
Y975255D01*
X442011Y973418D01*
X443418Y972011D01*
X445255Y971250D01*
X447245D01*
X449082Y972011D01*
X450489Y973418D01*
X451250Y975255D01*
Y977245D01*
X450489Y979082D01*
X449082Y980489D01*
X447245Y981250D01*
D02*
G37*
G36*
X830243Y977540D02*
X828257D01*
X826340Y977026D01*
X824620Y976034D01*
X823216Y974630D01*
X822224Y972910D01*
X821710Y970993D01*
Y969007D01*
X822224Y967090D01*
X823216Y965370D01*
X824620Y963967D01*
X826340Y962974D01*
X828257Y962460D01*
X830243D01*
X832160Y962974D01*
X833880Y963967D01*
X835284Y965370D01*
X836276Y967090D01*
X836790Y969007D01*
Y970993D01*
X836276Y972910D01*
X835284Y974630D01*
X833880Y976034D01*
X832160Y977026D01*
X830243Y977540D01*
D02*
G37*
G36*
X597524Y972297D02*
X595535D01*
X593697Y971536D01*
X592290Y970129D01*
X591529Y968292D01*
Y966303D01*
X592290Y964465D01*
X593697Y963058D01*
X595535Y962297D01*
X597524D01*
X599361Y963058D01*
X600768Y964465D01*
X601529Y966303D01*
Y968292D01*
X600768Y970129D01*
X599361Y971536D01*
X597524Y972297D01*
D02*
G37*
G36*
X529578Y971158D02*
X527589D01*
X525751Y970396D01*
X524345Y968990D01*
X523583Y967152D01*
Y965163D01*
X524345Y963326D01*
X525751Y961919D01*
X527589Y961158D01*
X529578D01*
X531416Y961919D01*
X532822Y963326D01*
X533583Y965163D01*
Y967152D01*
X532822Y968990D01*
X531416Y970396D01*
X529578Y971158D01*
D02*
G37*
G36*
X845243Y967540D02*
X843257D01*
X841340Y967026D01*
X839620Y966034D01*
X838216Y964630D01*
X837224Y962910D01*
X836710Y960993D01*
Y959007D01*
X837224Y957090D01*
X838216Y955370D01*
X839620Y953967D01*
X841340Y952974D01*
X843257Y952460D01*
X845243D01*
X847160Y952974D01*
X848880Y953967D01*
X850284Y955370D01*
X851276Y957090D01*
X851790Y959007D01*
Y960993D01*
X851276Y962910D01*
X850284Y964630D01*
X848880Y966034D01*
X847160Y967026D01*
X845243Y967540D01*
D02*
G37*
G36*
X830520Y958542D02*
Y951270D01*
X837792D01*
X837245Y953312D01*
X836116Y955268D01*
X834518Y956866D01*
X832562Y957995D01*
X830520Y958542D01*
D02*
G37*
G36*
X827980D02*
X825938Y957995D01*
X823982Y956866D01*
X822384Y955268D01*
X821255Y953312D01*
X820708Y951270D01*
X827980D01*
Y958542D01*
D02*
G37*
G36*
X522786Y958917D02*
X520797D01*
X518959Y958156D01*
X517552Y956749D01*
X516791Y954911D01*
Y952922D01*
X517552Y951085D01*
X518959Y949678D01*
X520797Y948917D01*
X522786D01*
X524624Y949678D01*
X526030Y951085D01*
X526791Y952922D01*
Y954911D01*
X526030Y956749D01*
X524624Y958156D01*
X522786Y958917D01*
D02*
G37*
G36*
X666248Y956809D02*
X664259D01*
X662422Y956048D01*
X661015Y954641D01*
X660254Y952803D01*
Y950814D01*
X661015Y948977D01*
X662422Y947570D01*
X664259Y946809D01*
X666248D01*
X668086Y947570D01*
X669493Y948977D01*
X670254Y950814D01*
Y952803D01*
X669493Y954641D01*
X668086Y956048D01*
X666248Y956809D01*
D02*
G37*
G36*
X397245Y956250D02*
X395255D01*
X393418Y955489D01*
X392011Y954082D01*
X391250Y952245D01*
Y950255D01*
X392011Y948418D01*
X393418Y947011D01*
X395255Y946250D01*
X397245D01*
X399082Y947011D01*
X400489Y948418D01*
X401250Y950255D01*
Y952245D01*
X400489Y954082D01*
X399082Y955489D01*
X397245Y956250D01*
D02*
G37*
G36*
X837792Y948730D02*
X830520D01*
Y941458D01*
X832562Y942005D01*
X834518Y943134D01*
X836116Y944732D01*
X837245Y946688D01*
X837792Y948730D01*
D02*
G37*
G36*
X827980D02*
X820708D01*
X821255Y946688D01*
X822384Y944732D01*
X823982Y943134D01*
X825938Y942005D01*
X827980Y941458D01*
Y948730D01*
D02*
G37*
G36*
X551079Y951145D02*
X549089D01*
X547252Y950384D01*
X545845Y948978D01*
X545084Y947140D01*
Y945151D01*
X545845Y943313D01*
X547252Y941906D01*
X549089Y941145D01*
X551079D01*
X552916Y941906D01*
X554323Y943313D01*
X555084Y945151D01*
Y947140D01*
X554323Y948978D01*
X552916Y950384D01*
X551079Y951145D01*
D02*
G37*
G36*
X453475Y947838D02*
X451485D01*
X449648Y947077D01*
X448241Y945670D01*
X447480Y943832D01*
Y941843D01*
X448241Y940006D01*
X449648Y938599D01*
X451485Y937838D01*
X453475D01*
X455312Y938599D01*
X456719Y940006D01*
X457480Y941843D01*
Y943832D01*
X456719Y945670D01*
X455312Y947077D01*
X453475Y947838D01*
D02*
G37*
G36*
X622275Y947546D02*
X620286D01*
X618448Y946785D01*
X617042Y945378D01*
X616280Y943541D01*
Y941551D01*
X617042Y939714D01*
X618448Y938307D01*
X620286Y937546D01*
X622275D01*
X624113Y938307D01*
X625519Y939714D01*
X626280Y941551D01*
Y943541D01*
X625519Y945378D01*
X624113Y946785D01*
X622275Y947546D01*
D02*
G37*
G36*
X786859Y953114D02*
X784869D01*
X783032Y952353D01*
X781625Y950946D01*
X780864Y949109D01*
Y947923D01*
X780583Y947031D01*
X779691Y946750D01*
X778505D01*
X776668Y945989D01*
X775261Y944582D01*
X774500Y942745D01*
Y940755D01*
X775261Y938918D01*
X776668Y937511D01*
X778505Y936750D01*
X780495D01*
X782332Y937511D01*
X783739Y938918D01*
X784500Y940755D01*
Y941941D01*
X784781Y942833D01*
X785673Y943114D01*
X786859D01*
X788696Y943875D01*
X790103Y945282D01*
X790864Y947119D01*
Y949109D01*
X790103Y950946D01*
X788696Y952353D01*
X786859Y953114D01*
D02*
G37*
G36*
X518520Y945296D02*
X516531D01*
X514693Y944535D01*
X513287Y943128D01*
X512525Y941290D01*
Y939301D01*
X513287Y937464D01*
X514693Y936057D01*
X516531Y935296D01*
X518520D01*
X520358Y936057D01*
X521764Y937464D01*
X522525Y939301D01*
Y941290D01*
X521764Y943128D01*
X520358Y944535D01*
X518520Y945296D01*
D02*
G37*
G36*
X845243Y947540D02*
X843257D01*
X841340Y947026D01*
X839620Y946033D01*
X838216Y944630D01*
X837224Y942910D01*
X836710Y940993D01*
Y939007D01*
X837224Y937090D01*
X838216Y935370D01*
X839620Y933967D01*
X841340Y932974D01*
X843257Y932460D01*
X845243D01*
X847160Y932974D01*
X848880Y933967D01*
X850284Y935370D01*
X851276Y937090D01*
X851790Y939007D01*
Y940993D01*
X851276Y942910D01*
X850284Y944630D01*
X848880Y946033D01*
X847160Y947026D01*
X845243Y947540D01*
D02*
G37*
G36*
X665245Y936250D02*
X663255D01*
X661418Y935489D01*
X660011Y934082D01*
X659250Y932245D01*
Y930255D01*
X660011Y928418D01*
X661418Y927011D01*
X663255Y926250D01*
X665245D01*
X667082Y927011D01*
X668489Y928418D01*
X669250Y930255D01*
Y932245D01*
X668489Y934082D01*
X667082Y935489D01*
X665245Y936250D01*
D02*
G37*
G36*
X652728Y936174D02*
X650739D01*
X648902Y935413D01*
X647495Y934006D01*
X646734Y932168D01*
Y930179D01*
X647495Y928341D01*
X648902Y926935D01*
X650739Y926174D01*
X652728D01*
X654566Y926935D01*
X655973Y928341D01*
X656734Y930179D01*
Y932168D01*
X655973Y934006D01*
X654566Y935413D01*
X652728Y936174D01*
D02*
G37*
G36*
X425165Y936000D02*
X423176D01*
X421338Y935239D01*
X419931Y933832D01*
X419170Y931995D01*
Y930005D01*
X419931Y928168D01*
X421338Y926761D01*
X423176Y926000D01*
X425165D01*
X427003Y926761D01*
X428409Y928168D01*
X429170Y930005D01*
Y931995D01*
X428409Y933832D01*
X427003Y935239D01*
X425165Y936000D01*
D02*
G37*
G36*
X830243Y937540D02*
X828257D01*
X826340Y937026D01*
X824620Y936033D01*
X823216Y934630D01*
X822224Y932910D01*
X821710Y930993D01*
Y929007D01*
X822224Y927090D01*
X823216Y925370D01*
X824620Y923967D01*
X826340Y922974D01*
X828257Y922460D01*
X830243D01*
X832160Y922974D01*
X833880Y923967D01*
X835284Y925370D01*
X836276Y927090D01*
X836790Y929007D01*
Y930993D01*
X836276Y932910D01*
X835284Y934630D01*
X833880Y936033D01*
X832160Y937026D01*
X830243Y937540D01*
D02*
G37*
G36*
X517245Y927928D02*
X515255D01*
X513418Y927167D01*
X512011Y925760D01*
X511250Y923922D01*
Y921933D01*
X512011Y920096D01*
X513418Y918689D01*
X515255Y917928D01*
X517245D01*
X519082Y918689D01*
X520489Y920096D01*
X521250Y921933D01*
Y923922D01*
X520489Y925760D01*
X519082Y927167D01*
X517245Y927928D01*
D02*
G37*
G36*
X399620Y925717D02*
X397631D01*
X395793Y924956D01*
X394387Y923550D01*
X393626Y921712D01*
Y919723D01*
X394387Y917885D01*
X395793Y916479D01*
X397631Y915717D01*
X399620D01*
X401458Y916479D01*
X402864Y917885D01*
X403626Y919723D01*
Y921712D01*
X402864Y923550D01*
X401458Y924956D01*
X399620Y925717D01*
D02*
G37*
G36*
X505245Y922500D02*
X503255D01*
X501418Y921739D01*
X500011Y920332D01*
X499250Y918495D01*
Y916506D01*
X498276Y915538D01*
X497765Y915750D01*
X495775D01*
X493938Y914989D01*
X492531Y913582D01*
X491770Y911745D01*
Y909755D01*
X492531Y907918D01*
X493938Y906511D01*
X495775Y905750D01*
X497765D01*
X499602Y906511D01*
X501009Y907918D01*
X501770Y909755D01*
Y911745D01*
X502744Y912712D01*
X503255Y912500D01*
X505245D01*
X507082Y913261D01*
X508489Y914668D01*
X509250Y916505D01*
Y918495D01*
X508489Y920332D01*
X507082Y921739D01*
X505245Y922500D01*
D02*
G37*
G36*
X544007Y924753D02*
X542018D01*
X540181Y923992D01*
X538774Y922585D01*
X538013Y920747D01*
Y918758D01*
X538774Y916921D01*
X540181Y915514D01*
X542018Y914753D01*
X544007D01*
X545845Y915514D01*
X547252Y916921D01*
X548013Y918758D01*
Y920747D01*
X547252Y922585D01*
X545845Y923992D01*
X544007Y924753D01*
D02*
G37*
G36*
X845243Y922540D02*
X843257D01*
X841340Y922026D01*
X839620Y921033D01*
X838216Y919630D01*
X837224Y917910D01*
X836710Y915993D01*
Y914699D01*
X835440Y914359D01*
X835284Y914630D01*
X833880Y916034D01*
X832160Y917026D01*
X830243Y917540D01*
X828257D01*
X826340Y917026D01*
X824620Y916034D01*
X823216Y914630D01*
X822224Y912910D01*
X821710Y910993D01*
Y909007D01*
X822224Y907090D01*
X823216Y905370D01*
X824620Y903967D01*
X826340Y902974D01*
X828257Y902460D01*
X830243D01*
X832160Y902974D01*
X833880Y903967D01*
X835284Y905370D01*
X836276Y907090D01*
X836790Y909007D01*
Y910301D01*
X838060Y910641D01*
X838216Y910370D01*
X839620Y908967D01*
X841340Y907974D01*
X843257Y907460D01*
X845243D01*
X847160Y907974D01*
X848880Y908967D01*
X850284Y910370D01*
X851276Y912090D01*
X851790Y914007D01*
Y915993D01*
X851276Y917910D01*
X850284Y919630D01*
X848880Y921033D01*
X847160Y922026D01*
X845243Y922540D01*
D02*
G37*
G36*
X282495Y913000D02*
X280505D01*
X278668Y912239D01*
X277261Y910832D01*
X276500Y908995D01*
Y907005D01*
X277261Y905168D01*
X278668Y903761D01*
X280505Y903000D01*
X282495D01*
X284332Y903761D01*
X285739Y905168D01*
X286500Y907005D01*
Y908995D01*
X285739Y910832D01*
X284332Y912239D01*
X282495Y913000D01*
D02*
G37*
G36*
X330995Y910500D02*
X329005D01*
X327168Y909739D01*
X325761Y908332D01*
X325000Y906495D01*
Y904505D01*
X325761Y902668D01*
X327168Y901261D01*
X329005Y900500D01*
X330995D01*
X332832Y901261D01*
X334239Y902668D01*
X335000Y904505D01*
Y906495D01*
X334239Y908332D01*
X332832Y909739D01*
X330995Y910500D01*
D02*
G37*
G36*
X754745Y908250D02*
X752755D01*
X750918Y907489D01*
X749511Y906082D01*
X748750Y904245D01*
Y902255D01*
X749511Y900418D01*
X750918Y899011D01*
X752755Y898250D01*
X754745D01*
X756582Y899011D01*
X757989Y900418D01*
X758750Y902255D01*
Y904245D01*
X757989Y906082D01*
X756582Y907489D01*
X754745Y908250D01*
D02*
G37*
G36*
X608354Y908012D02*
X606365D01*
X604527Y907251D01*
X603121Y905844D01*
X602360Y904006D01*
Y902017D01*
X603121Y900179D01*
X604527Y898773D01*
X606365Y898012D01*
X608354D01*
X610192Y898773D01*
X611598Y900179D01*
X612360Y902017D01*
Y904006D01*
X611598Y905844D01*
X610192Y907251D01*
X608354Y908012D01*
D02*
G37*
G36*
X561685Y907075D02*
X559696D01*
X557858Y906314D01*
X556452Y904908D01*
X555691Y903070D01*
Y901081D01*
X556452Y899243D01*
X557858Y897836D01*
X559696Y897075D01*
X561685D01*
X563523Y897836D01*
X564929Y899243D01*
X565691Y901081D01*
Y903070D01*
X564929Y904908D01*
X563523Y906314D01*
X561685Y907075D01*
D02*
G37*
G36*
X322392Y898750D02*
X320402D01*
X318565Y897989D01*
X317158Y896582D01*
X316397Y894745D01*
Y892755D01*
X317158Y890918D01*
X318565Y889511D01*
X320402Y888750D01*
X322392D01*
X324229Y889511D01*
X325636Y890918D01*
X326397Y892755D01*
Y894745D01*
X325636Y896582D01*
X324229Y897989D01*
X322392Y898750D01*
D02*
G37*
G36*
X597748Y897405D02*
X595759D01*
X593921Y896644D01*
X592514Y895237D01*
X591753Y893400D01*
Y891411D01*
X592514Y889573D01*
X593921Y888166D01*
X595759Y887405D01*
X597748D01*
X599585Y888166D01*
X600992Y889573D01*
X601753Y891411D01*
Y893400D01*
X600992Y895237D01*
X599585Y896644D01*
X597748Y897405D01*
D02*
G37*
G36*
X501995Y895890D02*
X500005D01*
X498168Y895129D01*
X496761Y893722D01*
X496000Y891885D01*
Y889895D01*
X496761Y888058D01*
X498168Y886651D01*
X500005Y885890D01*
X501995D01*
X503832Y886651D01*
X505239Y888058D01*
X506000Y889895D01*
Y891885D01*
X505239Y893722D01*
X503832Y895129D01*
X501995Y895890D01*
D02*
G37*
G36*
X866133Y903620D02*
X865520D01*
Y885770D01*
X883370D01*
Y886383D01*
X882635Y890077D01*
X881194Y893557D01*
X879101Y896688D01*
X876438Y899352D01*
X873307Y901444D01*
X869827Y902885D01*
X866133Y903620D01*
D02*
G37*
G36*
X862980D02*
X862367D01*
X858673Y902885D01*
X855193Y901444D01*
X852062Y899352D01*
X849398Y896688D01*
X847306Y893557D01*
X845865Y890077D01*
X845130Y886383D01*
Y885770D01*
X862980D01*
Y903620D01*
D02*
G37*
G36*
X281995Y894500D02*
X280005D01*
X278168Y893739D01*
X276761Y892332D01*
X276000Y890495D01*
Y888505D01*
X276761Y886668D01*
X278168Y885261D01*
X280005Y884500D01*
X281995D01*
X283832Y885261D01*
X285239Y886668D01*
X286000Y888505D01*
Y890495D01*
X285239Y892332D01*
X283832Y893739D01*
X281995Y894500D01*
D02*
G37*
G36*
X332845Y892000D02*
X331155D01*
X329593Y891353D01*
X328397Y890157D01*
X327750Y888595D01*
Y886905D01*
X328397Y885343D01*
X329593Y884147D01*
X331155Y883500D01*
X332845D01*
X334407Y884147D01*
X335603Y885343D01*
X336250Y886905D01*
Y888595D01*
X335603Y890157D01*
X334407Y891353D01*
X332845Y892000D01*
D02*
G37*
G36*
X513379Y889116D02*
X511390D01*
X509552Y888355D01*
X508145Y886948D01*
X507384Y885110D01*
Y883121D01*
X508145Y881283D01*
X509552Y879877D01*
X511390Y879116D01*
X513379D01*
X515216Y879877D01*
X516623Y881283D01*
X517384Y883121D01*
Y885110D01*
X516623Y886948D01*
X515216Y888355D01*
X513379Y889116D01*
D02*
G37*
G36*
X302495Y879500D02*
X300505D01*
X298668Y878739D01*
X297261Y877332D01*
X296500Y875495D01*
Y873505D01*
X297261Y871668D01*
X298668Y870261D01*
X300505Y869500D01*
X302495D01*
X304332Y870261D01*
X305739Y871668D01*
X306500Y873505D01*
Y875495D01*
X305739Y877332D01*
X304332Y878739D01*
X302495Y879500D01*
D02*
G37*
G36*
X883370Y883230D02*
X865520D01*
Y865380D01*
X866133D01*
X869827Y866115D01*
X873307Y867556D01*
X876438Y869649D01*
X879101Y872312D01*
X881194Y875443D01*
X882635Y878923D01*
X883370Y882617D01*
Y883230D01*
D02*
G37*
G36*
X862980D02*
X845130D01*
Y882617D01*
X845865Y878923D01*
X847306Y875443D01*
X849398Y872312D01*
X852062Y869649D01*
X855193Y867556D01*
X858673Y866115D01*
X862367Y865380D01*
X862980D01*
Y883230D01*
D02*
G37*
G36*
X497814Y875069D02*
X495825D01*
X493987Y874308D01*
X492580Y872902D01*
X491819Y871064D01*
Y869075D01*
X492580Y867237D01*
X493987Y865831D01*
X495825Y865069D01*
X497814D01*
X499652Y865831D01*
X501058Y867237D01*
X501819Y869075D01*
Y871064D01*
X501058Y872902D01*
X499652Y874308D01*
X497814Y875069D01*
D02*
G37*
G36*
X366495Y869000D02*
X364505D01*
X362668Y868239D01*
X361261Y866832D01*
X360500Y864995D01*
Y863005D01*
X361261Y861168D01*
X362668Y859761D01*
X364505Y859000D01*
X366495D01*
X368332Y859761D01*
X369739Y861168D01*
X370500Y863005D01*
Y864995D01*
X369739Y866832D01*
X368332Y868239D01*
X366495Y869000D01*
D02*
G37*
G36*
X546707Y874249D02*
X544718D01*
X542881Y873488D01*
X541474Y872081D01*
X540713Y870244D01*
Y868254D01*
X541474Y866417D01*
X542881Y865010D01*
X542932Y864989D01*
Y863719D01*
X542889Y863701D01*
X541483Y862295D01*
X540722Y860457D01*
Y858468D01*
X541483Y856630D01*
X542889Y855224D01*
X544727Y854463D01*
X546716D01*
X548554Y855224D01*
X549960Y856630D01*
X550722Y858468D01*
Y860457D01*
X549960Y862295D01*
X548554Y863701D01*
X548503Y863723D01*
Y864993D01*
X548545Y865010D01*
X549952Y866417D01*
X550713Y868254D01*
Y870244D01*
X549952Y872081D01*
X548545Y873488D01*
X546707Y874249D01*
D02*
G37*
G36*
X521326Y872864D02*
X519337D01*
X517500Y872103D01*
X516093Y870697D01*
X515332Y868859D01*
Y866870D01*
X516093Y865032D01*
X517427Y863699D01*
X517654Y863360D01*
X517858Y862334D01*
X517302Y861778D01*
X516541Y859940D01*
Y857951D01*
X517302Y856114D01*
X518709Y854707D01*
X520547Y853946D01*
X522536D01*
X524374Y854707D01*
X525780Y856114D01*
X526541Y857951D01*
Y859940D01*
X525780Y861778D01*
X524446Y863112D01*
X524219Y863450D01*
X524015Y864476D01*
X524571Y865032D01*
X525332Y866870D01*
Y868859D01*
X524571Y870697D01*
X523164Y872103D01*
X521326Y872864D01*
D02*
G37*
G36*
X583745Y862750D02*
X581755D01*
X579918Y861989D01*
X578511Y860582D01*
X577750Y858745D01*
Y856755D01*
X578511Y854918D01*
X579918Y853511D01*
X581755Y852750D01*
X583745D01*
X585582Y853511D01*
X586989Y854918D01*
X587750Y856755D01*
Y858745D01*
X586989Y860582D01*
X585582Y861989D01*
X583745Y862750D01*
D02*
G37*
G36*
X338843Y857492D02*
X337650D01*
X336547Y857036D01*
X335703Y856192D01*
X335247Y855089D01*
Y853895D01*
X335703Y852793D01*
X336547Y851949D01*
X337650Y851492D01*
X338843D01*
X339946Y851949D01*
X340790Y852793D01*
X341247Y853895D01*
Y855089D01*
X340790Y856192D01*
X339946Y857036D01*
X338843Y857492D01*
D02*
G37*
G36*
X667787Y861043D02*
X665798D01*
X663961Y860282D01*
X662554Y858875D01*
X661793Y857038D01*
Y855048D01*
X662554Y853211D01*
X663961Y851804D01*
X665798Y851043D01*
X667787D01*
X669625Y851804D01*
X671032Y853211D01*
X671793Y855048D01*
Y857038D01*
X671032Y858875D01*
X669625Y860282D01*
X667787Y861043D01*
D02*
G37*
G36*
X559870Y855375D02*
X557880D01*
X556043Y854614D01*
X554636Y853207D01*
X553875Y851369D01*
Y849380D01*
X554636Y847543D01*
X556043Y846136D01*
X557880Y845375D01*
X559870D01*
X561707Y846136D01*
X563114Y847543D01*
X563875Y849380D01*
Y851369D01*
X563114Y853207D01*
X561707Y854614D01*
X559870Y855375D01*
D02*
G37*
G36*
X574245Y854750D02*
X572255D01*
X570418Y853989D01*
X569011Y852582D01*
X568250Y850745D01*
Y848755D01*
X569011Y846918D01*
X570418Y845511D01*
X572255Y844750D01*
X574245D01*
X576082Y845511D01*
X577489Y846918D01*
X578250Y848755D01*
Y850745D01*
X577489Y852582D01*
X576082Y853989D01*
X574245Y854750D01*
D02*
G37*
G36*
X339097Y849000D02*
X337903D01*
X336801Y848543D01*
X335957Y847699D01*
X335500Y846597D01*
Y845403D01*
X335957Y844301D01*
X336801Y843457D01*
X337903Y843000D01*
X339097D01*
X340199Y843457D01*
X341043Y844301D01*
X341500Y845403D01*
Y846597D01*
X341043Y847699D01*
X340199Y848543D01*
X339097Y849000D01*
D02*
G37*
G36*
X506082Y850548D02*
X504093D01*
X502256Y849787D01*
X500849Y848381D01*
X500088Y846543D01*
Y844554D01*
X500849Y842716D01*
X502256Y841310D01*
X504093Y840548D01*
X506082D01*
X507920Y841310D01*
X509327Y842716D01*
X510088Y844554D01*
Y846543D01*
X509327Y848381D01*
X507920Y849787D01*
X506082Y850548D01*
D02*
G37*
G36*
X865383Y858120D02*
X864770D01*
Y840270D01*
X882620D01*
Y840883D01*
X881885Y844577D01*
X880444Y848057D01*
X878351Y851188D01*
X875688Y853851D01*
X872557Y855944D01*
X869077Y857385D01*
X865383Y858120D01*
D02*
G37*
G36*
X862230D02*
X861617D01*
X857923Y857385D01*
X854443Y855944D01*
X851312Y853851D01*
X848649Y851188D01*
X846556Y848057D01*
X845115Y844577D01*
X844380Y840883D01*
Y840270D01*
X862230D01*
Y858120D01*
D02*
G37*
G36*
X304940Y858599D02*
X302951D01*
X301113Y857838D01*
X299707Y856431D01*
X298946Y854593D01*
Y852604D01*
X299707Y850767D01*
X301113Y849360D01*
X301320Y849275D01*
X301549Y847805D01*
X300647Y846902D01*
X299886Y845064D01*
Y843075D01*
X300647Y841238D01*
X302053Y839831D01*
X303891Y839070D01*
X305880D01*
X307718Y839831D01*
X309124Y841238D01*
X309886Y843075D01*
Y845064D01*
X309124Y846902D01*
X307718Y848309D01*
X307512Y848394D01*
X307282Y849864D01*
X308185Y850767D01*
X308946Y852604D01*
Y854593D01*
X308185Y856431D01*
X306778Y857838D01*
X304940Y858599D01*
D02*
G37*
G36*
X280474Y839159D02*
X278485D01*
X276648Y838398D01*
X275241Y836992D01*
X274480Y835154D01*
Y833165D01*
X275241Y831327D01*
X276648Y829921D01*
X278485Y829159D01*
X280474D01*
X282312Y829921D01*
X283719Y831327D01*
X284480Y833165D01*
Y835154D01*
X283719Y836992D01*
X282312Y838398D01*
X280474Y839159D01*
D02*
G37*
G36*
X653232Y835738D02*
X651243D01*
X649405Y834976D01*
X647999Y833570D01*
X647238Y831732D01*
Y829743D01*
X647999Y827905D01*
X649405Y826499D01*
X651243Y825738D01*
X653232D01*
X655070Y826499D01*
X656476Y827905D01*
X657238Y829743D01*
Y831732D01*
X656476Y833570D01*
X655070Y834976D01*
X653232Y835738D01*
D02*
G37*
G36*
X620630Y831635D02*
X618641D01*
X616803Y830874D01*
X615397Y829468D01*
X614635Y827630D01*
Y825641D01*
X615397Y823803D01*
X616803Y822397D01*
X618641Y821635D01*
X620630D01*
X622468Y822397D01*
X623874Y823803D01*
X624635Y825641D01*
Y827630D01*
X623874Y829468D01*
X622468Y830874D01*
X620630Y831635D01*
D02*
G37*
G36*
X882620Y837730D02*
X864770D01*
Y819880D01*
X865383D01*
X869077Y820615D01*
X872557Y822056D01*
X875688Y824148D01*
X878351Y826812D01*
X880444Y829943D01*
X881885Y833423D01*
X882620Y837117D01*
Y837730D01*
D02*
G37*
G36*
X862230D02*
X844380D01*
Y837117D01*
X845115Y833423D01*
X846556Y829943D01*
X848649Y826812D01*
X851312Y824148D01*
X854443Y822056D01*
X857923Y820615D01*
X861617Y819880D01*
X862230D01*
Y837730D01*
D02*
G37*
G36*
X287245Y824500D02*
X285255D01*
X283418Y823739D01*
X282011Y822332D01*
X281250Y820495D01*
Y818505D01*
X282011Y816668D01*
X283418Y815261D01*
X285255Y814500D01*
X287245D01*
X289082Y815261D01*
X290489Y816668D01*
X291250Y818505D01*
Y820495D01*
X290489Y822332D01*
X289082Y823739D01*
X287245Y824500D01*
D02*
G37*
G36*
X844770Y817042D02*
Y809770D01*
X852042D01*
X851495Y811812D01*
X850366Y813768D01*
X848768Y815366D01*
X846812Y816495D01*
X844770Y817042D01*
D02*
G37*
G36*
X332845Y816500D02*
X331155D01*
X329593Y815853D01*
X328397Y814657D01*
X327750Y813095D01*
Y811405D01*
X328397Y809843D01*
X329593Y808647D01*
X331155Y808000D01*
X332845D01*
X334407Y808647D01*
X335603Y809843D01*
X336250Y811405D01*
Y813095D01*
X335603Y814657D01*
X334407Y815853D01*
X332845Y816500D01*
D02*
G37*
G36*
X852042Y807230D02*
X844770D01*
Y799958D01*
X846812Y800505D01*
X848768Y801634D01*
X850366Y803232D01*
X851495Y805188D01*
X852042Y807230D01*
D02*
G37*
G36*
X829493Y821040D02*
X827507D01*
X825590Y820526D01*
X823870Y819533D01*
X822466Y818130D01*
X821474Y816410D01*
X820960Y814493D01*
Y812507D01*
X821474Y810590D01*
X822466Y808870D01*
X823870Y807467D01*
X825590Y806474D01*
X827507Y805960D01*
X829493D01*
X831410Y806474D01*
X833130Y807467D01*
X833650Y807987D01*
X834920Y807461D01*
Y807370D01*
X835505Y805188D01*
X836634Y803232D01*
X838232Y801634D01*
X840188Y800505D01*
X842230Y799958D01*
Y808500D01*
Y817042D01*
X840188Y816495D01*
X838232Y815366D01*
X837310Y814444D01*
X836913Y814459D01*
X835939Y814869D01*
X835526Y816410D01*
X834533Y818130D01*
X833130Y819533D01*
X831410Y820526D01*
X829493Y821040D01*
D02*
G37*
G36*
X330995Y799500D02*
X329005D01*
X327168Y798739D01*
X325761Y797332D01*
X325000Y795495D01*
Y793505D01*
X325761Y791668D01*
X327168Y790261D01*
X329005Y789500D01*
X330995D01*
X332832Y790261D01*
X334239Y791668D01*
X335000Y793505D01*
Y795495D01*
X334239Y797332D01*
X332832Y798739D01*
X330995Y799500D01*
D02*
G37*
G36*
X282495Y797000D02*
X280505D01*
X278668Y796239D01*
X277261Y794832D01*
X276500Y792995D01*
Y791005D01*
X277261Y789168D01*
X278668Y787761D01*
X280505Y787000D01*
X282495D01*
X284332Y787761D01*
X285739Y789168D01*
X286500Y791005D01*
Y792995D01*
X285739Y794832D01*
X284332Y796239D01*
X282495Y797000D01*
D02*
G37*
G36*
X829493Y801040D02*
X827507D01*
X825590Y800526D01*
X823870Y799534D01*
X822466Y798130D01*
X821474Y796410D01*
X820960Y794493D01*
Y792507D01*
X821474Y790590D01*
X822466Y788870D01*
X823870Y787467D01*
X825590Y786474D01*
X827507Y785960D01*
X829493D01*
X831410Y786474D01*
X833130Y787467D01*
X834533Y788870D01*
X835526Y790590D01*
X836040Y792507D01*
Y794493D01*
X835526Y796410D01*
X834533Y798130D01*
X833130Y799534D01*
X831410Y800526D01*
X829493Y801040D01*
D02*
G37*
G36*
X574995Y794500D02*
X573005D01*
X571168Y793739D01*
X569761Y792332D01*
X569000Y790495D01*
Y788505D01*
X569761Y786668D01*
X571168Y785261D01*
X573005Y784500D01*
X574995D01*
X576832Y785261D01*
X578239Y786668D01*
X579000Y788505D01*
Y790495D01*
X578239Y792332D01*
X576832Y793739D01*
X574995Y794500D01*
D02*
G37*
G36*
X614995Y791000D02*
X613005D01*
X611168Y790239D01*
X609761Y788832D01*
X609000Y786995D01*
Y785005D01*
X609761Y783168D01*
X611168Y781761D01*
X613005Y781000D01*
X614995D01*
X616832Y781761D01*
X618239Y783168D01*
X619000Y785005D01*
Y786995D01*
X618239Y788832D01*
X616832Y790239D01*
X614995Y791000D01*
D02*
G37*
G36*
X595995Y789270D02*
X594005D01*
X592168Y788509D01*
X590761Y787102D01*
X590000Y785265D01*
Y783275D01*
X590761Y781438D01*
X592168Y780031D01*
X594005Y779270D01*
X595995D01*
X597832Y780031D01*
X599239Y781438D01*
X600000Y783275D01*
Y785265D01*
X599239Y787102D01*
X597832Y788509D01*
X595995Y789270D01*
D02*
G37*
G36*
X560995Y796250D02*
X559005D01*
X557168Y795489D01*
X555761Y794082D01*
X555000Y792245D01*
Y790255D01*
X555512Y789020D01*
X555307Y788003D01*
X554839Y787578D01*
X553418Y786989D01*
X552011Y785582D01*
X551250Y783745D01*
Y781755D01*
X552011Y779918D01*
X553418Y778511D01*
X555255Y777750D01*
X557245D01*
X559082Y778511D01*
X560489Y779918D01*
X561250Y781755D01*
Y783745D01*
X560738Y784980D01*
X560943Y785996D01*
X561411Y786422D01*
X562832Y787011D01*
X564239Y788418D01*
X565000Y790255D01*
Y792245D01*
X564239Y794082D01*
X562832Y795489D01*
X560995Y796250D01*
D02*
G37*
G36*
X844493Y791040D02*
X842507D01*
X840590Y790526D01*
X838870Y789533D01*
X837466Y788130D01*
X836474Y786410D01*
X835960Y784493D01*
Y782507D01*
X836474Y780590D01*
X837466Y778870D01*
X838870Y777467D01*
X840590Y776474D01*
X842507Y775960D01*
X844493D01*
X846410Y776474D01*
X848130Y777467D01*
X849533Y778870D01*
X850526Y780590D01*
X851040Y782507D01*
Y784493D01*
X850526Y786410D01*
X849533Y788130D01*
X848130Y789533D01*
X846410Y790526D01*
X844493Y791040D01*
D02*
G37*
G36*
X829770Y782042D02*
Y774770D01*
X837042D01*
X836495Y776812D01*
X835366Y778768D01*
X833768Y780366D01*
X831812Y781495D01*
X829770Y782042D01*
D02*
G37*
G36*
X827230D02*
X825188Y781495D01*
X823232Y780366D01*
X821634Y778768D01*
X820505Y776812D01*
X819958Y774770D01*
X827230D01*
Y782042D01*
D02*
G37*
G36*
X680355Y777500D02*
X678365D01*
X676528Y776739D01*
X675121Y775332D01*
X674360Y773495D01*
Y771505D01*
X675121Y769668D01*
X676528Y768261D01*
X678365Y767500D01*
X680355D01*
X682192Y768261D01*
X683599Y769668D01*
X684360Y771505D01*
Y773495D01*
X683599Y775332D01*
X682192Y776739D01*
X680355Y777500D01*
D02*
G37*
G36*
X827230Y772230D02*
X819958D01*
X820505Y770188D01*
X821634Y768232D01*
X823232Y766634D01*
X825188Y765505D01*
X827230Y764958D01*
Y772230D01*
D02*
G37*
G36*
X837042D02*
X829770D01*
Y764958D01*
X831812Y765505D01*
X833768Y766634D01*
X835366Y768232D01*
X836495Y770188D01*
X837042Y772230D01*
D02*
G37*
G36*
X696245Y770250D02*
X694255D01*
X692418Y769489D01*
X691011Y768082D01*
X690250Y766245D01*
Y764255D01*
X691011Y762418D01*
X692418Y761011D01*
X694255Y760250D01*
X696245D01*
X698082Y761011D01*
X699489Y762418D01*
X700250Y764255D01*
Y766245D01*
X699489Y768082D01*
X698082Y769489D01*
X696245Y770250D01*
D02*
G37*
G36*
X313745Y770000D02*
X311755D01*
X309918Y769239D01*
X308511Y767832D01*
X307750Y765995D01*
Y764005D01*
X308511Y762168D01*
X309918Y760761D01*
X311755Y760000D01*
X313745D01*
X315582Y760761D01*
X316989Y762168D01*
X317750Y764005D01*
Y765995D01*
X316989Y767832D01*
X315582Y769239D01*
X313745Y770000D01*
D02*
G37*
G36*
X597744Y769000D02*
X595755D01*
X593918Y768239D01*
X592511Y766832D01*
X591750Y764995D01*
Y763005D01*
X592511Y761168D01*
X593918Y759761D01*
X595755Y759000D01*
X597744D01*
X599582Y759761D01*
X600989Y761168D01*
X601750Y763005D01*
Y764995D01*
X600989Y766832D01*
X599582Y768239D01*
X597744Y769000D01*
D02*
G37*
G36*
X611995Y768750D02*
X610005D01*
X608168Y767989D01*
X606761Y766582D01*
X606000Y764745D01*
Y762755D01*
X606761Y760918D01*
X608168Y759511D01*
X610005Y758750D01*
X611995D01*
X613832Y759511D01*
X615239Y760918D01*
X616000Y762755D01*
Y764745D01*
X615239Y766582D01*
X613832Y767989D01*
X611995Y768750D01*
D02*
G37*
G36*
X844493Y771040D02*
X842507D01*
X840590Y770526D01*
X838870Y769533D01*
X837466Y768130D01*
X836474Y766410D01*
X835960Y764493D01*
Y762507D01*
X836474Y760590D01*
X837466Y758870D01*
X838870Y757467D01*
X840590Y756474D01*
X842507Y755960D01*
X844493D01*
X846410Y756474D01*
X848130Y757467D01*
X849533Y758870D01*
X850526Y760590D01*
X851040Y762507D01*
Y764493D01*
X850526Y766410D01*
X849533Y768130D01*
X848130Y769533D01*
X846410Y770526D01*
X844493Y771040D01*
D02*
G37*
G36*
X796265Y769020D02*
X794276D01*
X792438Y768259D01*
X791032Y766853D01*
X790270Y765015D01*
Y763026D01*
X791032Y761188D01*
X792113Y760107D01*
X792253Y759186D01*
X792059Y758564D01*
X790903Y757407D01*
X790141Y755570D01*
Y753581D01*
X790903Y751743D01*
X792309Y750336D01*
X794147Y749575D01*
X796136D01*
X797974Y750336D01*
X799380Y751743D01*
X800141Y753581D01*
Y755570D01*
X799380Y757407D01*
X798299Y758488D01*
X798159Y759410D01*
X798353Y760032D01*
X799509Y761188D01*
X800270Y763026D01*
Y765015D01*
X799509Y766853D01*
X798103Y768259D01*
X796265Y769020D01*
D02*
G37*
G36*
X829493Y761040D02*
X827507D01*
X825590Y760526D01*
X823870Y759533D01*
X822466Y758130D01*
X821474Y756410D01*
X820960Y754493D01*
Y752507D01*
X821474Y750590D01*
X822466Y748870D01*
X823870Y747467D01*
X825590Y746474D01*
X827507Y745960D01*
X829493D01*
X831410Y746474D01*
X833130Y747467D01*
X834533Y748870D01*
X835526Y750590D01*
X836040Y752507D01*
Y754493D01*
X835526Y756410D01*
X834533Y758130D01*
X833130Y759533D01*
X831410Y760526D01*
X829493Y761040D01*
D02*
G37*
G36*
X657270Y746597D02*
Y744020D01*
X659847D01*
X659425Y745039D01*
X658288Y746175D01*
X657270Y746597D01*
D02*
G37*
G36*
X654730D02*
X653711Y746175D01*
X652575Y745039D01*
X652153Y744020D01*
X654730D01*
Y746597D01*
D02*
G37*
G36*
X659847Y741480D02*
X657270D01*
Y738903D01*
X658288Y739325D01*
X659425Y740462D01*
X659847Y741480D01*
D02*
G37*
G36*
X654730D02*
X652153D01*
X652575Y740462D01*
X653711Y739325D01*
X654730Y738903D01*
Y741480D01*
D02*
G37*
G36*
X844493Y746040D02*
X842507D01*
X840590Y745526D01*
X838870Y744533D01*
X837466Y743130D01*
X836474Y741410D01*
X835960Y739493D01*
Y738199D01*
X834690Y737859D01*
X834533Y738130D01*
X833130Y739533D01*
X831410Y740526D01*
X829493Y741040D01*
X827507D01*
X825590Y740526D01*
X823870Y739533D01*
X822466Y738130D01*
X821474Y736410D01*
X820960Y734493D01*
Y732507D01*
X821474Y730590D01*
X822466Y728870D01*
X823870Y727467D01*
X825590Y726474D01*
X827507Y725960D01*
X829493D01*
X831410Y726474D01*
X833130Y727467D01*
X834533Y728870D01*
X835526Y730590D01*
X836040Y732507D01*
Y733801D01*
X837310Y734141D01*
X837466Y733870D01*
X838870Y732467D01*
X840590Y731474D01*
X842507Y730960D01*
X844493D01*
X846410Y731474D01*
X848130Y732467D01*
X849533Y733870D01*
X850526Y735590D01*
X851040Y737507D01*
Y739493D01*
X850526Y741410D01*
X849533Y743130D01*
X848130Y744533D01*
X846410Y745526D01*
X844493Y746040D01*
D02*
G37*
G36*
X663020Y737097D02*
Y734520D01*
X665597D01*
X665175Y735538D01*
X664038Y736675D01*
X663020Y737097D01*
D02*
G37*
G36*
X660480D02*
X659462Y736675D01*
X658325Y735538D01*
X657903Y734520D01*
X660480D01*
Y737097D01*
D02*
G37*
G36*
X651520D02*
Y734520D01*
X654097D01*
X653675Y735538D01*
X652539Y736675D01*
X651520Y737097D01*
D02*
G37*
G36*
X648980D02*
X647962Y736675D01*
X646825Y735538D01*
X646403Y734520D01*
X648980D01*
Y737097D01*
D02*
G37*
G36*
X665597Y731980D02*
X663020D01*
Y729403D01*
X664038Y729825D01*
X665175Y730962D01*
X665597Y731980D01*
D02*
G37*
G36*
X660480D02*
X657903D01*
X658325Y730962D01*
X659462Y729825D01*
X660480Y729403D01*
Y731980D01*
D02*
G37*
G36*
X654097D02*
X651520D01*
Y729403D01*
X652539Y729825D01*
X653675Y730962D01*
X654097Y731980D01*
D02*
G37*
G36*
X648980D02*
X646403D01*
X646825Y730962D01*
X647962Y729825D01*
X648980Y729403D01*
Y731980D01*
D02*
G37*
G36*
X657270Y727597D02*
Y725020D01*
X659847D01*
X659425Y726039D01*
X658288Y727175D01*
X657270Y727597D01*
D02*
G37*
G36*
X654730D02*
X653711Y727175D01*
X652575Y726039D01*
X652153Y725020D01*
X654730D01*
Y727597D01*
D02*
G37*
G36*
X659847Y722480D02*
X657270D01*
Y719903D01*
X658288Y720325D01*
X659425Y721461D01*
X659847Y722480D01*
D02*
G37*
G36*
X654730D02*
X652153D01*
X652575Y721461D01*
X653711Y720325D01*
X654730Y719903D01*
Y722480D01*
D02*
G37*
G36*
X865383Y727120D02*
X864770D01*
Y709270D01*
X882620D01*
Y709883D01*
X881885Y713577D01*
X880444Y717057D01*
X878351Y720188D01*
X875688Y722851D01*
X872557Y724944D01*
X869077Y726385D01*
X865383Y727120D01*
D02*
G37*
G36*
X862230D02*
X861617D01*
X857923Y726385D01*
X854443Y724944D01*
X851312Y722851D01*
X848649Y720188D01*
X846556Y717057D01*
X845115Y713577D01*
X844380Y709883D01*
Y709270D01*
X862230D01*
Y727120D01*
D02*
G37*
G36*
X746745Y717750D02*
X744755D01*
X742918Y716989D01*
X741511Y715582D01*
X740750Y713745D01*
Y711755D01*
X741511Y709918D01*
X742918Y708511D01*
X744755Y707750D01*
X746745D01*
X748582Y708511D01*
X749989Y709918D01*
X750750Y711755D01*
Y713745D01*
X749989Y715582D01*
X748582Y716989D01*
X746745Y717750D01*
D02*
G37*
G36*
X571245Y708250D02*
X569255D01*
X567418Y707489D01*
X566011Y706082D01*
X565250Y704245D01*
Y702255D01*
X566011Y700418D01*
X567418Y699011D01*
X569255Y698250D01*
X571245D01*
X573082Y699011D01*
X574489Y700418D01*
X575250Y702255D01*
Y704245D01*
X574489Y706082D01*
X573082Y707489D01*
X571245Y708250D01*
D02*
G37*
G36*
X317020Y720742D02*
Y697020D01*
X329659D01*
Y707000D01*
X329185Y710600D01*
X327795Y713954D01*
X325585Y716835D01*
X322705Y719046D01*
X319350Y720435D01*
X317020Y720742D01*
D02*
G37*
G36*
X314480D02*
X312150Y720435D01*
X308796Y719046D01*
X305915Y716835D01*
X303704Y713954D01*
X302315Y710600D01*
X301841Y707000D01*
Y697020D01*
X314480D01*
Y720742D01*
D02*
G37*
G36*
X407495Y701156D02*
X405505D01*
X403668Y700395D01*
X402261Y698988D01*
X401500Y697150D01*
Y695161D01*
X402261Y693324D01*
X403668Y691917D01*
X405505Y691156D01*
X407495D01*
X409332Y691917D01*
X410739Y693324D01*
X411500Y695161D01*
Y697150D01*
X410739Y698988D01*
X409332Y700395D01*
X407495Y701156D01*
D02*
G37*
G36*
X882620Y706730D02*
X864770D01*
Y688880D01*
X865383D01*
X869077Y689615D01*
X872557Y691056D01*
X875688Y693149D01*
X878351Y695812D01*
X880444Y698943D01*
X881885Y702423D01*
X882620Y706117D01*
Y706730D01*
D02*
G37*
G36*
X862230D02*
X844380D01*
Y706117D01*
X845115Y702423D01*
X846556Y698943D01*
X848649Y695812D01*
X851312Y693149D01*
X854443Y691056D01*
X857923Y689615D01*
X861617Y688880D01*
X862230D01*
Y706730D01*
D02*
G37*
G36*
X673745Y695500D02*
X671755D01*
X669918Y694739D01*
X668511Y693332D01*
X667750Y691495D01*
Y689505D01*
X668511Y687668D01*
X669918Y686261D01*
X671755Y685500D01*
X673745D01*
X675582Y686261D01*
X676989Y687668D01*
X677750Y689505D01*
Y691495D01*
X676989Y693332D01*
X675582Y694739D01*
X673745Y695500D01*
D02*
G37*
G36*
X622995Y693500D02*
X621005D01*
X619168Y692739D01*
X617761Y691332D01*
X617000Y689495D01*
Y687505D01*
X617761Y685668D01*
X619168Y684261D01*
X621005Y683500D01*
X622995D01*
X624832Y684261D01*
X626239Y685668D01*
X627000Y687505D01*
Y689495D01*
X626239Y691332D01*
X624832Y692739D01*
X622995Y693500D01*
D02*
G37*
G36*
X710995Y692500D02*
X709005D01*
X707168Y691739D01*
X705761Y690332D01*
X705000Y688495D01*
Y686505D01*
X705761Y684668D01*
X707168Y683261D01*
X709005Y682500D01*
X710995D01*
X712832Y683261D01*
X714239Y684668D01*
X715000Y686505D01*
Y688495D01*
X714239Y690332D01*
X712832Y691739D01*
X710995Y692500D01*
D02*
G37*
G36*
X401995Y687500D02*
X400005D01*
X398168Y686739D01*
X396761Y685332D01*
X396000Y683495D01*
Y681505D01*
X396761Y679668D01*
X398168Y678261D01*
X400005Y677500D01*
X401995D01*
X403832Y678261D01*
X405239Y679668D01*
X406000Y681505D01*
Y683495D01*
X405239Y685332D01*
X403832Y686739D01*
X401995Y687500D01*
D02*
G37*
G36*
X597495Y685500D02*
X595505D01*
X593668Y684739D01*
X592261Y683332D01*
X591500Y681495D01*
Y679505D01*
X592261Y677668D01*
X593668Y676261D01*
X595505Y675500D01*
X597495D01*
X599332Y676261D01*
X600739Y677668D01*
X601500Y679505D01*
Y681495D01*
X600739Y683332D01*
X599332Y684739D01*
X597495Y685500D01*
D02*
G37*
G36*
X329659Y694480D02*
X317020D01*
Y670758D01*
X319350Y671065D01*
X322705Y672454D01*
X325585Y674665D01*
X327795Y677545D01*
X329185Y680900D01*
X329659Y684500D01*
Y694480D01*
D02*
G37*
G36*
X314480D02*
X301841D01*
Y684500D01*
X302315Y680900D01*
X303704Y677545D01*
X305915Y674665D01*
X308796Y672454D01*
X312150Y671065D01*
X314480Y670758D01*
Y694480D01*
D02*
G37*
G36*
X375750Y722371D02*
X372095Y721890D01*
X368690Y720479D01*
X365765Y718235D01*
X363521Y715310D01*
X362110Y711905D01*
X361629Y708250D01*
Y683250D01*
X362110Y679595D01*
X363521Y676190D01*
X365765Y673265D01*
X368690Y671021D01*
X372095Y669610D01*
X375750Y669129D01*
X379405Y669610D01*
X382810Y671021D01*
X385735Y673265D01*
X387979Y676190D01*
X389390Y679595D01*
X389871Y683250D01*
Y708250D01*
X389390Y711905D01*
X387979Y715310D01*
X385735Y718235D01*
X382810Y720479D01*
X379405Y721890D01*
X375750Y722371D01*
D02*
G37*
G36*
X612745Y679000D02*
X610755D01*
X608918Y678239D01*
X607511Y676832D01*
X606750Y674995D01*
Y673005D01*
X607511Y671168D01*
X608918Y669761D01*
X610755Y669000D01*
X612745D01*
X614582Y669761D01*
X615989Y671168D01*
X616750Y673005D01*
Y674995D01*
X615989Y676832D01*
X614582Y678239D01*
X612745Y679000D01*
D02*
G37*
G36*
X864883Y682370D02*
X864270D01*
Y664520D01*
X882120D01*
Y665133D01*
X881385Y668827D01*
X879944Y672307D01*
X877851Y675438D01*
X875188Y678102D01*
X872057Y680194D01*
X868577Y681635D01*
X864883Y682370D01*
D02*
G37*
G36*
X861730D02*
X861117D01*
X857423Y681635D01*
X853943Y680194D01*
X850812Y678102D01*
X848148Y675438D01*
X846056Y672307D01*
X844615Y668827D01*
X843880Y665133D01*
Y664520D01*
X861730D01*
Y682370D01*
D02*
G37*
G36*
X882120Y661980D02*
X864270D01*
Y644130D01*
X864883D01*
X868577Y644865D01*
X872057Y646306D01*
X875188Y648399D01*
X877851Y651062D01*
X879944Y654193D01*
X881385Y657673D01*
X882120Y661367D01*
Y661980D01*
D02*
G37*
G36*
X861730D02*
X843880D01*
Y661367D01*
X844615Y657673D01*
X846056Y654193D01*
X848148Y651062D01*
X850812Y648399D01*
X853943Y646306D01*
X857423Y644865D01*
X861117Y644130D01*
X861730D01*
Y661980D01*
D02*
G37*
G36*
X357000Y661610D02*
X334500D01*
X331172Y661172D01*
X328070Y659887D01*
X325407Y657843D01*
X323363Y655180D01*
X322078Y652078D01*
X321640Y648750D01*
X322078Y645422D01*
X323363Y642320D01*
X325407Y639657D01*
X328070Y637613D01*
X331172Y636328D01*
X334500Y635890D01*
X357000D01*
X360328Y636328D01*
X363430Y637613D01*
X366093Y639657D01*
X368137Y642320D01*
X369422Y645422D01*
X369860Y648750D01*
X369422Y652078D01*
X368137Y655180D01*
X366093Y657843D01*
X363430Y659887D01*
X360328Y661172D01*
X357000Y661610D01*
D02*
G37*
G36*
X844270Y641292D02*
Y634020D01*
X851542D01*
X850995Y636062D01*
X849866Y638018D01*
X848268Y639616D01*
X846312Y640745D01*
X844270Y641292D01*
D02*
G37*
G36*
X851542Y631480D02*
X844270D01*
Y624208D01*
X846312Y624755D01*
X848268Y625884D01*
X849866Y627482D01*
X850995Y629438D01*
X851542Y631480D01*
D02*
G37*
G36*
X828993Y645290D02*
X827007D01*
X825090Y644776D01*
X823370Y643783D01*
X821966Y642380D01*
X820974Y640660D01*
X820460Y638743D01*
Y636757D01*
X820974Y634840D01*
X821966Y633120D01*
X823370Y631716D01*
X825090Y630724D01*
X827007Y630210D01*
X828993D01*
X830910Y630724D01*
X832630Y631716D01*
X833150Y632237D01*
X834420Y631711D01*
Y631620D01*
X835005Y629438D01*
X836134Y627482D01*
X837732Y625884D01*
X839688Y624755D01*
X841730Y624208D01*
Y632750D01*
Y641292D01*
X839688Y640745D01*
X837732Y639616D01*
X836810Y638694D01*
X836413Y638709D01*
X835439Y639119D01*
X835026Y640660D01*
X834034Y642380D01*
X832630Y643783D01*
X830910Y644776D01*
X828993Y645290D01*
D02*
G37*
G36*
Y625290D02*
X827007D01*
X825090Y624776D01*
X823370Y623784D01*
X821966Y622380D01*
X820974Y620660D01*
X820460Y618743D01*
Y616757D01*
X820974Y614840D01*
X821966Y613120D01*
X823370Y611716D01*
X825090Y610724D01*
X827007Y610210D01*
X828993D01*
X830910Y610724D01*
X832630Y611716D01*
X834034Y613120D01*
X835026Y614840D01*
X835540Y616757D01*
Y618743D01*
X835026Y620660D01*
X834034Y622380D01*
X832630Y623784D01*
X830910Y624776D01*
X828993Y625290D01*
D02*
G37*
G36*
X843993Y615290D02*
X842007D01*
X840090Y614776D01*
X838370Y613784D01*
X836966Y612380D01*
X835974Y610660D01*
X835460Y608743D01*
Y606757D01*
X835974Y604840D01*
X836966Y603120D01*
X838370Y601716D01*
X840090Y600724D01*
X842007Y600210D01*
X843993D01*
X845910Y600724D01*
X847630Y601716D01*
X849034Y603120D01*
X850026Y604840D01*
X850540Y606757D01*
Y608743D01*
X850026Y610660D01*
X849034Y612380D01*
X847630Y613784D01*
X845910Y614776D01*
X843993Y615290D01*
D02*
G37*
G36*
X829270Y606292D02*
Y599020D01*
X836542D01*
X835995Y601062D01*
X834866Y603018D01*
X833268Y604616D01*
X831312Y605745D01*
X829270Y606292D01*
D02*
G37*
G36*
X826730D02*
X824688Y605745D01*
X822732Y604616D01*
X821134Y603018D01*
X820005Y601062D01*
X819458Y599020D01*
X826730D01*
Y606292D01*
D02*
G37*
G36*
X836542Y596480D02*
X829270D01*
Y589208D01*
X831312Y589755D01*
X833268Y590884D01*
X834866Y592482D01*
X835995Y594438D01*
X836542Y596480D01*
D02*
G37*
G36*
X826730D02*
X819458D01*
X820005Y594438D01*
X821134Y592482D01*
X822732Y590884D01*
X824688Y589755D01*
X826730Y589208D01*
Y596480D01*
D02*
G37*
G36*
X792194Y600947D02*
X790204D01*
X788367Y600186D01*
X786960Y598779D01*
X786199Y596942D01*
Y594953D01*
X786960Y593115D01*
X787845Y592230D01*
X788109Y591215D01*
X787797Y590618D01*
X786761Y589582D01*
X786000Y587745D01*
Y585755D01*
X786761Y583918D01*
X788168Y582511D01*
X790005Y581750D01*
X791995D01*
X793832Y582511D01*
X795239Y583918D01*
X796000Y585755D01*
Y587745D01*
X795239Y589582D01*
X794354Y590467D01*
X794090Y591482D01*
X794402Y592079D01*
X795438Y593115D01*
X796199Y594953D01*
Y596942D01*
X795438Y598779D01*
X794031Y600186D01*
X792194Y600947D01*
D02*
G37*
G36*
X843993Y595290D02*
X842007D01*
X840090Y594776D01*
X838370Y593783D01*
X836966Y592380D01*
X835974Y590660D01*
X835460Y588743D01*
Y586757D01*
X835974Y584840D01*
X836966Y583120D01*
X838370Y581716D01*
X840090Y580724D01*
X842007Y580210D01*
X843993D01*
X845910Y580724D01*
X847630Y581716D01*
X849034Y583120D01*
X850026Y584840D01*
X850540Y586757D01*
Y588743D01*
X850026Y590660D01*
X849034Y592380D01*
X847630Y593783D01*
X845910Y594776D01*
X843993Y595290D01*
D02*
G37*
G36*
X828993Y585290D02*
X827007D01*
X825090Y584776D01*
X823370Y583783D01*
X821966Y582380D01*
X820974Y580660D01*
X820460Y578743D01*
Y576757D01*
X820974Y574840D01*
X821966Y573120D01*
X823370Y571716D01*
X825090Y570724D01*
X827007Y570210D01*
X828993D01*
X830910Y570724D01*
X832630Y571716D01*
X834034Y573120D01*
X835026Y574840D01*
X835540Y576757D01*
Y578743D01*
X835026Y580660D01*
X834034Y582380D01*
X832630Y583783D01*
X830910Y584776D01*
X828993Y585290D01*
D02*
G37*
G36*
X843993Y570290D02*
X842007D01*
X840090Y569776D01*
X838370Y568783D01*
X836966Y567380D01*
X835974Y565660D01*
X835460Y563743D01*
Y562449D01*
X834190Y562109D01*
X834034Y562380D01*
X832630Y563784D01*
X830910Y564776D01*
X828993Y565290D01*
X827007D01*
X825090Y564776D01*
X823370Y563784D01*
X821966Y562380D01*
X820974Y560660D01*
X820460Y558743D01*
Y556757D01*
X820974Y554840D01*
X821966Y553120D01*
X823370Y551716D01*
X825090Y550724D01*
X827007Y550210D01*
X828993D01*
X830910Y550724D01*
X832630Y551716D01*
X834034Y553120D01*
X835026Y554840D01*
X835540Y556757D01*
Y558051D01*
X836810Y558391D01*
X836966Y558120D01*
X838370Y556716D01*
X840090Y555724D01*
X842007Y555210D01*
X843993D01*
X845910Y555724D01*
X847630Y556716D01*
X849034Y558120D01*
X850026Y559840D01*
X850540Y561757D01*
Y563743D01*
X850026Y565660D01*
X849034Y567380D01*
X847630Y568783D01*
X845910Y569776D01*
X843993Y570290D01*
D02*
G37*
G36*
X864883Y551370D02*
X864270D01*
Y533520D01*
X882120D01*
Y534133D01*
X881385Y537827D01*
X879944Y541307D01*
X877851Y544438D01*
X875188Y547102D01*
X872057Y549194D01*
X868577Y550635D01*
X864883Y551370D01*
D02*
G37*
G36*
X861730D02*
X861117D01*
X857423Y550635D01*
X853943Y549194D01*
X850812Y547102D01*
X848148Y544438D01*
X846056Y541307D01*
X844615Y537827D01*
X843880Y534133D01*
Y533520D01*
X861730D01*
Y551370D01*
D02*
G37*
G36*
X748245Y543250D02*
X746255D01*
X744418Y542489D01*
X743011Y541082D01*
X742250Y539245D01*
Y537255D01*
X743011Y535418D01*
X744418Y534011D01*
X746255Y533250D01*
X748245D01*
X750082Y534011D01*
X751489Y535418D01*
X752250Y537255D01*
Y539245D01*
X751489Y541082D01*
X750082Y542489D01*
X748245Y543250D01*
D02*
G37*
G36*
X693531Y563830D02*
X689969D01*
X686476Y563135D01*
X683186Y561772D01*
X680225Y559794D01*
X677706Y557275D01*
X675728Y554314D01*
X674365Y551024D01*
X673670Y547531D01*
Y543969D01*
X674365Y540476D01*
X675728Y537186D01*
X677706Y534225D01*
X680225Y531706D01*
X683186Y529728D01*
X686476Y528365D01*
X689969Y527670D01*
X693531D01*
X697024Y528365D01*
X700314Y529728D01*
X703275Y531706D01*
X705794Y534225D01*
X707772Y537186D01*
X709135Y540476D01*
X709830Y543969D01*
Y547531D01*
X709135Y551024D01*
X707772Y554314D01*
X705794Y557275D01*
X703275Y559794D01*
X700314Y561772D01*
X697024Y563135D01*
X693531Y563830D01*
D02*
G37*
G36*
X301781D02*
X298219D01*
X294726Y563135D01*
X291436Y561772D01*
X288475Y559794D01*
X285956Y557275D01*
X283978Y554314D01*
X282615Y551024D01*
X281920Y547531D01*
Y543969D01*
X282615Y540476D01*
X283978Y537186D01*
X285956Y534225D01*
X288475Y531706D01*
X291436Y529728D01*
X294726Y528365D01*
X298219Y527670D01*
X301781D01*
X305274Y528365D01*
X308564Y529728D01*
X311525Y531706D01*
X314044Y534225D01*
X316022Y537186D01*
X317385Y540476D01*
X318080Y543969D01*
Y547531D01*
X317385Y551024D01*
X316022Y554314D01*
X314044Y557275D01*
X311525Y559794D01*
X308564Y561772D01*
X305274Y563135D01*
X301781Y563830D01*
D02*
G37*
G36*
X882120Y530980D02*
X864270D01*
Y513130D01*
X864883D01*
X868577Y513865D01*
X872057Y515306D01*
X875188Y517399D01*
X877851Y520062D01*
X879944Y523193D01*
X881385Y526673D01*
X882120Y530367D01*
Y530980D01*
D02*
G37*
G36*
X861730D02*
X843880D01*
Y530367D01*
X844615Y526673D01*
X846056Y523193D01*
X848148Y520062D01*
X850812Y517399D01*
X853943Y515306D01*
X857423Y513865D01*
X861117Y513130D01*
X861730D01*
Y530980D01*
D02*
G37*
%LPD*%
D10*
X596010Y1088760D02*
X596770Y1088000D01*
X596010Y1088760D02*
Y1161990D01*
X595250Y1162750D02*
X596010Y1161990D01*
D16*
X349730Y876730D02*
X357750Y884750D01*
X349730Y820468D02*
Y876730D01*
Y820468D02*
X355241Y814957D01*
X481750Y812207D02*
X486195Y816652D01*
X481750Y811000D02*
Y812207D01*
X486195Y816652D02*
Y817901D01*
X489295Y821000D01*
X473750Y939125D02*
X481000Y946375D01*
Y946500D01*
X473750Y939000D02*
Y939125D01*
X551561Y1023334D02*
Y1025561D01*
X550777Y1022550D02*
X551561Y1023334D01*
Y1025561D02*
X564000Y1038000D01*
X483250Y958500D02*
Y959250D01*
X493250Y969250D01*
Y982250D01*
X489295Y821000D02*
X497980D01*
X492500Y983000D02*
X493250Y982250D01*
X667750Y887750D02*
X668603Y888603D01*
Y894353D01*
X679250Y905000D01*
X633532Y860032D02*
Y860532D01*
X646750Y873750D01*
Y874250D01*
D57*
X338500Y846000D02*
D03*
X338247Y854492D02*
D03*
X555250Y1132500D02*
D03*
X549500Y1123000D02*
D03*
X561000D02*
D03*
X555250Y1113500D02*
D03*
X656000Y742750D02*
D03*
X650250Y733250D02*
D03*
X661750D02*
D03*
X656000Y723750D02*
D03*
D58*
X387800Y1006750D02*
D03*
X413200D02*
D03*
X362400D02*
D03*
X337000D02*
D03*
D59*
X300000Y1170250D02*
D03*
X471750D02*
D03*
X691750Y545750D02*
D03*
X300000D02*
D03*
X863000Y532250D02*
D03*
Y663250D02*
D03*
X864750Y1060500D02*
D03*
Y1191500D02*
D03*
X863500Y708000D02*
D03*
Y839000D02*
D03*
X864250Y884500D02*
D03*
Y1015500D02*
D03*
D60*
X332000Y812250D02*
D03*
Y887750D02*
D03*
D61*
X330000Y794500D02*
D03*
Y905500D02*
D03*
X281500Y792000D02*
D03*
Y908000D02*
D03*
X679360Y772500D02*
D03*
X506000Y680250D02*
D03*
X724500Y820500D02*
D03*
X722250Y906750D02*
D03*
X722000Y1020000D02*
D03*
X645250Y1083750D02*
D03*
X484250Y856250D02*
D03*
Y836500D02*
D03*
X371957Y815250D02*
D03*
X583750Y929520D02*
D03*
X614000D02*
D03*
X565500Y816500D02*
D03*
Y828250D02*
D03*
X653000Y620500D02*
D03*
X345234Y620430D02*
D03*
X425250Y623500D02*
D03*
X427750Y579250D02*
D03*
X510000Y581000D02*
D03*
X595250Y578000D02*
D03*
X656250Y576500D02*
D03*
X662500Y517250D02*
D03*
X593000Y519750D02*
D03*
X510250Y518250D02*
D03*
X426250Y519500D02*
D03*
X344250Y517750D02*
D03*
X344000Y575500D02*
D03*
X276250Y574000D02*
D03*
Y622750D02*
D03*
X277149Y979053D02*
D03*
X437250Y1039500D02*
D03*
X349000Y1038000D02*
D03*
X273750Y1034250D02*
D03*
X275000Y1110500D02*
D03*
X350500Y1109500D02*
D03*
X432250Y1105500D02*
D03*
X348000Y1192000D02*
D03*
X425750Y1191750D02*
D03*
X694750Y1124500D02*
D03*
X588750Y1199750D02*
D03*
X638500Y1147500D02*
D03*
X639500Y1201000D02*
D03*
X728750Y1094500D02*
D03*
X721000Y1199250D02*
D03*
X424170Y931000D02*
D03*
X406500Y696156D02*
D03*
X796500Y951750D02*
D03*
X783750Y957750D02*
D03*
X516770Y851000D02*
D03*
X523701Y848750D02*
D03*
X521541Y858946D02*
D03*
X520332Y867864D02*
D03*
X541581Y878750D02*
D03*
X523313Y889750D02*
D03*
X512384Y884116D02*
D03*
X516974Y876374D02*
D03*
X523701Y876210D02*
D03*
X556726Y860694D02*
D03*
X496819Y870069D02*
D03*
X501000Y890890D02*
D03*
X652238Y830738D02*
D03*
X545713Y869249D02*
D03*
X600000Y915750D02*
D03*
X568000Y945000D02*
D03*
X601250Y944250D02*
D03*
X568750Y915980D02*
D03*
X555912Y932412D02*
D03*
X583750Y959500D02*
D03*
X583500Y899750D02*
D03*
X528583Y966158D02*
D03*
X521791Y953917D02*
D03*
X550084Y946145D02*
D03*
X543013Y919753D02*
D03*
X560691Y902075D02*
D03*
X596753Y892405D02*
D03*
X586147Y977965D02*
D03*
X596529Y967297D02*
D03*
X607360Y903012D02*
D03*
X621280Y942546D02*
D03*
X517525Y940296D02*
D03*
X717750Y699000D02*
D03*
X660338Y976338D02*
D03*
X303946Y853599D02*
D03*
X304886Y844070D02*
D03*
X356517Y838291D02*
D03*
X297520Y860662D02*
D03*
X312516Y859852D02*
D03*
X382218Y846172D02*
D03*
X375010Y857508D02*
D03*
X496770Y910750D02*
D03*
X296641Y838891D02*
D03*
X321397Y893750D02*
D03*
X281000Y889500D02*
D03*
X481750Y811000D02*
D03*
X516250Y922928D02*
D03*
X301500Y874500D02*
D03*
X417000Y959500D02*
D03*
X398626Y920717D02*
D03*
X365500Y864000D02*
D03*
X279480Y834159D02*
D03*
X286250Y819500D02*
D03*
X538750Y1169980D02*
D03*
X511500Y1079750D02*
D03*
X538750Y1107520D02*
D03*
X537750Y1092500D02*
D03*
X595250Y1162750D02*
D03*
X582500Y1154750D02*
D03*
X596770Y1088000D02*
D03*
X526169Y1078750D02*
D03*
X498000Y1095250D02*
D03*
X582000Y1082000D02*
D03*
X416750Y967670D02*
D03*
X396250Y951250D02*
D03*
X446250Y976250D02*
D03*
X408750Y985750D02*
D03*
X473750Y939000D02*
D03*
X481000Y946500D02*
D03*
X545722Y859463D02*
D03*
X504250Y917500D02*
D03*
X637610Y1004437D02*
D03*
X619730Y1011802D02*
D03*
X785864Y948114D02*
D03*
X779500Y941750D02*
D03*
X535766Y1043250D02*
D03*
X534829Y1032171D02*
D03*
X550777Y1022550D02*
D03*
X574750Y998750D02*
D03*
X665254Y951809D02*
D03*
X618500Y813750D02*
D03*
X312750Y765000D02*
D03*
X582750Y857750D02*
D03*
X558875Y850375D02*
D03*
X802730Y773250D02*
D03*
X779250Y930500D02*
D03*
X768250Y937750D02*
D03*
X786750Y1049250D02*
D03*
X788000Y878250D02*
D03*
X666793Y856043D02*
D03*
X619635Y826635D02*
D03*
X574000Y789500D02*
D03*
X560000Y791250D02*
D03*
X452480Y942838D02*
D03*
X483250Y958500D02*
D03*
X505088Y845548D02*
D03*
X497980Y821000D02*
D03*
X545250Y847250D02*
D03*
X573250Y849750D02*
D03*
X556250Y782750D02*
D03*
X483500Y1129000D02*
D03*
X500500Y1136250D02*
D03*
X587500Y1032750D02*
D03*
X564000Y1038000D02*
D03*
X485750Y1040750D02*
D03*
X753750Y903250D02*
D03*
X745989Y1065750D02*
D03*
X779500Y693250D02*
D03*
X745750Y712750D02*
D03*
X492500Y983000D02*
D03*
X495500Y1022000D02*
D03*
X482000Y1009750D02*
D03*
X611000Y763750D02*
D03*
X595000Y784270D02*
D03*
X596750Y764000D02*
D03*
X614000Y786000D02*
D03*
X273750Y750500D02*
D03*
X672750Y690500D02*
D03*
X695250Y765250D02*
D03*
X717250Y753500D02*
D03*
X710000Y687500D02*
D03*
X622000Y688500D02*
D03*
X611750Y674000D02*
D03*
X570250Y703250D02*
D03*
X596500Y680500D02*
D03*
X597500Y697750D02*
D03*
X597000Y707750D02*
D03*
X427213Y672537D02*
D03*
X388250Y659250D02*
D03*
X747250Y538250D02*
D03*
X779000Y523750D02*
D03*
X800750Y745500D02*
D03*
X789000Y746250D02*
D03*
X791750Y773750D02*
D03*
X795270Y764020D02*
D03*
X795141Y754575D02*
D03*
X777500Y1109000D02*
D03*
X794000Y1108000D02*
D03*
Y1133250D02*
D03*
X780500Y1134500D02*
D03*
X786250Y1125000D02*
D03*
Y1115864D02*
D03*
X667750Y887750D02*
D03*
X679250Y905000D02*
D03*
X633532Y860032D02*
D03*
X664250Y931250D02*
D03*
X651734Y931174D02*
D03*
X791000Y586750D02*
D03*
X791199Y595947D02*
D03*
X797750Y579000D02*
D03*
X783750Y579750D02*
D03*
X798000Y604250D02*
D03*
X786500Y605250D02*
D03*
X573000Y744250D02*
D03*
X646750Y874250D02*
D03*
X644770Y715101D02*
D03*
X319500Y750500D02*
D03*
X401000Y682500D02*
D03*
X481250Y632000D02*
D03*
X465500Y631500D02*
D03*
X496750Y631750D02*
D03*
X585250Y617750D02*
D03*
X613750Y637750D02*
D03*
X598750Y637250D02*
D03*
X540750Y653250D02*
D03*
X437750Y754000D02*
D03*
X439750Y737250D02*
D03*
X501750Y739250D02*
D03*
X512250D02*
D03*
X544250Y726000D02*
D03*
X558500Y744500D02*
D03*
X477000Y874140D02*
D03*
X289500Y750250D02*
D03*
X355241Y814957D02*
D03*
X357750Y884750D02*
D03*
D63*
X843000Y562750D02*
D03*
Y587750D02*
D03*
Y607750D02*
D03*
Y632750D02*
D03*
X828000Y637750D02*
D03*
Y617750D02*
D03*
Y597750D02*
D03*
Y577750D02*
D03*
Y557750D02*
D03*
X844750Y1091000D02*
D03*
Y1116000D02*
D03*
Y1136000D02*
D03*
Y1161000D02*
D03*
X829750Y1166000D02*
D03*
Y1146000D02*
D03*
Y1126000D02*
D03*
Y1106000D02*
D03*
Y1086000D02*
D03*
X843500Y738500D02*
D03*
Y763500D02*
D03*
Y783500D02*
D03*
Y808500D02*
D03*
X828500Y813500D02*
D03*
Y793500D02*
D03*
Y773500D02*
D03*
Y753500D02*
D03*
Y733500D02*
D03*
X844250Y915000D02*
D03*
Y940000D02*
D03*
Y960000D02*
D03*
Y985000D02*
D03*
X829250Y990000D02*
D03*
Y970000D02*
D03*
Y950000D02*
D03*
Y930000D02*
D03*
Y910000D02*
D03*
D64*
X270750Y695750D02*
D03*
D65*
X345750Y648750D02*
D03*
D66*
X315750Y695750D02*
D03*
D67*
X375750D02*
D03*
M02*
