G04*
G04 #@! TF.GenerationSoftware,Altium Limited,Altium Designer,24.0.1 (36)*
G04*
G04 Layer_Color=16711935*
%FSLAX44Y44*%
%MOMM*%
G71*
G04*
G04 #@! TF.SameCoordinates,3B49473D-73B2-42EE-9F38-8EB038721B03*
G04*
G04*
G04 #@! TF.FilePolarity,Negative*
G04*
G01*
G75*
%ADD28R,1.1061X0.9582*%
G04:AMPARAMS|DCode=34|XSize=1.2032mm|YSize=1.0232mm|CornerRadius=0.1426mm|HoleSize=0mm|Usage=FLASHONLY|Rotation=180.000|XOffset=0mm|YOffset=0mm|HoleType=Round|Shape=RoundedRectangle|*
%AMROUNDEDRECTD34*
21,1,1.2032,0.7380,0,0,180.0*
21,1,0.9180,1.0232,0,0,180.0*
1,1,0.2852,-0.4590,0.3690*
1,1,0.2852,0.4590,0.3690*
1,1,0.2852,0.4590,-0.3690*
1,1,0.2852,-0.4590,-0.3690*
%
%ADD34ROUNDEDRECTD34*%
G04:AMPARAMS|DCode=41|XSize=1.1532mm|YSize=1.0032mm|CornerRadius=0.1416mm|HoleSize=0mm|Usage=FLASHONLY|Rotation=180.000|XOffset=0mm|YOffset=0mm|HoleType=Round|Shape=RoundedRectangle|*
%AMROUNDEDRECTD41*
21,1,1.1532,0.7200,0,0,180.0*
21,1,0.8700,1.0032,0,0,180.0*
1,1,0.2832,-0.4350,0.3600*
1,1,0.2832,0.4350,0.3600*
1,1,0.2832,0.4350,-0.3600*
1,1,0.2832,-0.4350,-0.3600*
%
%ADD41ROUNDEDRECTD41*%
G04:AMPARAMS|DCode=42|XSize=1.2032mm|YSize=1.0232mm|CornerRadius=0.1426mm|HoleSize=0mm|Usage=FLASHONLY|Rotation=90.000|XOffset=0mm|YOffset=0mm|HoleType=Round|Shape=RoundedRectangle|*
%AMROUNDEDRECTD42*
21,1,1.2032,0.7380,0,0,90.0*
21,1,0.9180,1.0232,0,0,90.0*
1,1,0.2852,0.3690,0.4590*
1,1,0.2852,0.3690,-0.4590*
1,1,0.2852,-0.3690,-0.4590*
1,1,0.2852,-0.3690,0.4590*
%
%ADD42ROUNDEDRECTD42*%
%ADD43R,1.7032X1.7032*%
%ADD44C,3.5192*%
%ADD45C,0.7532*%
%ADD46C,0.9032*%
%ADD47R,1.4112X1.4112*%
%ADD48C,1.4112*%
%ADD49C,2.4032*%
%ADD50O,4.7032X2.4532*%
%ADD51O,2.4532X4.7032*%
%ADD52O,2.7032X5.2032*%
G04:AMPARAMS|DCode=79|XSize=1.4132mm|YSize=0.7932mm|CornerRadius=0.2491mm|HoleSize=0mm|Usage=FLASHONLY|Rotation=180.000|XOffset=0mm|YOffset=0mm|HoleType=Round|Shape=RoundedRectangle|*
%AMROUNDEDRECTD79*
21,1,1.4132,0.2950,0,0,180.0*
21,1,0.9150,0.7932,0,0,180.0*
1,1,0.4982,-0.4575,0.1475*
1,1,0.4982,0.4575,0.1475*
1,1,0.4982,0.4575,-0.1475*
1,1,0.4982,-0.4575,-0.1475*
%
%ADD79ROUNDEDRECTD79*%
G04:AMPARAMS|DCode=80|XSize=1.9532mm|YSize=1.3532mm|CornerRadius=0.1878mm|HoleSize=0mm|Usage=FLASHONLY|Rotation=270.000|XOffset=0mm|YOffset=0mm|HoleType=Round|Shape=RoundedRectangle|*
%AMROUNDEDRECTD80*
21,1,1.9532,0.9775,0,0,270.0*
21,1,1.5775,1.3532,0,0,270.0*
1,1,0.3757,-0.4888,-0.7887*
1,1,0.3757,-0.4888,0.7887*
1,1,0.3757,0.4888,0.7887*
1,1,0.3757,0.4888,-0.7887*
%
%ADD80ROUNDEDRECTD80*%
G04:AMPARAMS|DCode=81|XSize=1.1532mm|YSize=1.0032mm|CornerRadius=0.1416mm|HoleSize=0mm|Usage=FLASHONLY|Rotation=90.000|XOffset=0mm|YOffset=0mm|HoleType=Round|Shape=RoundedRectangle|*
%AMROUNDEDRECTD81*
21,1,1.1532,0.7200,0,0,90.0*
21,1,0.8700,1.0032,0,0,90.0*
1,1,0.2832,0.3600,0.4350*
1,1,0.2832,0.3600,-0.4350*
1,1,0.2832,-0.3600,-0.4350*
1,1,0.2832,-0.3600,0.4350*
%
%ADD81ROUNDEDRECTD81*%
%ADD82C,0.4732*%
G04:AMPARAMS|DCode=83|XSize=1.3232mm|YSize=1.0632mm|CornerRadius=0.3209mm|HoleSize=0mm|Usage=FLASHONLY|Rotation=180.000|XOffset=0mm|YOffset=0mm|HoleType=Round|Shape=RoundedRectangle|*
%AMROUNDEDRECTD83*
21,1,1.3232,0.4214,0,0,180.0*
21,1,0.6814,1.0632,0,0,180.0*
1,1,0.6418,-0.3407,0.2107*
1,1,0.6418,0.3407,0.2107*
1,1,0.6418,0.3407,-0.2107*
1,1,0.6418,-0.3407,-0.2107*
%
%ADD83ROUNDEDRECTD83*%
G04:AMPARAMS|DCode=84|XSize=1.4132mm|YSize=0.7932mm|CornerRadius=0.2491mm|HoleSize=0mm|Usage=FLASHONLY|Rotation=270.000|XOffset=0mm|YOffset=0mm|HoleType=Round|Shape=RoundedRectangle|*
%AMROUNDEDRECTD84*
21,1,1.4132,0.2950,0,0,270.0*
21,1,0.9150,0.7932,0,0,270.0*
1,1,0.4982,-0.1475,-0.4575*
1,1,0.4982,-0.1475,0.4575*
1,1,0.4982,0.1475,0.4575*
1,1,0.4982,0.1475,-0.4575*
%
%ADD84ROUNDEDRECTD84*%
G04:AMPARAMS|DCode=85|XSize=1.2032mm|YSize=1.0232mm|CornerRadius=0.1426mm|HoleSize=0mm|Usage=FLASHONLY|Rotation=135.000|XOffset=0mm|YOffset=0mm|HoleType=Round|Shape=RoundedRectangle|*
%AMROUNDEDRECTD85*
21,1,1.2032,0.7380,0,0,135.0*
21,1,0.9180,1.0232,0,0,135.0*
1,1,0.2852,-0.0636,0.5855*
1,1,0.2852,0.5855,-0.0636*
1,1,0.2852,0.0636,-0.5855*
1,1,0.2852,-0.5855,0.0636*
%
%ADD85ROUNDEDRECTD85*%
%ADD86R,1.2032X2.0032*%
G04:AMPARAMS|DCode=87|XSize=1.2032mm|YSize=1.0232mm|CornerRadius=0.1426mm|HoleSize=0mm|Usage=FLASHONLY|Rotation=225.000|XOffset=0mm|YOffset=0mm|HoleType=Round|Shape=RoundedRectangle|*
%AMROUNDEDRECTD87*
21,1,1.2032,0.7380,0,0,225.0*
21,1,0.9180,1.0232,0,0,225.0*
1,1,0.2852,-0.5855,-0.0636*
1,1,0.2852,0.0636,0.5855*
1,1,0.2852,0.5855,0.0636*
1,1,0.2852,-0.0636,-0.5855*
%
%ADD87ROUNDEDRECTD87*%
G36*
X337250Y805750D02*
X326749D01*
Y818745D01*
X337250D01*
Y805750D01*
D02*
G37*
G36*
X343000Y787500D02*
X316993D01*
Y801475D01*
X343000D01*
Y787500D01*
D02*
G37*
G36*
X295500Y784500D02*
X267440D01*
Y799452D01*
X295500D01*
Y784500D01*
D02*
G37*
G36*
X660450Y745950D02*
X664950D01*
Y720550D01*
X660450D01*
Y715550D01*
X656550D01*
Y720550D01*
X655450D01*
Y715550D01*
X651550D01*
Y720550D01*
X647050D01*
Y745950D01*
X651550D01*
Y750950D01*
X655450D01*
Y745950D01*
X656550D01*
Y750950D01*
X660450D01*
Y745950D01*
D02*
G37*
G36*
X673700Y741350D02*
X666300D01*
Y745150D01*
X673700D01*
Y741350D01*
D02*
G37*
G36*
X645700D02*
X638300D01*
Y745150D01*
X645700D01*
Y741350D01*
D02*
G37*
G36*
X673700Y736350D02*
X666300D01*
Y740150D01*
X673700D01*
Y736350D01*
D02*
G37*
G36*
X645700D02*
X638300D01*
Y740150D01*
X645700D01*
Y736350D01*
D02*
G37*
G36*
X673700Y731350D02*
X666300D01*
Y735150D01*
X673700D01*
Y731350D01*
D02*
G37*
G36*
X645700D02*
X638300D01*
Y735150D01*
X645700D01*
Y731350D01*
D02*
G37*
G36*
X673700Y726350D02*
X666300D01*
Y730150D01*
X673700D01*
Y726350D01*
D02*
G37*
G36*
X645700D02*
X638300D01*
Y730150D01*
X645700D01*
Y726350D01*
D02*
G37*
G36*
X673700Y721350D02*
X666300D01*
Y725150D01*
X673700D01*
Y721350D01*
D02*
G37*
G36*
X645700D02*
X638300D01*
Y725150D01*
X645700D01*
Y721350D01*
D02*
G37*
G36*
X559700Y1135700D02*
X564200D01*
Y1110300D01*
X559700D01*
Y1105300D01*
X555800D01*
Y1110300D01*
X554700D01*
Y1105300D01*
X550800D01*
Y1110300D01*
X546300D01*
Y1135700D01*
X550800D01*
Y1140700D01*
X554700D01*
Y1135700D01*
X555800D01*
Y1140700D01*
X559700D01*
Y1135700D01*
D02*
G37*
G36*
X572950Y1131100D02*
X565550D01*
Y1134900D01*
X572950D01*
Y1131100D01*
D02*
G37*
G36*
X544950D02*
X537550D01*
Y1134900D01*
X544950D01*
Y1131100D01*
D02*
G37*
G36*
X572950Y1126100D02*
X565550D01*
Y1129900D01*
X572950D01*
Y1126100D01*
D02*
G37*
G36*
X544950D02*
X537550D01*
Y1129900D01*
X544950D01*
Y1126100D01*
D02*
G37*
G36*
X572950Y1121100D02*
X565550D01*
Y1124900D01*
X572950D01*
Y1121100D01*
D02*
G37*
G36*
X544950D02*
X537550D01*
Y1124900D01*
X544950D01*
Y1121100D01*
D02*
G37*
G36*
X572950Y1116100D02*
X565550D01*
Y1119900D01*
X572950D01*
Y1116100D01*
D02*
G37*
G36*
X544950D02*
X537550D01*
Y1119900D01*
X544950D01*
Y1116100D01*
D02*
G37*
G36*
X572950Y1111100D02*
X565550D01*
Y1114900D01*
X572950D01*
Y1111100D01*
D02*
G37*
G36*
X544950D02*
X537550D01*
Y1114900D01*
X544950D01*
Y1111100D01*
D02*
G37*
G36*
X295500Y900500D02*
X267457D01*
Y915545D01*
X295500D01*
Y900500D01*
D02*
G37*
G36*
X343000Y898500D02*
X316984D01*
Y912577D01*
X343000D01*
Y898500D01*
D02*
G37*
G36*
X337250Y881250D02*
X326745D01*
Y894318D01*
X337250D01*
Y881250D01*
D02*
G37*
D28*
X351989Y762500D02*
D03*
X365511D02*
D03*
D34*
X597500Y1097750D02*
D03*
Y1110750D02*
D03*
Y1144000D02*
D03*
Y1131000D02*
D03*
X702250Y705000D02*
D03*
Y718000D02*
D03*
X702000Y755000D02*
D03*
Y742000D02*
D03*
X401000Y659500D02*
D03*
Y672500D02*
D03*
X613750Y650250D02*
D03*
Y663250D02*
D03*
X598500Y650250D02*
D03*
Y663250D02*
D03*
X573250Y757750D02*
D03*
Y770750D02*
D03*
X558500Y757750D02*
D03*
Y770750D02*
D03*
X482750Y737750D02*
D03*
Y724750D02*
D03*
X496250Y645000D02*
D03*
Y658000D02*
D03*
X481250Y645000D02*
D03*
Y658000D02*
D03*
X466250Y645000D02*
D03*
Y658000D02*
D03*
X452750Y737750D02*
D03*
Y724750D02*
D03*
X467750Y737750D02*
D03*
Y724750D02*
D03*
X538250Y827750D02*
D03*
Y814750D02*
D03*
X594750Y825750D02*
D03*
Y812750D02*
D03*
X335000Y751000D02*
D03*
Y764000D02*
D03*
D41*
X522000Y1154750D02*
D03*
Y1141750D02*
D03*
X497000Y1108500D02*
D03*
Y1121500D02*
D03*
X582500Y1144000D02*
D03*
Y1131000D02*
D03*
Y1097750D02*
D03*
Y1110750D02*
D03*
X686500Y705250D02*
D03*
Y718250D02*
D03*
X687000Y755000D02*
D03*
Y742000D02*
D03*
X622750Y767250D02*
D03*
Y754250D02*
D03*
X598500Y720250D02*
D03*
Y733250D02*
D03*
X511500Y658000D02*
D03*
Y645000D02*
D03*
D42*
X511000Y1120750D02*
D03*
X524000D02*
D03*
X511000Y1105750D02*
D03*
X524000D02*
D03*
X511000Y1091000D02*
D03*
X524000D02*
D03*
X612750Y702250D02*
D03*
X625750D02*
D03*
X612750Y732250D02*
D03*
X625750D02*
D03*
X612750Y717250D02*
D03*
X625750D02*
D03*
D43*
X387800Y1006750D02*
D03*
X413200D02*
D03*
X362400D02*
D03*
X337000D02*
D03*
D44*
X300000Y1170250D02*
D03*
X471750D02*
D03*
X691750Y545750D02*
D03*
X300000D02*
D03*
X863000Y532250D02*
D03*
Y663250D02*
D03*
X864750Y1060500D02*
D03*
Y1191500D02*
D03*
X863500Y708000D02*
D03*
Y839000D02*
D03*
X864250Y884500D02*
D03*
Y1015500D02*
D03*
D45*
X332000Y812250D02*
D03*
Y887750D02*
D03*
D46*
X330000Y794500D02*
D03*
Y905500D02*
D03*
X281500Y792000D02*
D03*
Y908000D02*
D03*
X679360Y772500D02*
D03*
X506000Y680250D02*
D03*
X724500Y820500D02*
D03*
X722250Y906750D02*
D03*
X722000Y1020000D02*
D03*
X645250Y1083750D02*
D03*
X484250Y856250D02*
D03*
Y836500D02*
D03*
X371957Y815250D02*
D03*
X583750Y929520D02*
D03*
X614000D02*
D03*
X565500Y816500D02*
D03*
Y828250D02*
D03*
X653000Y620500D02*
D03*
X345234Y620430D02*
D03*
X425250Y623500D02*
D03*
X427750Y579250D02*
D03*
X510000Y581000D02*
D03*
X595250Y578000D02*
D03*
X656250Y576500D02*
D03*
X662500Y517250D02*
D03*
X593000Y519750D02*
D03*
X510250Y518250D02*
D03*
X426250Y519500D02*
D03*
X344250Y517750D02*
D03*
X344000Y575500D02*
D03*
X276250Y574000D02*
D03*
Y622750D02*
D03*
X277149Y979053D02*
D03*
X437250Y1039500D02*
D03*
X349000Y1038000D02*
D03*
X273750Y1034250D02*
D03*
X275000Y1110500D02*
D03*
X350500Y1109500D02*
D03*
X432250Y1105500D02*
D03*
X348000Y1192000D02*
D03*
X425750Y1191750D02*
D03*
X694750Y1124500D02*
D03*
X588750Y1199750D02*
D03*
X638500Y1147500D02*
D03*
X639500Y1201000D02*
D03*
X728750Y1094500D02*
D03*
X721000Y1199250D02*
D03*
X424170Y931000D02*
D03*
X406500Y696156D02*
D03*
X796500Y951750D02*
D03*
X783750Y957750D02*
D03*
X516770Y851000D02*
D03*
X523701Y848750D02*
D03*
X521541Y858946D02*
D03*
X520332Y867864D02*
D03*
X541581Y878750D02*
D03*
X523313Y889750D02*
D03*
X512384Y884116D02*
D03*
X516974Y876374D02*
D03*
X523701Y876210D02*
D03*
X556726Y860694D02*
D03*
X496819Y870069D02*
D03*
X501000Y890890D02*
D03*
X652238Y830738D02*
D03*
X545713Y869249D02*
D03*
X600000Y915750D02*
D03*
X568000Y945000D02*
D03*
X601250Y944250D02*
D03*
X568750Y915980D02*
D03*
X555912Y932412D02*
D03*
X583750Y959500D02*
D03*
X583500Y899750D02*
D03*
X528583Y966158D02*
D03*
X521791Y953917D02*
D03*
X550084Y946145D02*
D03*
X543013Y919753D02*
D03*
X560691Y902075D02*
D03*
X596753Y892405D02*
D03*
X586147Y977965D02*
D03*
X596529Y967297D02*
D03*
X607360Y903012D02*
D03*
X621280Y942546D02*
D03*
X517525Y940296D02*
D03*
X717750Y699000D02*
D03*
X660338Y976338D02*
D03*
X356517Y838291D02*
D03*
X382218Y846172D02*
D03*
X375010Y857508D02*
D03*
X496770Y910750D02*
D03*
X481750Y811000D02*
D03*
X516250Y922928D02*
D03*
X417000Y959500D02*
D03*
X398626Y920717D02*
D03*
X365500Y864000D02*
D03*
X538750Y1169980D02*
D03*
X511500Y1079750D02*
D03*
X538750Y1107520D02*
D03*
X537750Y1092500D02*
D03*
X595250Y1162750D02*
D03*
X582500Y1154750D02*
D03*
X596770Y1088000D02*
D03*
X526169Y1078750D02*
D03*
X498000Y1095250D02*
D03*
X582000Y1082000D02*
D03*
X416750Y967670D02*
D03*
X396250Y951250D02*
D03*
X446250Y976250D02*
D03*
X408750Y985750D02*
D03*
X473750Y939000D02*
D03*
X481000Y946500D02*
D03*
X545722Y859463D02*
D03*
X504250Y917500D02*
D03*
X637610Y1004437D02*
D03*
X619730Y1011802D02*
D03*
X785864Y948114D02*
D03*
X779500Y941750D02*
D03*
X535766Y1043250D02*
D03*
X534829Y1032171D02*
D03*
X550777Y1022550D02*
D03*
X574750Y998750D02*
D03*
X665254Y951809D02*
D03*
X618500Y813750D02*
D03*
X312750Y765000D02*
D03*
X582750Y857750D02*
D03*
X558875Y850375D02*
D03*
X802730Y773250D02*
D03*
X779250Y930500D02*
D03*
X768250Y937750D02*
D03*
X786750Y1049250D02*
D03*
X788000Y878250D02*
D03*
X666793Y856043D02*
D03*
X619635Y826635D02*
D03*
X574000Y789500D02*
D03*
X560000Y791250D02*
D03*
X452480Y942838D02*
D03*
X483250Y958500D02*
D03*
X505088Y845548D02*
D03*
X497980Y821000D02*
D03*
X545250Y847250D02*
D03*
X573250Y849750D02*
D03*
X556250Y782750D02*
D03*
X483500Y1129000D02*
D03*
X500500Y1136250D02*
D03*
X587500Y1032750D02*
D03*
X564000Y1038000D02*
D03*
X485750Y1040750D02*
D03*
X753750Y903250D02*
D03*
X745989Y1065750D02*
D03*
X779500Y693250D02*
D03*
X745750Y712750D02*
D03*
X492500Y983000D02*
D03*
X495500Y1022000D02*
D03*
X482000Y1009750D02*
D03*
X611000Y763750D02*
D03*
X595000Y784270D02*
D03*
X596750Y764000D02*
D03*
X614000Y786000D02*
D03*
X273750Y750500D02*
D03*
X672750Y690500D02*
D03*
X695250Y765250D02*
D03*
X717250Y753500D02*
D03*
X710000Y687500D02*
D03*
X622000Y688500D02*
D03*
X611750Y674000D02*
D03*
X570250Y703250D02*
D03*
X596500Y680500D02*
D03*
X597500Y697750D02*
D03*
X597000Y707750D02*
D03*
X427213Y672537D02*
D03*
X388250Y659250D02*
D03*
X747250Y538250D02*
D03*
X779000Y523750D02*
D03*
X800750Y745500D02*
D03*
X789000Y746250D02*
D03*
X791750Y773750D02*
D03*
X795270Y764020D02*
D03*
X795141Y754575D02*
D03*
X777500Y1109000D02*
D03*
X794000Y1108000D02*
D03*
Y1133250D02*
D03*
X780500Y1134500D02*
D03*
X786250Y1125000D02*
D03*
Y1115864D02*
D03*
X667750Y887750D02*
D03*
X679250Y905000D02*
D03*
X633532Y860032D02*
D03*
X664250Y931250D02*
D03*
X651734Y931174D02*
D03*
X791000Y586750D02*
D03*
X791199Y595947D02*
D03*
X797750Y579000D02*
D03*
X783750Y579750D02*
D03*
X798000Y604250D02*
D03*
X786500Y605250D02*
D03*
X573000Y744250D02*
D03*
X646750Y874250D02*
D03*
X644770Y715101D02*
D03*
X319500Y750500D02*
D03*
X401000Y682500D02*
D03*
X481250Y632000D02*
D03*
X465500Y631500D02*
D03*
X496750Y631750D02*
D03*
X585250Y617750D02*
D03*
X613750Y637750D02*
D03*
X598750Y637250D02*
D03*
X540750Y653250D02*
D03*
X437750Y754000D02*
D03*
X439750Y737250D02*
D03*
X501750Y739250D02*
D03*
X512250D02*
D03*
X544250Y726000D02*
D03*
X558500Y744500D02*
D03*
X477000Y874140D02*
D03*
X289500Y750250D02*
D03*
X355241Y814957D02*
D03*
X357750Y884750D02*
D03*
D47*
X843000Y562750D02*
D03*
X844750Y1091000D02*
D03*
X843500Y738500D02*
D03*
X844250Y915000D02*
D03*
D48*
X843000Y587750D02*
D03*
Y607750D02*
D03*
Y632750D02*
D03*
X828000Y637750D02*
D03*
Y617750D02*
D03*
Y597750D02*
D03*
Y577750D02*
D03*
Y557750D02*
D03*
X844750Y1116000D02*
D03*
Y1136000D02*
D03*
Y1161000D02*
D03*
X829750Y1166000D02*
D03*
Y1146000D02*
D03*
Y1126000D02*
D03*
Y1106000D02*
D03*
Y1086000D02*
D03*
X843500Y763500D02*
D03*
Y783500D02*
D03*
Y808500D02*
D03*
X828500Y813500D02*
D03*
Y793500D02*
D03*
Y773500D02*
D03*
Y753500D02*
D03*
Y733500D02*
D03*
X844250Y940000D02*
D03*
Y960000D02*
D03*
Y985000D02*
D03*
X829250Y990000D02*
D03*
Y970000D02*
D03*
Y950000D02*
D03*
Y930000D02*
D03*
Y910000D02*
D03*
D49*
X270750Y695750D02*
D03*
D50*
X345750Y648750D02*
D03*
D51*
X315750Y695750D02*
D03*
D52*
X375750D02*
D03*
D79*
X527700Y662250D02*
D03*
Y643250D02*
D03*
X552800D02*
D03*
Y652750D02*
D03*
Y662250D02*
D03*
D80*
X514000Y778000D02*
D03*
X542500D02*
D03*
D81*
X551250Y1095750D02*
D03*
X564250D02*
D03*
X548750Y1150250D02*
D03*
X561750D02*
D03*
X651500Y705750D02*
D03*
X664500D02*
D03*
X649250Y760500D02*
D03*
X662250D02*
D03*
X418000Y660250D02*
D03*
X431000D02*
D03*
X544250Y739000D02*
D03*
X531250D02*
D03*
X531250Y753750D02*
D03*
X544250D02*
D03*
X584500Y632000D02*
D03*
X571500D02*
D03*
X571500Y647000D02*
D03*
X584500D02*
D03*
X584500Y662250D02*
D03*
X571500D02*
D03*
X501500Y710750D02*
D03*
X514500D02*
D03*
X572000Y838250D02*
D03*
X559000D02*
D03*
D82*
X425500Y684750D02*
D03*
X420500D02*
D03*
X425500Y679750D02*
D03*
X420500D02*
D03*
D83*
X521500Y680500D02*
D03*
X553000D02*
D03*
X451250Y754750D02*
D03*
X482750D02*
D03*
D84*
X498000Y752050D02*
D03*
X507500D02*
D03*
X517000D02*
D03*
Y726950D02*
D03*
X498000D02*
D03*
D85*
X525692Y908442D02*
D03*
X516500Y899250D02*
D03*
X614096Y1006596D02*
D03*
X604904Y997404D02*
D03*
X499846Y929904D02*
D03*
X626346Y994596D02*
D03*
X617154Y985404D02*
D03*
X650596Y970346D02*
D03*
D86*
X577750Y819750D02*
D03*
X552750D02*
D03*
D87*
X490654Y939096D02*
D03*
X573058Y1030442D02*
D03*
X582250Y1021250D02*
D03*
X481500Y929750D02*
D03*
X490692Y920558D02*
D03*
X599096Y838654D02*
D03*
X589904Y847846D02*
D03*
X666346Y910154D02*
D03*
X657154Y919346D02*
D03*
X641404Y961154D02*
D03*
X636846Y882404D02*
D03*
X627654Y891596D02*
D03*
X536404Y901346D02*
D03*
X545596Y892154D02*
D03*
X561654Y1019596D02*
D03*
X570846Y1010404D02*
D03*
X625250Y870750D02*
D03*
X616058Y879942D02*
D03*
X653346Y899154D02*
D03*
X644154Y908346D02*
D03*
M02*
