G04*
G04 #@! TF.GenerationSoftware,Altium Limited,Altium Designer,24.0.1 (36)*
G04*
G04 Layer_Color=65535*
%FSLAX44Y44*%
%MOMM*%
G71*
G04*
G04 #@! TF.SameCoordinates,3B49473D-73B2-42EE-9F38-8EB038721B03*
G04*
G04*
G04 #@! TF.FilePolarity,Positive*
G04*
G01*
G75*
%ADD10C,0.2000*%
%ADD11C,0.1000*%
%ADD12C,0.1400*%
%ADD13C,0.4000*%
%ADD14C,0.1270*%
%ADD15C,0.1524*%
%ADD16C,0.2540*%
D10*
X596896Y864042D02*
G03*
X596896Y864042I-1000J0D01*
G01*
X356000Y876230D02*
G03*
X356000Y876230I-1000J0D01*
G01*
X844000Y517750D02*
G03*
X844000Y517750I-1000J0D01*
G01*
X845750Y1046000D02*
G03*
X845750Y1046000I-1000J0D01*
G01*
X431250Y947000D02*
G03*
X431250Y947000I-1000J0D01*
G01*
X844500Y693500D02*
G03*
X844500Y693500I-1000J0D01*
G01*
X845250Y870000D02*
G03*
X845250Y870000I-1000J0D01*
G01*
X764948Y1071541D02*
X789530D01*
X764948Y1053959D02*
X789530D01*
X757220Y546791D02*
X781802D01*
X757220Y529209D02*
X781802D01*
X757209Y715791D02*
X781791D01*
X757209Y698209D02*
X781791D01*
X768220Y901041D02*
X792802D01*
X768220Y883459D02*
X792802D01*
D11*
X418300Y796750D02*
G03*
X418300Y796750I-500J0D01*
G01*
X392884Y883000D02*
G03*
X392884Y883000I-500J0D01*
G01*
X740950Y979250D02*
G03*
X740950Y979250I-500J0D01*
G01*
X753250Y627250D02*
G03*
X753250Y627250I-500J0D01*
G01*
X749700Y802500D02*
G03*
X749700Y802500I-500J0D01*
G01*
X743050Y1161500D02*
G03*
X743050Y1161500I-500J0D01*
G01*
D12*
X491200Y818500D02*
G03*
X491200Y818500I-700J0D01*
G01*
D13*
X397750Y695750D02*
G03*
X397750Y695750I-2000J0D01*
G01*
D14*
X583557Y865774D02*
X585678Y867895D01*
X645075Y927292D02*
X647197Y929414D01*
X519917D02*
X522039Y931535D01*
X581436Y990932D02*
X583557Y993053D01*
X581436Y867895D02*
X583557Y865774D01*
X645075Y931535D02*
X647197Y929414D01*
X519917D02*
X522039Y927292D01*
X583557Y993053D02*
X585678Y990932D01*
X323000Y894700D02*
Y895500D01*
X337000Y894700D02*
Y895500D01*
Y804500D02*
Y805300D01*
X323000Y804500D02*
Y805300D01*
X274000Y802500D02*
Y805300D01*
X289000Y802500D02*
Y805300D01*
X274000Y894700D02*
Y897500D01*
X289000Y895000D02*
Y897500D01*
X337000Y805300D02*
X349000D01*
Y816000D01*
X289000Y805300D02*
X323000D01*
X274000D02*
X289000D01*
X260000D02*
X274000D01*
X260000D02*
Y894700D01*
X274000D01*
X323000D01*
X337000D02*
X349000D01*
Y882000D02*
Y894700D01*
X538461Y1007821D02*
X538820Y1007462D01*
X545179Y1014539D02*
X545538Y1014180D01*
X396050Y794250D02*
X409550D01*
X396050Y829250D02*
X409550D01*
X400634Y885500D02*
X414134D01*
X400634Y850500D02*
X414134D01*
X748700Y946750D02*
X762200D01*
X748700Y981750D02*
X762200D01*
X761000Y594750D02*
X774500D01*
X761000Y629750D02*
X774500D01*
X757450Y770000D02*
X770950D01*
X757450Y805000D02*
X770950D01*
X750800Y1129000D02*
X764300D01*
X750800Y1164000D02*
X764300D01*
X594025Y842182D02*
X594384Y842542D01*
X587307Y848900D02*
X587667Y849259D01*
X496000Y824000D02*
Y825500D01*
X490000Y824000D02*
X496000D01*
X471000D02*
X477000D01*
X471000D02*
Y825500D01*
X496000Y868000D02*
Y869000D01*
X489500D02*
X496000D01*
X471000D02*
X477000D01*
X471000Y868000D02*
Y869000D01*
X284500Y768495D02*
Y769003D01*
X294000Y768495D02*
Y769003D01*
X815000Y526250D02*
X843200D01*
X882800D02*
X981000D01*
X815000Y669250D02*
X843200D01*
X882800D02*
X981000D01*
Y526250D02*
Y669250D01*
X815000Y526250D02*
Y669250D01*
X522332Y990885D02*
X522692Y990526D01*
X515615Y984168D02*
X515974Y983808D01*
X511525Y976193D02*
X511884Y975834D01*
X504807Y969475D02*
X505167Y969116D01*
X521832Y1028635D02*
X522192Y1028276D01*
X515115Y1021918D02*
X515474Y1021558D01*
X455750Y969245D02*
Y969753D01*
X465250Y969245D02*
Y969753D01*
X509582Y1015885D02*
X509942Y1015526D01*
X502865Y1009168D02*
X503224Y1008808D01*
X533428Y1002789D02*
X533788Y1002430D01*
X526711Y996071D02*
X527070Y995712D01*
X497582Y1003385D02*
X497942Y1003026D01*
X490865Y996668D02*
X491224Y996308D01*
X502712Y953320D02*
X503071Y952961D01*
X509430Y960038D02*
X509789Y959678D01*
X499429Y949289D02*
X499788Y948930D01*
X492711Y942571D02*
X493070Y942212D01*
X816750Y1054500D02*
X844950D01*
X884550D02*
X982750D01*
X816750Y1197500D02*
X844950D01*
X884550D02*
X982750D01*
Y1054500D02*
Y1197500D01*
X816750Y1054500D02*
Y1197500D01*
X382750Y650750D02*
Y670250D01*
X230750Y650750D02*
X320250D01*
X382750Y722250D02*
Y740750D01*
X371250Y650750D02*
X382750D01*
X230750Y740750D02*
X382750D01*
X230750Y650750D02*
Y740750D01*
X815500Y702000D02*
X843700D01*
X883300D02*
X981500D01*
X815500Y845000D02*
X843700D01*
X883300D02*
X981500D01*
Y702000D02*
Y845000D01*
X815500Y702000D02*
Y845000D01*
X816250Y878500D02*
X844450D01*
X884050D02*
X982250D01*
X816250Y1021500D02*
X844450D01*
X884050D02*
X982250D01*
Y878500D02*
Y1021500D01*
X816250Y878500D02*
Y1021500D01*
D15*
X375100Y1019450D02*
X400500D01*
X375100Y994050D02*
Y1019450D01*
Y994050D02*
X400500D01*
Y1019450D01*
X425900D01*
X400500Y994050D02*
Y1019450D01*
Y994050D02*
X425900D01*
Y1019450D01*
X349700D02*
X375100D01*
X349700Y994050D02*
Y1019450D01*
Y994050D02*
X375100D01*
Y1019450D01*
X349700Y994050D02*
Y1019450D01*
X324300Y994050D02*
X349700D01*
X324300D02*
Y1019450D01*
X349700D01*
D16*
X364040Y607275D02*
Y594579D01*
X366579Y592040D01*
X371657D01*
X374197Y594579D01*
Y607275D01*
X389432Y604736D02*
X386893Y607275D01*
X381814D01*
X379275Y604736D01*
Y602197D01*
X381814Y599658D01*
X386893D01*
X389432Y597118D01*
Y594579D01*
X386893Y592040D01*
X381814D01*
X379275Y594579D01*
X394510Y607275D02*
Y592040D01*
X402128D01*
X404667Y594579D01*
Y597118D01*
X402128Y599658D01*
X394510D01*
X402128D01*
X404667Y602197D01*
Y604736D01*
X402128Y607275D01*
X394510D01*
X424980Y604736D02*
X427519Y607275D01*
X432598D01*
X435137Y604736D01*
Y602197D01*
X432598Y599658D01*
X430059D01*
X432598D01*
X435137Y597118D01*
Y594579D01*
X432598Y592040D01*
X427519D01*
X424980Y594579D01*
X440215Y592040D02*
Y594579D01*
X442755D01*
Y592040D01*
X440215D01*
X452911Y604736D02*
X455450Y607275D01*
X460529D01*
X463068Y604736D01*
Y594579D01*
X460529Y592040D01*
X455450D01*
X452911Y594579D01*
Y604736D01*
X483381Y607275D02*
Y592040D01*
Y599658D01*
X493538D01*
Y607275D01*
Y592040D01*
X498616Y607275D02*
Y594579D01*
X501156Y592040D01*
X506234D01*
X508773Y594579D01*
Y607275D01*
X513852D02*
Y592040D01*
X521469D01*
X524008Y594579D01*
Y597118D01*
X521469Y599658D01*
X513852D01*
X521469D01*
X524008Y602197D01*
Y604736D01*
X521469Y607275D01*
X513852D01*
M02*
