G04*
G04 #@! TF.GenerationSoftware,Altium Limited,Altium Designer,24.0.1 (36)*
G04*
G04 Layer_Physical_Order=4*
G04 Layer_Color=16711680*
%FSLAX44Y44*%
%MOMM*%
G71*
G04*
G04 #@! TF.SameCoordinates,3B49473D-73B2-42EE-9F38-8EB038721B03*
G04*
G04*
G04 #@! TF.FilePolarity,Positive*
G04*
G01*
G75*
%ADD10C,0.2000*%
%ADD16C,0.2540*%
G04:AMPARAMS|DCode=20|XSize=1mm|YSize=0.82mm|CornerRadius=0.041mm|HoleSize=0mm|Usage=FLASHONLY|Rotation=180.000|XOffset=0mm|YOffset=0mm|HoleType=Round|Shape=RoundedRectangle|*
%AMROUNDEDRECTD20*
21,1,1.0000,0.7380,0,0,180.0*
21,1,0.9180,0.8200,0,0,180.0*
1,1,0.0820,-0.4590,0.3690*
1,1,0.0820,0.4590,0.3690*
1,1,0.0820,0.4590,-0.3690*
1,1,0.0820,-0.4590,-0.3690*
%
%ADD20ROUNDEDRECTD20*%
G04:AMPARAMS|DCode=26|XSize=0.95mm|YSize=0.8mm|CornerRadius=0.04mm|HoleSize=0mm|Usage=FLASHONLY|Rotation=180.000|XOffset=0mm|YOffset=0mm|HoleType=Round|Shape=RoundedRectangle|*
%AMROUNDEDRECTD26*
21,1,0.9500,0.7200,0,0,180.0*
21,1,0.8700,0.8000,0,0,180.0*
1,1,0.0800,-0.4350,0.3600*
1,1,0.0800,0.4350,0.3600*
1,1,0.0800,0.4350,-0.3600*
1,1,0.0800,-0.4350,-0.3600*
%
%ADD26ROUNDEDRECTD26*%
G04:AMPARAMS|DCode=27|XSize=1mm|YSize=0.82mm|CornerRadius=0.041mm|HoleSize=0mm|Usage=FLASHONLY|Rotation=90.000|XOffset=0mm|YOffset=0mm|HoleType=Round|Shape=RoundedRectangle|*
%AMROUNDEDRECTD27*
21,1,1.0000,0.7380,0,0,90.0*
21,1,0.9180,0.8200,0,0,90.0*
1,1,0.0820,0.3690,0.4590*
1,1,0.0820,0.3690,-0.4590*
1,1,0.0820,-0.3690,-0.4590*
1,1,0.0820,-0.3690,0.4590*
%
%ADD27ROUNDEDRECTD27*%
%ADD28R,1.1061X0.9582*%
%ADD57C,0.3000*%
%ADD58R,1.5000X1.5000*%
%ADD59C,3.3160*%
%ADD60C,0.5500*%
%ADD61C,0.7000*%
%ADD62R,1.2080X1.2080*%
%ADD63C,1.2080*%
%ADD64C,2.2000*%
%ADD65O,4.5000X2.2500*%
%ADD66O,2.2500X4.5000*%
%ADD67O,2.5000X5.0000*%
G04:AMPARAMS|DCode=68|XSize=1.21mm|YSize=0.59mm|CornerRadius=0.1475mm|HoleSize=0mm|Usage=FLASHONLY|Rotation=180.000|XOffset=0mm|YOffset=0mm|HoleType=Round|Shape=RoundedRectangle|*
%AMROUNDEDRECTD68*
21,1,1.2100,0.2950,0,0,180.0*
21,1,0.9150,0.5900,0,0,180.0*
1,1,0.2950,-0.4575,0.1475*
1,1,0.2950,0.4575,0.1475*
1,1,0.2950,0.4575,-0.1475*
1,1,0.2950,-0.4575,-0.1475*
%
%ADD68ROUNDEDRECTD68*%
G04:AMPARAMS|DCode=69|XSize=1.75mm|YSize=1.15mm|CornerRadius=0.0863mm|HoleSize=0mm|Usage=FLASHONLY|Rotation=270.000|XOffset=0mm|YOffset=0mm|HoleType=Round|Shape=RoundedRectangle|*
%AMROUNDEDRECTD69*
21,1,1.7500,0.9775,0,0,270.0*
21,1,1.5775,1.1500,0,0,270.0*
1,1,0.1725,-0.4888,-0.7887*
1,1,0.1725,-0.4888,0.7887*
1,1,0.1725,0.4888,0.7887*
1,1,0.1725,0.4888,-0.7887*
%
%ADD69ROUNDEDRECTD69*%
G04:AMPARAMS|DCode=70|XSize=0.95mm|YSize=0.8mm|CornerRadius=0.04mm|HoleSize=0mm|Usage=FLASHONLY|Rotation=90.000|XOffset=0mm|YOffset=0mm|HoleType=Round|Shape=RoundedRectangle|*
%AMROUNDEDRECTD70*
21,1,0.9500,0.7200,0,0,90.0*
21,1,0.8700,0.8000,0,0,90.0*
1,1,0.0800,0.3600,0.4350*
1,1,0.0800,0.3600,-0.4350*
1,1,0.0800,-0.3600,-0.4350*
1,1,0.0800,-0.3600,0.4350*
%
%ADD70ROUNDEDRECTD70*%
G04:AMPARAMS|DCode=71|XSize=0.6mm|YSize=0.24mm|CornerRadius=0.03mm|HoleSize=0mm|Usage=FLASHONLY|Rotation=0.000|XOffset=0mm|YOffset=0mm|HoleType=Round|Shape=RoundedRectangle|*
%AMROUNDEDRECTD71*
21,1,0.6000,0.1800,0,0,0.0*
21,1,0.5400,0.2400,0,0,0.0*
1,1,0.0600,0.2700,-0.0900*
1,1,0.0600,-0.2700,-0.0900*
1,1,0.0600,-0.2700,0.0900*
1,1,0.0600,0.2700,0.0900*
%
%ADD71ROUNDEDRECTD71*%
G04:AMPARAMS|DCode=72|XSize=1.65mm|YSize=2.4mm|CornerRadius=0.0413mm|HoleSize=0mm|Usage=FLASHONLY|Rotation=0.000|XOffset=0mm|YOffset=0mm|HoleType=Round|Shape=RoundedRectangle|*
%AMROUNDEDRECTD72*
21,1,1.6500,2.3175,0,0,0.0*
21,1,1.5675,2.4000,0,0,0.0*
1,1,0.0825,0.7838,-1.1588*
1,1,0.0825,-0.7838,-1.1588*
1,1,0.0825,-0.7838,1.1588*
1,1,0.0825,0.7838,1.1588*
%
%ADD72ROUNDEDRECTD72*%
%ADD73C,0.2700*%
G04:AMPARAMS|DCode=74|XSize=1.12mm|YSize=0.86mm|CornerRadius=0.2193mm|HoleSize=0mm|Usage=FLASHONLY|Rotation=180.000|XOffset=0mm|YOffset=0mm|HoleType=Round|Shape=RoundedRectangle|*
%AMROUNDEDRECTD74*
21,1,1.1200,0.4214,0,0,180.0*
21,1,0.6814,0.8600,0,0,180.0*
1,1,0.4386,-0.3407,0.2107*
1,1,0.4386,0.3407,0.2107*
1,1,0.4386,0.3407,-0.2107*
1,1,0.4386,-0.3407,-0.2107*
%
%ADD74ROUNDEDRECTD74*%
G04:AMPARAMS|DCode=75|XSize=1.21mm|YSize=0.59mm|CornerRadius=0.1475mm|HoleSize=0mm|Usage=FLASHONLY|Rotation=270.000|XOffset=0mm|YOffset=0mm|HoleType=Round|Shape=RoundedRectangle|*
%AMROUNDEDRECTD75*
21,1,1.2100,0.2950,0,0,270.0*
21,1,0.9150,0.5900,0,0,270.0*
1,1,0.2950,-0.1475,-0.4575*
1,1,0.2950,-0.1475,0.4575*
1,1,0.2950,0.1475,0.4575*
1,1,0.2950,0.1475,-0.4575*
%
%ADD75ROUNDEDRECTD75*%
G04:AMPARAMS|DCode=76|XSize=1mm|YSize=0.82mm|CornerRadius=0.041mm|HoleSize=0mm|Usage=FLASHONLY|Rotation=135.000|XOffset=0mm|YOffset=0mm|HoleType=Round|Shape=RoundedRectangle|*
%AMROUNDEDRECTD76*
21,1,1.0000,0.7380,0,0,135.0*
21,1,0.9180,0.8200,0,0,135.0*
1,1,0.0820,-0.0636,0.5855*
1,1,0.0820,0.5855,-0.0636*
1,1,0.0820,0.0636,-0.5855*
1,1,0.0820,-0.5855,0.0636*
%
%ADD76ROUNDEDRECTD76*%
%ADD77R,1.0000X1.8000*%
G04:AMPARAMS|DCode=78|XSize=1mm|YSize=0.82mm|CornerRadius=0.041mm|HoleSize=0mm|Usage=FLASHONLY|Rotation=225.000|XOffset=0mm|YOffset=0mm|HoleType=Round|Shape=RoundedRectangle|*
%AMROUNDEDRECTD78*
21,1,1.0000,0.7380,0,0,225.0*
21,1,0.9180,0.8200,0,0,225.0*
1,1,0.0820,-0.5855,-0.0636*
1,1,0.0820,0.0636,0.5855*
1,1,0.0820,0.5855,0.0636*
1,1,0.0820,-0.0636,-0.5855*
%
%ADD78ROUNDEDRECTD78*%
G36*
X568926Y1165830D02*
Y1140728D01*
X567752Y1140242D01*
X565301Y1142693D01*
X565316Y1143064D01*
X565748Y1144042D01*
X566091Y1144110D01*
X566720Y1144530D01*
X567140Y1145159D01*
X567287Y1145900D01*
Y1154600D01*
X567140Y1155341D01*
X566720Y1155970D01*
X566091Y1156390D01*
X565350Y1156537D01*
X558150D01*
X557409Y1156390D01*
X556780Y1155970D01*
X556360Y1155341D01*
X556213Y1154600D01*
Y1145900D01*
X556360Y1145159D01*
X556780Y1144530D01*
X557409Y1144110D01*
X558150Y1143963D01*
X558926D01*
Y1142250D01*
X558926Y1142250D01*
X559141Y1141169D01*
X559753Y1140253D01*
X561235Y1138771D01*
X560749Y1137598D01*
X559000D01*
Y1135000D01*
X563500D01*
Y1111000D01*
X559000D01*
Y1108402D01*
X562417D01*
X562943Y1107132D01*
X562253Y1106442D01*
X561641Y1105526D01*
X561426Y1104445D01*
X561426Y1104445D01*
Y1102037D01*
X560650D01*
X559909Y1101890D01*
X559280Y1101470D01*
X558860Y1100841D01*
X558713Y1100100D01*
Y1091400D01*
X558860Y1090659D01*
X559280Y1090030D01*
X559909Y1089610D01*
X560252Y1089542D01*
X560684Y1088564D01*
X560699Y1088193D01*
X549753Y1077247D01*
X549141Y1076331D01*
X548926Y1075250D01*
X548926Y1075250D01*
Y1034267D01*
X546534Y1031875D01*
X545361Y1032361D01*
Y1046065D01*
X545361Y1046065D01*
X545146Y1047146D01*
X544534Y1048062D01*
X544533Y1048062D01*
X517716Y1074880D01*
X516800Y1075492D01*
X515719Y1075707D01*
X515719Y1075707D01*
X509963D01*
X496593Y1089077D01*
X496802Y1089672D01*
X497216Y1090250D01*
X498995D01*
X500832Y1091011D01*
X502239Y1092418D01*
X503000Y1094255D01*
Y1096245D01*
X502239Y1098082D01*
X500832Y1099489D01*
X500824Y1099492D01*
Y1102963D01*
X501350D01*
X502091Y1103110D01*
X502720Y1103530D01*
X503032Y1103998D01*
X503656Y1103993D01*
X504302Y1103786D01*
Y1101160D01*
X504531Y1100009D01*
X505183Y1099033D01*
Y1097717D01*
X504531Y1096741D01*
X504302Y1095590D01*
Y1092270D01*
X511000D01*
Y1091000D01*
X512270D01*
Y1083402D01*
X514690D01*
X515841Y1083631D01*
X516817Y1084283D01*
X517412Y1085174D01*
X517952Y1085267D01*
X518768Y1085280D01*
X518933Y1085033D01*
X519565Y1084611D01*
X520310Y1084463D01*
X521676D01*
Y1080967D01*
X521169Y1079745D01*
Y1077755D01*
X521931Y1075918D01*
X523337Y1074511D01*
X525175Y1073750D01*
X527164D01*
X529002Y1074511D01*
X530408Y1075918D01*
X531169Y1077755D01*
Y1079745D01*
X530408Y1081582D01*
X529002Y1082989D01*
X528284Y1083286D01*
X528414Y1084607D01*
X528435Y1084611D01*
X529067Y1085033D01*
X529489Y1085665D01*
X529637Y1086410D01*
Y1095590D01*
X529489Y1096335D01*
X529067Y1096967D01*
X528435Y1097389D01*
X527690Y1097537D01*
X526824D01*
Y1099213D01*
X527690D01*
X528435Y1099361D01*
X529067Y1099783D01*
X529489Y1100415D01*
X529637Y1101160D01*
Y1108293D01*
X530989Y1109645D01*
X531435Y1109943D01*
X532977Y1111485D01*
X533163Y1111763D01*
X534384Y1112984D01*
X535654Y1112458D01*
Y1112100D01*
X535875Y1110992D01*
X536502Y1110052D01*
X537442Y1109425D01*
X538550Y1109204D01*
X539980D01*
Y1113000D01*
X542520D01*
Y1109204D01*
X543950D01*
X545058Y1109425D01*
X545149Y1109486D01*
X545284Y1109284D01*
X546260Y1108631D01*
X547412Y1108402D01*
X551500D01*
Y1111000D01*
X547000D01*
Y1135000D01*
X551500D01*
Y1137598D01*
X547412D01*
X546260Y1137369D01*
X545284Y1136716D01*
X544631Y1135740D01*
X544605Y1135605D01*
X543950Y1135735D01*
X541698D01*
X541250Y1135824D01*
X534920D01*
X533247Y1137497D01*
X532331Y1138109D01*
X531250Y1138324D01*
X531250Y1138324D01*
X530170D01*
X528287Y1140207D01*
Y1145350D01*
X528140Y1146091D01*
X527720Y1146720D01*
X527091Y1147140D01*
X526350Y1147287D01*
X517650D01*
X516909Y1147140D01*
X516280Y1146720D01*
X515860Y1146091D01*
X515713Y1145350D01*
Y1138324D01*
X505053D01*
X504739Y1139082D01*
X503332Y1140489D01*
X501495Y1141250D01*
X499505D01*
X497668Y1140489D01*
X496261Y1139082D01*
X495500Y1137245D01*
Y1135255D01*
X496134Y1133724D01*
X495618Y1132842D01*
X495335Y1132588D01*
X494885Y1132678D01*
X494884Y1132678D01*
X486893D01*
X486332Y1133239D01*
X484495Y1134000D01*
X483290D01*
X482764Y1135270D01*
X521420Y1173926D01*
X533965D01*
X534446Y1172656D01*
X533750Y1170975D01*
Y1169744D01*
X524293Y1160287D01*
X517650D01*
X516909Y1160140D01*
X516280Y1159720D01*
X515860Y1159091D01*
X515713Y1158350D01*
Y1151150D01*
X515860Y1150409D01*
X516280Y1149780D01*
X516909Y1149360D01*
X517650Y1149213D01*
X526350D01*
X527091Y1149360D01*
X527720Y1149780D01*
X528140Y1150409D01*
X528287Y1151150D01*
Y1156293D01*
X537203Y1165209D01*
X537755Y1164980D01*
X539745D01*
X539767Y1164989D01*
X545926Y1158830D01*
Y1156537D01*
X545150D01*
X544409Y1156390D01*
X543780Y1155970D01*
X543360Y1155341D01*
X543213Y1154600D01*
Y1145900D01*
X543360Y1145159D01*
X543780Y1144530D01*
X544409Y1144110D01*
X545150Y1143963D01*
X552350D01*
X553091Y1144110D01*
X553720Y1144530D01*
X554140Y1145159D01*
X554287Y1145900D01*
Y1154600D01*
X554140Y1155341D01*
X553720Y1155970D01*
X553091Y1156390D01*
X552350Y1156537D01*
X551574D01*
Y1160000D01*
X551359Y1161081D01*
X550747Y1161997D01*
X550747Y1161997D01*
X543750Y1168994D01*
Y1170975D01*
X543054Y1172656D01*
X543535Y1173926D01*
X560830D01*
X568926Y1165830D01*
D02*
G37*
G36*
X734676Y1016580D02*
Y919500D01*
X734676Y919500D01*
X734891Y918419D01*
X735503Y917503D01*
X736750Y916256D01*
Y727654D01*
X735577Y727168D01*
X718747Y743997D01*
X717831Y744609D01*
X716750Y744824D01*
X716750Y744824D01*
X708537D01*
Y745690D01*
X708389Y746435D01*
X707967Y747067D01*
X707720Y747232D01*
X707733Y748048D01*
X707826Y748588D01*
X708717Y749183D01*
X709369Y750159D01*
X709598Y751310D01*
Y753730D01*
X702000D01*
Y755000D01*
X700730D01*
Y761698D01*
X700428D01*
X699717Y762968D01*
X700250Y764255D01*
Y766245D01*
X699489Y768082D01*
X698082Y769489D01*
X696245Y770250D01*
X694255D01*
X692418Y769489D01*
X691011Y768082D01*
X690250Y766245D01*
Y764255D01*
X691011Y762418D01*
X691092Y762337D01*
X689293Y760537D01*
X685051D01*
X684565Y761711D01*
X687627Y764773D01*
X688239Y765689D01*
X688454Y766770D01*
Y787771D01*
X688454Y787771D01*
X688239Y788852D01*
X687627Y789768D01*
X687627Y789768D01*
X652831Y824564D01*
X653389Y825803D01*
X655070Y826499D01*
X656476Y827905D01*
X657238Y829743D01*
Y831732D01*
X656476Y833570D01*
X655070Y834976D01*
X654777Y835098D01*
Y838047D01*
X654777Y838048D01*
X654562Y839128D01*
X653949Y840045D01*
X643581Y850413D01*
X642665Y851025D01*
X641584Y851240D01*
X641584Y851240D01*
X636745D01*
X629374Y858611D01*
X629372Y858623D01*
X628759Y859539D01*
X628759Y859539D01*
X626632Y861667D01*
X626740Y862768D01*
X629088Y865116D01*
X624352Y869852D01*
X626148Y871648D01*
X630884Y866912D01*
X633232Y869260D01*
X633884Y870235D01*
X634113Y871386D01*
X633884Y872537D01*
X633232Y873513D01*
X634083Y874422D01*
X635059Y873770D01*
X636210Y873541D01*
X637361Y873770D01*
X638337Y874422D01*
X640684Y876770D01*
X635948Y881506D01*
X637744Y883302D01*
X642480Y878566D01*
X644828Y880913D01*
X645930Y881022D01*
X651551Y875401D01*
Y867010D01*
X651551Y867010D01*
X651766Y865929D01*
X652378Y865013D01*
X657435Y859956D01*
X658351Y859344D01*
X659432Y859129D01*
X659432Y859129D01*
X659713D01*
X661796Y857045D01*
X661793Y857038D01*
Y855048D01*
X662554Y853211D01*
X663961Y851804D01*
X665798Y851043D01*
X667787D01*
X669625Y851804D01*
X671032Y853211D01*
X671793Y855048D01*
Y857038D01*
X671032Y858875D01*
X669625Y860282D01*
X667787Y861043D01*
X665798D01*
X665790Y861040D01*
X662880Y863950D01*
X661963Y864563D01*
X660882Y864778D01*
X660882Y864778D01*
X660602D01*
X657199Y868180D01*
Y876570D01*
X657199Y876571D01*
X656984Y877651D01*
X656372Y878568D01*
X656372Y878568D01*
X641537Y893402D01*
Y899990D01*
X642770Y900691D01*
X642807Y900685D01*
X643517Y900544D01*
X643809Y900602D01*
X644376Y900016D01*
X644693Y899568D01*
X644484Y898517D01*
X644713Y897366D01*
X645365Y896391D01*
X647076Y894679D01*
X652448Y900052D01*
X657821Y905424D01*
X656109Y907135D01*
X655134Y907787D01*
X653983Y908016D01*
X652932Y907807D01*
X652484Y908124D01*
X651898Y908691D01*
X651956Y908983D01*
X651808Y909728D01*
X651386Y910360D01*
X646167Y915578D01*
X645536Y916000D01*
X644790Y916149D01*
X644045Y916000D01*
X643413Y915578D01*
X636922Y909087D01*
X636500Y908455D01*
X636352Y907710D01*
X636500Y906965D01*
X636922Y906333D01*
X637534Y905721D01*
X636716Y904902D01*
X636104Y903986D01*
X635889Y902905D01*
X635889Y902905D01*
Y895057D01*
X633438D01*
X629667Y898828D01*
X629035Y899250D01*
X628290Y899398D01*
X627545Y899250D01*
X626913Y898828D01*
X623165Y895079D01*
X613235Y905009D01*
X612319Y905621D01*
X611634Y905757D01*
X611598Y905844D01*
X610192Y907251D01*
X608354Y908012D01*
X606365D01*
X604527Y907251D01*
X603121Y905844D01*
X602360Y904006D01*
Y902017D01*
X603121Y900179D01*
X604527Y898773D01*
X606365Y898012D01*
X608354D01*
X610192Y898773D01*
X610837Y899418D01*
X619990Y890266D01*
X620000Y890215D01*
X620422Y889583D01*
X625640Y884364D01*
X626272Y883942D01*
X627017Y883794D01*
X627309Y883852D01*
X627876Y883266D01*
X628193Y882818D01*
X627984Y881767D01*
X628213Y880616D01*
X628865Y879641D01*
X628013Y878732D01*
X627037Y879384D01*
X625886Y879613D01*
X624836Y879404D01*
X624388Y879720D01*
X623802Y880287D01*
X623860Y880579D01*
X623712Y881324D01*
X623289Y881956D01*
X618071Y887174D01*
X617439Y887596D01*
X616694Y887745D01*
X615949Y887596D01*
X615317Y887174D01*
X613762Y885619D01*
X605832Y893549D01*
X604916Y894161D01*
X603835Y894376D01*
X603835Y894376D01*
X601349D01*
X600992Y895237D01*
X599585Y896644D01*
X597748Y897405D01*
X595759D01*
X593921Y896644D01*
X592514Y895237D01*
X591753Y893400D01*
Y891411D01*
X592514Y889573D01*
X593921Y888166D01*
X595759Y887405D01*
X597748D01*
X599585Y888166D01*
X600146Y888727D01*
X602665D01*
X609768Y881625D01*
X608826Y880683D01*
X608404Y880051D01*
X608255Y879306D01*
X608404Y878561D01*
X608826Y877929D01*
X612597Y874158D01*
Y868883D01*
X612597Y868883D01*
X612812Y867802D01*
X613424Y866886D01*
X624151Y856160D01*
X624153Y856147D01*
X624765Y855231D01*
X633578Y846419D01*
X634494Y845807D01*
X635575Y845592D01*
X635575Y845592D01*
X640414D01*
X649128Y836878D01*
Y834699D01*
X647999Y833570D01*
X647302Y831889D01*
X646064Y831331D01*
X577824Y899571D01*
Y900465D01*
X588497Y911138D01*
X588497Y911138D01*
X589109Y912054D01*
X589324Y913135D01*
X589324Y913135D01*
Y916926D01*
X589324Y916926D01*
X589109Y918007D01*
X588497Y918923D01*
X588497Y918923D01*
X568943Y938477D01*
X568027Y939089D01*
X566946Y939304D01*
X566946Y939304D01*
X565145D01*
X560912Y943537D01*
X559995Y944149D01*
X558915Y944364D01*
X558915Y944364D01*
X556133D01*
X555084Y945151D01*
Y947140D01*
X554323Y948978D01*
X552916Y950384D01*
X552908Y950387D01*
Y977454D01*
X553967Y978513D01*
X553967Y978513D01*
X554579Y979429D01*
X554794Y980510D01*
Y1011782D01*
X554794Y1011783D01*
X554579Y1012863D01*
X553967Y1013780D01*
X546831Y1020916D01*
Y1024184D01*
X553747Y1031100D01*
X553747Y1031100D01*
X554359Y1032016D01*
X554574Y1033097D01*
Y1074080D01*
X564670Y1084176D01*
X572750D01*
X573831Y1084391D01*
X574747Y1085003D01*
X575359Y1085919D01*
X575574Y1087000D01*
Y1092299D01*
X576486Y1092663D01*
X576844Y1092737D01*
X577409Y1092360D01*
X578150Y1092213D01*
X579676D01*
Y1086449D01*
X579168Y1086239D01*
X577761Y1084832D01*
X577000Y1082995D01*
Y1081005D01*
X577761Y1079168D01*
X579168Y1077761D01*
X581005Y1077000D01*
X582995D01*
X584832Y1077761D01*
X586239Y1079168D01*
X587000Y1081005D01*
Y1082995D01*
X586239Y1084832D01*
X585324Y1085747D01*
Y1092213D01*
X586850D01*
X587591Y1092360D01*
X588220Y1092780D01*
X588640Y1093409D01*
X588688Y1093653D01*
X589983D01*
X590131Y1092909D01*
X590783Y1091933D01*
X591759Y1091281D01*
X592910Y1091052D01*
X596230D01*
Y1097750D01*
X597500D01*
Y1099020D01*
X605098D01*
Y1101440D01*
X604869Y1102591D01*
X604217Y1103567D01*
X603326Y1104162D01*
X603233Y1104702D01*
X603220Y1105518D01*
X603467Y1105683D01*
X603889Y1106315D01*
X604037Y1107060D01*
Y1107926D01*
X643330D01*
X734676Y1016580D01*
D02*
G37*
G36*
X736750Y1074404D02*
X735577Y1073917D01*
X676497Y1132997D01*
X675581Y1133609D01*
X674500Y1133824D01*
X674500Y1133824D01*
X604037D01*
Y1134690D01*
X603889Y1135435D01*
X603467Y1136067D01*
X603220Y1136232D01*
X603233Y1137048D01*
X603326Y1137588D01*
X604217Y1138183D01*
X604869Y1139159D01*
X605098Y1140310D01*
Y1142730D01*
X597500D01*
Y1144000D01*
X596230D01*
Y1150698D01*
X592910D01*
X591759Y1150469D01*
X590783Y1149817D01*
X590131Y1148841D01*
X589983Y1148097D01*
X588688D01*
X588640Y1148341D01*
X588220Y1148970D01*
X587591Y1149390D01*
X586850Y1149537D01*
X586047D01*
X585628Y1150807D01*
X586739Y1151918D01*
X587500Y1153755D01*
Y1155745D01*
X586739Y1157582D01*
X585332Y1158989D01*
X583495Y1159750D01*
X581505D01*
X579668Y1158989D01*
X578261Y1157582D01*
X577500Y1155745D01*
Y1153755D01*
X578261Y1151918D01*
X579372Y1150807D01*
X578953Y1149537D01*
X578150D01*
X577409Y1149390D01*
X576780Y1148970D01*
X576360Y1148341D01*
X576213Y1147600D01*
Y1140400D01*
X576360Y1139659D01*
X576780Y1139030D01*
X577409Y1138610D01*
X578150Y1138463D01*
X586850D01*
X587591Y1138610D01*
X588220Y1139030D01*
X588640Y1139659D01*
X588688Y1139903D01*
X589983D01*
X590131Y1139159D01*
X590783Y1138183D01*
X591674Y1137588D01*
X591767Y1137048D01*
X591780Y1136232D01*
X591533Y1136067D01*
X591111Y1135435D01*
X590963Y1134690D01*
Y1133824D01*
X588787D01*
Y1134600D01*
X588640Y1135341D01*
X588220Y1135970D01*
X587591Y1136390D01*
X586850Y1136537D01*
X578150D01*
X577409Y1136390D01*
X576780Y1135970D01*
X576360Y1135341D01*
X576213Y1134600D01*
Y1129457D01*
X575055Y1128299D01*
X573785Y1128825D01*
Y1128900D01*
X573646Y1129602D01*
X573248Y1130198D01*
Y1130802D01*
X573646Y1131398D01*
X573785Y1132100D01*
Y1132974D01*
X573804Y1133070D01*
X573804Y1133070D01*
Y1133588D01*
X574359Y1134419D01*
X574574Y1135500D01*
Y1167000D01*
X574359Y1168081D01*
X573747Y1168997D01*
X573747Y1168997D01*
X564741Y1178003D01*
X564741Y1178003D01*
X563997Y1178747D01*
X563997Y1178747D01*
X563081Y1179359D01*
X562000Y1179574D01*
X562000Y1179574D01*
X520250D01*
X520250Y1179574D01*
X519169Y1179359D01*
X518253Y1178747D01*
X518253Y1178747D01*
X474733Y1135227D01*
X474121Y1134311D01*
X473906Y1133230D01*
X473906Y1133230D01*
Y1119662D01*
X473906Y1119662D01*
X474121Y1118581D01*
X474426Y1118125D01*
Y1104426D01*
X474426Y1104426D01*
X474641Y1103345D01*
X475253Y1102429D01*
X506796Y1070886D01*
X506796Y1070886D01*
X507712Y1070274D01*
X508793Y1070059D01*
X508793Y1070059D01*
X514549D01*
X535184Y1049423D01*
X534623Y1048188D01*
X532934Y1047489D01*
X531528Y1046082D01*
X530766Y1044245D01*
Y1042255D01*
X530770Y1042247D01*
X526062Y1037540D01*
X525450Y1036624D01*
X525280Y1035769D01*
X439173Y949662D01*
X438561Y948745D01*
X438346Y947665D01*
X438346Y947665D01*
Y940302D01*
X430344Y932300D01*
X428898Y932651D01*
X428409Y933832D01*
X427003Y935239D01*
X425165Y936000D01*
X423176D01*
X421338Y935239D01*
X419931Y933832D01*
X419928Y933824D01*
X336390D01*
X335309Y933609D01*
X334393Y932997D01*
X334393Y932997D01*
X277483Y876087D01*
X276871Y875171D01*
X276656Y874090D01*
X276656Y874090D01*
Y838401D01*
X276648Y838398D01*
X275241Y836992D01*
X274480Y835154D01*
Y833165D01*
X275241Y831327D01*
X276648Y829921D01*
X278485Y829159D01*
X280474D01*
X282312Y829921D01*
X283719Y831327D01*
X284480Y833165D01*
Y835154D01*
X283719Y836992D01*
X282312Y838398D01*
X282304Y838401D01*
Y872920D01*
X314690Y905306D01*
X316110Y905073D01*
X316423Y904661D01*
X316464Y904350D01*
X316487Y904310D01*
X316478Y904266D01*
X316535Y903957D01*
X316560Y903919D01*
X316552Y903874D01*
X316626Y903568D01*
X316653Y903531D01*
X316648Y903486D01*
X316737Y903185D01*
X316766Y903149D01*
X316763Y903104D01*
X316868Y902808D01*
X316898Y902774D01*
Y902729D01*
X317019Y902438D01*
X317051Y902406D01*
X317053Y902361D01*
X317189Y902077D01*
X317222Y902047D01*
X317227Y902001D01*
X317377Y901725D01*
X317412Y901697D01*
X317419Y901652D01*
X317584Y901384D01*
X317621Y901357D01*
X317630Y901312D01*
X317808Y901054D01*
X317846Y901029D01*
X317858Y900985D01*
X318049Y900736D01*
X318088Y900713D01*
X318103Y900670D01*
X318307Y900431D01*
X318347Y900410D01*
X318363Y900368D01*
X318580Y900140D01*
X318621Y900121D01*
X318640Y900080D01*
X318868Y899863D01*
X318910Y899847D01*
X318931Y899807D01*
X319170Y899603D01*
X319230Y899463D01*
X319172Y898545D01*
X318980Y898161D01*
X318565Y897989D01*
X317158Y896582D01*
X316397Y894745D01*
Y892755D01*
X317158Y890918D01*
X318565Y889511D01*
X320402Y888750D01*
X322392D01*
X324229Y889511D01*
X324388Y889670D01*
X325288Y889653D01*
X325903Y889442D01*
X326126Y889000D01*
Y886500D01*
X326135Y886479D01*
X326127Y886457D01*
X326133Y886235D01*
X326151Y886193D01*
X326137Y886150D01*
X326155Y885928D01*
X326175Y885888D01*
X326164Y885844D01*
X326193Y885623D01*
X326215Y885584D01*
X326206Y885539D01*
X326246Y885320D01*
X326271Y885282D01*
X326264Y885237D01*
X326316Y885021D01*
X326343Y884984D01*
X326338Y884939D01*
X326401Y884726D01*
X326430Y884690D01*
X326428Y884645D01*
X326502Y884435D01*
X326532Y884401D01*
Y884356D01*
X326617Y884150D01*
X326650Y884118D01*
X326652Y884072D01*
X326748Y883872D01*
X326782Y883841D01*
X326786Y883796D01*
X326893Y883600D01*
X326928Y883572D01*
X326935Y883527D01*
X327051Y883337D01*
X327088Y883310D01*
X327098Y883266D01*
X327224Y883082D01*
X327262Y883057D01*
X327274Y883014D01*
X327409Y882837D01*
X327449Y882814D01*
X327463Y882771D01*
X327607Y882602D01*
X327648Y882581D01*
X327664Y882539D01*
X327817Y882377D01*
X327859Y882359D01*
X327877Y882317D01*
X328039Y882164D01*
X328081Y882148D01*
X328102Y882107D01*
X328271Y881963D01*
X328314Y881948D01*
X328337Y881909D01*
X328513Y881774D01*
X328558Y881762D01*
X328582Y881724D01*
X328766Y881598D01*
X328810Y881588D01*
X328837Y881551D01*
X329027Y881435D01*
X329072Y881428D01*
X329100Y881393D01*
X329296Y881286D01*
X329341Y881282D01*
X329372Y881248D01*
X329572Y881152D01*
X329618Y881150D01*
X329650Y881117D01*
X329856Y881032D01*
X329901D01*
X329935Y881002D01*
X330145Y880928D01*
X330190Y880930D01*
X330226Y880901D01*
X330439Y880838D01*
X330484Y880843D01*
X330521Y880816D01*
X330737Y880764D01*
X330782Y880771D01*
X330821Y880746D01*
X331039Y880706D01*
X331084Y880715D01*
X331123Y880693D01*
X331344Y880664D01*
X331388Y880675D01*
X331428Y880655D01*
X331650Y880637D01*
X331693Y880651D01*
X331735Y880633D01*
X331958Y880627D01*
X332000Y880643D01*
X332042Y880627D01*
X332265Y880633D01*
X332307Y880651D01*
X332350Y880637D01*
X332572Y880655D01*
X332612Y880675D01*
X332656Y880664D01*
X332877Y880693D01*
X332916Y880715D01*
X332961Y880706D01*
X333179Y880746D01*
X333218Y880771D01*
X333263Y880764D01*
X333479Y880816D01*
X333516Y880843D01*
X333561Y880838D01*
X333774Y880901D01*
X333810Y880930D01*
X333856Y880928D01*
X334065Y881002D01*
X334099Y881032D01*
X334144D01*
X334350Y881117D01*
X334382Y881150D01*
X334427Y881152D01*
X334628Y881248D01*
X334659Y881282D01*
X334704Y881286D01*
X334900Y881393D01*
X334928Y881428D01*
X334973Y881435D01*
X335163Y881551D01*
X335190Y881588D01*
X335234Y881598D01*
X335418Y881724D01*
X335443Y881762D01*
X335486Y881774D01*
X335663Y881909D01*
X335686Y881948D01*
X335729Y881963D01*
X335898Y882107D01*
X335919Y882148D01*
X335961Y882164D01*
X336123Y882317D01*
X336141Y882359D01*
X336183Y882377D01*
X336336Y882539D01*
X336352Y882581D01*
X336393Y882602D01*
X336538Y882771D01*
X336552Y882814D01*
X336591Y882837D01*
X336726Y883014D01*
X336738Y883057D01*
X336776Y883082D01*
X336902Y883266D01*
X336912Y883310D01*
X336949Y883337D01*
X337065Y883527D01*
X337072Y883572D01*
X337108Y883600D01*
X337214Y883796D01*
X337218Y883841D01*
X337252Y883872D01*
X337348Y884072D01*
X337350Y884118D01*
X337383Y884150D01*
X337468Y884356D01*
Y884401D01*
X337498Y884435D01*
X337572Y884644D01*
X337570Y884690D01*
X337599Y884726D01*
X337662Y884939D01*
X337657Y884984D01*
X337684Y885021D01*
X337736Y885237D01*
X337729Y885282D01*
X337754Y885321D01*
X337794Y885539D01*
X337785Y885584D01*
X337807Y885623D01*
X337836Y885844D01*
X337825Y885888D01*
X337845Y885928D01*
X337863Y886150D01*
X337849Y886193D01*
X337867Y886235D01*
X337873Y886458D01*
X337865Y886479D01*
X337874Y886500D01*
Y889000D01*
X337865Y889021D01*
X337873Y889042D01*
X337867Y889265D01*
X337849Y889306D01*
X337863Y889350D01*
X337845Y889572D01*
X337825Y889612D01*
X337836Y889656D01*
X337807Y889877D01*
X337785Y889916D01*
X337794Y889961D01*
X337754Y890179D01*
X337729Y890218D01*
X337736Y890263D01*
X337684Y890479D01*
X337657Y890516D01*
X337662Y890561D01*
X337599Y890774D01*
X337570Y890810D01*
X337572Y890855D01*
X337498Y891065D01*
X337468Y891099D01*
Y891144D01*
X337383Y891350D01*
X337350Y891382D01*
X337348Y891428D01*
X337252Y891628D01*
X337218Y891659D01*
X337214Y891704D01*
X337107Y891900D01*
X337072Y891928D01*
X337065Y891973D01*
X336949Y892163D01*
X336912Y892190D01*
X336902Y892234D01*
X336776Y892418D01*
X336738Y892443D01*
X336726Y892486D01*
X336591Y892663D01*
X336552Y892686D01*
X336538Y892729D01*
X336393Y892898D01*
X336352Y892919D01*
X336336Y892961D01*
X336183Y893123D01*
X336141Y893141D01*
X336123Y893183D01*
X335961Y893336D01*
X335919Y893352D01*
X335898Y893393D01*
X335729Y893538D01*
X335686Y893551D01*
X335663Y893591D01*
X335486Y893726D01*
X335443Y893738D01*
X335418Y893776D01*
X335234Y893902D01*
X335190Y893912D01*
X335163Y893949D01*
X334973Y894065D01*
X334928Y894072D01*
X334900Y894108D01*
X334704Y894214D01*
X334659Y894218D01*
X334628Y894252D01*
X334427Y894348D01*
X334382Y894350D01*
X334350Y894383D01*
X334144Y894468D01*
X334099D01*
X334065Y894498D01*
X333856Y894572D01*
X333810Y894570D01*
X333774Y894599D01*
X333561Y894662D01*
X333516Y894657D01*
X333479Y894684D01*
X333263Y894736D01*
X333218Y894729D01*
X333179Y894754D01*
X332961Y894794D01*
X332916Y894785D01*
X332877Y894807D01*
X332656Y894836D01*
X332612Y894825D01*
X332572Y894845D01*
X332350Y894863D01*
X332307Y894849D01*
X332265Y894867D01*
X332042Y894873D01*
X332000Y894857D01*
X331958Y894873D01*
X331735Y894867D01*
X331693Y894849D01*
X331650Y894863D01*
X331428Y894845D01*
X331388Y894825D01*
X331344Y894836D01*
X331123Y894807D01*
X331084Y894785D01*
X331039Y894794D01*
X330821Y894754D01*
X330782Y894729D01*
X330737Y894736D01*
X330521Y894684D01*
X330484Y894657D01*
X330439Y894662D01*
X330226Y894599D01*
X330190Y894570D01*
X330145Y894572D01*
X329935Y894498D01*
X329901Y894468D01*
X329856D01*
X329650Y894383D01*
X329618Y894350D01*
X329572Y894348D01*
X329372Y894252D01*
X329341Y894218D01*
X329296Y894214D01*
X329100Y894107D01*
X329072Y894072D01*
X329027Y894065D01*
X328837Y893949D01*
X328810Y893912D01*
X328766Y893902D01*
X328582Y893776D01*
X328558Y893738D01*
X328513Y893726D01*
X328337Y893591D01*
X328314Y893551D01*
X328271Y893538D01*
X328102Y893393D01*
X326901Y893313D01*
X326397Y893623D01*
Y894745D01*
X325636Y896582D01*
X325515Y896703D01*
X326001Y897876D01*
X336000D01*
X336021Y897885D01*
X336043Y897877D01*
X336357Y897885D01*
X336398Y897904D01*
X336441Y897890D01*
X336754Y897914D01*
X336795Y897935D01*
X336839Y897923D01*
X337150Y897964D01*
X337190Y897987D01*
X337234Y897978D01*
X337543Y898035D01*
X337581Y898059D01*
X337626Y898052D01*
X337932Y898126D01*
X337969Y898152D01*
X338014Y898148D01*
X338315Y898237D01*
X338351Y898266D01*
X338396Y898263D01*
X338692Y898368D01*
X338726Y898399D01*
X338771D01*
X339062Y898519D01*
X339094Y898551D01*
X339139Y898553D01*
X339423Y898689D01*
X339453Y898722D01*
X339499Y898727D01*
X339775Y898877D01*
X339803Y898912D01*
X339848Y898920D01*
X340116Y899084D01*
X340143Y899120D01*
X340187Y899130D01*
X340446Y899308D01*
X340471Y899346D01*
X340515Y899358D01*
X340764Y899549D01*
X340787Y899588D01*
X340830Y899603D01*
X341069Y899807D01*
X341090Y899847D01*
X341132Y899863D01*
X341360Y900080D01*
X341379Y900121D01*
X341420Y900140D01*
X341637Y900368D01*
X341653Y900410D01*
X341693Y900431D01*
X341897Y900670D01*
X341912Y900713D01*
X341951Y900736D01*
X342142Y900985D01*
X342154Y901029D01*
X342192Y901054D01*
X342370Y901312D01*
X342379Y901357D01*
X342416Y901384D01*
X342580Y901652D01*
X342588Y901697D01*
X342623Y901725D01*
X342773Y902001D01*
X342778Y902047D01*
X342811Y902077D01*
X342947Y902361D01*
X342949Y902406D01*
X342981Y902438D01*
X343102Y902729D01*
Y902774D01*
X343132Y902808D01*
X343237Y903104D01*
X343234Y903149D01*
X343263Y903185D01*
X343352Y903486D01*
X343348Y903531D01*
X343374Y903568D01*
X343448Y903874D01*
X343441Y903919D01*
X343465Y903957D01*
X343522Y904266D01*
X343513Y904310D01*
X343536Y904350D01*
X343577Y904661D01*
X343565Y904705D01*
X343586Y904745D01*
X343610Y905059D01*
X343596Y905102D01*
X343615Y905144D01*
X343623Y905457D01*
X343607Y905500D01*
X343623Y905543D01*
X343615Y905857D01*
X343596Y905898D01*
X343610Y905941D01*
X343586Y906255D01*
X343565Y906295D01*
X343577Y906339D01*
X343536Y906650D01*
X343513Y906690D01*
X343522Y906734D01*
X343465Y907043D01*
X343441Y907082D01*
X343448Y907126D01*
X343374Y907432D01*
X343348Y907469D01*
X343352Y907514D01*
X343263Y907815D01*
X343234Y907851D01*
X343237Y907896D01*
X343132Y908192D01*
X343102Y908226D01*
Y908271D01*
X342981Y908562D01*
X342949Y908594D01*
X342947Y908640D01*
X342811Y908923D01*
X342778Y908953D01*
X342773Y908999D01*
X342623Y909275D01*
X342588Y909303D01*
X342580Y909348D01*
X342416Y909616D01*
X342379Y909643D01*
X342370Y909688D01*
X342192Y909946D01*
X342154Y909971D01*
X342142Y910015D01*
X341951Y910264D01*
X341912Y910287D01*
X341897Y910330D01*
X341693Y910569D01*
X341653Y910590D01*
X341637Y910632D01*
X341420Y910860D01*
X341379Y910879D01*
X341360Y910920D01*
X341132Y911137D01*
X341090Y911153D01*
X341069Y911193D01*
X340830Y911397D01*
X340787Y911412D01*
X340764Y911451D01*
X340515Y911642D01*
X340471Y911654D01*
X340446Y911692D01*
X340187Y911870D01*
X340143Y911880D01*
X340116Y911916D01*
X339848Y912081D01*
X339803Y912088D01*
X339775Y912123D01*
X339499Y912273D01*
X339453Y912278D01*
X339423Y912311D01*
X339140Y912447D01*
X339094Y912449D01*
X339062Y912481D01*
X338771Y912601D01*
X338726D01*
X338692Y912632D01*
X338396Y912737D01*
X338351Y912734D01*
X338315Y912763D01*
X338014Y912852D01*
X337969Y912848D01*
X337932Y912874D01*
X337626Y912948D01*
X337581Y912941D01*
X337543Y912965D01*
X337234Y913023D01*
X337190Y913013D01*
X337150Y913036D01*
X336839Y913077D01*
X336795Y913065D01*
X336754Y913086D01*
X336441Y913110D01*
X336398Y913096D01*
X336357Y913115D01*
X336043Y913123D01*
X336021Y913115D01*
X336000Y913124D01*
X324304D01*
X323849Y913864D01*
X323773Y914389D01*
X337560Y928176D01*
X419928D01*
X419931Y928168D01*
X421338Y926761D01*
X422519Y926272D01*
X422870Y924827D01*
X408753Y910710D01*
X408141Y909793D01*
X407926Y908712D01*
X407926Y908712D01*
Y812750D01*
X407926Y812750D01*
X408141Y811669D01*
X408753Y810753D01*
X423483Y796023D01*
X423483Y796023D01*
X424399Y795411D01*
X425480Y795196D01*
X425480Y795196D01*
X555215D01*
X555696Y793926D01*
X555000Y792245D01*
Y790255D01*
X555512Y789020D01*
X555307Y788003D01*
X554839Y787578D01*
X553418Y786989D01*
X552011Y785582D01*
X551250Y783745D01*
Y781755D01*
X552011Y779918D01*
X553418Y778511D01*
X555255Y777750D01*
X557245D01*
X559082Y778511D01*
X559643Y779072D01*
X560432D01*
X561847Y777657D01*
X561320Y776387D01*
X553910D01*
X553165Y776239D01*
X552701Y775929D01*
X549796D01*
Y785888D01*
X549613Y786809D01*
X549091Y787591D01*
X548309Y788113D01*
X547388Y788296D01*
X537612D01*
X536691Y788113D01*
X535909Y787591D01*
X535387Y786809D01*
X535204Y785888D01*
Y770113D01*
X535387Y769191D01*
X535909Y768409D01*
X536691Y767887D01*
X537612Y767704D01*
X547388D01*
X548309Y767887D01*
X549091Y768409D01*
X549613Y769191D01*
X549796Y770113D01*
Y770281D01*
X550990D01*
X551517Y769011D01*
X542543Y760037D01*
X540650D01*
X539909Y759890D01*
X539280Y759470D01*
X538860Y758841D01*
X538713Y758100D01*
Y749400D01*
X538860Y748659D01*
X539280Y748030D01*
X539909Y747610D01*
X540198Y747553D01*
Y746258D01*
X539503Y746119D01*
X538530Y745470D01*
X537881Y744497D01*
X537857Y744381D01*
X537161Y744215D01*
X536536Y744247D01*
X536220Y744720D01*
X535591Y745140D01*
X534850Y745287D01*
X534074D01*
Y747463D01*
X534850D01*
X535591Y747610D01*
X536220Y748030D01*
X536640Y748659D01*
X536787Y749400D01*
Y758100D01*
X536640Y758841D01*
X536220Y759470D01*
X535591Y759890D01*
X534850Y760037D01*
X527650D01*
X526909Y759890D01*
X526280Y759470D01*
X525860Y758841D01*
X525713Y758100D01*
Y755837D01*
X521508D01*
Y756625D01*
X521277Y757786D01*
X520620Y758770D01*
X519636Y759427D01*
X518475Y759658D01*
X515525D01*
X514364Y759427D01*
X513380Y758770D01*
X512112Y759157D01*
X511870Y759520D01*
X510542Y760407D01*
X508975Y760719D01*
X508770D01*
Y752050D01*
Y743381D01*
X508975D01*
X510542Y743693D01*
X511870Y744580D01*
X512112Y744943D01*
X513380Y745330D01*
X514364Y744673D01*
X515525Y744442D01*
X518475D01*
X519636Y744673D01*
X520620Y745330D01*
X521277Y746314D01*
X521508Y747475D01*
Y750188D01*
X525713D01*
Y749400D01*
X525860Y748659D01*
X526280Y748030D01*
X526909Y747610D01*
X527650Y747463D01*
X528426D01*
Y745287D01*
X527650D01*
X526909Y745140D01*
X526280Y744720D01*
X525860Y744091D01*
X525713Y743350D01*
Y734650D01*
X525860Y733909D01*
X526280Y733280D01*
X526909Y732860D01*
X527650Y732713D01*
X534850D01*
X535591Y732860D01*
X536220Y733280D01*
X536536Y733753D01*
X537161Y733785D01*
X537857Y733619D01*
X537881Y733503D01*
X538530Y732530D01*
X539503Y731881D01*
X540650Y731652D01*
X542980D01*
Y739000D01*
X544250D01*
Y740270D01*
X550848D01*
Y743350D01*
X550619Y744497D01*
X549970Y745470D01*
X548997Y746119D01*
X548302Y746258D01*
Y747553D01*
X548591Y747610D01*
X549220Y748030D01*
X549640Y748659D01*
X549787Y749400D01*
Y753156D01*
X551057Y753281D01*
X551131Y752909D01*
X551783Y751933D01*
X552759Y751281D01*
X553910Y751052D01*
X557230D01*
Y757750D01*
X559770D01*
Y751052D01*
X563090D01*
X564241Y751281D01*
X565217Y751933D01*
X566533D01*
X567509Y751281D01*
X568660Y751052D01*
X571980D01*
Y757750D01*
X574520D01*
Y751052D01*
X577840D01*
X578991Y751281D01*
X579967Y751933D01*
X580156Y752216D01*
X581426Y751831D01*
Y717920D01*
X571606Y708100D01*
X571245Y708250D01*
X569255D01*
X567418Y707489D01*
X566011Y706082D01*
X565250Y704245D01*
Y702255D01*
X566011Y700418D01*
X567418Y699011D01*
X569255Y698250D01*
X571245D01*
X573082Y699011D01*
X574489Y700418D01*
X575250Y702255D01*
Y703756D01*
X586247Y714753D01*
X586859Y715669D01*
X587074Y716750D01*
X587074Y716750D01*
Y725135D01*
X588344Y725662D01*
X592213Y721793D01*
Y716650D01*
X592360Y715909D01*
X592780Y715280D01*
X593409Y714860D01*
X594150Y714713D01*
X602850D01*
X603591Y714860D01*
X604220Y715280D01*
X604640Y715909D01*
X604787Y716650D01*
X606052Y716638D01*
Y712660D01*
X606281Y711509D01*
X606933Y710533D01*
X606962Y710514D01*
Y708986D01*
X606933Y708967D01*
X606281Y707991D01*
X606052Y706840D01*
Y703520D01*
X612750D01*
Y702250D01*
X614020D01*
Y694652D01*
X616440D01*
X617591Y694881D01*
X618567Y695533D01*
X619162Y696424D01*
X619702Y696517D01*
X620518Y696530D01*
X620683Y696283D01*
X621315Y695861D01*
X622060Y695713D01*
X622522D01*
X622758Y694443D01*
X621816Y693500D01*
X621005D01*
X619168Y692739D01*
X617761Y691332D01*
X617758Y691324D01*
X549316D01*
X548894Y691747D01*
X547977Y692359D01*
X546897Y692574D01*
X546896Y692574D01*
X474250D01*
X474250Y692574D01*
X473169Y692359D01*
X472253Y691747D01*
X472253Y691747D01*
X446660Y666154D01*
X441808D01*
X441322Y667328D01*
X449247Y675253D01*
X449859Y676169D01*
X450074Y677250D01*
X450074Y677250D01*
Y718080D01*
X451017Y719023D01*
X451077Y719113D01*
X457340D01*
X458085Y719261D01*
X458717Y719683D01*
X459139Y720315D01*
X459287Y721060D01*
Y721926D01*
X461213D01*
Y721060D01*
X461361Y720315D01*
X461783Y719683D01*
X462415Y719261D01*
X463160Y719113D01*
X472340D01*
X473085Y719261D01*
X473717Y719683D01*
X474139Y720315D01*
X474287Y721060D01*
Y721926D01*
X476213D01*
Y721060D01*
X476361Y720315D01*
X476783Y719683D01*
X477415Y719261D01*
X478160Y719113D01*
X484423D01*
X484483Y719023D01*
X493181Y710325D01*
X494097Y709713D01*
X495178Y709498D01*
X495963Y708611D01*
Y706400D01*
X496110Y705659D01*
X496530Y705030D01*
X497159Y704610D01*
X497900Y704463D01*
X505100D01*
X505841Y704610D01*
X506470Y705030D01*
X506890Y705659D01*
X507037Y706400D01*
Y715100D01*
X506890Y715841D01*
X506470Y716470D01*
X505841Y716890D01*
X505100Y717037D01*
X497900D01*
X497159Y716890D01*
X496530Y716470D01*
X495037Y716458D01*
X490742Y720752D01*
X491228Y721926D01*
X493581D01*
X493723Y721214D01*
X494380Y720230D01*
X495364Y719573D01*
X496525Y719342D01*
X499475D01*
X500636Y719573D01*
X501620Y720230D01*
X502277Y721214D01*
X502508Y722375D01*
Y731525D01*
X502277Y732686D01*
X501620Y733670D01*
X500636Y734327D01*
X499475Y734558D01*
X496525D01*
X495364Y734327D01*
X494380Y733670D01*
X493723Y732686D01*
X493492Y731525D01*
Y727574D01*
X489287D01*
Y728440D01*
X489139Y729185D01*
X488717Y729817D01*
X488470Y729982D01*
X488483Y730798D01*
X488576Y731338D01*
X489467Y731933D01*
X490119Y732909D01*
X490348Y734060D01*
Y736480D01*
X482750D01*
Y737750D01*
X481480D01*
Y744448D01*
X478160D01*
X477009Y744219D01*
X476033Y743567D01*
X476014Y743538D01*
X474486D01*
X474467Y743567D01*
X473491Y744219D01*
X472340Y744448D01*
X469020D01*
Y737750D01*
X466480D01*
Y744448D01*
X463160D01*
X462009Y744219D01*
X461033Y743567D01*
X461014Y743538D01*
X459486D01*
X459467Y743567D01*
X458491Y744219D01*
X457340Y744448D01*
X454020D01*
Y737750D01*
X452750D01*
Y736480D01*
X445152D01*
Y734060D01*
X445381Y732909D01*
X446033Y731933D01*
X446924Y731338D01*
X447017Y730798D01*
X447030Y729982D01*
X446783Y729817D01*
X446361Y729185D01*
X446213Y728440D01*
Y722207D01*
X445253Y721247D01*
X444641Y720331D01*
X444426Y719250D01*
X444426Y719250D01*
Y678420D01*
X439498Y673492D01*
X438324Y673978D01*
Y683074D01*
X438109Y684155D01*
X437497Y685071D01*
X437497Y685071D01*
X435821Y686747D01*
X434905Y687359D01*
X433824Y687574D01*
X433824Y687574D01*
X427959D01*
X427466Y688311D01*
X424411Y691367D01*
X423494Y691979D01*
X422414Y692194D01*
X422413Y692194D01*
X411269D01*
X410797Y693464D01*
X411500Y695161D01*
Y697150D01*
X410739Y698988D01*
X409332Y700395D01*
X409324Y700398D01*
Y721511D01*
X409324Y721511D01*
X409109Y722592D01*
X408497Y723508D01*
X408497Y723508D01*
X372541Y759464D01*
Y768791D01*
X363954D01*
X363860Y769265D01*
X363248Y770182D01*
X363247Y770182D01*
X359662Y773767D01*
X358746Y774379D01*
X357665Y774594D01*
X357665Y774594D01*
X296270D01*
X295189Y774379D01*
X294733Y774074D01*
X278980D01*
X268000Y785054D01*
X268015Y785805D01*
X269169Y786264D01*
X269273Y786256D01*
X269286Y786226D01*
X269533Y785992D01*
X269576Y785975D01*
X269596Y785935D01*
X269855Y785714D01*
X269898Y785700D01*
X269921Y785660D01*
X270191Y785453D01*
X270235Y785442D01*
X270260Y785403D01*
X270540Y785211D01*
X270585Y785201D01*
X270611Y785164D01*
X270902Y784986D01*
X270947Y784979D01*
X270975Y784944D01*
X271274Y784782D01*
X271320Y784777D01*
X271350Y784743D01*
X271657Y784596D01*
X271703Y784594D01*
X271735Y784562D01*
X272049Y784432D01*
X272095D01*
X272129Y784401D01*
X272449Y784288D01*
X272495Y784290D01*
X272530Y784261D01*
X272857Y784165D01*
X272902Y784169D01*
X272939Y784143D01*
X273270Y784063D01*
X273315Y784070D01*
X273353Y784046D01*
X273687Y783984D01*
X273732Y783993D01*
X273771Y783970D01*
X274109Y783926D01*
X274153Y783938D01*
X274193Y783917D01*
X274533Y783890D01*
X274576Y783904D01*
X274617Y783886D01*
X274958Y783877D01*
X274979Y783885D01*
X275000Y783876D01*
X288000D01*
X288021Y783885D01*
X288043Y783877D01*
X288383Y783886D01*
X288424Y783904D01*
X288468Y783890D01*
X288807Y783917D01*
X288847Y783938D01*
X288891Y783926D01*
X289229Y783970D01*
X289268Y783993D01*
X289313Y783984D01*
X289647Y784046D01*
X289685Y784070D01*
X289730Y784063D01*
X290061Y784143D01*
X290098Y784169D01*
X290143Y784165D01*
X290470Y784261D01*
X290505Y784290D01*
X290551Y784288D01*
X290871Y784401D01*
X290905Y784432D01*
X290951D01*
X291265Y784562D01*
X291297Y784594D01*
X291343Y784597D01*
X291650Y784743D01*
X291680Y784777D01*
X291726Y784782D01*
X292025Y784944D01*
X292053Y784979D01*
X292098Y784986D01*
X292388Y785164D01*
X292415Y785201D01*
X292460Y785211D01*
X292740Y785403D01*
X292765Y785442D01*
X292809Y785453D01*
X293079Y785660D01*
X293102Y785700D01*
X293145Y785714D01*
X293404Y785935D01*
X293424Y785975D01*
X293467Y785992D01*
X293714Y786226D01*
X293732Y786268D01*
X293774Y786286D01*
X294008Y786533D01*
X294024Y786575D01*
X294065Y786596D01*
X294286Y786855D01*
X294300Y786898D01*
X294340Y786921D01*
X294547Y787191D01*
X294559Y787235D01*
X294597Y787260D01*
X294789Y787540D01*
X294799Y787585D01*
X294836Y787612D01*
X295014Y787902D01*
X295019Y787936D01*
X298759Y791676D01*
X316920D01*
X317019Y791438D01*
X317051Y791406D01*
X317053Y791360D01*
X317189Y791077D01*
X317222Y791047D01*
X317227Y791001D01*
X317377Y790725D01*
X317412Y790697D01*
X317419Y790652D01*
X317584Y790384D01*
X317621Y790357D01*
X317630Y790312D01*
X317808Y790054D01*
X317846Y790029D01*
X317858Y789985D01*
X318049Y789736D01*
X318088Y789713D01*
X318103Y789670D01*
X318307Y789431D01*
X318347Y789410D01*
X318363Y789368D01*
X318580Y789140D01*
X318621Y789121D01*
X318640Y789080D01*
X318868Y788863D01*
X318910Y788847D01*
X318931Y788807D01*
X319170Y788603D01*
X319213Y788588D01*
X319236Y788549D01*
X319485Y788358D01*
X319529Y788346D01*
X319554Y788308D01*
X319813Y788130D01*
X319857Y788120D01*
X319884Y788084D01*
X320152Y787919D01*
X320197Y787912D01*
X320225Y787877D01*
X320501Y787727D01*
X320547Y787722D01*
X320577Y787689D01*
X320860Y787553D01*
X320906Y787551D01*
X320938Y787519D01*
X321229Y787399D01*
X321274D01*
X321308Y787368D01*
X321604Y787263D01*
X321649Y787266D01*
X321685Y787237D01*
X321986Y787148D01*
X322031Y787152D01*
X322068Y787126D01*
X322374Y787052D01*
X322419Y787059D01*
X322457Y787035D01*
X322766Y786977D01*
X322810Y786987D01*
X322850Y786964D01*
X323161Y786923D01*
X323205Y786935D01*
X323246Y786914D01*
X323559Y786890D01*
X323602Y786904D01*
X323643Y786885D01*
X323957Y786877D01*
X323979Y786885D01*
X324000Y786876D01*
X336000D01*
X336021Y786885D01*
X336043Y786877D01*
X336357Y786885D01*
X336398Y786904D01*
X336441Y786890D01*
X336754Y786914D01*
X336795Y786935D01*
X336839Y786923D01*
X337150Y786964D01*
X337190Y786987D01*
X337234Y786977D01*
X337543Y787035D01*
X337581Y787059D01*
X337626Y787052D01*
X337932Y787126D01*
X337969Y787152D01*
X338014Y787148D01*
X338315Y787237D01*
X338351Y787266D01*
X338396Y787263D01*
X338692Y787368D01*
X338726Y787399D01*
X338771D01*
X339062Y787519D01*
X339094Y787551D01*
X339140Y787553D01*
X339423Y787689D01*
X339453Y787722D01*
X339499Y787727D01*
X339775Y787877D01*
X339803Y787912D01*
X339848Y787919D01*
X340116Y788084D01*
X340143Y788120D01*
X340187Y788130D01*
X340446Y788308D01*
X340471Y788346D01*
X340515Y788358D01*
X340764Y788549D01*
X340787Y788588D01*
X340830Y788603D01*
X341069Y788807D01*
X341090Y788847D01*
X341132Y788863D01*
X341360Y789080D01*
X341379Y789121D01*
X341420Y789140D01*
X341637Y789368D01*
X341653Y789410D01*
X341693Y789431D01*
X341897Y789670D01*
X341912Y789713D01*
X341951Y789736D01*
X342142Y789985D01*
X342154Y790029D01*
X342192Y790054D01*
X342370Y790312D01*
X342379Y790357D01*
X342416Y790384D01*
X342580Y790652D01*
X342588Y790697D01*
X342623Y790725D01*
X342773Y791001D01*
X342778Y791047D01*
X342811Y791077D01*
X342947Y791360D01*
X342949Y791406D01*
X342981Y791438D01*
X343102Y791729D01*
Y791774D01*
X343132Y791808D01*
X343237Y792104D01*
X343234Y792149D01*
X343263Y792185D01*
X343352Y792486D01*
X343348Y792531D01*
X343374Y792568D01*
X343448Y792874D01*
X343441Y792918D01*
X343465Y792957D01*
X343522Y793266D01*
X343513Y793310D01*
X343536Y793350D01*
X343577Y793661D01*
X343565Y793705D01*
X343586Y793745D01*
X343610Y794059D01*
X343596Y794102D01*
X343615Y794144D01*
X343623Y794457D01*
X343607Y794500D01*
X343623Y794543D01*
X343615Y794857D01*
X343596Y794898D01*
X343610Y794941D01*
X343586Y795255D01*
X343565Y795295D01*
X343577Y795339D01*
X343536Y795650D01*
X343513Y795690D01*
X343522Y795734D01*
X343465Y796043D01*
X343441Y796081D01*
X343448Y796126D01*
X343374Y796432D01*
X343348Y796469D01*
X343352Y796514D01*
X343263Y796815D01*
X343234Y796851D01*
X343237Y796896D01*
X343132Y797192D01*
X343102Y797226D01*
Y797271D01*
X342981Y797562D01*
X342949Y797594D01*
X342947Y797639D01*
X342811Y797923D01*
X342778Y797953D01*
X342773Y797999D01*
X342623Y798275D01*
X342588Y798303D01*
X342580Y798348D01*
X342416Y798616D01*
X342379Y798643D01*
X342370Y798688D01*
X342192Y798946D01*
X342154Y798971D01*
X342142Y799015D01*
X341951Y799264D01*
X341912Y799287D01*
X341897Y799330D01*
X341693Y799569D01*
X341653Y799590D01*
X341637Y799632D01*
X341421Y799860D01*
X341379Y799879D01*
X341360Y799920D01*
X341132Y800137D01*
X341090Y800153D01*
X341069Y800193D01*
X340830Y800397D01*
X340787Y800412D01*
X340764Y800451D01*
X340515Y800642D01*
X340471Y800654D01*
X340446Y800692D01*
X340187Y800870D01*
X340143Y800880D01*
X340116Y800916D01*
X339848Y801080D01*
X339803Y801088D01*
X339775Y801123D01*
X339499Y801273D01*
X339453Y801278D01*
X339423Y801311D01*
X339139Y801447D01*
X339094Y801449D01*
X339062Y801481D01*
X338771Y801601D01*
X338726D01*
X338692Y801632D01*
X338396Y801737D01*
X338351Y801734D01*
X338315Y801763D01*
X338014Y801852D01*
X337969Y801848D01*
X337932Y801874D01*
X337626Y801948D01*
X337581Y801941D01*
X337543Y801965D01*
X337234Y802022D01*
X337190Y802013D01*
X337150Y802036D01*
X336839Y802077D01*
X336795Y802065D01*
X336754Y802086D01*
X336441Y802110D01*
X336398Y802096D01*
X336357Y802115D01*
X336043Y802123D01*
X336021Y802115D01*
X336000Y802124D01*
X324000D01*
X323979Y802115D01*
X323957Y802123D01*
X323643Y802115D01*
X323602Y802096D01*
X323559Y802110D01*
X323246Y802086D01*
X323205Y802065D01*
X323161Y802077D01*
X322850Y802036D01*
X322810Y802013D01*
X322766Y802022D01*
X322457Y801965D01*
X322419Y801941D01*
X322374Y801948D01*
X322068Y801874D01*
X322031Y801848D01*
X321986Y801852D01*
X321685Y801763D01*
X321649Y801734D01*
X321604Y801737D01*
X321308Y801632D01*
X321274Y801601D01*
X321229D01*
X320938Y801481D01*
X320906Y801449D01*
X320861Y801447D01*
X320577Y801311D01*
X320547Y801278D01*
X320501Y801273D01*
X320225Y801123D01*
X320197Y801088D01*
X320152Y801080D01*
X319884Y800916D01*
X319857Y800880D01*
X319813Y800870D01*
X319554Y800692D01*
X319529Y800654D01*
X319485Y800642D01*
X319236Y800451D01*
X319213Y800412D01*
X319170Y800397D01*
X318931Y800193D01*
X318910Y800153D01*
X318868Y800137D01*
X318640Y799920D01*
X318621Y799879D01*
X318580Y799860D01*
X318363Y799632D01*
X318347Y799590D01*
X318307Y799569D01*
X318103Y799330D01*
X318088Y799287D01*
X318049Y799264D01*
X317858Y799015D01*
X317846Y798971D01*
X317808Y798946D01*
X317630Y798688D01*
X317621Y798643D01*
X317584Y798616D01*
X317419Y798348D01*
X317412Y798303D01*
X317377Y798275D01*
X317227Y797999D01*
X317222Y797953D01*
X317189Y797923D01*
X317053Y797639D01*
X317051Y797594D01*
X317019Y797562D01*
X316920Y797324D01*
X297589D01*
X296508Y797109D01*
X296065Y796813D01*
X295766Y796710D01*
X295459Y796631D01*
X295173Y796687D01*
X294356Y797057D01*
X294340Y797079D01*
X294300Y797102D01*
X294286Y797145D01*
X294065Y797404D01*
X294024Y797424D01*
X294008Y797467D01*
X293774Y797714D01*
X293732Y797732D01*
X293714Y797774D01*
X293467Y798008D01*
X293424Y798025D01*
X293404Y798065D01*
X293145Y798286D01*
X293102Y798300D01*
X293079Y798339D01*
X292809Y798547D01*
X292765Y798559D01*
X292740Y798597D01*
X292460Y798789D01*
X292415Y798799D01*
X292388Y798836D01*
X292098Y799014D01*
X292053Y799021D01*
X292025Y799056D01*
X291726Y799218D01*
X291680Y799223D01*
X291650Y799257D01*
X291343Y799404D01*
X291297Y799406D01*
X291265Y799438D01*
X290951Y799568D01*
X290905D01*
X290871Y799599D01*
X290551Y799712D01*
X290505Y799710D01*
X290470Y799739D01*
X290143Y799835D01*
X290098Y799830D01*
X290061Y799857D01*
X289730Y799937D01*
X289685Y799930D01*
X289647Y799954D01*
X289313Y800016D01*
X289268Y800007D01*
X289229Y800030D01*
X288891Y800074D01*
X288847Y800062D01*
X288807Y800083D01*
X288468Y800110D01*
X288424Y800096D01*
X288383Y800114D01*
X288043Y800123D01*
X288021Y800115D01*
X288000Y800124D01*
X275000D01*
X274979Y800115D01*
X274958Y800123D01*
X274617Y800114D01*
X274576Y800096D01*
X274533Y800110D01*
X274193Y800083D01*
X274153Y800062D01*
X274109Y800074D01*
X273771Y800030D01*
X273732Y800007D01*
X273687Y800016D01*
X273353Y799954D01*
X273314Y799930D01*
X273270Y799937D01*
X272939Y799857D01*
X272902Y799830D01*
X272857Y799835D01*
X272530Y799739D01*
X272495Y799710D01*
X272449Y799712D01*
X272129Y799599D01*
X272095Y799568D01*
X272049D01*
X271735Y799438D01*
X271703Y799406D01*
X271657Y799404D01*
X271350Y799257D01*
X271320Y799223D01*
X271274Y799218D01*
X270975Y799056D01*
X270947Y799021D01*
X270902Y799014D01*
X270611Y798836D01*
X270585Y798799D01*
X270540Y798789D01*
X270260Y798597D01*
X270235Y798559D01*
X270191Y798547D01*
X269921Y798339D01*
X269898Y798300D01*
X269855Y798286D01*
X269596Y798065D01*
X269576Y798025D01*
X269533Y798008D01*
X269286Y797774D01*
X269268Y797732D01*
X269226Y797714D01*
X268992Y797467D01*
X267794Y797711D01*
X267634Y797828D01*
Y902172D01*
X267794Y902289D01*
X268992Y902533D01*
X269226Y902286D01*
X269268Y902268D01*
X269286Y902226D01*
X269533Y901992D01*
X269576Y901975D01*
X269596Y901935D01*
X269855Y901714D01*
X269898Y901700D01*
X269921Y901661D01*
X270191Y901453D01*
X270235Y901441D01*
X270260Y901403D01*
X270540Y901211D01*
X270585Y901201D01*
X270611Y901164D01*
X270902Y900986D01*
X270947Y900979D01*
X270975Y900944D01*
X271274Y900782D01*
X271320Y900777D01*
X271350Y900743D01*
X271657Y900596D01*
X271703Y900594D01*
X271735Y900562D01*
X272049Y900432D01*
X272095D01*
X272129Y900401D01*
X272449Y900288D01*
X272495Y900290D01*
X272530Y900261D01*
X272857Y900165D01*
X272902Y900170D01*
X272939Y900143D01*
X273270Y900063D01*
X273315Y900070D01*
X273353Y900046D01*
X273687Y899984D01*
X273732Y899993D01*
X273771Y899970D01*
X274109Y899926D01*
X274153Y899938D01*
X274193Y899917D01*
X274533Y899890D01*
X274576Y899904D01*
X274617Y899886D01*
X274958Y899877D01*
X274979Y899885D01*
X275000Y899876D01*
X288000D01*
X288021Y899885D01*
X288043Y899877D01*
X288383Y899886D01*
X288424Y899904D01*
X288468Y899890D01*
X288807Y899917D01*
X288847Y899938D01*
X288891Y899926D01*
X289229Y899970D01*
X289268Y899993D01*
X289313Y899984D01*
X289647Y900046D01*
X289685Y900070D01*
X289730Y900063D01*
X290061Y900143D01*
X290098Y900170D01*
X290143Y900165D01*
X290470Y900261D01*
X290505Y900290D01*
X290551Y900288D01*
X290871Y900401D01*
X290905Y900432D01*
X290951D01*
X291265Y900562D01*
X291297Y900594D01*
X291343Y900596D01*
X291650Y900743D01*
X291680Y900777D01*
X291726Y900782D01*
X292025Y900944D01*
X292053Y900979D01*
X292098Y900986D01*
X292388Y901164D01*
X292415Y901201D01*
X292460Y901211D01*
X292740Y901403D01*
X292765Y901441D01*
X292809Y901453D01*
X293079Y901661D01*
X293102Y901700D01*
X293145Y901714D01*
X293404Y901935D01*
X293424Y901975D01*
X293467Y901992D01*
X293714Y902226D01*
X293732Y902268D01*
X293774Y902286D01*
X294008Y902533D01*
X294024Y902576D01*
X294065Y902596D01*
X294286Y902855D01*
X294300Y902898D01*
X294340Y902921D01*
X294547Y903191D01*
X294559Y903235D01*
X294597Y903260D01*
X294789Y903540D01*
X294799Y903585D01*
X294836Y903612D01*
X295014Y903902D01*
X295021Y903947D01*
X295056Y903975D01*
X295218Y904274D01*
X295223Y904320D01*
X295257Y904350D01*
X295403Y904657D01*
X295406Y904703D01*
X295438Y904735D01*
X295568Y905049D01*
Y905095D01*
X295599Y905129D01*
X295712Y905449D01*
X295710Y905495D01*
X295739Y905530D01*
X295835Y905857D01*
X295830Y905902D01*
X295857Y905939D01*
X295937Y906270D01*
X295930Y906314D01*
X295954Y906353D01*
X296016Y906687D01*
X296007Y906732D01*
X296030Y906771D01*
X296074Y907109D01*
X296062Y907153D01*
X296083Y907193D01*
X296110Y907533D01*
X296096Y907576D01*
X296114Y907617D01*
X296123Y907958D01*
X296107Y908000D01*
X296123Y908043D01*
X296114Y908383D01*
X296096Y908424D01*
X296110Y908468D01*
X296083Y908807D01*
X296062Y908847D01*
X296074Y908891D01*
X296030Y909229D01*
X296007Y909268D01*
X296016Y909313D01*
X295954Y909647D01*
X295930Y909686D01*
X295937Y909731D01*
X295857Y910061D01*
X295830Y910098D01*
X295835Y910143D01*
X295739Y910470D01*
X295710Y910505D01*
X295712Y910551D01*
X295599Y910871D01*
X295568Y910905D01*
Y910951D01*
X295438Y911265D01*
X295406Y911297D01*
X295403Y911343D01*
X295257Y911650D01*
X295223Y911680D01*
X295218Y911726D01*
X295056Y912025D01*
X295021Y912053D01*
X295014Y912098D01*
X294836Y912388D01*
X294799Y912415D01*
X294789Y912460D01*
X294597Y912740D01*
X294559Y912765D01*
X294547Y912809D01*
X294340Y913079D01*
X294300Y913102D01*
X294286Y913145D01*
X294065Y913404D01*
X294024Y913425D01*
X294008Y913467D01*
X293774Y913714D01*
X293732Y913732D01*
X293714Y913774D01*
X293467Y914008D01*
X293424Y914025D01*
X293404Y914065D01*
X293145Y914286D01*
X293102Y914300D01*
X293079Y914340D01*
X292809Y914547D01*
X292765Y914558D01*
X292740Y914597D01*
X292460Y914789D01*
X292415Y914799D01*
X292388Y914836D01*
X292098Y915014D01*
X292053Y915021D01*
X292025Y915056D01*
X291726Y915218D01*
X291680Y915223D01*
X291650Y915257D01*
X291343Y915404D01*
X291297Y915406D01*
X291265Y915438D01*
X290951Y915568D01*
X290905D01*
X290871Y915599D01*
X290551Y915712D01*
X290505Y915710D01*
X290470Y915739D01*
X290143Y915835D01*
X290098Y915831D01*
X290061Y915857D01*
X289730Y915937D01*
X289685Y915930D01*
X289647Y915954D01*
X289313Y916016D01*
X289268Y916007D01*
X289229Y916030D01*
X288891Y916074D01*
X288847Y916062D01*
X288807Y916083D01*
X288468Y916110D01*
X288424Y916096D01*
X288383Y916114D01*
X288043Y916123D01*
X288021Y916115D01*
X288000Y916124D01*
X275000D01*
X274979Y916115D01*
X274958Y916123D01*
X274617Y916114D01*
X274576Y916096D01*
X274533Y916110D01*
X274193Y916083D01*
X274153Y916062D01*
X274109Y916074D01*
X273771Y916030D01*
X273732Y916007D01*
X273687Y916016D01*
X273353Y915954D01*
X273314Y915930D01*
X273270Y915937D01*
X272939Y915857D01*
X272902Y915831D01*
X272857Y915835D01*
X272530Y915739D01*
X272495Y915710D01*
X272449Y915712D01*
X272129Y915599D01*
X272095Y915568D01*
X272049D01*
X271735Y915438D01*
X271703Y915406D01*
X271657Y915404D01*
X271350Y915257D01*
X271320Y915223D01*
X271274Y915218D01*
X270975Y915056D01*
X270947Y915021D01*
X270902Y915014D01*
X270611Y914836D01*
X270585Y914799D01*
X270540Y914789D01*
X270260Y914597D01*
X270235Y914558D01*
X270191Y914547D01*
X269921Y914340D01*
X269898Y914300D01*
X269855Y914286D01*
X269596Y914065D01*
X269576Y914025D01*
X269533Y914008D01*
X269286Y913774D01*
X269268Y913732D01*
X269226Y913714D01*
X268992Y913467D01*
X267794Y913711D01*
X267634Y913828D01*
Y922140D01*
X302670Y957176D01*
X377500D01*
X377500Y957176D01*
X378581Y957391D01*
X379497Y958003D01*
X403567Y982072D01*
X405357D01*
X405918Y981511D01*
X407755Y980750D01*
X409745D01*
X411582Y981511D01*
X412989Y982918D01*
X413750Y984755D01*
Y986745D01*
X412989Y988582D01*
X411582Y989989D01*
X409745Y990750D01*
X407755D01*
X405918Y989989D01*
X404511Y988582D01*
X404154Y987721D01*
X402397D01*
X402397Y987721D01*
X401316Y987506D01*
X400400Y986894D01*
X400400Y986894D01*
X376330Y962824D01*
X301500D01*
X301500Y962824D01*
X300419Y962609D01*
X299503Y961997D01*
X262813Y925307D01*
X262201Y924391D01*
X261986Y923310D01*
X261986Y923310D01*
Y784250D01*
X261986Y784250D01*
X262201Y783169D01*
X262813Y782253D01*
X275813Y769253D01*
X276729Y768641D01*
X277810Y768426D01*
X277810Y768426D01*
X295750D01*
X295750Y768426D01*
X296831Y768641D01*
X297287Y768946D01*
X307965D01*
X308446Y767676D01*
X307750Y765995D01*
Y764005D01*
X308511Y762168D01*
X309918Y760761D01*
X311755Y760000D01*
X313745D01*
X315582Y760761D01*
X316497Y761676D01*
X328462D01*
Y760310D01*
X328611Y759565D01*
X329033Y758933D01*
X329280Y758768D01*
X329267Y757952D01*
X329174Y757412D01*
X328283Y756817D01*
X327631Y755841D01*
X327402Y754690D01*
Y752270D01*
X335000D01*
X342598D01*
Y754690D01*
X342369Y755841D01*
X341717Y756817D01*
X340826Y757412D01*
X340733Y757952D01*
X340720Y758768D01*
X340967Y758933D01*
X341389Y759565D01*
X341537Y760310D01*
Y761176D01*
X344959D01*
Y756209D01*
X367808D01*
X403676Y720341D01*
Y700398D01*
X403668Y700395D01*
X402261Y698988D01*
X401500Y697150D01*
Y695161D01*
X402203Y693464D01*
X401731Y692194D01*
X389871D01*
Y708250D01*
X389390Y711905D01*
X387979Y715310D01*
X385735Y718235D01*
X382810Y720479D01*
X379405Y721890D01*
X375750Y722371D01*
X372095Y721890D01*
X368690Y720479D01*
X365765Y718235D01*
X363521Y715310D01*
X362110Y711905D01*
X361629Y708250D01*
Y683250D01*
X362110Y679595D01*
X363521Y676190D01*
X365765Y673265D01*
X368690Y671021D01*
X372095Y669610D01*
X375750Y669129D01*
X379405Y669610D01*
X382810Y671021D01*
X385735Y673265D01*
X387979Y676190D01*
X389390Y679595D01*
X389871Y683250D01*
Y686546D01*
X396315D01*
X396801Y685372D01*
X396761Y685332D01*
X396000Y683495D01*
Y681505D01*
X396761Y679668D01*
X397021Y679407D01*
X396496Y678137D01*
X396410D01*
X395665Y677989D01*
X395033Y677567D01*
X394611Y676935D01*
X394463Y676190D01*
Y668810D01*
X394611Y668065D01*
X395033Y667433D01*
X395280Y667268D01*
X395267Y666452D01*
X395174Y665912D01*
X394283Y665317D01*
X393631Y664341D01*
X393402Y663190D01*
Y660770D01*
X401000D01*
Y658230D01*
X393402D01*
Y655810D01*
X393631Y654659D01*
X394283Y653683D01*
X395259Y653031D01*
X396199Y652844D01*
X396074Y651574D01*
X369488D01*
X369422Y652078D01*
X368137Y655180D01*
X366093Y657843D01*
X363430Y659887D01*
X360328Y661172D01*
X357000Y661610D01*
X334500D01*
X331172Y661172D01*
X328070Y659887D01*
X325407Y657843D01*
X323363Y655180D01*
X322078Y652078D01*
X321640Y648750D01*
X322078Y645422D01*
X323363Y642320D01*
X325407Y639657D01*
X328070Y637613D01*
X331172Y636328D01*
X334500Y635890D01*
X357000D01*
X360328Y636328D01*
X363430Y637613D01*
X366093Y639657D01*
X368137Y642320D01*
X369422Y645422D01*
X369488Y645926D01*
X407250D01*
X407250Y645926D01*
X408331Y646141D01*
X409247Y646753D01*
X416457Y653963D01*
X421600D01*
X422341Y654110D01*
X422970Y654530D01*
X423390Y655159D01*
X423537Y655900D01*
Y664600D01*
X423390Y665341D01*
X422970Y665970D01*
X422341Y666390D01*
X421600Y666537D01*
X420824D01*
Y676037D01*
X421633Y676846D01*
X422903D01*
X423297Y676452D01*
X424230Y676066D01*
Y679750D01*
X425500D01*
Y681020D01*
X429347D01*
X429952Y681926D01*
X432654D01*
X432676Y681904D01*
Y672420D01*
X429741Y669485D01*
X429129Y668569D01*
X428914Y667488D01*
X428138Y666537D01*
X427400D01*
X426659Y666390D01*
X426030Y665970D01*
X425610Y665341D01*
X425463Y664600D01*
Y655900D01*
X425610Y655159D01*
X426030Y654530D01*
X426659Y654110D01*
X427400Y653963D01*
X434600D01*
X435341Y654110D01*
X435970Y654530D01*
X436390Y655159D01*
X436393Y655176D01*
X459713D01*
Y654310D01*
X459861Y653565D01*
X460283Y652933D01*
X460530Y652768D01*
X460517Y651952D01*
X460424Y651412D01*
X459533Y650817D01*
X458881Y649841D01*
X458652Y648690D01*
Y646270D01*
X466250D01*
Y645000D01*
X467520D01*
Y638302D01*
X470840D01*
X471991Y638531D01*
X472967Y639183D01*
X472986Y639212D01*
X474514D01*
X474533Y639183D01*
X475509Y638531D01*
X476660Y638302D01*
X479980D01*
Y645000D01*
X482520D01*
Y638302D01*
X485840D01*
X486991Y638531D01*
X487967Y639183D01*
X487986Y639212D01*
X489514D01*
X489533Y639183D01*
X490509Y638531D01*
X491660Y638302D01*
X494980D01*
Y645000D01*
X496250D01*
Y646270D01*
X503848D01*
Y648690D01*
X503619Y649841D01*
X502967Y650817D01*
X502076Y651412D01*
X501983Y651952D01*
X501970Y652768D01*
X502217Y652933D01*
X502639Y653565D01*
X502787Y654310D01*
Y655176D01*
X505213D01*
Y654400D01*
X505360Y653659D01*
X505780Y653030D01*
X506409Y652610D01*
X507150Y652463D01*
X515850D01*
X516591Y652610D01*
X517220Y653030D01*
X517640Y653659D01*
X517787Y654400D01*
Y661600D01*
X517640Y662341D01*
X517339Y662792D01*
X517523Y663583D01*
X517788Y664118D01*
X518526Y664219D01*
X520092Y662653D01*
Y660775D01*
X520323Y659614D01*
X520980Y658630D01*
X521964Y657973D01*
X523125Y657742D01*
X532275D01*
X533436Y657973D01*
X534420Y658630D01*
X535077Y659614D01*
X535308Y660775D01*
Y663725D01*
X535077Y664886D01*
X534420Y665870D01*
X533436Y666527D01*
X532275Y666758D01*
X523975D01*
X521486Y669247D01*
X520570Y669859D01*
X519489Y670074D01*
X519489Y670074D01*
X501148D01*
X500067Y669859D01*
X499151Y669247D01*
X499151Y669247D01*
X497663Y667759D01*
X497051Y666843D01*
X496836Y665762D01*
X496836Y665762D01*
Y663637D01*
X491660D01*
X490915Y663489D01*
X490283Y663067D01*
X489861Y662435D01*
X489713Y661690D01*
Y660824D01*
X487787D01*
Y661690D01*
X487639Y662435D01*
X487217Y663067D01*
X486585Y663489D01*
X485840Y663637D01*
X476660D01*
X475915Y663489D01*
X475283Y663067D01*
X474861Y662435D01*
X474712Y661690D01*
Y660824D01*
X472787D01*
Y661690D01*
X472639Y662435D01*
X472217Y663067D01*
X471585Y663489D01*
X470840Y663637D01*
X461660D01*
X460915Y663489D01*
X460283Y663067D01*
X459861Y662435D01*
X459713Y661690D01*
Y660824D01*
X451115D01*
X450588Y662094D01*
X475420Y686926D01*
X513925D01*
X514438Y685656D01*
X513635Y684454D01*
X513267Y682607D01*
Y681770D01*
X521500D01*
X529733D01*
Y682607D01*
X529365Y684454D01*
X528562Y685656D01*
X529075Y686926D01*
X545727D01*
X546149Y686503D01*
X546149Y686503D01*
X546320Y686389D01*
X546424Y686198D01*
X546607Y684786D01*
X546114Y684048D01*
X545828Y682607D01*
Y678393D01*
X546114Y676952D01*
X546931Y675731D01*
X548152Y674914D01*
X549593Y674628D01*
X550176D01*
Y666758D01*
X548225D01*
X547064Y666527D01*
X546080Y665870D01*
X545423Y664886D01*
X545192Y663725D01*
Y660775D01*
X545423Y659614D01*
X546080Y658630D01*
X545693Y657362D01*
X545330Y657120D01*
X544443Y655792D01*
X544131Y654225D01*
Y654020D01*
X552800D01*
X561469D01*
Y654225D01*
X561157Y655792D01*
X560270Y657120D01*
X560077Y657248D01*
X559783Y658583D01*
X560385Y659426D01*
X565963D01*
Y657900D01*
X566110Y657159D01*
X566530Y656530D01*
X567159Y656110D01*
X567900Y655963D01*
X575100D01*
X575841Y656110D01*
X576470Y656530D01*
X576890Y657159D01*
X577037Y657900D01*
Y666600D01*
X576890Y667341D01*
X576470Y667970D01*
X575841Y668390D01*
X575100Y668537D01*
X567900D01*
X567159Y668390D01*
X566530Y667970D01*
X566110Y667341D01*
X565963Y666600D01*
Y665074D01*
X560051D01*
X559520Y665870D01*
X558536Y666527D01*
X557375Y666758D01*
X555824D01*
Y674628D01*
X556407D01*
X557848Y674914D01*
X559070Y675731D01*
X559886Y676952D01*
X560172Y678393D01*
Y682607D01*
X559886Y684048D01*
X559647Y684406D01*
X560326Y685676D01*
X592864D01*
X593335Y684406D01*
X592261Y683332D01*
X591500Y681495D01*
Y679505D01*
X592261Y677668D01*
X593668Y676261D01*
X595505Y675500D01*
X597495D01*
X599332Y676261D01*
X600739Y677668D01*
X600854Y677946D01*
X606965D01*
X607446Y676676D01*
X606750Y674995D01*
Y673005D01*
X607511Y671168D01*
X608607Y670072D01*
X608439Y668909D01*
X608417Y668838D01*
X608334Y668685D01*
X607783Y668317D01*
X607361Y667685D01*
X607213Y666940D01*
Y666074D01*
X605037D01*
Y666940D01*
X604889Y667685D01*
X604467Y668317D01*
X603835Y668739D01*
X603090Y668887D01*
X593910D01*
X593165Y668739D01*
X592533Y668317D01*
X592111Y667685D01*
X591963Y666940D01*
Y666074D01*
X590037D01*
Y666600D01*
X589890Y667341D01*
X589470Y667970D01*
X588841Y668390D01*
X588100Y668537D01*
X580900D01*
X580159Y668390D01*
X579530Y667970D01*
X579110Y667341D01*
X578963Y666600D01*
Y657900D01*
X579110Y657159D01*
X579530Y656530D01*
X580159Y656110D01*
X580900Y655963D01*
X587338D01*
X587406Y655880D01*
X587406Y655880D01*
Y654650D01*
X586043Y653287D01*
X580900D01*
X580159Y653140D01*
X579530Y652720D01*
X579110Y652091D01*
X578963Y651350D01*
Y642650D01*
X579110Y641909D01*
X579530Y641280D01*
X580159Y640860D01*
X580900Y640713D01*
X588100D01*
X588841Y640860D01*
X589470Y641280D01*
X589890Y641909D01*
X590037Y642650D01*
Y644894D01*
X591307Y645145D01*
X591783Y644433D01*
X592759Y643781D01*
X593910Y643552D01*
X597230D01*
Y650250D01*
X599770D01*
Y643552D01*
X603090D01*
X604241Y643781D01*
X605217Y644433D01*
X605361Y644649D01*
X606889D01*
X607033Y644433D01*
X608009Y643781D01*
X609160Y643552D01*
X612480D01*
Y650250D01*
X613750D01*
Y651520D01*
X621348D01*
Y653940D01*
X621119Y655091D01*
X620467Y656067D01*
X619576Y656662D01*
X619483Y657202D01*
X619470Y658018D01*
X619717Y658183D01*
X620139Y658815D01*
X620287Y659560D01*
Y666940D01*
X620139Y667685D01*
X619717Y668317D01*
X619085Y668739D01*
X618340Y668887D01*
X615505D01*
X614978Y670157D01*
X615989Y671168D01*
X616750Y673005D01*
Y674995D01*
X616054Y676676D01*
X616535Y677946D01*
X645770D01*
X645770Y677946D01*
X646851Y678161D01*
X647767Y678773D01*
X653497Y684503D01*
X653497Y684503D01*
X654109Y685419D01*
X654324Y686500D01*
Y699463D01*
X655100D01*
X655841Y699610D01*
X656470Y700030D01*
X656890Y700659D01*
X657037Y701400D01*
Y710100D01*
X656890Y710841D01*
X656470Y711470D01*
X655841Y711890D01*
X655100Y712037D01*
X647900D01*
X647159Y711890D01*
X646530Y711470D01*
X646110Y710841D01*
X645963Y710100D01*
Y701400D01*
X646110Y700659D01*
X646530Y700030D01*
X647159Y699610D01*
X647900Y699463D01*
X648676D01*
Y687670D01*
X644600Y683594D01*
X625961D01*
X625435Y684864D01*
X626239Y685668D01*
X627000Y687505D01*
Y689495D01*
X626648Y690344D01*
X627747Y691443D01*
X628359Y692359D01*
X628574Y693440D01*
Y695713D01*
X629440D01*
X630185Y695861D01*
X630817Y696283D01*
X631239Y696915D01*
X631387Y697660D01*
Y706840D01*
X631239Y707585D01*
X630817Y708217D01*
X630185Y708639D01*
X629440Y708787D01*
X628574D01*
Y710713D01*
X629440D01*
X630185Y710861D01*
X630817Y711283D01*
X631239Y711915D01*
X631387Y712660D01*
Y720463D01*
X631417Y720483D01*
X635170Y724236D01*
X636404Y723674D01*
Y722350D01*
X636625Y721242D01*
X637253Y720302D01*
X638192Y719675D01*
X639300Y719454D01*
X640730D01*
Y723250D01*
X643270D01*
Y719454D01*
X644700D01*
X645808Y719675D01*
X645899Y719736D01*
X646034Y719534D01*
X647010Y718881D01*
X648163Y718652D01*
X652250D01*
Y721250D01*
X647750D01*
Y745250D01*
X652250D01*
Y747848D01*
X648163D01*
X647010Y747619D01*
X646034Y746966D01*
X645381Y745990D01*
X645355Y745855D01*
X644700Y745985D01*
X642448D01*
X642000Y746074D01*
X635920D01*
X633097Y748897D01*
X632343Y749401D01*
X629037Y752707D01*
Y757850D01*
X628890Y758591D01*
X628470Y759220D01*
X627841Y759640D01*
X627100Y759787D01*
X620612D01*
X620033Y760508D01*
X620562Y761713D01*
X627100D01*
X627841Y761860D01*
X628470Y762280D01*
X628890Y762909D01*
X629037Y763650D01*
Y770850D01*
X628890Y771591D01*
X628470Y772220D01*
X627841Y772640D01*
X627100Y772787D01*
X620106D01*
X620020Y772804D01*
X620020Y772804D01*
X615816D01*
X615356Y773406D01*
X615983Y774676D01*
X629580D01*
X630926Y773330D01*
Y766250D01*
X630926Y766250D01*
X631141Y765169D01*
X631753Y764253D01*
X637503Y758503D01*
X637503Y758503D01*
X638419Y757891D01*
X639500Y757676D01*
X643713D01*
Y756150D01*
X643860Y755409D01*
X644280Y754780D01*
X644909Y754360D01*
X645650Y754213D01*
X652850D01*
X653591Y754360D01*
X654220Y754780D01*
X654640Y755409D01*
X654787Y756150D01*
Y764850D01*
X654640Y765591D01*
X654220Y766220D01*
X653591Y766640D01*
X652850Y766787D01*
X645650D01*
X644909Y766640D01*
X644280Y766220D01*
X643860Y765591D01*
X643713Y764850D01*
Y763324D01*
X640670D01*
X636574Y767420D01*
Y774500D01*
X636574Y774500D01*
X636359Y775581D01*
X635747Y776497D01*
X635747Y776497D01*
X632747Y779497D01*
X631831Y780109D01*
X630750Y780324D01*
X630750Y780324D01*
X616682D01*
X616429Y781594D01*
X616832Y781761D01*
X618239Y783168D01*
X619000Y785005D01*
Y786995D01*
X618239Y788832D01*
X616832Y790239D01*
X614995Y791000D01*
X613005D01*
X612997Y790997D01*
X598997Y804997D01*
X598081Y805609D01*
X597000Y805824D01*
X597000Y805824D01*
X435670D01*
X422074Y819420D01*
Y910329D01*
X448207Y936462D01*
X448386Y936729D01*
X449656Y936344D01*
Y914409D01*
X449656Y914409D01*
X449871Y913328D01*
X450483Y912412D01*
X491823Y871072D01*
X491819Y871064D01*
Y869075D01*
X492580Y867237D01*
X493987Y865831D01*
X495825Y865069D01*
X497814D01*
X499652Y865831D01*
X501058Y867237D01*
X501819Y869075D01*
Y871064D01*
X501058Y872902D01*
X499652Y874308D01*
X497814Y875069D01*
X495825D01*
X495817Y875066D01*
X455304Y915579D01*
Y938596D01*
X455312Y938599D01*
X456719Y940006D01*
X457480Y941843D01*
Y943832D01*
X456719Y945670D01*
X455312Y947077D01*
X454031Y947608D01*
X453638Y949011D01*
X491573Y986946D01*
X493770D01*
X493770Y986946D01*
X494851Y987161D01*
X495767Y987773D01*
X515568Y1007574D01*
X516180Y1008490D01*
X516395Y1009571D01*
X516395Y1009571D01*
Y1009743D01*
X533826Y1027174D01*
X533834Y1027171D01*
X535824D01*
X536643Y1026136D01*
Y1017865D01*
X536643Y1017865D01*
X536858Y1016784D01*
X537470Y1015868D01*
X541114Y1012224D01*
Y969713D01*
X539844Y969187D01*
X539579Y969452D01*
X538662Y970064D01*
X537582Y970279D01*
X537581Y970279D01*
X535477D01*
X534397Y970064D01*
X533952Y969768D01*
X532045D01*
X531416Y970396D01*
X529578Y971158D01*
X527589D01*
X525751Y970396D01*
X524345Y968990D01*
X523583Y967152D01*
Y965163D01*
X524345Y963326D01*
X525751Y961919D01*
X527589Y961158D01*
X529578D01*
X531416Y961919D01*
X532822Y963326D01*
X533151Y964119D01*
X534966D01*
X534966Y964119D01*
X536046Y964334D01*
X536443Y964599D01*
X537840Y963203D01*
X538756Y962591D01*
X539837Y962376D01*
X542450D01*
X542450Y962376D01*
X543531Y962591D01*
X544447Y963203D01*
X545935Y964691D01*
X545935Y964691D01*
X545990Y964773D01*
X547260Y964387D01*
Y950387D01*
X547252Y950384D01*
X545845Y948978D01*
X545084Y947140D01*
Y945151D01*
X545780Y943469D01*
X545299Y942199D01*
X536015D01*
X529938Y948276D01*
Y948594D01*
X529938Y948594D01*
X529723Y949675D01*
X529111Y950591D01*
X529111Y950591D01*
X526788Y952914D01*
X526791Y952922D01*
Y954911D01*
X526030Y956749D01*
X524624Y958156D01*
X522786Y958917D01*
X520797D01*
X518959Y958156D01*
X517552Y956749D01*
X516791Y954911D01*
Y952922D01*
X517552Y951085D01*
X518959Y949678D01*
X520797Y948917D01*
X522786D01*
X522794Y948920D01*
X524290Y947424D01*
Y947106D01*
X524290Y947106D01*
X524505Y946025D01*
X525117Y945109D01*
X532848Y937378D01*
X532848Y937378D01*
X533764Y936766D01*
X534845Y936551D01*
X534845Y936551D01*
X552888D01*
X552888Y936551D01*
X553969Y936766D01*
X554885Y937378D01*
X556223Y938716D01*
X557745D01*
X561978Y934483D01*
X562894Y933871D01*
X563975Y933656D01*
X565776D01*
X570204Y929228D01*
X569718Y928054D01*
X554366D01*
X549173Y933247D01*
X548257Y933859D01*
X547176Y934074D01*
X547176Y934074D01*
X527670D01*
X522501Y939243D01*
X522525Y939301D01*
Y941290D01*
X521764Y943128D01*
X520358Y944535D01*
X518520Y945296D01*
X516531D01*
X514693Y944535D01*
X513287Y943128D01*
X512525Y941290D01*
Y939301D01*
X513287Y937464D01*
X514693Y936057D01*
X516531Y935296D01*
X518460D01*
X524503Y929253D01*
X525419Y928641D01*
X526500Y928426D01*
X546006D01*
X551199Y923233D01*
X551199Y923233D01*
X552115Y922621D01*
X553196Y922406D01*
X570605D01*
X576196Y916815D01*
Y913245D01*
X568463Y905513D01*
X567851Y904596D01*
X567636Y903515D01*
X567636Y903515D01*
Y896521D01*
X567636Y896521D01*
X567851Y895440D01*
X568463Y894523D01*
X657926Y805061D01*
Y776500D01*
X657926Y776500D01*
X658141Y775419D01*
X658753Y774503D01*
X662753Y770503D01*
X662753Y770503D01*
X663669Y769891D01*
X664750Y769676D01*
X675118D01*
X675121Y769668D01*
X676528Y768261D01*
X678365Y767500D01*
X680355D01*
X680722Y767652D01*
X681441Y766575D01*
X676983Y762117D01*
X676371Y761201D01*
X676156Y760120D01*
X676156Y760120D01*
Y749880D01*
X676156Y749880D01*
X676156Y749879D01*
Y746074D01*
X672824D01*
Y752000D01*
X672824Y752000D01*
X672609Y753081D01*
X671997Y753997D01*
X667787Y758207D01*
Y764850D01*
X667640Y765591D01*
X667220Y766220D01*
X666591Y766640D01*
X665850Y766787D01*
X658650D01*
X657909Y766640D01*
X657280Y766220D01*
X656860Y765591D01*
X656713Y764850D01*
Y756150D01*
X656860Y755409D01*
X657280Y754780D01*
X657909Y754360D01*
X658650Y754213D01*
X663793D01*
X667176Y750830D01*
Y747442D01*
X666248Y747077D01*
X665906Y747007D01*
X664989Y747619D01*
X663838Y747848D01*
X659750D01*
Y745250D01*
X664250D01*
Y721250D01*
X659750D01*
Y718652D01*
X663838D01*
X664989Y718881D01*
X665058Y718893D01*
X666378Y718281D01*
X666410Y717995D01*
X664723Y716307D01*
X664111Y715391D01*
X663896Y714310D01*
X663896Y714310D01*
Y712037D01*
X660900D01*
X660159Y711890D01*
X659530Y711470D01*
X659110Y710841D01*
X658963Y710100D01*
Y701400D01*
X659110Y700659D01*
X659530Y700030D01*
X660159Y699610D01*
X660900Y699463D01*
X668100D01*
X668841Y699610D01*
X669014Y699725D01*
X670284Y699136D01*
Y694890D01*
X669918Y694739D01*
X668511Y693332D01*
X667750Y691495D01*
Y689505D01*
X668511Y687668D01*
X669918Y686261D01*
X671755Y685500D01*
X673745D01*
X675582Y686261D01*
X676989Y687668D01*
X677750Y689505D01*
Y691495D01*
X676989Y693332D01*
X675932Y694389D01*
Y700640D01*
X678747Y703455D01*
X678747Y703455D01*
X678943Y703748D01*
X679835Y703583D01*
X680213Y703363D01*
Y701650D01*
X680360Y700909D01*
X680780Y700280D01*
X681409Y699860D01*
X682150Y699713D01*
X688793D01*
X702150Y686356D01*
X702150Y686356D01*
X703066Y685744D01*
X704147Y685529D01*
X705404D01*
X705761Y684668D01*
X707168Y683261D01*
X709005Y682500D01*
X710995D01*
X712832Y683261D01*
X714239Y684668D01*
X715000Y686505D01*
Y688495D01*
X714239Y690332D01*
X712832Y691739D01*
X710995Y692500D01*
X709005D01*
X707168Y691739D01*
X706607Y691178D01*
X705316D01*
X699365Y697129D01*
X699851Y698302D01*
X700980D01*
Y705000D01*
X702250D01*
Y706270D01*
X709848D01*
Y708690D01*
X709619Y709841D01*
X708967Y710817D01*
X708076Y711412D01*
X707983Y711952D01*
X707971Y712691D01*
X708145Y712885D01*
X708217Y712933D01*
X708301Y713058D01*
X708855Y713676D01*
X714080D01*
X736750Y691006D01*
Y503894D01*
X286250Y503894D01*
X265931D01*
X264423Y504194D01*
X263002Y504782D01*
X261724Y505637D01*
X260637Y506724D01*
X259782Y508002D01*
X259194Y509423D01*
X258894Y510931D01*
Y511700D01*
Y688745D01*
X260164Y689086D01*
X260748Y688075D01*
X263075Y685748D01*
X265925Y684102D01*
X269104Y683250D01*
X272396D01*
X275575Y684102D01*
X278425Y685748D01*
X280753Y688075D01*
X282398Y690925D01*
X283250Y694104D01*
Y697396D01*
X282398Y700575D01*
X280753Y703425D01*
X278425Y705752D01*
X275575Y707398D01*
X272396Y708250D01*
X269104D01*
X265925Y707398D01*
X263075Y705752D01*
X260748Y703425D01*
X260164Y702414D01*
X258894Y702755D01*
Y1208550D01*
Y1209319D01*
X259194Y1210827D01*
X259782Y1212247D01*
X260637Y1213526D01*
X261724Y1214613D01*
X263002Y1215468D01*
X264423Y1216056D01*
X265931Y1216356D01*
X736750D01*
Y1074404D01*
D02*
G37*
G36*
X288340Y914491D02*
X288679Y914464D01*
X289017Y914420D01*
X289351Y914358D01*
X289682Y914278D01*
X290009Y914182D01*
X290329Y914068D01*
X290644Y913938D01*
X290951Y913792D01*
X291250Y913629D01*
X291540Y913451D01*
X291821Y913259D01*
X292091Y913052D01*
X292349Y912830D01*
X292596Y912596D01*
X292831Y912349D01*
X293051Y912091D01*
X293259Y911821D01*
X293451Y911540D01*
X293629Y911250D01*
X293792Y910951D01*
X293938Y910644D01*
X294068Y910329D01*
X294182Y910009D01*
X294279Y909682D01*
X294358Y909351D01*
X294420Y909017D01*
X294464Y908679D01*
X294491Y908340D01*
X294500Y908000D01*
X294491Y907660D01*
X294464Y907321D01*
X294420Y906983D01*
X294358Y906649D01*
X294279Y906318D01*
X294182Y905991D01*
X294068Y905671D01*
X293938Y905356D01*
X293792Y905049D01*
X293629Y904750D01*
X293451Y904460D01*
X293259Y904179D01*
X293051Y903909D01*
X292831Y903651D01*
X292596Y903404D01*
X292349Y903170D01*
X292091Y902949D01*
X291821Y902741D01*
X291540Y902549D01*
X291250Y902371D01*
X290951Y902208D01*
X290644Y902062D01*
X290329Y901932D01*
X290009Y901818D01*
X289682Y901721D01*
X289351Y901642D01*
X289017Y901580D01*
X288679Y901536D01*
X288340Y901509D01*
X288000Y901500D01*
X275000D01*
X274660Y901509D01*
X274321Y901536D01*
X273983Y901580D01*
X273649Y901642D01*
X273318Y901721D01*
X272991Y901818D01*
X272671Y901932D01*
X272356Y902062D01*
X272049Y902208D01*
X271750Y902371D01*
X271460Y902549D01*
X271179Y902741D01*
X270909Y902949D01*
X270651Y903170D01*
X270404Y903404D01*
X270170Y903651D01*
X269949Y903909D01*
X269741Y904179D01*
X269549Y904460D01*
X269371Y904750D01*
X269209Y905049D01*
X269062Y905356D01*
X268932Y905671D01*
X268818Y905991D01*
X268722Y906318D01*
X268642Y906649D01*
X268580Y906983D01*
X268536Y907321D01*
X268509Y907660D01*
X268500Y908000D01*
X268509Y908340D01*
X268536Y908679D01*
X268580Y909017D01*
X268642Y909351D01*
X268722Y909682D01*
X268818Y910009D01*
X268932Y910329D01*
X269062Y910644D01*
X269209Y910951D01*
X269371Y911250D01*
X269549Y911540D01*
X269741Y911821D01*
X269949Y912091D01*
X270170Y912349D01*
X270404Y912596D01*
X270651Y912830D01*
X270909Y913052D01*
X271179Y913259D01*
X271460Y913451D01*
X271750Y913629D01*
X272049Y913792D01*
X272356Y913938D01*
X272671Y914068D01*
X272991Y914182D01*
X273318Y914278D01*
X273649Y914358D01*
X273983Y914420D01*
X274321Y914464D01*
X274660Y914491D01*
X275000Y914500D01*
X288000D01*
X288340Y914491D01*
D02*
G37*
G36*
X336314Y911492D02*
X336627Y911467D01*
X336939Y911426D01*
X337248Y911369D01*
X337553Y911296D01*
X337854Y911206D01*
X338150Y911102D01*
X338440Y910981D01*
X338724Y910846D01*
X339000Y910696D01*
X339268Y910532D01*
X339527Y910354D01*
X339776Y910163D01*
X340015Y909959D01*
X340243Y909743D01*
X340459Y909515D01*
X340663Y909276D01*
X340854Y909027D01*
X341032Y908768D01*
X341196Y908500D01*
X341346Y908224D01*
X341481Y907940D01*
X341601Y907650D01*
X341706Y907354D01*
X341796Y907053D01*
X341869Y906748D01*
X341926Y906439D01*
X341967Y906127D01*
X341992Y905814D01*
X342000Y905500D01*
X341992Y905186D01*
X341967Y904873D01*
X341926Y904561D01*
X341869Y904252D01*
X341796Y903947D01*
X341706Y903646D01*
X341601Y903350D01*
X341481Y903060D01*
X341346Y902776D01*
X341196Y902500D01*
X341032Y902232D01*
X340854Y901973D01*
X340663Y901724D01*
X340459Y901485D01*
X340243Y901257D01*
X340015Y901041D01*
X339776Y900837D01*
X339527Y900646D01*
X339268Y900468D01*
X339000Y900304D01*
X338724Y900154D01*
X338440Y900019D01*
X338150Y899899D01*
X337854Y899794D01*
X337553Y899704D01*
X337248Y899631D01*
X336939Y899574D01*
X336627Y899533D01*
X336314Y899508D01*
X336000Y899500D01*
X324000D01*
X323686Y899508D01*
X323373Y899533D01*
X323061Y899574D01*
X322752Y899631D01*
X322447Y899704D01*
X322146Y899794D01*
X321850Y899899D01*
X321560Y900019D01*
X321276Y900154D01*
X321000Y900304D01*
X320732Y900468D01*
X320473Y900646D01*
X320224Y900837D01*
X319985Y901041D01*
X319757Y901257D01*
X319541Y901485D01*
X319337Y901724D01*
X319146Y901973D01*
X318968Y902232D01*
X318804Y902500D01*
X318654Y902776D01*
X318519Y903060D01*
X318398Y903350D01*
X318294Y903646D01*
X318204Y903947D01*
X318131Y904252D01*
X318074Y904561D01*
X318033Y904873D01*
X318008Y905186D01*
X318000Y905500D01*
X318008Y905814D01*
X318033Y906127D01*
X318074Y906439D01*
X318131Y906748D01*
X318204Y907053D01*
X318294Y907354D01*
X318398Y907650D01*
X318519Y907940D01*
X318654Y908224D01*
X318804Y908500D01*
X318968Y908768D01*
X319146Y909027D01*
X319337Y909276D01*
X319541Y909515D01*
X319757Y909743D01*
X319985Y909959D01*
X320224Y910163D01*
X320473Y910354D01*
X320732Y910532D01*
X321000Y910696D01*
X321276Y910846D01*
X321560Y910981D01*
X321850Y911102D01*
X322146Y911206D01*
X322447Y911296D01*
X322752Y911369D01*
X323061Y911426D01*
X323373Y911467D01*
X323686Y911492D01*
X324000Y911500D01*
X336000D01*
X336314Y911492D01*
D02*
G37*
G36*
X332222Y893244D02*
X332444Y893227D01*
X332665Y893198D01*
X332884Y893157D01*
X333100Y893105D01*
X333313Y893042D01*
X333523Y892968D01*
X333729Y892883D01*
X333929Y892787D01*
X334125Y892681D01*
X334315Y892564D01*
X334498Y892438D01*
X334675Y892303D01*
X334844Y892158D01*
X335005Y892005D01*
X335158Y891844D01*
X335303Y891675D01*
X335438Y891498D01*
X335564Y891315D01*
X335681Y891125D01*
X335787Y890929D01*
X335883Y890729D01*
X335968Y890523D01*
X336042Y890313D01*
X336105Y890100D01*
X336157Y889884D01*
X336198Y889665D01*
X336227Y889444D01*
X336244Y889222D01*
X336250Y889000D01*
Y887750D01*
Y886500D01*
X336244Y886278D01*
X336227Y886056D01*
X336198Y885835D01*
X336157Y885616D01*
X336105Y885400D01*
X336042Y885187D01*
X335968Y884977D01*
X335883Y884771D01*
X335787Y884570D01*
X335681Y884375D01*
X335564Y884185D01*
X335438Y884002D01*
X335303Y883825D01*
X335158Y883656D01*
X335005Y883495D01*
X334844Y883342D01*
X334675Y883197D01*
X334498Y883062D01*
X334315Y882936D01*
X334125Y882819D01*
X333929Y882713D01*
X333729Y882617D01*
X333523Y882532D01*
X333313Y882458D01*
X333100Y882395D01*
X332884Y882343D01*
X332665Y882302D01*
X332444Y882273D01*
X332222Y882256D01*
X332000Y882250D01*
X331778Y882256D01*
X331556Y882273D01*
X331335Y882302D01*
X331116Y882343D01*
X330900Y882395D01*
X330687Y882458D01*
X330477Y882532D01*
X330271Y882617D01*
X330070Y882713D01*
X329875Y882819D01*
X329685Y882936D01*
X329502Y883062D01*
X329325Y883197D01*
X329156Y883342D01*
X328995Y883495D01*
X328842Y883656D01*
X328697Y883825D01*
X328562Y884002D01*
X328436Y884185D01*
X328319Y884375D01*
X328213Y884570D01*
X328117Y884771D01*
X328032Y884977D01*
X327958Y885187D01*
X327895Y885400D01*
X327843Y885616D01*
X327802Y885835D01*
X327773Y886056D01*
X327756Y886278D01*
X327750Y886500D01*
Y887750D01*
Y889000D01*
X327756Y889222D01*
X327773Y889444D01*
X327802Y889665D01*
X327843Y889884D01*
X327895Y890100D01*
X327958Y890313D01*
X328032Y890523D01*
X328117Y890729D01*
X328213Y890929D01*
X328319Y891125D01*
X328436Y891315D01*
X328562Y891498D01*
X328697Y891675D01*
X328842Y891844D01*
X328995Y892005D01*
X329156Y892158D01*
X329325Y892303D01*
X329502Y892438D01*
X329685Y892564D01*
X329875Y892681D01*
X330070Y892787D01*
X330271Y892883D01*
X330477Y892968D01*
X330687Y893042D01*
X330900Y893105D01*
X331116Y893157D01*
X331335Y893198D01*
X331556Y893227D01*
X331778Y893244D01*
X332000Y893250D01*
X332222Y893244D01*
D02*
G37*
G36*
X336314Y800492D02*
X336627Y800467D01*
X336939Y800426D01*
X337248Y800369D01*
X337553Y800296D01*
X337854Y800206D01*
X338150Y800101D01*
X338440Y799981D01*
X338724Y799846D01*
X339000Y799696D01*
X339268Y799532D01*
X339527Y799354D01*
X339776Y799163D01*
X340015Y798959D01*
X340243Y798743D01*
X340459Y798515D01*
X340663Y798276D01*
X340854Y798027D01*
X341032Y797768D01*
X341196Y797500D01*
X341346Y797224D01*
X341481Y796940D01*
X341601Y796650D01*
X341706Y796354D01*
X341796Y796053D01*
X341869Y795748D01*
X341926Y795439D01*
X341967Y795127D01*
X341992Y794814D01*
X342000Y794500D01*
X341992Y794186D01*
X341967Y793873D01*
X341926Y793561D01*
X341869Y793252D01*
X341796Y792947D01*
X341706Y792646D01*
X341601Y792350D01*
X341481Y792060D01*
X341346Y791776D01*
X341196Y791500D01*
X341032Y791232D01*
X340854Y790973D01*
X340663Y790724D01*
X340459Y790485D01*
X340243Y790257D01*
X340015Y790041D01*
X339776Y789837D01*
X339527Y789646D01*
X339268Y789468D01*
X339000Y789304D01*
X338724Y789154D01*
X338440Y789019D01*
X338150Y788898D01*
X337854Y788794D01*
X337553Y788704D01*
X337248Y788631D01*
X336939Y788574D01*
X336627Y788533D01*
X336314Y788508D01*
X336000Y788500D01*
X324000D01*
X323686Y788508D01*
X323373Y788533D01*
X323061Y788574D01*
X322752Y788631D01*
X322447Y788704D01*
X322146Y788794D01*
X321850Y788898D01*
X321560Y789019D01*
X321276Y789154D01*
X321000Y789304D01*
X320732Y789468D01*
X320473Y789646D01*
X320224Y789837D01*
X319985Y790041D01*
X319757Y790257D01*
X319541Y790485D01*
X319337Y790724D01*
X319146Y790973D01*
X318968Y791232D01*
X318804Y791500D01*
X318654Y791776D01*
X318519Y792060D01*
X318398Y792350D01*
X318294Y792646D01*
X318204Y792947D01*
X318131Y793252D01*
X318074Y793561D01*
X318033Y793873D01*
X318008Y794186D01*
X318000Y794500D01*
X318008Y794814D01*
X318033Y795127D01*
X318074Y795439D01*
X318131Y795748D01*
X318204Y796053D01*
X318294Y796354D01*
X318398Y796650D01*
X318519Y796940D01*
X318654Y797224D01*
X318804Y797500D01*
X318968Y797768D01*
X319146Y798027D01*
X319337Y798276D01*
X319541Y798515D01*
X319757Y798743D01*
X319985Y798959D01*
X320224Y799163D01*
X320473Y799354D01*
X320732Y799532D01*
X321000Y799696D01*
X321276Y799846D01*
X321560Y799981D01*
X321850Y800101D01*
X322146Y800206D01*
X322447Y800296D01*
X322752Y800369D01*
X323061Y800426D01*
X323373Y800467D01*
X323686Y800492D01*
X324000Y800500D01*
X336000D01*
X336314Y800492D01*
D02*
G37*
G36*
X288340Y798491D02*
X288679Y798464D01*
X289017Y798420D01*
X289351Y798358D01*
X289682Y798279D01*
X290009Y798182D01*
X290329Y798068D01*
X290644Y797938D01*
X290951Y797792D01*
X291250Y797629D01*
X291540Y797451D01*
X291821Y797259D01*
X292091Y797051D01*
X292349Y796830D01*
X292596Y796596D01*
X292831Y796349D01*
X293051Y796091D01*
X293259Y795821D01*
X293451Y795540D01*
X293629Y795250D01*
X293792Y794951D01*
X293938Y794644D01*
X294068Y794329D01*
X294182Y794009D01*
X294279Y793682D01*
X294358Y793351D01*
X294420Y793017D01*
X294464Y792679D01*
X294491Y792340D01*
X294500Y792000D01*
X294491Y791660D01*
X294464Y791321D01*
X294420Y790983D01*
X294358Y790649D01*
X294279Y790318D01*
X294182Y789991D01*
X294068Y789671D01*
X293938Y789356D01*
X293792Y789049D01*
X293629Y788750D01*
X293451Y788460D01*
X293259Y788179D01*
X293051Y787909D01*
X292831Y787651D01*
X292596Y787404D01*
X292349Y787170D01*
X292091Y786948D01*
X291821Y786741D01*
X291540Y786549D01*
X291250Y786371D01*
X290951Y786208D01*
X290644Y786062D01*
X290329Y785932D01*
X290009Y785818D01*
X289682Y785722D01*
X289351Y785642D01*
X289017Y785580D01*
X288679Y785536D01*
X288340Y785509D01*
X288000Y785500D01*
X275000D01*
X274660Y785509D01*
X274321Y785536D01*
X273983Y785580D01*
X273649Y785642D01*
X273318Y785722D01*
X272991Y785818D01*
X272671Y785932D01*
X272356Y786062D01*
X272049Y786208D01*
X271750Y786371D01*
X271460Y786549D01*
X271179Y786741D01*
X270909Y786948D01*
X270651Y787170D01*
X270404Y787404D01*
X270170Y787651D01*
X269949Y787909D01*
X269741Y788179D01*
X269549Y788460D01*
X269371Y788750D01*
X269209Y789049D01*
X269062Y789356D01*
X268932Y789671D01*
X268818Y789991D01*
X268722Y790318D01*
X268642Y790649D01*
X268580Y790983D01*
X268536Y791321D01*
X268509Y791660D01*
X268500Y792000D01*
X268509Y792340D01*
X268536Y792679D01*
X268580Y793017D01*
X268642Y793351D01*
X268722Y793682D01*
X268818Y794009D01*
X268932Y794329D01*
X269062Y794644D01*
X269209Y794951D01*
X269371Y795250D01*
X269549Y795540D01*
X269741Y795821D01*
X269949Y796091D01*
X270170Y796349D01*
X270404Y796596D01*
X270651Y796830D01*
X270909Y797051D01*
X271179Y797259D01*
X271460Y797451D01*
X271750Y797629D01*
X272049Y797792D01*
X272356Y797938D01*
X272671Y798068D01*
X272991Y798182D01*
X273318Y798279D01*
X273649Y798358D01*
X273983Y798420D01*
X274321Y798464D01*
X274660Y798491D01*
X275000Y798500D01*
X288000D01*
X288340Y798491D01*
D02*
G37*
%LPC*%
G36*
X554850Y1102037D02*
X547650D01*
X546909Y1101890D01*
X546280Y1101470D01*
X545860Y1100841D01*
X545713Y1100100D01*
Y1098574D01*
X542207D01*
X542207Y1098574D01*
X541126Y1098359D01*
X540210Y1097747D01*
X539606Y1097143D01*
X538745Y1097500D01*
X536755D01*
X534918Y1096739D01*
X533511Y1095332D01*
X532750Y1093495D01*
Y1091505D01*
X533511Y1089668D01*
X534918Y1088261D01*
X536755Y1087500D01*
X538745D01*
X540582Y1088261D01*
X541989Y1089668D01*
X542750Y1091505D01*
Y1092299D01*
X543377Y1092926D01*
X545713D01*
Y1091400D01*
X545860Y1090659D01*
X546280Y1090030D01*
X546909Y1089610D01*
X547650Y1089463D01*
X554850D01*
X555591Y1089610D01*
X556220Y1090030D01*
X556640Y1090659D01*
X556787Y1091400D01*
Y1100100D01*
X556640Y1100841D01*
X556220Y1101470D01*
X555591Y1101890D01*
X554850Y1102037D01*
D02*
G37*
G36*
X509730Y1089730D02*
X504302D01*
Y1086410D01*
X504531Y1085259D01*
X505183Y1084283D01*
X506159Y1083631D01*
X507310Y1083402D01*
X509730D01*
Y1089730D01*
D02*
G37*
G36*
X605098Y1096480D02*
X598770D01*
Y1091052D01*
X602090D01*
X603241Y1091281D01*
X604217Y1091933D01*
X604869Y1092909D01*
X605098Y1094060D01*
Y1096480D01*
D02*
G37*
G36*
X588495Y1037750D02*
X586505D01*
X584668Y1036989D01*
X583261Y1035582D01*
X582500Y1033745D01*
Y1033305D01*
X581230Y1032920D01*
X581039Y1033206D01*
X579328Y1034917D01*
X573956Y1029544D01*
X573058Y1030442D01*
X572160Y1029544D01*
X567424Y1034280D01*
X565076Y1031933D01*
X564424Y1030957D01*
X564195Y1029806D01*
X564322Y1029169D01*
X563881Y1028699D01*
X563275Y1028263D01*
X562290Y1028459D01*
X561139Y1028230D01*
X560163Y1027578D01*
X557816Y1025230D01*
X562552Y1020494D01*
X561654Y1019596D01*
X562552Y1018698D01*
X557179Y1013326D01*
X558891Y1011615D01*
X559866Y1010963D01*
X561017Y1010734D01*
X562068Y1010943D01*
X562516Y1010626D01*
X563102Y1010059D01*
X563044Y1009767D01*
X563192Y1009022D01*
X563614Y1008390D01*
X568833Y1003172D01*
X569332Y1002839D01*
X570550Y1001621D01*
X570511Y1001582D01*
X569750Y999745D01*
Y997755D01*
X570511Y995918D01*
X571918Y994511D01*
X573755Y993750D01*
X575745D01*
X577582Y994511D01*
X578989Y995918D01*
X579750Y997755D01*
Y999745D01*
X578989Y1001582D01*
X577582Y1002989D01*
X576426Y1003468D01*
X575894Y1004265D01*
X575894Y1004265D01*
X574287Y1005872D01*
X578078Y1009663D01*
X578500Y1010295D01*
X578648Y1011040D01*
X578500Y1011786D01*
X578078Y1012417D01*
X577480Y1013015D01*
X579360Y1014895D01*
X580237Y1014018D01*
X580868Y1013596D01*
X581614Y1013448D01*
X582359Y1013596D01*
X582991Y1014018D01*
X589482Y1020509D01*
X589904Y1021141D01*
X590052Y1021886D01*
X589904Y1022632D01*
X589482Y1023263D01*
X588870Y1023876D01*
X589497Y1024503D01*
X590109Y1025419D01*
X590324Y1026500D01*
X590324Y1026500D01*
Y1028508D01*
X590332Y1028511D01*
X591739Y1029918D01*
X592500Y1031755D01*
Y1033745D01*
X591739Y1035582D01*
X590332Y1036989D01*
X588495Y1037750D01*
D02*
G37*
G36*
X573694Y1039305D02*
X572543Y1039076D01*
X571567Y1038424D01*
X569220Y1036077D01*
X573058Y1032238D01*
X577532Y1036713D01*
X575821Y1038424D01*
X574845Y1039076D01*
X573694Y1039305D01*
D02*
G37*
G36*
X556020Y1023434D02*
X553672Y1021087D01*
X553020Y1020111D01*
X552791Y1018960D01*
X553020Y1017809D01*
X553672Y1016833D01*
X555383Y1015122D01*
X559858Y1019596D01*
X556020Y1023434D01*
D02*
G37*
G36*
X613460Y1015459D02*
X612309Y1015230D01*
X611333Y1014578D01*
X609622Y1012867D01*
X614096Y1008392D01*
X617934Y1012230D01*
X615587Y1014578D01*
X614611Y1015230D01*
X613460Y1015459D01*
D02*
G37*
G36*
X607826Y1011071D02*
X606115Y1009359D01*
X605462Y1008384D01*
X605234Y1007233D01*
X605443Y1006182D01*
X605126Y1005734D01*
X604559Y1005148D01*
X604267Y1005206D01*
X603522Y1005058D01*
X602890Y1004636D01*
X597672Y999417D01*
X597250Y998785D01*
X597102Y998040D01*
X597250Y997295D01*
X597672Y996663D01*
X599261Y995074D01*
X587149Y982962D01*
X587141Y982965D01*
X585152D01*
X583314Y982204D01*
X581908Y980797D01*
X581147Y978960D01*
Y976971D01*
X581908Y975133D01*
X583314Y973726D01*
X585152Y972965D01*
X587141D01*
X588979Y973726D01*
X590385Y975133D01*
X591146Y976971D01*
Y978960D01*
X591143Y978968D01*
X603255Y991080D01*
X604163Y990172D01*
X604795Y989750D01*
X605540Y989602D01*
X606286Y989750D01*
X606917Y990172D01*
X607592Y990847D01*
X610472Y987967D01*
X609922Y987417D01*
X609500Y986786D01*
X609352Y986040D01*
X609500Y985295D01*
X609922Y984663D01*
X610217Y984368D01*
X597964Y972115D01*
X597524Y972297D01*
X595535D01*
X593697Y971536D01*
X592290Y970129D01*
X591529Y968292D01*
Y966303D01*
X592290Y964465D01*
X593697Y963058D01*
X595535Y962297D01*
X597524D01*
X599361Y963058D01*
X600768Y964465D01*
X601529Y966303D01*
Y967692D01*
X614211Y980374D01*
X616413Y978172D01*
X617045Y977750D01*
X617790Y977601D01*
X618535Y977750D01*
X619167Y978172D01*
X622938Y981943D01*
X660313D01*
X665176Y977080D01*
Y971420D01*
X657463Y963707D01*
X656463Y963812D01*
X655995Y965000D01*
X658578Y967583D01*
X659230Y968559D01*
X659459Y969710D01*
X659230Y970861D01*
X658578Y971837D01*
X656230Y974184D01*
X651494Y969448D01*
X650596Y970346D01*
X649698Y969448D01*
X644326Y974821D01*
X642615Y973109D01*
X641963Y972134D01*
X641734Y970983D01*
X641904Y970125D01*
X641942Y969800D01*
X641295Y968808D01*
X640663Y968386D01*
X634172Y961894D01*
X633750Y961263D01*
X633602Y960517D01*
X633750Y959772D01*
X634172Y959140D01*
X634315Y958997D01*
X622692Y947373D01*
X622275Y947546D01*
X620286D01*
X618448Y946785D01*
X617042Y945378D01*
X616280Y943541D01*
Y941551D01*
X617042Y939714D01*
X618448Y938307D01*
X620286Y937546D01*
X622275D01*
X624113Y938307D01*
X625519Y939714D01*
X626280Y941551D01*
Y942973D01*
X638310Y955003D01*
X639390Y953922D01*
X640022Y953500D01*
X640767Y953352D01*
X641513Y953500D01*
X642144Y953922D01*
X642924Y954702D01*
X647814Y949812D01*
X648731Y949200D01*
X649811Y948985D01*
X649811Y948985D01*
X661012D01*
X661015Y948977D01*
X662422Y947570D01*
X664259Y946809D01*
X666248D01*
X668086Y947570D01*
X669493Y948977D01*
X670254Y950814D01*
Y952803D01*
X669493Y954641D01*
X668086Y956048D01*
X666248Y956809D01*
X664259D01*
X662422Y956048D01*
X661015Y954641D01*
X661012Y954633D01*
X650981D01*
X648727Y956887D01*
X649353Y958058D01*
X649708Y957987D01*
X658561D01*
X658561Y957987D01*
X659642Y958202D01*
X660558Y958814D01*
X669997Y968253D01*
X669997Y968253D01*
X670609Y969169D01*
X670824Y970250D01*
X670824Y970250D01*
Y978250D01*
X670609Y979331D01*
X669997Y980247D01*
X669997Y980247D01*
X663480Y986765D01*
X662563Y987377D01*
X661483Y987592D01*
X661482Y987592D01*
X631746D01*
X631260Y988765D01*
X634328Y991833D01*
X634980Y992809D01*
X635209Y993960D01*
X634980Y995111D01*
X634328Y996087D01*
X631980Y998434D01*
X627244Y993698D01*
X626346Y994596D01*
X625448Y993698D01*
X620076Y999071D01*
X618364Y997359D01*
X617713Y996384D01*
X617484Y995233D01*
X617693Y994182D01*
X617376Y993734D01*
X616809Y993148D01*
X616517Y993206D01*
X615772Y993058D01*
X615140Y992636D01*
X614466Y991961D01*
X611586Y994841D01*
X612136Y995390D01*
X612558Y996022D01*
X612706Y996767D01*
X612648Y997059D01*
X613234Y997626D01*
X613682Y997943D01*
X614733Y997734D01*
X615884Y997962D01*
X616859Y998615D01*
X618571Y1000326D01*
X613198Y1005698D01*
X607826Y1011071D01*
D02*
G37*
G36*
X619730Y1010434D02*
X615892Y1006596D01*
X620367Y1002122D01*
X622078Y1003833D01*
X622730Y1004809D01*
X622959Y1005960D01*
X622730Y1007111D01*
X622078Y1008087D01*
X619730Y1010434D01*
D02*
G37*
G36*
X625710Y1003459D02*
X624559Y1003230D01*
X623583Y1002578D01*
X621872Y1000867D01*
X626346Y996392D01*
X630184Y1000230D01*
X627837Y1002578D01*
X626861Y1003230D01*
X625710Y1003459D01*
D02*
G37*
G36*
X649960Y979209D02*
X648809Y978980D01*
X647833Y978328D01*
X646122Y976617D01*
X650596Y972142D01*
X654434Y975980D01*
X652087Y978328D01*
X651111Y978980D01*
X649960Y979209D01*
D02*
G37*
G36*
X665245Y936250D02*
X663255D01*
X661418Y935489D01*
X660011Y934082D01*
X659250Y932245D01*
Y930255D01*
X659756Y929034D01*
X658679Y928315D01*
X656734Y930260D01*
Y932168D01*
X655973Y934006D01*
X654566Y935413D01*
X652728Y936174D01*
X650739D01*
X648902Y935413D01*
X647495Y934006D01*
X646734Y932168D01*
Y930179D01*
X647495Y928341D01*
X648902Y926935D01*
X650739Y926174D01*
X652728D01*
X653552Y925295D01*
X653560Y923725D01*
X649922Y920087D01*
X649500Y919455D01*
X649352Y918710D01*
X649500Y917965D01*
X649922Y917333D01*
X655140Y912114D01*
X655772Y911692D01*
X656517Y911544D01*
X656809Y911602D01*
X657376Y911016D01*
X657693Y910568D01*
X657484Y909517D01*
X657712Y908366D01*
X658364Y907391D01*
X660076Y905679D01*
X665448Y911052D01*
X670821Y916424D01*
X669109Y918136D01*
X668134Y918788D01*
X666983Y919016D01*
X665932Y918807D01*
X665484Y919124D01*
X664898Y919691D01*
X664956Y919983D01*
X664808Y920728D01*
X664386Y921360D01*
X663773Y921972D01*
X665394Y923592D01*
X665394Y923592D01*
X666006Y924508D01*
X666221Y925589D01*
X666221Y925589D01*
Y926654D01*
X667082Y927011D01*
X668489Y928418D01*
X669250Y930255D01*
Y932245D01*
X668489Y934082D01*
X667082Y935489D01*
X665245Y936250D01*
D02*
G37*
G36*
X672617Y914628D02*
X668142Y910154D01*
X671980Y906316D01*
X674328Y908663D01*
X674980Y909639D01*
X675209Y910790D01*
X674980Y911941D01*
X674328Y912917D01*
X672617Y914628D01*
D02*
G37*
G36*
X666346Y908358D02*
X661872Y903883D01*
X663583Y902172D01*
X664559Y901520D01*
X665710Y901291D01*
X666861Y901520D01*
X667837Y902172D01*
X670184Y904520D01*
X666346Y908358D01*
D02*
G37*
G36*
X659617Y903628D02*
X655142Y899154D01*
X658980Y895316D01*
X661328Y897663D01*
X661980Y898639D01*
X662209Y899790D01*
X661980Y900941D01*
X661328Y901917D01*
X659617Y903628D01*
D02*
G37*
G36*
X653346Y897358D02*
X648872Y892883D01*
X650583Y891172D01*
X651559Y890520D01*
X652710Y890291D01*
X653861Y890520D01*
X654837Y891172D01*
X657184Y893520D01*
X653346Y897358D01*
D02*
G37*
G36*
X706590Y761698D02*
X703270D01*
Y756270D01*
X709598D01*
Y758690D01*
X709369Y759841D01*
X708717Y760817D01*
X707741Y761469D01*
X706590Y761698D01*
D02*
G37*
G36*
X473531Y1188330D02*
X469969D01*
X466476Y1187635D01*
X463186Y1186272D01*
X460225Y1184294D01*
X457706Y1181775D01*
X455728Y1178814D01*
X454365Y1175524D01*
X453670Y1172031D01*
Y1168469D01*
X454365Y1164976D01*
X455728Y1161686D01*
X457706Y1158725D01*
X460225Y1156206D01*
X463186Y1154228D01*
X466476Y1152865D01*
X469969Y1152170D01*
X473531D01*
X477024Y1152865D01*
X480314Y1154228D01*
X483275Y1156206D01*
X485794Y1158725D01*
X487772Y1161686D01*
X489135Y1164976D01*
X489830Y1168469D01*
Y1172031D01*
X489135Y1175524D01*
X487772Y1178814D01*
X485794Y1181775D01*
X483275Y1184294D01*
X480314Y1186272D01*
X477024Y1187635D01*
X473531Y1188330D01*
D02*
G37*
G36*
X301781D02*
X298219D01*
X294726Y1187635D01*
X291436Y1186272D01*
X288475Y1184294D01*
X285956Y1181775D01*
X283978Y1178814D01*
X282615Y1175524D01*
X281920Y1172031D01*
Y1168469D01*
X282615Y1164976D01*
X283978Y1161686D01*
X285956Y1158725D01*
X288475Y1156206D01*
X291436Y1154228D01*
X294726Y1152865D01*
X298219Y1152170D01*
X301781D01*
X305274Y1152865D01*
X308564Y1154228D01*
X311525Y1156206D01*
X314044Y1158725D01*
X316022Y1161686D01*
X317385Y1164976D01*
X318080Y1168469D01*
Y1172031D01*
X317385Y1175524D01*
X316022Y1178814D01*
X314044Y1181775D01*
X311525Y1184294D01*
X308564Y1186272D01*
X305274Y1187635D01*
X301781Y1188330D01*
D02*
G37*
G36*
X602090Y1150698D02*
X598770D01*
Y1145270D01*
X605098D01*
Y1147690D01*
X604869Y1148841D01*
X604217Y1149817D01*
X603241Y1150469D01*
X602090Y1150698D01*
D02*
G37*
G36*
X486745Y1045750D02*
X484755D01*
X482918Y1044989D01*
X481511Y1043582D01*
X480750Y1041745D01*
Y1039755D01*
X481511Y1037918D01*
X482918Y1036511D01*
X484755Y1035750D01*
X486745D01*
X488582Y1036511D01*
X489989Y1037918D01*
X490750Y1039755D01*
Y1041745D01*
X489989Y1043582D01*
X488582Y1044989D01*
X486745Y1045750D01*
D02*
G37*
G36*
X347040Y1016790D02*
X338270D01*
Y1008020D01*
X347040D01*
Y1016790D01*
D02*
G37*
G36*
X335730D02*
X326960D01*
Y1008020D01*
X335730D01*
Y1016790D01*
D02*
G37*
G36*
X422200Y1015750D02*
X404200D01*
Y997750D01*
X422200D01*
Y1015750D01*
D02*
G37*
G36*
X396800D02*
X378800D01*
Y997750D01*
X396800D01*
Y1015750D01*
D02*
G37*
G36*
X371400D02*
X353400D01*
Y997750D01*
X371400D01*
Y1015750D01*
D02*
G37*
G36*
X347040Y1005480D02*
X338270D01*
Y996710D01*
X347040D01*
Y1005480D01*
D02*
G37*
G36*
X335730D02*
X326960D01*
Y996710D01*
X335730D01*
Y1005480D01*
D02*
G37*
G36*
X447245Y981250D02*
X445255D01*
X443418Y980489D01*
X442011Y979082D01*
X441250Y977245D01*
Y975255D01*
X442011Y973418D01*
X443418Y972011D01*
X445255Y971250D01*
X447245D01*
X449082Y972011D01*
X450489Y973418D01*
X451250Y975255D01*
Y977245D01*
X450489Y979082D01*
X449082Y980489D01*
X447245Y981250D01*
D02*
G37*
G36*
X397245Y956250D02*
X395255D01*
X393418Y955489D01*
X392011Y954082D01*
X391250Y952245D01*
Y950255D01*
X392011Y948418D01*
X393418Y947011D01*
X395255Y946250D01*
X397245D01*
X399082Y947011D01*
X400489Y948418D01*
X401250Y950255D01*
Y952245D01*
X400489Y954082D01*
X399082Y955489D01*
X397245Y956250D01*
D02*
G37*
G36*
X491290Y947959D02*
X490139Y947730D01*
X489163Y947078D01*
X486816Y944730D01*
X490654Y940892D01*
X495128Y945367D01*
X493417Y947078D01*
X492441Y947730D01*
X491290Y947959D01*
D02*
G37*
G36*
X496924Y943571D02*
X491552Y938198D01*
X490654Y939096D01*
X489756Y938198D01*
X485020Y942934D01*
X482672Y940587D01*
X482020Y939611D01*
X481809Y938547D01*
X480985Y938384D01*
X480010Y937732D01*
X477662Y935384D01*
X482398Y930648D01*
X481500Y929750D01*
X482398Y928852D01*
X477026Y923480D01*
X478737Y921768D01*
X479713Y921116D01*
X480864Y920887D01*
X481914Y921096D01*
X482362Y920780D01*
X482948Y920213D01*
X482890Y919921D01*
X483038Y919176D01*
X483461Y918544D01*
X488679Y913326D01*
X489311Y912904D01*
X490056Y912755D01*
X490652Y912874D01*
X491773Y911753D01*
X491770Y911745D01*
Y909755D01*
X492531Y907918D01*
X493938Y906511D01*
X495775Y905750D01*
X497765D01*
X499602Y906511D01*
X501009Y907918D01*
X501770Y909755D01*
Y911745D01*
X502744Y912712D01*
X503255Y912500D01*
X505245D01*
X507082Y913261D01*
X508489Y914668D01*
X509250Y916505D01*
Y918495D01*
X508809Y919560D01*
X509650Y920830D01*
X511707D01*
X512011Y920096D01*
X513418Y918689D01*
X515255Y917928D01*
X517245D01*
X519082Y918689D01*
X520489Y920096D01*
X521250Y921933D01*
Y923922D01*
X520489Y925760D01*
X519082Y927167D01*
X517245Y927928D01*
X515255D01*
X513418Y927167D01*
X512730Y926479D01*
X508735D01*
X508135Y926879D01*
X507908Y926924D01*
X507726Y927137D01*
X507369Y928326D01*
X507500Y928522D01*
X507648Y929267D01*
X507500Y930013D01*
X507078Y930645D01*
X500587Y937136D01*
X499955Y937558D01*
X499308Y938550D01*
X499346Y938875D01*
X499516Y939733D01*
X499287Y940884D01*
X498635Y941859D01*
X496924Y943571D01*
D02*
G37*
G36*
X475866Y933588D02*
X473518Y931240D01*
X472866Y930265D01*
X472637Y929114D01*
X472866Y927963D01*
X473518Y926987D01*
X475229Y925276D01*
X479704Y929750D01*
X475866Y933588D01*
D02*
G37*
G36*
X544007Y924753D02*
X542018D01*
X540181Y923992D01*
X538774Y922585D01*
X538417Y921724D01*
X536150D01*
X536149Y921724D01*
X535069Y921509D01*
X534152Y920897D01*
X527682Y914426D01*
X526433Y915674D01*
X525801Y916096D01*
X525056Y916245D01*
X524311Y916096D01*
X523679Y915674D01*
X520953Y912949D01*
X520713Y913109D01*
X519632Y913324D01*
X519632Y913324D01*
X515500D01*
X514419Y913109D01*
X513503Y912497D01*
X513503Y912497D01*
X508236Y907230D01*
X507624Y906314D01*
X507561Y906001D01*
X504968Y903408D01*
X504356Y902492D01*
X504141Y901411D01*
X504141Y901411D01*
Y898025D01*
X502002Y895887D01*
X501995Y895890D01*
X500005D01*
X498168Y895129D01*
X496761Y893722D01*
X496000Y891885D01*
Y889895D01*
X496761Y888058D01*
X498168Y886651D01*
X500005Y885890D01*
X501995D01*
X503832Y886651D01*
X505239Y888058D01*
X506000Y889895D01*
Y891885D01*
X505997Y891892D01*
X508962Y894858D01*
X508962Y894858D01*
X509227Y895255D01*
X509655Y895441D01*
X510726Y895552D01*
X510866Y895412D01*
X515602Y900148D01*
X516500Y899250D01*
X517398Y900148D01*
X522771Y894776D01*
X524482Y896487D01*
X525134Y897463D01*
X525363Y898614D01*
X525154Y899665D01*
X525470Y900112D01*
X526037Y900698D01*
X526329Y900640D01*
X526331Y900641D01*
X527663Y899844D01*
X527737Y899724D01*
X527770Y899559D01*
X528422Y898583D01*
X530133Y896872D01*
X535506Y902244D01*
X540878Y907617D01*
X539167Y909328D01*
X538191Y909980D01*
X537040Y910209D01*
X535889Y909980D01*
X534913Y909328D01*
X534475Y908890D01*
X532944Y909154D01*
X532924Y909183D01*
X531676Y910432D01*
X537319Y916075D01*
X539619D01*
X540181Y915514D01*
X542018Y914753D01*
X544007D01*
X545845Y915514D01*
X547252Y916921D01*
X548013Y918758D01*
Y920747D01*
X547252Y922585D01*
X545845Y923992D01*
X544007Y924753D01*
D02*
G37*
G36*
X399620Y925717D02*
X397631D01*
X395793Y924956D01*
X394387Y923550D01*
X393626Y921712D01*
Y919870D01*
X363503Y889747D01*
X362891Y888831D01*
X362676Y887750D01*
X362676Y887750D01*
Y868242D01*
X362668Y868239D01*
X361261Y866832D01*
X360500Y864995D01*
Y863005D01*
X361261Y861168D01*
X362668Y859761D01*
X364505Y859000D01*
X366495D01*
X368332Y859761D01*
X369739Y861168D01*
X370500Y863005D01*
Y864995D01*
X369739Y866832D01*
X368332Y868239D01*
X368324Y868242D01*
Y886580D01*
X397511Y915767D01*
X397631Y915717D01*
X399620D01*
X401458Y916479D01*
X402864Y917885D01*
X403626Y919723D01*
Y921712D01*
X402864Y923550D01*
X401458Y924956D01*
X399620Y925717D01*
D02*
G37*
G36*
X561685Y907075D02*
X559696D01*
X557858Y906314D01*
X556452Y904908D01*
X556095Y904046D01*
X554664D01*
X554664Y904046D01*
X553583Y903831D01*
X552667Y903219D01*
X552667Y903219D01*
X548222Y898773D01*
X547610Y899386D01*
X546978Y899808D01*
X546233Y899956D01*
X545941Y899898D01*
X545374Y900484D01*
X545057Y900932D01*
X545266Y901983D01*
X545037Y903134D01*
X544385Y904109D01*
X542674Y905821D01*
X537302Y900448D01*
X531929Y895076D01*
X533641Y893364D01*
X534616Y892712D01*
X535767Y892484D01*
X536818Y892693D01*
X537266Y892376D01*
X537852Y891809D01*
X537794Y891517D01*
X537942Y890772D01*
X538364Y890140D01*
X538977Y889528D01*
X537743Y888295D01*
X537184Y887921D01*
X535067Y885804D01*
X521866D01*
X521557Y886113D01*
X520641Y886725D01*
X519560Y886940D01*
X519560Y886940D01*
X516626D01*
X516623Y886948D01*
X515216Y888355D01*
X513379Y889116D01*
X511390D01*
X509552Y888355D01*
X508145Y886948D01*
X507384Y885110D01*
Y883121D01*
X508145Y881283D01*
X509552Y879877D01*
X511390Y879116D01*
X513379D01*
X515216Y879877D01*
X516623Y881283D01*
X516626Y881292D01*
X518390D01*
X518699Y880983D01*
X518699Y880983D01*
X519615Y880371D01*
X520696Y880156D01*
X520696Y880156D01*
X536237D01*
X536237Y880156D01*
X537318Y880371D01*
X538234Y880983D01*
X540804Y883553D01*
X541364Y883927D01*
X542971Y885534D01*
X543583Y884922D01*
X544215Y884500D01*
X544960Y884352D01*
X545705Y884500D01*
X546337Y884922D01*
X552828Y891413D01*
X553250Y892045D01*
X553399Y892790D01*
X553250Y893535D01*
X552828Y894167D01*
X552216Y894779D01*
X555834Y898398D01*
X557297D01*
X557858Y897836D01*
X559696Y897075D01*
X561685D01*
X563523Y897836D01*
X564929Y899243D01*
X565691Y901081D01*
Y903070D01*
X564929Y904908D01*
X563523Y906314D01*
X561685Y907075D01*
D02*
G37*
G36*
X516500Y897454D02*
X512662Y893616D01*
X515010Y891268D01*
X515985Y890616D01*
X517136Y890387D01*
X518287Y890616D01*
X519263Y891268D01*
X520974Y892980D01*
X516500Y897454D01*
D02*
G37*
G36*
X281995Y894500D02*
X280005D01*
X278168Y893739D01*
X276761Y892332D01*
X276000Y890495D01*
Y888505D01*
X276761Y886668D01*
X278168Y885261D01*
X280005Y884500D01*
X281995D01*
X283832Y885261D01*
X285239Y886668D01*
X286000Y888505D01*
Y890495D01*
X285239Y892332D01*
X283832Y893739D01*
X281995Y894500D01*
D02*
G37*
G36*
X302495Y879500D02*
X300505D01*
X298668Y878739D01*
X297261Y877332D01*
X296500Y875495D01*
Y873505D01*
X297261Y871668D01*
X298668Y870261D01*
X300505Y869500D01*
X302495D01*
X304332Y870261D01*
X305739Y871668D01*
X306500Y873505D01*
Y875495D01*
X305739Y877332D01*
X304332Y878739D01*
X302495Y879500D01*
D02*
G37*
G36*
X546707Y874249D02*
X544718D01*
X542881Y873488D01*
X541474Y872081D01*
X540713Y870244D01*
Y869372D01*
X535283D01*
X535213Y869386D01*
X535213Y869386D01*
X525114D01*
X524571Y870697D01*
X523164Y872103D01*
X521326Y872864D01*
X519337D01*
X517500Y872103D01*
X516093Y870697D01*
X515332Y868859D01*
Y866870D01*
X516093Y865032D01*
X517427Y863699D01*
X517654Y863360D01*
X517858Y862334D01*
X517302Y861778D01*
X516541Y859940D01*
Y857951D01*
X517302Y856114D01*
X518709Y854707D01*
X520547Y853946D01*
X522536D01*
X524374Y854707D01*
X525780Y856114D01*
X526541Y857951D01*
Y859397D01*
X533360D01*
X533429Y859383D01*
X533430Y859383D01*
X540722D01*
Y858468D01*
X541483Y856630D01*
X542889Y855224D01*
X544727Y854463D01*
X546716D01*
X548554Y855224D01*
X549960Y856630D01*
X550722Y858468D01*
Y860457D01*
X549960Y862295D01*
X548554Y863701D01*
X548503Y863723D01*
Y864993D01*
X548545Y865010D01*
X549952Y866417D01*
X550713Y868254D01*
Y870244D01*
X549952Y872081D01*
X548545Y873488D01*
X546707Y874249D01*
D02*
G37*
G36*
X338843Y857492D02*
X337650D01*
X336547Y857036D01*
X335703Y856192D01*
X335247Y855089D01*
Y853895D01*
X335703Y852793D01*
X335749Y852748D01*
X335903Y847570D01*
X335500Y846597D01*
Y845403D01*
X335957Y844301D01*
X336801Y843457D01*
X337903Y843000D01*
X339097D01*
X340199Y843457D01*
X341043Y844301D01*
X341500Y845403D01*
Y846597D01*
X341043Y847699D01*
X340998Y847745D01*
X340844Y852922D01*
X341247Y853895D01*
Y855089D01*
X340790Y856192D01*
X339946Y857036D01*
X338843Y857492D01*
D02*
G37*
G36*
X506082Y850548D02*
X504093D01*
X502256Y849787D01*
X500849Y848381D01*
X500088Y846543D01*
Y844554D01*
X500849Y842716D01*
X502256Y841310D01*
X504093Y840548D01*
X506082D01*
X507920Y841310D01*
X509327Y842716D01*
X510088Y844554D01*
Y846543D01*
X509327Y848381D01*
X507920Y849787D01*
X506082Y850548D01*
D02*
G37*
G36*
X304940Y858599D02*
X302951D01*
X301113Y857838D01*
X299707Y856431D01*
X298946Y854593D01*
Y852604D01*
X299707Y850767D01*
X301113Y849360D01*
X301320Y849275D01*
X301549Y847805D01*
X300647Y846902D01*
X299886Y845064D01*
Y843075D01*
X300647Y841238D01*
X302053Y839831D01*
X303891Y839070D01*
X305880D01*
X307718Y839831D01*
X309124Y841238D01*
X309886Y843075D01*
Y845064D01*
X309124Y846902D01*
X307718Y848309D01*
X307512Y848394D01*
X307282Y849864D01*
X308185Y850767D01*
X308946Y852604D01*
Y854593D01*
X308185Y856431D01*
X306778Y857838D01*
X304940Y858599D01*
D02*
G37*
G36*
X559870Y855375D02*
X557880D01*
X556043Y854614D01*
X554636Y853207D01*
X553875Y851369D01*
Y849380D01*
X554636Y847543D01*
X556043Y846136D01*
X556051Y846133D01*
Y844537D01*
X555400D01*
X554659Y844390D01*
X554030Y843970D01*
X553610Y843341D01*
X553463Y842600D01*
Y837994D01*
X546570D01*
X545489Y837779D01*
X544573Y837167D01*
X540793Y833387D01*
X533660D01*
X532915Y833239D01*
X532283Y832817D01*
X531861Y832185D01*
X531713Y831440D01*
Y824060D01*
X531861Y823315D01*
X532283Y822683D01*
X532915Y822261D01*
X533660Y822113D01*
X539030D01*
X539680Y820843D01*
X539352Y820387D01*
X533660D01*
X532915Y820239D01*
X532283Y819817D01*
X531861Y819185D01*
X531713Y818440D01*
Y811060D01*
X531861Y810315D01*
X532283Y809683D01*
X532915Y809261D01*
X533660Y809113D01*
X542840D01*
X543585Y809261D01*
X544217Y809683D01*
X544639Y810315D01*
X544787Y811060D01*
Y817103D01*
X544860Y817176D01*
X546250D01*
Y809250D01*
X559250D01*
Y830250D01*
X547440D01*
X546965Y831397D01*
X547748Y832346D01*
X554306D01*
X554659Y832110D01*
X555400Y831963D01*
X562600D01*
X563341Y832110D01*
X563970Y832530D01*
X564390Y833159D01*
X564537Y833900D01*
Y842600D01*
X564390Y843341D01*
X563970Y843970D01*
X563341Y844390D01*
X562600Y844537D01*
X561699D01*
Y846133D01*
X561707Y846136D01*
X563114Y847543D01*
X563875Y849380D01*
Y851369D01*
X563114Y853207D01*
X561707Y854614D01*
X559870Y855375D01*
D02*
G37*
G36*
X583745Y862750D02*
X581755D01*
X579918Y861989D01*
X578511Y860582D01*
X577750Y858745D01*
Y856755D01*
X578511Y854918D01*
X579918Y853511D01*
X581755Y852750D01*
X583745D01*
X583753Y852753D01*
X585295Y851210D01*
X582672Y848587D01*
X582250Y847955D01*
X582102Y847210D01*
X582250Y846465D01*
X582672Y845833D01*
X587890Y840614D01*
X588522Y840192D01*
X589267Y840044D01*
X589559Y840102D01*
X590126Y839516D01*
X590443Y839068D01*
X590234Y838017D01*
X590462Y836866D01*
X591115Y835891D01*
X592826Y834180D01*
X598198Y839552D01*
X599096Y838654D01*
X599994Y839552D01*
X604730Y834816D01*
X605654Y835739D01*
X606634Y835643D01*
X614639Y827638D01*
X614635Y827630D01*
Y825641D01*
X615397Y823803D01*
X616803Y822397D01*
X618641Y821635D01*
X620630D01*
X622468Y822397D01*
X623874Y823803D01*
X624635Y825641D01*
Y827630D01*
X623874Y829468D01*
X622468Y830874D01*
X620630Y831635D01*
X618641D01*
X618633Y831632D01*
X611455Y838810D01*
Y840815D01*
X611240Y841895D01*
X610628Y842812D01*
X610628Y842812D01*
X602960Y850480D01*
X602044Y851092D01*
X600963Y851307D01*
X600963Y851307D01*
X595688D01*
X591917Y855078D01*
X591286Y855500D01*
X590540Y855648D01*
X589795Y855500D01*
X589315Y855179D01*
X587747Y856747D01*
X587750Y856755D01*
Y858745D01*
X586989Y860582D01*
X585582Y861989D01*
X583745Y862750D01*
D02*
G37*
G36*
X332042Y819373D02*
X332000Y819357D01*
X331958Y819373D01*
X331735Y819367D01*
X331693Y819349D01*
X331650Y819363D01*
X331428Y819345D01*
X331388Y819325D01*
X331344Y819336D01*
X331123Y819307D01*
X331084Y819285D01*
X331039Y819294D01*
X330821Y819254D01*
X330782Y819229D01*
X330737Y819236D01*
X330521Y819184D01*
X330484Y819157D01*
X330439Y819162D01*
X330226Y819099D01*
X330190Y819070D01*
X330145Y819072D01*
X329935Y818998D01*
X329901Y818968D01*
X329856D01*
X329650Y818883D01*
X329618Y818850D01*
X329572Y818848D01*
X329372Y818752D01*
X329341Y818718D01*
X329296Y818714D01*
X329100Y818607D01*
X329072Y818572D01*
X329027Y818565D01*
X328837Y818449D01*
X328810Y818412D01*
X328766Y818402D01*
X328582Y818276D01*
X328558Y818238D01*
X328513Y818226D01*
X328337Y818091D01*
X328314Y818052D01*
X328271Y818037D01*
X328102Y817893D01*
X328081Y817852D01*
X328039Y817836D01*
X327877Y817683D01*
X327859Y817641D01*
X327817Y817623D01*
X327664Y817461D01*
X327648Y817419D01*
X327607Y817398D01*
X327463Y817229D01*
X327449Y817186D01*
X327409Y817163D01*
X327274Y816986D01*
X327262Y816943D01*
X327224Y816918D01*
X327098Y816734D01*
X327088Y816690D01*
X327051Y816663D01*
X326935Y816473D01*
X326928Y816428D01*
X326893Y816400D01*
X326786Y816204D01*
X326782Y816159D01*
X326748Y816128D01*
X326652Y815928D01*
X326650Y815882D01*
X326617Y815850D01*
X326532Y815644D01*
Y815599D01*
X326502Y815565D01*
X326428Y815355D01*
X326430Y815310D01*
X326401Y815274D01*
X326338Y815061D01*
X326343Y815016D01*
X326316Y814979D01*
X326264Y814763D01*
X326271Y814718D01*
X326246Y814680D01*
X326206Y814461D01*
X326215Y814416D01*
X326193Y814377D01*
X326164Y814156D01*
X326175Y814112D01*
X326155Y814072D01*
X326137Y813850D01*
X326151Y813807D01*
X326133Y813765D01*
X326127Y813543D01*
X326135Y813521D01*
X326126Y813500D01*
Y811000D01*
X326135Y810979D01*
X326127Y810957D01*
X326133Y810735D01*
X326151Y810694D01*
X326137Y810650D01*
X326155Y810428D01*
X326175Y810388D01*
X326164Y810344D01*
X326193Y810123D01*
X326215Y810084D01*
X326206Y810039D01*
X326246Y809820D01*
X326271Y809782D01*
X326264Y809737D01*
X326316Y809521D01*
X326343Y809484D01*
X326338Y809439D01*
X326401Y809226D01*
X326430Y809190D01*
X326428Y809145D01*
X326502Y808935D01*
X326532Y808901D01*
Y808856D01*
X326617Y808650D01*
X326650Y808618D01*
X326652Y808572D01*
X326748Y808372D01*
X326782Y808341D01*
X326786Y808296D01*
X326893Y808100D01*
X326928Y808072D01*
X326935Y808027D01*
X327051Y807837D01*
X327088Y807810D01*
X327098Y807766D01*
X327224Y807582D01*
X327262Y807557D01*
X327274Y807514D01*
X327409Y807337D01*
X327449Y807314D01*
X327463Y807271D01*
X327607Y807102D01*
X327648Y807081D01*
X327664Y807039D01*
X327817Y806877D01*
X327859Y806859D01*
X327877Y806817D01*
X328039Y806664D01*
X328081Y806648D01*
X328102Y806607D01*
X328271Y806462D01*
X328314Y806449D01*
X328337Y806409D01*
X328513Y806274D01*
X328558Y806262D01*
X328582Y806224D01*
X328766Y806098D01*
X328810Y806088D01*
X328837Y806051D01*
X329027Y805935D01*
X329072Y805928D01*
X329100Y805893D01*
X329296Y805786D01*
X329341Y805782D01*
X329372Y805748D01*
X329572Y805652D01*
X329618Y805650D01*
X329650Y805617D01*
X329856Y805532D01*
X329901D01*
X329935Y805502D01*
X330145Y805428D01*
X330190Y805430D01*
X330226Y805401D01*
X330439Y805338D01*
X330484Y805343D01*
X330521Y805316D01*
X330737Y805264D01*
X330782Y805271D01*
X330821Y805246D01*
X331039Y805206D01*
X331084Y805215D01*
X331123Y805193D01*
X331344Y805164D01*
X331388Y805175D01*
X331428Y805155D01*
X331650Y805137D01*
X331693Y805151D01*
X331735Y805133D01*
X331958Y805127D01*
X332000Y805143D01*
X332042Y805127D01*
X332265Y805133D01*
X332307Y805151D01*
X332350Y805137D01*
X332572Y805155D01*
X332612Y805175D01*
X332656Y805164D01*
X332877Y805193D01*
X332916Y805215D01*
X332961Y805206D01*
X333179Y805246D01*
X333218Y805271D01*
X333263Y805264D01*
X333479Y805316D01*
X333516Y805343D01*
X333561Y805338D01*
X333774Y805401D01*
X333810Y805430D01*
X333856Y805428D01*
X334065Y805502D01*
X334099Y805532D01*
X334144D01*
X334350Y805617D01*
X334382Y805650D01*
X334427Y805652D01*
X334628Y805748D01*
X334659Y805782D01*
X334704Y805786D01*
X334900Y805892D01*
X334928Y805928D01*
X334973Y805935D01*
X335163Y806051D01*
X335190Y806088D01*
X335234Y806098D01*
X335418Y806224D01*
X335443Y806262D01*
X335486Y806274D01*
X335663Y806409D01*
X335686Y806449D01*
X335729Y806462D01*
X335898Y806607D01*
X335919Y806648D01*
X335961Y806664D01*
X336123Y806817D01*
X336141Y806859D01*
X336183Y806877D01*
X336336Y807039D01*
X336352Y807081D01*
X336393Y807102D01*
X336538Y807271D01*
X336552Y807314D01*
X336591Y807337D01*
X336726Y807514D01*
X336738Y807558D01*
X336776Y807582D01*
X336902Y807766D01*
X336912Y807810D01*
X336949Y807837D01*
X337065Y808027D01*
X337072Y808072D01*
X337107Y808100D01*
X337214Y808296D01*
X337218Y808341D01*
X337252Y808372D01*
X337348Y808572D01*
X337350Y808618D01*
X337383Y808650D01*
X337468Y808856D01*
Y808901D01*
X337498Y808935D01*
X337572Y809145D01*
X337570Y809190D01*
X337599Y809226D01*
X337662Y809439D01*
X337657Y809484D01*
X337684Y809521D01*
X337736Y809737D01*
X337729Y809782D01*
X337754Y809821D01*
X337794Y810039D01*
X337785Y810084D01*
X337807Y810123D01*
X337836Y810344D01*
X337825Y810388D01*
X337845Y810428D01*
X337863Y810650D01*
X337849Y810694D01*
X337867Y810735D01*
X337873Y810958D01*
X337865Y810979D01*
X337874Y811000D01*
Y813500D01*
X337865Y813521D01*
X337873Y813542D01*
X337867Y813765D01*
X337849Y813807D01*
X337863Y813850D01*
X337845Y814072D01*
X337825Y814112D01*
X337836Y814156D01*
X337807Y814377D01*
X337785Y814416D01*
X337794Y814461D01*
X337754Y814679D01*
X337729Y814718D01*
X337736Y814763D01*
X337684Y814979D01*
X337657Y815016D01*
X337662Y815061D01*
X337599Y815274D01*
X337570Y815310D01*
X337572Y815356D01*
X337498Y815565D01*
X337468Y815599D01*
Y815644D01*
X337383Y815850D01*
X337350Y815882D01*
X337348Y815928D01*
X337252Y816128D01*
X337218Y816159D01*
X337214Y816204D01*
X337108Y816400D01*
X337072Y816428D01*
X337065Y816473D01*
X336949Y816663D01*
X336912Y816690D01*
X336902Y816734D01*
X336776Y816918D01*
X336738Y816943D01*
X336726Y816986D01*
X336591Y817163D01*
X336552Y817186D01*
X336538Y817229D01*
X336393Y817398D01*
X336352Y817419D01*
X336336Y817461D01*
X336183Y817623D01*
X336141Y817641D01*
X336123Y817683D01*
X335961Y817836D01*
X335919Y817852D01*
X335898Y817893D01*
X335729Y818037D01*
X335686Y818052D01*
X335663Y818091D01*
X335486Y818226D01*
X335443Y818238D01*
X335418Y818276D01*
X335234Y818402D01*
X335190Y818412D01*
X335163Y818449D01*
X334973Y818565D01*
X334928Y818572D01*
X334900Y818607D01*
X334704Y818714D01*
X334659Y818718D01*
X334628Y818752D01*
X334427Y818848D01*
X334382Y818850D01*
X334350Y818883D01*
X334144Y818968D01*
X334099D01*
X334065Y818998D01*
X333856Y819072D01*
X333810Y819070D01*
X333774Y819099D01*
X333561Y819162D01*
X333516Y819157D01*
X333479Y819184D01*
X333263Y819236D01*
X333218Y819229D01*
X333179Y819254D01*
X332961Y819294D01*
X332916Y819285D01*
X332877Y819307D01*
X332656Y819336D01*
X332612Y819325D01*
X332572Y819345D01*
X332350Y819363D01*
X332307Y819349D01*
X332265Y819367D01*
X332042Y819373D01*
D02*
G37*
G36*
X287245Y824500D02*
X285255D01*
X283418Y823739D01*
X282011Y822332D01*
X281250Y820495D01*
Y818505D01*
X282011Y816668D01*
X283418Y815261D01*
X285255Y814500D01*
X287245D01*
X289082Y815261D01*
X290489Y816668D01*
X291250Y818505D01*
Y820495D01*
X290489Y822332D01*
X289082Y823739D01*
X287245Y824500D01*
D02*
G37*
G36*
X574245Y854750D02*
X572255D01*
X570418Y853989D01*
X569011Y852582D01*
X568250Y850745D01*
Y848755D01*
X568937Y847098D01*
X568926Y847043D01*
X568926Y847043D01*
Y844537D01*
X568400D01*
X567659Y844390D01*
X567030Y843970D01*
X566610Y843341D01*
X566463Y842600D01*
Y833900D01*
X566610Y833159D01*
X567030Y832530D01*
X567659Y832110D01*
X568400Y831963D01*
X575600D01*
X576341Y832110D01*
X576694Y832346D01*
X579785D01*
X580707Y831423D01*
X580221Y830250D01*
X571250D01*
Y809250D01*
X584250D01*
Y816959D01*
X585520Y817086D01*
X588213Y814393D01*
Y809060D01*
X588361Y808315D01*
X588783Y807683D01*
X589415Y807261D01*
X590160Y807113D01*
X599340D01*
X600085Y807261D01*
X600717Y807683D01*
X601139Y808315D01*
X601287Y809060D01*
Y816440D01*
X601139Y817185D01*
X600717Y817817D01*
X600085Y818239D01*
X599340Y818387D01*
X592762D01*
X592419Y818843D01*
X593051Y820113D01*
X599340D01*
X600085Y820261D01*
X600717Y820683D01*
X601139Y821315D01*
X601287Y822060D01*
Y829440D01*
X601139Y830185D01*
X600723Y830808D01*
X602934Y833020D01*
X599096Y836858D01*
X594194Y831955D01*
X593958Y831387D01*
X590160D01*
X589415Y831239D01*
X588379Y831435D01*
X587767Y832352D01*
X582952Y837167D01*
X582035Y837779D01*
X580955Y837994D01*
X580954Y837994D01*
X577537D01*
Y842600D01*
X577390Y843341D01*
X576970Y843970D01*
X576476Y844300D01*
X576320Y844780D01*
X576270Y845699D01*
X577489Y846918D01*
X578250Y848755D01*
Y850745D01*
X577489Y852582D01*
X576082Y853989D01*
X574245Y854750D01*
D02*
G37*
G36*
X518887Y788296D02*
X509113D01*
X508191Y788113D01*
X507409Y787591D01*
X506887Y786809D01*
X506704Y785888D01*
Y774559D01*
X506610Y773344D01*
X505529Y773129D01*
X504613Y772517D01*
X496003Y763907D01*
X495391Y762991D01*
X495176Y761910D01*
X495176Y761910D01*
Y759301D01*
X494380Y758770D01*
X493723Y757786D01*
X493680Y757574D01*
X489780D01*
X489636Y758298D01*
X488820Y759520D01*
X487598Y760336D01*
X486157Y760622D01*
X479343D01*
X477902Y760336D01*
X476680Y759520D01*
X475864Y758298D01*
X475578Y756857D01*
Y752643D01*
X475864Y751202D01*
X476680Y749980D01*
X477902Y749164D01*
X479343Y748878D01*
X486157D01*
X487598Y749164D01*
X488820Y749980D01*
X489636Y751202D01*
X489780Y751926D01*
X493492D01*
Y747475D01*
X493723Y746314D01*
X494380Y745330D01*
X495364Y744673D01*
X496525Y744442D01*
X499475D01*
X500636Y744673D01*
X501620Y745330D01*
X502888Y744943D01*
X503130Y744580D01*
X504458Y743693D01*
X506025Y743381D01*
X506230D01*
Y752050D01*
Y760719D01*
X506025D01*
X504458Y760407D01*
X503130Y759520D01*
X503002Y759327D01*
X501667Y759033D01*
X500970Y759530D01*
X500905Y760820D01*
X507780Y767696D01*
X509520D01*
X509520Y767696D01*
X509560Y767704D01*
X518887D01*
X519809Y767887D01*
X520591Y768409D01*
X521113Y769191D01*
X521296Y770113D01*
Y785888D01*
X521113Y786809D01*
X520591Y787591D01*
X519809Y788113D01*
X518887Y788296D01*
D02*
G37*
G36*
X454657Y761683D02*
X452520D01*
Y756020D01*
X459483D01*
Y756857D01*
X459115Y758704D01*
X458069Y760269D01*
X456504Y761315D01*
X454657Y761683D01*
D02*
G37*
G36*
X449980D02*
X447843D01*
X445996Y761315D01*
X444431Y760269D01*
X443385Y758704D01*
X443017Y756857D01*
Y756020D01*
X449980D01*
Y761683D01*
D02*
G37*
G36*
X459483Y753480D02*
X452520D01*
Y747817D01*
X454657D01*
X456504Y748185D01*
X458069Y749231D01*
X459115Y750796D01*
X459483Y752643D01*
Y753480D01*
D02*
G37*
G36*
X449980D02*
X443017D01*
Y752643D01*
X443385Y750796D01*
X444431Y749231D01*
X445996Y748185D01*
X447843Y747817D01*
X449980D01*
Y753480D01*
D02*
G37*
G36*
X342598Y749730D02*
X336270D01*
Y744302D01*
X339590D01*
X340741Y744531D01*
X341717Y745183D01*
X342369Y746159D01*
X342598Y747310D01*
Y749730D01*
D02*
G37*
G36*
X333730D02*
X327402D01*
Y747310D01*
X327631Y746159D01*
X328283Y745183D01*
X329259Y744531D01*
X330410Y744302D01*
X333730D01*
Y749730D01*
D02*
G37*
G36*
X487340Y744448D02*
X484020D01*
Y739020D01*
X490348D01*
Y741440D01*
X490119Y742591D01*
X489467Y743567D01*
X488491Y744219D01*
X487340Y744448D01*
D02*
G37*
G36*
X451480D02*
X448160D01*
X447009Y744219D01*
X446033Y743567D01*
X445381Y742591D01*
X445152Y741440D01*
Y739020D01*
X451480D01*
Y744448D01*
D02*
G37*
G36*
X550848Y737730D02*
X545520D01*
Y731652D01*
X547850D01*
X548997Y731881D01*
X549970Y732530D01*
X550619Y733503D01*
X550848Y734650D01*
Y737730D01*
D02*
G37*
G36*
X518475Y734558D02*
X515525D01*
X514364Y734327D01*
X513380Y733670D01*
X512723Y732686D01*
X512492Y731525D01*
Y722375D01*
X512723Y721214D01*
X513380Y720230D01*
X514176Y719699D01*
Y717037D01*
X510900D01*
X510159Y716890D01*
X509530Y716470D01*
X509110Y715841D01*
X508963Y715100D01*
Y706400D01*
X509110Y705659D01*
X509530Y705030D01*
X510159Y704610D01*
X510900Y704463D01*
X518100D01*
X518841Y704610D01*
X519470Y705030D01*
X519890Y705659D01*
X520037Y706400D01*
Y715100D01*
X519890Y715841D01*
X519824Y715939D01*
Y719699D01*
X520620Y720230D01*
X521277Y721214D01*
X521508Y722375D01*
Y731525D01*
X521277Y732686D01*
X520620Y733670D01*
X519636Y734327D01*
X518475Y734558D01*
D02*
G37*
G36*
X709848Y703730D02*
X703520D01*
Y698302D01*
X706840D01*
X707991Y698531D01*
X708967Y699183D01*
X709619Y700159D01*
X709848Y701310D01*
Y703730D01*
D02*
G37*
G36*
X317020Y720742D02*
Y697020D01*
X329659D01*
Y707000D01*
X329185Y710600D01*
X327795Y713954D01*
X325585Y716835D01*
X322705Y719046D01*
X319350Y720435D01*
X317020Y720742D01*
D02*
G37*
G36*
X314480D02*
X312150Y720435D01*
X308796Y719046D01*
X305915Y716835D01*
X303704Y713954D01*
X302315Y710600D01*
X301841Y707000D01*
Y697020D01*
X314480D01*
Y720742D01*
D02*
G37*
G36*
X611480Y700980D02*
X606052D01*
Y697660D01*
X606281Y696509D01*
X606933Y695533D01*
X607909Y694881D01*
X609060Y694652D01*
X611480D01*
Y700980D01*
D02*
G37*
G36*
X429184Y678480D02*
X426770D01*
Y676066D01*
X427704Y676452D01*
X428798Y677546D01*
X429184Y678480D01*
D02*
G37*
G36*
X529733Y679230D02*
X522770D01*
Y673567D01*
X524907D01*
X526754Y673935D01*
X528319Y674981D01*
X529365Y676546D01*
X529733Y678393D01*
Y679230D01*
D02*
G37*
G36*
X520230D02*
X513267D01*
Y678393D01*
X513635Y676546D01*
X514681Y674981D01*
X516246Y673935D01*
X518093Y673567D01*
X520230D01*
Y679230D01*
D02*
G37*
G36*
X329659Y694480D02*
X317020D01*
Y670758D01*
X319350Y671065D01*
X322705Y672454D01*
X325585Y674665D01*
X327795Y677545D01*
X329185Y680900D01*
X329659Y684500D01*
Y694480D01*
D02*
G37*
G36*
X314480D02*
X301841D01*
Y684500D01*
X302315Y680900D01*
X303704Y677545D01*
X305915Y674665D01*
X308796Y672454D01*
X312150Y671065D01*
X314480Y670758D01*
Y694480D01*
D02*
G37*
G36*
X575100Y653287D02*
X567900D01*
X567159Y653140D01*
X566530Y652720D01*
X566110Y652091D01*
X565963Y651350D01*
Y646074D01*
X560385D01*
X559783Y646917D01*
X560077Y648252D01*
X560270Y648380D01*
X561157Y649708D01*
X561469Y651275D01*
Y651480D01*
X552800D01*
X544131D01*
Y651275D01*
X544443Y649708D01*
X545330Y648380D01*
X545693Y648138D01*
X546080Y646870D01*
X545423Y645886D01*
X545192Y644725D01*
Y641775D01*
X545423Y640614D01*
X546080Y639630D01*
X547064Y638973D01*
X548225Y638742D01*
X557375D01*
X558536Y638973D01*
X559520Y639630D01*
X560051Y640426D01*
X568500D01*
X568500Y640426D01*
X568676Y640281D01*
Y638287D01*
X567900D01*
X567159Y638140D01*
X566530Y637720D01*
X566110Y637091D01*
X565963Y636350D01*
Y627650D01*
X566110Y626909D01*
X566530Y626280D01*
X567159Y625860D01*
X567900Y625713D01*
X575100D01*
X575841Y625860D01*
X576470Y626280D01*
X576786Y626753D01*
X577411Y626785D01*
X578107Y626619D01*
X578131Y626503D01*
X578780Y625530D01*
X579753Y624881D01*
X580900Y624652D01*
X583230D01*
Y632000D01*
Y639348D01*
X580900D01*
X579753Y639119D01*
X578780Y638470D01*
X578131Y637497D01*
X578107Y637381D01*
X577411Y637215D01*
X576786Y637247D01*
X576470Y637720D01*
X575841Y638140D01*
X575100Y638287D01*
X574324D01*
Y640713D01*
X575100D01*
X575841Y640860D01*
X576470Y641280D01*
X576890Y641909D01*
X577037Y642650D01*
Y651350D01*
X576890Y652091D01*
X576470Y652720D01*
X575841Y653140D01*
X575100Y653287D01*
D02*
G37*
G36*
X621348Y648980D02*
X615020D01*
Y643552D01*
X618340D01*
X619491Y643781D01*
X620467Y644433D01*
X621119Y645409D01*
X621348Y646560D01*
Y648980D01*
D02*
G37*
G36*
X515850Y650537D02*
X507150D01*
X506409Y650390D01*
X505780Y649970D01*
X505360Y649341D01*
X505213Y648600D01*
Y641400D01*
X505360Y640659D01*
X505780Y640030D01*
X506409Y639610D01*
X507150Y639463D01*
X515850D01*
X516591Y639610D01*
X517220Y640030D01*
X517640Y640659D01*
X517767Y641301D01*
X520186D01*
X520323Y640614D01*
X520980Y639630D01*
X521964Y638973D01*
X523125Y638742D01*
X532275D01*
X533436Y638973D01*
X534420Y639630D01*
X535077Y640614D01*
X535308Y641775D01*
Y644725D01*
X535077Y645886D01*
X534420Y646870D01*
X533436Y647527D01*
X532275Y647758D01*
X523125D01*
X521964Y647527D01*
X521099Y646949D01*
X517787D01*
Y648600D01*
X517640Y649341D01*
X517220Y649970D01*
X516591Y650390D01*
X515850Y650537D01*
D02*
G37*
G36*
X503848Y643730D02*
X497520D01*
Y638302D01*
X500840D01*
X501991Y638531D01*
X502967Y639183D01*
X503619Y640159D01*
X503848Y641310D01*
Y643730D01*
D02*
G37*
G36*
X464980D02*
X458652D01*
Y641310D01*
X458881Y640159D01*
X459533Y639183D01*
X460509Y638531D01*
X461660Y638302D01*
X464980D01*
Y643730D01*
D02*
G37*
G36*
X588100Y639348D02*
X585770D01*
Y633270D01*
X591098D01*
Y636350D01*
X590869Y637497D01*
X590220Y638470D01*
X589247Y639119D01*
X588100Y639348D01*
D02*
G37*
G36*
X591098Y630730D02*
X585770D01*
Y624652D01*
X588100D01*
X589247Y624881D01*
X590220Y625530D01*
X590869Y626503D01*
X591098Y627650D01*
Y630730D01*
D02*
G37*
G36*
X693531Y563830D02*
X689969D01*
X686476Y563135D01*
X683186Y561772D01*
X680225Y559794D01*
X677706Y557275D01*
X675728Y554314D01*
X674365Y551024D01*
X673670Y547531D01*
Y543969D01*
X674365Y540476D01*
X675728Y537186D01*
X677706Y534225D01*
X680225Y531706D01*
X683186Y529728D01*
X686476Y528365D01*
X689969Y527670D01*
X693531D01*
X697024Y528365D01*
X700314Y529728D01*
X703275Y531706D01*
X705794Y534225D01*
X707772Y537186D01*
X709135Y540476D01*
X709830Y543969D01*
Y547531D01*
X709135Y551024D01*
X707772Y554314D01*
X705794Y557275D01*
X703275Y559794D01*
X700314Y561772D01*
X697024Y563135D01*
X693531Y563830D01*
D02*
G37*
G36*
X301781D02*
X298219D01*
X294726Y563135D01*
X291436Y561772D01*
X288475Y559794D01*
X285956Y557275D01*
X283978Y554314D01*
X282615Y551024D01*
X281920Y547531D01*
Y543969D01*
X282615Y540476D01*
X283978Y537186D01*
X285956Y534225D01*
X288475Y531706D01*
X291436Y529728D01*
X294726Y528365D01*
X298219Y527670D01*
X301781D01*
X305274Y528365D01*
X308564Y529728D01*
X311525Y531706D01*
X314044Y534225D01*
X316022Y537186D01*
X317385Y540476D01*
X318080Y543969D01*
Y547531D01*
X317385Y551024D01*
X316022Y554314D01*
X314044Y557275D01*
X311525Y559794D01*
X308564Y561772D01*
X305274Y563135D01*
X301781Y563830D01*
D02*
G37*
%LPD*%
G36*
X332222Y817744D02*
X332444Y817727D01*
X332665Y817698D01*
X332884Y817657D01*
X333100Y817605D01*
X333313Y817542D01*
X333523Y817468D01*
X333729Y817383D01*
X333929Y817287D01*
X334125Y817181D01*
X334315Y817064D01*
X334498Y816938D01*
X334675Y816803D01*
X334844Y816658D01*
X335005Y816505D01*
X335158Y816344D01*
X335303Y816175D01*
X335438Y815998D01*
X335564Y815815D01*
X335681Y815625D01*
X335787Y815430D01*
X335883Y815229D01*
X335968Y815023D01*
X336042Y814813D01*
X336105Y814600D01*
X336157Y814384D01*
X336198Y814165D01*
X336227Y813944D01*
X336244Y813722D01*
X336250Y813500D01*
Y812250D01*
Y811000D01*
X336244Y810778D01*
X336227Y810556D01*
X336198Y810335D01*
X336157Y810116D01*
X336105Y809900D01*
X336042Y809687D01*
X335968Y809477D01*
X335883Y809271D01*
X335787Y809071D01*
X335681Y808875D01*
X335564Y808685D01*
X335438Y808502D01*
X335303Y808325D01*
X335158Y808156D01*
X335005Y807995D01*
X334844Y807842D01*
X334675Y807697D01*
X334498Y807562D01*
X334315Y807436D01*
X334125Y807319D01*
X333929Y807213D01*
X333729Y807117D01*
X333523Y807032D01*
X333313Y806958D01*
X333100Y806895D01*
X332884Y806843D01*
X332665Y806802D01*
X332444Y806773D01*
X332222Y806756D01*
X332000Y806750D01*
X331778Y806756D01*
X331556Y806773D01*
X331335Y806802D01*
X331116Y806843D01*
X330900Y806895D01*
X330687Y806958D01*
X330477Y807032D01*
X330271Y807117D01*
X330070Y807213D01*
X329875Y807319D01*
X329685Y807436D01*
X329502Y807562D01*
X329325Y807697D01*
X329156Y807842D01*
X328995Y807995D01*
X328842Y808156D01*
X328697Y808325D01*
X328562Y808502D01*
X328436Y808685D01*
X328319Y808875D01*
X328213Y809071D01*
X328117Y809271D01*
X328032Y809477D01*
X327958Y809687D01*
X327895Y809900D01*
X327843Y810116D01*
X327802Y810335D01*
X327773Y810556D01*
X327756Y810778D01*
X327750Y811000D01*
Y812250D01*
Y813500D01*
X327756Y813722D01*
X327773Y813944D01*
X327802Y814165D01*
X327843Y814384D01*
X327895Y814600D01*
X327958Y814813D01*
X328032Y815023D01*
X328117Y815229D01*
X328213Y815430D01*
X328319Y815625D01*
X328436Y815815D01*
X328562Y815998D01*
X328697Y816175D01*
X328842Y816344D01*
X328995Y816505D01*
X329156Y816658D01*
X329325Y816803D01*
X329502Y816938D01*
X329685Y817064D01*
X329875Y817181D01*
X330070Y817287D01*
X330271Y817383D01*
X330477Y817468D01*
X330687Y817542D01*
X330900Y817605D01*
X331116Y817657D01*
X331335Y817698D01*
X331556Y817727D01*
X331778Y817744D01*
X332000Y817750D01*
X332222Y817744D01*
D02*
G37*
%LPC*%
G36*
X332000Y816250D02*
X331856Y816246D01*
X331712Y816235D01*
X331570Y816216D01*
X331428Y816190D01*
X331288Y816156D01*
X331150Y816115D01*
X331015Y816067D01*
X330882Y816012D01*
X330751Y815950D01*
X330625Y815882D01*
X330502Y815806D01*
X330384Y815725D01*
X330269Y815637D01*
X330160Y815544D01*
X330055Y815444D01*
X329956Y815340D01*
X329863Y815231D01*
X329775Y815116D01*
X329694Y814998D01*
X329618Y814875D01*
X329550Y814749D01*
X329488Y814619D01*
X329433Y814485D01*
X329385Y814350D01*
X329344Y814212D01*
X329310Y814072D01*
X329284Y813930D01*
X329265Y813788D01*
X329254Y813644D01*
X329250Y813500D01*
Y812250D01*
Y811000D01*
X329254Y810856D01*
X329265Y810713D01*
X329284Y810570D01*
X329310Y810428D01*
X329344Y810288D01*
X329385Y810150D01*
X329433Y810014D01*
X329488Y809882D01*
X329550Y809752D01*
X329618Y809625D01*
X329694Y809502D01*
X329775Y809384D01*
X329863Y809269D01*
X329956Y809160D01*
X330055Y809055D01*
X330160Y808956D01*
X330269Y808863D01*
X330384Y808775D01*
X330502Y808694D01*
X330625Y808618D01*
X330751Y808550D01*
X330882Y808488D01*
X331015Y808433D01*
X331150Y808385D01*
X331288Y808344D01*
X331428Y808310D01*
X331570Y808284D01*
X331712Y808265D01*
X331856Y808254D01*
X332000Y808250D01*
X332144Y808254D01*
X332287Y808265D01*
X332430Y808284D01*
X332572Y808310D01*
X332712Y808344D01*
X332850Y808385D01*
X332985Y808433D01*
X333119Y808488D01*
X333248Y808550D01*
X333375Y808618D01*
X333498Y808694D01*
X333616Y808775D01*
X333731Y808863D01*
X333840Y808956D01*
X333945Y809055D01*
X334044Y809160D01*
X334137Y809269D01*
X334225Y809384D01*
X334306Y809502D01*
X334382Y809625D01*
X334450Y809752D01*
X334512Y809882D01*
X334567Y810014D01*
X334615Y810150D01*
X334656Y810288D01*
X334690Y810428D01*
X334716Y810570D01*
X334735Y810713D01*
X334746Y810856D01*
X334750Y811000D01*
Y812250D01*
Y813500D01*
X334746Y813644D01*
X334735Y813788D01*
X334716Y813930D01*
X334690Y814072D01*
X334656Y814212D01*
X334615Y814350D01*
X334567Y814485D01*
X334512Y814619D01*
X334450Y814749D01*
X334382Y814875D01*
X334306Y814998D01*
X334225Y815116D01*
X334137Y815231D01*
X334044Y815340D01*
X333945Y815444D01*
X333840Y815544D01*
X333731Y815637D01*
X333616Y815725D01*
X333498Y815806D01*
X333375Y815882D01*
X333248Y815950D01*
X333119Y816012D01*
X332985Y816067D01*
X332850Y816115D01*
X332712Y816156D01*
X332572Y816190D01*
X332430Y816216D01*
X332287Y816235D01*
X332144Y816246D01*
X332000Y816250D01*
D02*
G37*
G36*
X288000Y911500D02*
X275000D01*
X274817Y911495D01*
X274634Y911481D01*
X274452Y911457D01*
X274272Y911423D01*
X274094Y911381D01*
X273918Y911329D01*
X273746Y911267D01*
X273576Y911197D01*
X273411Y911118D01*
X273250Y911031D01*
X273094Y910935D01*
X272943Y910832D01*
X272797Y910720D01*
X272658Y910601D01*
X272525Y910475D01*
X272399Y910342D01*
X272280Y910203D01*
X272168Y910057D01*
X272065Y909906D01*
X271969Y909750D01*
X271882Y909589D01*
X271803Y909424D01*
X271733Y909254D01*
X271671Y909082D01*
X271619Y908906D01*
X271576Y908728D01*
X271543Y908548D01*
X271519Y908366D01*
X271505Y908183D01*
X271500Y908000D01*
X271505Y907817D01*
X271519Y907634D01*
X271543Y907452D01*
X271576Y907272D01*
X271619Y907094D01*
X271671Y906918D01*
X271733Y906746D01*
X271803Y906576D01*
X271882Y906411D01*
X271969Y906250D01*
X272065Y906094D01*
X272168Y905943D01*
X272280Y905797D01*
X272399Y905658D01*
X272525Y905525D01*
X272658Y905399D01*
X272797Y905280D01*
X272943Y905168D01*
X273094Y905065D01*
X273250Y904969D01*
X273411Y904882D01*
X273576Y904803D01*
X273746Y904733D01*
X273918Y904671D01*
X274094Y904619D01*
X274272Y904576D01*
X274452Y904543D01*
X274634Y904519D01*
X274817Y904505D01*
X275000Y904500D01*
X288000D01*
X288183Y904505D01*
X288366Y904519D01*
X288547Y904543D01*
X288728Y904576D01*
X288906Y904619D01*
X289082Y904671D01*
X289254Y904733D01*
X289424Y904803D01*
X289589Y904882D01*
X289750Y904969D01*
X289906Y905065D01*
X290057Y905168D01*
X290203Y905280D01*
X290342Y905399D01*
X290475Y905525D01*
X290601Y905658D01*
X290720Y905797D01*
X290832Y905943D01*
X290935Y906094D01*
X291031Y906250D01*
X291119Y906411D01*
X291197Y906576D01*
X291268Y906746D01*
X291329Y906918D01*
X291381Y907094D01*
X291423Y907272D01*
X291457Y907452D01*
X291481Y907634D01*
X291495Y907817D01*
X291500Y908000D01*
X291495Y908183D01*
X291481Y908366D01*
X291457Y908548D01*
X291423Y908728D01*
X291381Y908906D01*
X291329Y909082D01*
X291268Y909254D01*
X291197Y909424D01*
X291119Y909589D01*
X291031Y909750D01*
X290935Y909906D01*
X290832Y910057D01*
X290720Y910203D01*
X290601Y910342D01*
X290475Y910475D01*
X290342Y910601D01*
X290203Y910720D01*
X290057Y910832D01*
X289906Y910935D01*
X289750Y911031D01*
X289589Y911118D01*
X289424Y911197D01*
X289254Y911267D01*
X289082Y911329D01*
X288906Y911381D01*
X288728Y911423D01*
X288547Y911457D01*
X288366Y911481D01*
X288183Y911495D01*
X288000Y911500D01*
D02*
G37*
G36*
X336000Y909000D02*
X324000D01*
X323817Y908995D01*
X323634Y908981D01*
X323452Y908957D01*
X323272Y908923D01*
X323094Y908881D01*
X322918Y908829D01*
X322746Y908767D01*
X322576Y908697D01*
X322411Y908618D01*
X322250Y908531D01*
X322094Y908435D01*
X321943Y908332D01*
X321797Y908220D01*
X321658Y908101D01*
X321525Y907975D01*
X321399Y907842D01*
X321280Y907703D01*
X321168Y907557D01*
X321065Y907406D01*
X320969Y907250D01*
X320882Y907089D01*
X320803Y906924D01*
X320732Y906754D01*
X320671Y906581D01*
X320619Y906406D01*
X320577Y906228D01*
X320543Y906048D01*
X320519Y905866D01*
X320505Y905683D01*
X320500Y905500D01*
X320505Y905317D01*
X320519Y905134D01*
X320543Y904952D01*
X320577Y904772D01*
X320619Y904594D01*
X320671Y904418D01*
X320732Y904246D01*
X320803Y904076D01*
X320882Y903911D01*
X320969Y903750D01*
X321065Y903594D01*
X321168Y903443D01*
X321280Y903297D01*
X321399Y903158D01*
X321525Y903025D01*
X321658Y902899D01*
X321797Y902780D01*
X321943Y902669D01*
X322094Y902565D01*
X322250Y902469D01*
X322411Y902382D01*
X322576Y902303D01*
X322746Y902233D01*
X322918Y902171D01*
X323094Y902119D01*
X323272Y902076D01*
X323452Y902043D01*
X323634Y902019D01*
X323817Y902005D01*
X324000Y902000D01*
X336000D01*
X336183Y902005D01*
X336366Y902019D01*
X336548Y902043D01*
X336728Y902076D01*
X336906Y902119D01*
X337082Y902171D01*
X337254Y902233D01*
X337424Y902303D01*
X337589Y902382D01*
X337750Y902469D01*
X337906Y902565D01*
X338057Y902669D01*
X338203Y902780D01*
X338342Y902899D01*
X338475Y903025D01*
X338601Y903158D01*
X338720Y903297D01*
X338832Y903443D01*
X338935Y903594D01*
X339031Y903750D01*
X339118Y903911D01*
X339197Y904076D01*
X339268Y904246D01*
X339329Y904418D01*
X339381Y904594D01*
X339423Y904772D01*
X339457Y904952D01*
X339481Y905134D01*
X339495Y905317D01*
X339500Y905500D01*
X339495Y905683D01*
X339481Y905866D01*
X339457Y906048D01*
X339423Y906228D01*
X339381Y906406D01*
X339329Y906581D01*
X339268Y906754D01*
X339197Y906924D01*
X339118Y907089D01*
X339031Y907250D01*
X338935Y907406D01*
X338832Y907557D01*
X338720Y907703D01*
X338601Y907842D01*
X338475Y907975D01*
X338342Y908101D01*
X338203Y908220D01*
X338057Y908332D01*
X337906Y908435D01*
X337750Y908531D01*
X337589Y908618D01*
X337424Y908697D01*
X337254Y908767D01*
X337082Y908829D01*
X336906Y908881D01*
X336728Y908923D01*
X336548Y908957D01*
X336366Y908981D01*
X336183Y908995D01*
X336000Y909000D01*
D02*
G37*
G36*
X332000Y891750D02*
X331856Y891746D01*
X331712Y891735D01*
X331570Y891716D01*
X331428Y891690D01*
X331288Y891656D01*
X331150Y891615D01*
X331015Y891567D01*
X330882Y891512D01*
X330751Y891450D01*
X330625Y891382D01*
X330502Y891306D01*
X330384Y891225D01*
X330269Y891137D01*
X330160Y891044D01*
X330055Y890945D01*
X329956Y890840D01*
X329863Y890731D01*
X329775Y890616D01*
X329694Y890498D01*
X329618Y890375D01*
X329550Y890248D01*
X329488Y890118D01*
X329433Y889986D01*
X329385Y889850D01*
X329344Y889712D01*
X329310Y889572D01*
X329284Y889430D01*
X329265Y889287D01*
X329254Y889144D01*
X329250Y889000D01*
Y887750D01*
Y886500D01*
X329254Y886356D01*
X329265Y886213D01*
X329284Y886070D01*
X329310Y885928D01*
X329344Y885788D01*
X329385Y885650D01*
X329433Y885515D01*
X329488Y885381D01*
X329550Y885251D01*
X329618Y885125D01*
X329694Y885002D01*
X329775Y884884D01*
X329863Y884769D01*
X329956Y884660D01*
X330055Y884556D01*
X330160Y884456D01*
X330269Y884363D01*
X330384Y884275D01*
X330502Y884194D01*
X330625Y884118D01*
X330751Y884050D01*
X330882Y883988D01*
X331015Y883933D01*
X331150Y883885D01*
X331288Y883844D01*
X331428Y883810D01*
X331570Y883784D01*
X331712Y883765D01*
X331856Y883754D01*
X332000Y883750D01*
X332144Y883754D01*
X332287Y883765D01*
X332430Y883784D01*
X332572Y883810D01*
X332712Y883844D01*
X332850Y883885D01*
X332985Y883933D01*
X333119Y883988D01*
X333248Y884050D01*
X333375Y884118D01*
X333498Y884194D01*
X333616Y884275D01*
X333731Y884363D01*
X333840Y884456D01*
X333945Y884556D01*
X334044Y884660D01*
X334137Y884769D01*
X334225Y884884D01*
X334306Y885002D01*
X334382Y885125D01*
X334450Y885251D01*
X334512Y885381D01*
X334567Y885515D01*
X334615Y885650D01*
X334656Y885788D01*
X334690Y885928D01*
X334716Y886070D01*
X334735Y886213D01*
X334746Y886356D01*
X334750Y886500D01*
Y887750D01*
Y889000D01*
X334746Y889144D01*
X334735Y889287D01*
X334716Y889430D01*
X334690Y889572D01*
X334656Y889712D01*
X334615Y889850D01*
X334567Y889986D01*
X334512Y890118D01*
X334450Y890248D01*
X334382Y890375D01*
X334306Y890498D01*
X334225Y890616D01*
X334137Y890731D01*
X334044Y890840D01*
X333945Y890945D01*
X333840Y891044D01*
X333731Y891137D01*
X333616Y891225D01*
X333498Y891306D01*
X333375Y891382D01*
X333248Y891450D01*
X333119Y891512D01*
X332985Y891567D01*
X332850Y891615D01*
X332712Y891656D01*
X332572Y891690D01*
X332430Y891716D01*
X332287Y891735D01*
X332144Y891746D01*
X332000Y891750D01*
D02*
G37*
G36*
X336000Y798000D02*
X324000D01*
X323817Y797995D01*
X323634Y797981D01*
X323452Y797957D01*
X323272Y797924D01*
X323094Y797881D01*
X322918Y797829D01*
X322746Y797767D01*
X322576Y797697D01*
X322411Y797618D01*
X322250Y797531D01*
X322094Y797435D01*
X321943Y797332D01*
X321797Y797220D01*
X321658Y797101D01*
X321525Y796975D01*
X321399Y796842D01*
X321280Y796703D01*
X321168Y796557D01*
X321065Y796406D01*
X320969Y796250D01*
X320882Y796089D01*
X320803Y795924D01*
X320732Y795754D01*
X320671Y795582D01*
X320619Y795406D01*
X320577Y795228D01*
X320543Y795048D01*
X320519Y794866D01*
X320505Y794683D01*
X320500Y794500D01*
X320505Y794317D01*
X320519Y794134D01*
X320543Y793952D01*
X320577Y793772D01*
X320619Y793594D01*
X320671Y793419D01*
X320732Y793246D01*
X320803Y793076D01*
X320882Y792911D01*
X320969Y792750D01*
X321065Y792594D01*
X321168Y792443D01*
X321280Y792297D01*
X321399Y792158D01*
X321525Y792025D01*
X321658Y791899D01*
X321797Y791780D01*
X321943Y791668D01*
X322094Y791565D01*
X322250Y791469D01*
X322411Y791382D01*
X322576Y791303D01*
X322746Y791233D01*
X322918Y791171D01*
X323094Y791119D01*
X323272Y791077D01*
X323452Y791043D01*
X323634Y791019D01*
X323817Y791005D01*
X324000Y791000D01*
X336000D01*
X336183Y791005D01*
X336366Y791019D01*
X336548Y791043D01*
X336728Y791077D01*
X336906Y791119D01*
X337082Y791171D01*
X337254Y791233D01*
X337424Y791303D01*
X337589Y791382D01*
X337750Y791469D01*
X337906Y791565D01*
X338057Y791668D01*
X338203Y791780D01*
X338342Y791899D01*
X338475Y792025D01*
X338601Y792158D01*
X338720Y792297D01*
X338832Y792443D01*
X338935Y792594D01*
X339031Y792750D01*
X339118Y792911D01*
X339197Y793076D01*
X339268Y793246D01*
X339329Y793419D01*
X339381Y793594D01*
X339423Y793772D01*
X339457Y793952D01*
X339481Y794134D01*
X339495Y794317D01*
X339500Y794500D01*
X339495Y794683D01*
X339481Y794866D01*
X339457Y795048D01*
X339423Y795228D01*
X339381Y795406D01*
X339329Y795582D01*
X339268Y795754D01*
X339197Y795924D01*
X339118Y796089D01*
X339031Y796250D01*
X338935Y796406D01*
X338832Y796557D01*
X338720Y796703D01*
X338601Y796842D01*
X338475Y796975D01*
X338342Y797101D01*
X338203Y797220D01*
X338057Y797332D01*
X337906Y797435D01*
X337750Y797531D01*
X337589Y797618D01*
X337424Y797697D01*
X337254Y797767D01*
X337082Y797829D01*
X336906Y797881D01*
X336728Y797924D01*
X336548Y797957D01*
X336366Y797981D01*
X336183Y797995D01*
X336000Y798000D01*
D02*
G37*
G36*
X288000Y795500D02*
X275000D01*
X274817Y795495D01*
X274634Y795481D01*
X274452Y795457D01*
X274272Y795424D01*
X274094Y795381D01*
X273918Y795329D01*
X273746Y795267D01*
X273576Y795197D01*
X273411Y795118D01*
X273250Y795031D01*
X273094Y794935D01*
X272943Y794832D01*
X272797Y794720D01*
X272658Y794601D01*
X272525Y794475D01*
X272399Y794342D01*
X272280Y794203D01*
X272168Y794057D01*
X272065Y793906D01*
X271969Y793750D01*
X271882Y793589D01*
X271803Y793424D01*
X271733Y793254D01*
X271671Y793082D01*
X271619Y792906D01*
X271576Y792728D01*
X271543Y792548D01*
X271519Y792366D01*
X271505Y792183D01*
X271500Y792000D01*
X271505Y791817D01*
X271519Y791634D01*
X271543Y791452D01*
X271576Y791272D01*
X271619Y791094D01*
X271671Y790918D01*
X271733Y790746D01*
X271803Y790576D01*
X271882Y790411D01*
X271969Y790250D01*
X272065Y790094D01*
X272168Y789943D01*
X272280Y789797D01*
X272399Y789658D01*
X272525Y789525D01*
X272658Y789399D01*
X272797Y789280D01*
X272943Y789168D01*
X273094Y789065D01*
X273250Y788969D01*
X273411Y788882D01*
X273576Y788803D01*
X273746Y788733D01*
X273918Y788671D01*
X274094Y788619D01*
X274272Y788577D01*
X274452Y788543D01*
X274634Y788519D01*
X274817Y788505D01*
X275000Y788500D01*
X288000D01*
X288183Y788505D01*
X288366Y788519D01*
X288547Y788543D01*
X288728Y788577D01*
X288906Y788619D01*
X289082Y788671D01*
X289254Y788733D01*
X289424Y788803D01*
X289589Y788882D01*
X289750Y788969D01*
X289906Y789065D01*
X290057Y789168D01*
X290203Y789280D01*
X290342Y789399D01*
X290475Y789525D01*
X290601Y789658D01*
X290720Y789797D01*
X290832Y789943D01*
X290935Y790094D01*
X291031Y790250D01*
X291119Y790411D01*
X291197Y790576D01*
X291268Y790746D01*
X291329Y790918D01*
X291381Y791094D01*
X291423Y791272D01*
X291457Y791452D01*
X291481Y791634D01*
X291495Y791817D01*
X291500Y792000D01*
X291495Y792183D01*
X291481Y792366D01*
X291457Y792548D01*
X291423Y792728D01*
X291381Y792906D01*
X291329Y793082D01*
X291268Y793254D01*
X291197Y793424D01*
X291119Y793589D01*
X291031Y793750D01*
X290935Y793906D01*
X290832Y794057D01*
X290720Y794203D01*
X290601Y794342D01*
X290475Y794475D01*
X290342Y794601D01*
X290203Y794720D01*
X290057Y794832D01*
X289906Y794935D01*
X289750Y795031D01*
X289589Y795118D01*
X289424Y795197D01*
X289254Y795267D01*
X289082Y795329D01*
X288906Y795381D01*
X288728Y795424D01*
X288547Y795457D01*
X288366Y795481D01*
X288183Y795495D01*
X288000Y795500D01*
D02*
G37*
%LPD*%
D10*
X338247Y854492D02*
X338500Y846000D01*
X651500Y740886D02*
Y744894D01*
Y740886D02*
X654136Y738250D01*
X656000D01*
Y733250D02*
Y738250D01*
X511000Y1091000D02*
X511500Y1090500D01*
Y1079750D02*
Y1090500D01*
X539707Y1112800D02*
X539907Y1113000D01*
X541250D01*
X538750Y1107520D02*
X539707Y1108477D01*
Y1112800D01*
X595250Y1146250D02*
Y1162750D01*
Y1146250D02*
X597500Y1144000D01*
X596770Y1088000D02*
Y1097020D01*
X597500Y1097750D01*
X511000Y1105750D02*
Y1120750D01*
Y1091000D02*
Y1105750D01*
D16*
X575000Y898401D02*
X685630Y787771D01*
X664750Y772500D02*
X679360D01*
X685630Y766770D02*
Y787771D01*
X678980Y760120D02*
X685630Y766770D01*
X506000Y680250D02*
X521250D01*
X521500Y680500D01*
X571500Y646250D02*
Y647000D01*
X568500Y643250D02*
X571500Y646250D01*
X552800Y643250D02*
X568500D01*
X553000Y662450D02*
Y680500D01*
X552800Y662250D02*
X571500D01*
X540750Y653250D02*
X541000Y653000D01*
X552550D01*
X552800Y652750D01*
Y662250D02*
X553000Y662450D01*
X496250Y658000D02*
X496830D01*
X499660Y660830D01*
Y665762D01*
X501148Y667250D01*
X519489D01*
X524489Y662250D01*
X527700D01*
X526825Y644125D02*
X527700Y643250D01*
X512375Y644125D02*
X526825D01*
X511500Y645000D02*
X512375Y644125D01*
X577750Y819750D02*
Y820000D01*
X593850Y812750D02*
X594750D01*
X586600Y820000D02*
X593850Y812750D01*
X577750Y820000D02*
X586600D01*
X552500D02*
X552750Y819750D01*
X543690Y820000D02*
X552500D01*
X541980Y818290D02*
X543690Y820000D01*
X541980Y817580D02*
Y818290D01*
X539150Y814750D02*
X541980Y817580D01*
X538250Y814750D02*
X539150D01*
X410750Y908712D02*
X441170Y939133D01*
X419250Y911499D02*
X446210Y938459D01*
X336390Y931000D02*
X424170D01*
X441170Y939133D02*
Y947665D01*
X419250Y818250D02*
Y911499D01*
X410750Y812750D02*
Y908712D01*
X446210Y938459D02*
Y945577D01*
X490403Y989770D01*
X493770D01*
X279480Y874090D02*
X336390Y931000D01*
X364772Y762500D02*
X366250D01*
X369771Y758240D02*
X406500Y721511D01*
Y696156D02*
Y721511D01*
X533429Y862207D02*
X542004D01*
X525218Y862221D02*
X533416D01*
X533429Y862207D01*
X544748Y859463D02*
X545722D01*
X521942Y858946D02*
X525218Y862221D01*
X542004Y862207D02*
X544748Y859463D01*
X521541Y858946D02*
X521942D01*
X544734Y869249D02*
X545713D01*
X521539Y867864D02*
X522842Y866561D01*
X542032Y866547D02*
X544734Y869249D01*
X535227Y866547D02*
X542032D01*
X522842Y866561D02*
X535213D01*
X535227Y866547D01*
X520332Y867864D02*
X521539D01*
X539181Y885924D02*
X539367D01*
X554664Y901222D01*
X536237Y882980D02*
X539181Y885924D01*
X520696Y882980D02*
X536237D01*
X522460Y890603D02*
X523313Y889750D01*
X522460Y890603D02*
Y893915D01*
X523311Y889000D02*
X535657Y901346D01*
X517125Y899250D02*
X522460Y893915D01*
X516500Y899250D02*
X517125D01*
X523250Y889000D02*
X523311D01*
X535657Y901346D02*
X536404D01*
X512384Y884116D02*
X519560D01*
X520696Y882980D01*
X452480Y914409D02*
X496819Y870069D01*
X452480Y914409D02*
Y942838D01*
X506965Y896855D02*
Y901411D01*
X501000Y890890D02*
X506965Y896855D01*
Y901411D02*
X510233Y904678D01*
X641584Y848416D02*
X651952Y838048D01*
Y831023D02*
Y838048D01*
X570460Y896521D02*
X660750Y806230D01*
X651952Y831023D02*
X652238Y830738D01*
X660750Y776500D02*
Y806230D01*
X570460Y896521D02*
Y903515D01*
X575000Y898401D02*
Y901635D01*
X804000Y599000D02*
X817202D01*
X818690Y600488D01*
X817924Y594660D02*
X824144Y588440D01*
X798371Y593371D02*
X804000Y599000D01*
X818690Y600488D02*
Y601606D01*
X805798Y594660D02*
X817924D01*
X800169Y589031D02*
X805798Y594660D01*
X818690Y601606D02*
X824834Y607750D01*
X794488Y589031D02*
X800169D01*
X794917Y593371D02*
X798371D01*
X824144Y588440D02*
X831856D01*
X837138Y591031D02*
X840418Y587750D01*
X834447Y591031D02*
X837138D01*
X831856Y588440D02*
X834447Y591031D01*
X840418Y587750D02*
X843000D01*
X553196Y925230D02*
X571775D01*
X579020Y917985D01*
X586500Y913135D02*
Y916926D01*
X563975Y936480D02*
X566946D01*
X586500Y916926D01*
X579020Y912076D02*
Y917985D01*
X547176Y931250D02*
X553196Y925230D01*
X526500Y931250D02*
X547176D01*
X570460Y903515D02*
X579020Y912076D01*
X575000Y901635D02*
X586500Y913135D01*
X527114Y947106D02*
X534845Y939375D01*
X521791Y953917D02*
X527114Y948594D01*
Y947106D02*
Y948594D01*
X528583Y966158D02*
X529369Y966943D01*
X534966D01*
X535477Y967455D02*
X537582D01*
X534966Y966943D02*
X535477Y967455D01*
X534845Y939375D02*
X552888D01*
X537582Y967455D02*
X539837Y965200D01*
X550084Y946145D02*
Y978624D01*
X542160Y918900D02*
X543013Y919753D01*
X559837Y901222D02*
X560691Y902075D01*
X554664Y901222D02*
X559837D01*
X536149Y918900D02*
X542160D01*
X525692Y908442D02*
X536149Y918900D01*
X550084Y978624D02*
X551970Y980510D01*
X596753Y892405D02*
X597606Y891552D01*
X586147Y977965D02*
X604904Y996722D01*
X596529Y967297D02*
X597140D01*
X607360Y903012D02*
X611238D01*
X621280Y942546D02*
X621859D01*
X552888Y939375D02*
X555053Y941540D01*
X558915D01*
X597140Y967297D02*
X615247Y985404D01*
X621859Y942546D02*
X640467Y961154D01*
X597606Y891552D02*
X603835D01*
X604904Y996722D02*
Y997404D01*
X611238Y903012D02*
X623153Y891097D01*
X603835Y891552D02*
X615444Y879942D01*
X604904Y997404D02*
X605029D01*
X615444Y879942D02*
X616058D01*
X551970Y980510D02*
Y1011783D01*
X544007Y1019746D02*
X551970Y1011783D01*
X517525Y940225D02*
Y940296D01*
Y940225D02*
X526500Y931250D01*
X623153Y891097D02*
X627155D01*
X627654Y891596D01*
X747250Y538250D02*
Y684500D01*
X715250Y716500D02*
X747250Y684500D01*
X703750Y716500D02*
X715250D01*
X702250Y718000D02*
X703750Y716500D01*
X702250Y705000D02*
X711750D01*
X717750Y699000D01*
X686625Y718125D02*
X702125D01*
X702250Y718000D01*
X686500Y718250D02*
X686625Y718125D01*
X685750Y718250D02*
X686500D01*
X670000Y728250D02*
X676500D01*
X683020Y721730D01*
Y720980D02*
Y721730D01*
Y720980D02*
X685750Y718250D01*
X650596Y970346D02*
Y970570D01*
X659816Y975816D02*
X660338Y976338D01*
X650596Y970570D02*
X655842Y975816D01*
X659816D01*
X605029Y997404D02*
X617029Y985404D01*
X617790Y984767D02*
X661483D01*
X668000Y970250D02*
Y978250D01*
X661483Y984767D02*
X668000Y978250D01*
X658561Y960811D02*
X668000Y970250D01*
X649708Y960811D02*
X658561D01*
X646679Y961154D02*
X649366D01*
X646042Y961790D02*
X646679Y961154D01*
X645406D02*
X646042Y961790D01*
X641404Y961154D02*
X645406D01*
X496770Y910750D02*
Y910750D01*
X490692Y916828D02*
X496770Y910750D01*
X490692Y916828D02*
Y920558D01*
X279480Y834159D02*
Y874090D01*
X476730Y1133230D02*
X520250Y1176750D01*
X476730Y1119662D02*
Y1133230D01*
X520250Y1176750D02*
X562000D01*
X515524Y923654D02*
X516250Y922928D01*
X507670Y923654D02*
X515524D01*
X507054Y924270D02*
X507670Y923654D01*
X499846Y929904D02*
X499846D01*
X505480Y924270D01*
X507054D01*
X365500Y887750D02*
X398500Y920750D01*
X398533Y920717D02*
X398626D01*
X398500Y920750D02*
X398533Y920717D01*
X365500Y864000D02*
Y887750D01*
X441170Y947665D02*
X528059Y1034554D01*
X562744Y1176006D02*
X571750Y1167000D01*
X562000Y1176750D02*
X562744Y1176006D01*
X571750Y1135500D02*
Y1167000D01*
X522750Y1154750D02*
X537980Y1169980D01*
X538750D01*
X476730Y1119662D02*
X477250Y1119142D01*
Y1104426D02*
X508793Y1072883D01*
X515719D01*
X477250Y1104426D02*
Y1119142D01*
X530980Y1113482D02*
Y1113574D01*
X529290Y1111940D02*
X529438D01*
X535336Y1117930D02*
X541180D01*
X524000Y1106650D02*
X529290Y1111940D01*
X529438D02*
X530980Y1113482D01*
Y1113574D02*
X535336Y1117930D01*
X537750Y1092500D02*
X538957D01*
X542207Y1095750D02*
X551250D01*
X538957Y1092500D02*
X542207Y1095750D01*
X541180Y1117930D02*
X541250Y1118000D01*
X582500Y1144000D02*
Y1154750D01*
X538750Y1170000D02*
X548750Y1160000D01*
Y1150250D02*
Y1160000D01*
X522000Y1154750D02*
X522750D01*
X525169Y1077750D02*
X526169Y1078750D01*
X524000Y1091000D02*
X524500Y1090500D01*
Y1077750D02*
Y1090500D01*
Y1077750D02*
X525169D01*
X543730Y757230D02*
X546980D01*
X498000Y1095250D02*
Y1107500D01*
X497000Y1108500D02*
X498000Y1107500D01*
X582000Y1082000D02*
X582500Y1082500D01*
Y1097750D01*
X666096Y910154D02*
X671250Y905000D01*
X625750Y702250D02*
Y717250D01*
Y693440D02*
Y702250D01*
X612750Y717250D02*
Y732250D01*
Y716350D02*
Y717250D01*
X402397Y984897D02*
X407897D01*
X408750Y985750D01*
X377500Y960000D02*
X402397Y984897D01*
X473750Y939000D02*
X481500Y931250D01*
X473750Y939000D02*
Y939000D01*
X481500Y929750D02*
Y931250D01*
X481000Y946500D02*
X488404Y939096D01*
X490654D01*
X498958Y920369D02*
X500532D01*
X503401Y917500D02*
X504250D01*
X498615Y920712D02*
X498958Y920369D01*
X490692Y920558D02*
X494695D01*
X495331Y921194D01*
X500532Y920369D02*
X503401Y917500D01*
X495331Y921194D02*
X495813Y920712D01*
X498615D01*
X510233Y905233D02*
X515500Y910500D01*
X510233Y904678D02*
Y905233D01*
X558915Y941540D02*
X563975Y936480D01*
X542450Y965200D02*
X543938Y966688D01*
X539837Y965200D02*
X542450D01*
X626346Y994596D02*
X627769D01*
X637610Y1004437D01*
X637610D01*
X614524Y1006596D02*
X619730Y1011802D01*
X614096Y1006596D02*
X614524D01*
X826084Y960000D02*
X844250D01*
X819940Y953856D02*
X826084Y960000D01*
X819940Y953658D02*
Y953856D01*
X818452Y952170D02*
X819940Y953658D01*
X807929Y952170D02*
X818452D01*
X797056Y941298D02*
X807929Y952170D01*
X789385Y941298D02*
X797056D01*
X786717Y943966D02*
X789385Y941298D01*
X786717Y943966D02*
Y947261D01*
X785864Y948114D02*
X786717Y947261D01*
X818452Y947830D02*
X819940Y946342D01*
X809727Y947830D02*
X818452D01*
X819940Y946144D02*
Y946342D01*
X779500Y941750D02*
X780353Y940897D01*
X819940Y946144D02*
X826084Y940000D01*
X798854Y936957D02*
X809727Y947830D01*
X826084Y940000D02*
X844250D01*
X780353Y940897D02*
X783649D01*
X787588Y936957D02*
X798854D01*
X783649Y940897D02*
X787588Y936957D01*
X543938Y966688D02*
Y1013394D01*
X551750Y1075250D02*
X563500Y1087000D01*
X572750D01*
X551750Y1033097D02*
Y1075250D01*
X544007Y1025354D02*
X551750Y1033097D01*
X513571Y1010913D02*
X534829Y1032171D01*
X528059Y1034554D02*
Y1035543D01*
X515719Y1072883D02*
X542536Y1046065D01*
X513571Y1009571D02*
Y1010913D01*
X528059Y1035543D02*
X535766Y1043250D01*
X493770Y989770D02*
X513571Y1009571D01*
X542536Y1030304D02*
Y1046065D01*
X539467Y1017865D02*
X543938Y1013394D01*
X539467Y1017865D02*
Y1027235D01*
X542536Y1030304D01*
X544007Y1019746D02*
Y1025354D01*
X554278Y1021696D02*
X557015Y1018960D01*
X551630Y1021696D02*
X554278D01*
X550777Y1022550D02*
X551630Y1021696D01*
X557015Y1018960D02*
X561017D01*
X561654Y1019596D01*
X573897Y999603D02*
Y1002268D01*
Y999603D02*
X574750Y998750D01*
X570304Y1005860D02*
X573897Y1002268D01*
X649811Y951809D02*
X665254D01*
X640467Y961154D02*
X649811Y951809D01*
X640467Y961154D02*
X640467D01*
X515500Y910500D02*
X519632D01*
X521690Y908442D01*
X525692D01*
X599096Y834888D02*
X617647Y816338D01*
Y814603D02*
X618500Y813750D01*
X599096Y834888D02*
Y838654D01*
X617647Y814603D02*
Y816338D01*
X264810Y923310D02*
X301500Y960000D01*
X377500D01*
X264810Y784250D02*
Y923310D01*
Y784250D02*
X277810Y771250D01*
X295750D01*
X296270Y771770D01*
X357665D01*
X361250Y768185D01*
Y766021D02*
Y768185D01*
Y766021D02*
X364772Y762500D01*
X313250Y764500D02*
X334500D01*
X312750Y765000D02*
X313250Y764500D01*
X582750Y857750D02*
Y857750D01*
X589904Y847846D02*
Y850596D01*
X582750Y857750D02*
X589904Y850596D01*
X558875Y838375D02*
X559000Y838250D01*
X558875Y838375D02*
Y850375D01*
X559000Y837900D02*
Y838250D01*
X674500Y1131000D02*
X738897Y1066603D01*
X745136D01*
X745989Y1065750D01*
X597500Y1131000D02*
X674500D01*
X659432Y861953D02*
X660882D01*
X666793Y856043D01*
X654375Y867010D02*
X659432Y861953D01*
X654375Y867010D02*
Y876571D01*
X638713Y892233D02*
X654375Y876571D01*
X635575Y848416D02*
X641584D01*
X626762Y857228D02*
X635575Y848416D01*
X600963Y848483D02*
X608631Y840815D01*
X590540Y848483D02*
X600963D01*
X608631Y837640D02*
X619635Y826635D01*
X608631Y837640D02*
Y840815D01*
X589904Y847846D02*
X590540Y848483D01*
X573250Y770750D02*
X574000Y771500D01*
Y789500D01*
X560094Y791250D02*
X565216Y786128D01*
X560000Y791250D02*
X560094D01*
X568122Y786128D02*
X572390Y781860D01*
X565216Y786128D02*
X568122D01*
X589480Y798020D02*
X595000Y792500D01*
X425480Y798020D02*
X589480D01*
X410750Y812750D02*
X425480Y798020D01*
X572390Y771610D02*
Y781860D01*
X595000Y784270D02*
Y792500D01*
X597000Y803000D02*
X614000Y786000D01*
X419250Y818250D02*
X434500Y803000D01*
X597000D01*
X571750Y847043D02*
X573250Y848543D01*
Y849750D01*
X571750Y838500D02*
Y847043D01*
X572390Y771610D02*
X573250Y770750D01*
X556250Y782750D02*
X557103Y781897D01*
X561601D01*
X567310Y775790D02*
Y776188D01*
X561601Y781897D02*
X567310Y776188D01*
X484353Y1129853D02*
X494885D01*
X483500Y1129000D02*
X484353Y1129853D01*
X501250Y1135500D02*
X529000D01*
X500500Y1136250D02*
X501250Y1135500D01*
X495718Y1129020D02*
X505270D01*
X497750Y1121500D02*
X505270Y1129020D01*
X494885Y1129853D02*
X495718Y1129020D01*
X505270D02*
X529214D01*
X529000Y1135500D02*
X531250D01*
X522750Y1141750D02*
X529000Y1135500D01*
X530234Y1128000D02*
X541250D01*
X529214Y1129020D02*
X530234Y1128000D01*
X533750Y1133000D02*
X541250D01*
X531250Y1135500D02*
X533750Y1133000D01*
X587500Y1026500D02*
Y1032750D01*
X582250Y1021250D02*
X587500Y1026500D01*
X581721Y1021250D02*
X582250D01*
X571558Y1030442D02*
X573058D01*
X564000Y1038000D02*
X571558Y1030442D01*
X564000Y1038000D02*
X564000D01*
X497000Y1121500D02*
X497750D01*
X522000Y1141750D02*
X522750D01*
X570980Y1134730D02*
X571750Y1135500D01*
X569250Y1133000D02*
X570910D01*
X570980Y1133070D01*
Y1134730D01*
X561750Y1142250D02*
Y1150250D01*
X567520Y1133070D02*
X567590Y1133000D01*
X567520Y1133070D02*
Y1136480D01*
X561750Y1142250D02*
X567520Y1136480D01*
X567590Y1133000D02*
X569250D01*
X564250Y1104445D02*
X567655Y1107850D01*
Y1112930D01*
X564250Y1095750D02*
Y1104445D01*
X567655Y1112930D02*
X567725Y1113000D01*
X569250D01*
X572750Y1087000D02*
Y1107750D01*
X570910Y1113000D02*
X570980Y1112930D01*
Y1109520D02*
Y1112930D01*
Y1109520D02*
X572750Y1107750D01*
X569250Y1113000D02*
X570910D01*
X582500Y1131000D02*
X597500D01*
X573820Y1123070D02*
X581750Y1131000D01*
X569250Y1123000D02*
X569320Y1123070D01*
X573820D01*
X581750Y1131000D02*
X582500D01*
X569320Y1117930D02*
X574570D01*
X581750Y1110750D02*
X582500D01*
X574570Y1117930D02*
X581750Y1110750D01*
X569250Y1118000D02*
X569320Y1117930D01*
X582500Y1110750D02*
X597500D01*
X644500D01*
X737500Y1017750D01*
Y919500D02*
Y1017750D01*
Y919500D02*
X753750Y903250D01*
X745750Y712750D02*
Y713000D01*
X716750Y742000D02*
X745750Y713000D01*
X702000Y742000D02*
X716750D01*
X558500Y770750D02*
X572350D01*
X575650Y772250D02*
X580900Y777500D01*
X574150Y770750D02*
X575650Y772250D01*
X567310Y775790D02*
X572350Y770750D01*
X514000Y775000D02*
Y778000D01*
X509520Y770520D02*
X514000Y775000D01*
X542500Y777585D02*
X546980Y773105D01*
X542500Y777585D02*
Y778000D01*
X546980Y773105D02*
X556145D01*
X558500Y770750D01*
X506610Y770520D02*
X509520D01*
X498000Y761910D02*
X506610Y770520D01*
X498000Y753086D02*
Y761910D01*
X570304Y1009862D02*
X570846Y1010404D01*
X570304Y1005860D02*
Y1009862D01*
X570846Y1010404D02*
X570875D01*
X581721Y1021250D01*
X611853Y762897D02*
X613353D01*
X611000Y763750D02*
X611853Y762897D01*
X613353D02*
X619270Y756980D01*
X596696Y776730D02*
X602304D01*
X603074Y777500D01*
X580900D02*
X595926D01*
X596696Y776730D01*
X630750Y777500D02*
X633750Y774500D01*
X603074Y777500D02*
X630750D01*
X575650Y772250D02*
X611920D01*
X614190Y769980D02*
X620020D01*
X611920Y772250D02*
X614190Y769980D01*
X620020D02*
X622750Y767250D01*
X596750Y754293D02*
X599000Y752043D01*
X596750Y754293D02*
Y764000D01*
X599000Y733750D02*
Y752043D01*
X589250Y728750D02*
X597750Y720250D01*
X576650Y768250D02*
X587762D01*
X589250Y728750D02*
Y766762D01*
X587762Y768250D02*
X589250Y766762D01*
X630850Y746900D02*
X631100D01*
X623500Y754250D02*
X630850Y746900D01*
X622750Y754250D02*
X623500D01*
X631100Y746900D02*
X634750Y743250D01*
X642000D01*
X619270Y756980D02*
X620020D01*
X622750Y754250D01*
X598500Y733250D02*
X599000Y733750D01*
X365375Y706980D02*
X375750Y696605D01*
Y695750D02*
Y696605D01*
X673108Y690858D02*
Y701810D01*
X672750Y690500D02*
X673108Y690858D01*
Y701810D02*
X676750Y705452D01*
X660750Y776500D02*
X664750Y772500D01*
X678980Y749880D02*
X678980Y749880D01*
X670000Y743250D02*
X677492D01*
X678980Y744738D01*
Y749880D01*
X678980Y749880D02*
Y760120D01*
X687750Y755000D02*
X694397Y761647D01*
X687000Y755000D02*
X687750D01*
X694397Y761647D02*
Y764397D01*
X695250Y765250D01*
X714543Y755000D02*
X716043Y753500D01*
X702000Y755000D02*
X714543D01*
X716043Y753500D02*
X717250D01*
X687250Y705250D02*
X704147Y688353D01*
X686500Y705250D02*
X687250D01*
X704147Y688353D02*
X709147D01*
X710000Y687500D01*
X548147Y688500D02*
X622000D01*
X546897Y689750D02*
X548147Y688500D01*
X622000D02*
Y689690D01*
X625750Y693440D01*
X474250Y689750D02*
X546897D01*
X596770Y680770D02*
X645770D01*
X651500Y686500D01*
X611750Y665250D02*
Y674000D01*
X596500Y680500D02*
X596770Y680770D01*
X611750Y665250D02*
X613750Y663250D01*
X570250Y703250D02*
X570750D01*
X584250Y716750D01*
X576650Y768250D02*
X584250Y760650D01*
X574150Y770750D02*
X576650Y768250D01*
X584250Y716750D02*
Y760650D01*
X598707Y697750D02*
X601707Y700750D01*
X597500Y697750D02*
X598707D01*
X447830Y663330D02*
X474250Y689750D01*
X651500Y686500D02*
Y705750D01*
X598500Y663250D02*
X613750D01*
X633750Y766250D02*
Y774500D01*
Y766250D02*
X639500Y760500D01*
X649250D01*
X657154Y925846D02*
Y925846D01*
Y924621D02*
Y925846D01*
X597750Y720250D02*
X598500D01*
X604103Y708603D02*
X609020Y713520D01*
X597853Y708603D02*
X604103D01*
X597000Y707750D02*
X597853Y708603D01*
X431738Y661738D02*
Y667488D01*
X427213Y672537D02*
Y673744D01*
X431738Y667488D02*
X435500Y671250D01*
Y683074D01*
X425531Y675426D02*
X427213Y673744D01*
X425531Y675426D02*
Y679719D01*
X388250Y659250D02*
X388375Y659375D01*
X400875D02*
X401000Y659500D01*
X388375Y659375D02*
X400875D01*
X433824Y684750D02*
X435500Y683074D01*
X425500Y684750D02*
X433824D01*
X625750Y732250D02*
X627250Y733750D01*
X625500Y732000D02*
X625750Y732250D01*
X483650Y724750D02*
X496336D01*
X482750D02*
X483650D01*
X425500Y679750D02*
X425531Y679719D01*
X431738Y661738D02*
X433330Y663330D01*
X431738Y660988D02*
Y661738D01*
X431000Y660250D02*
X431738Y660988D01*
X807792Y766919D02*
X807792D01*
X815806Y774934D01*
X816870Y769860D02*
X818974D01*
X825334Y763500D01*
X804108Y757098D02*
X809589Y762579D01*
X809589D02*
X816870Y769860D01*
X802310Y761438D02*
X807792Y766919D01*
X809589Y762579D02*
X809589D01*
X816966Y774934D02*
X819190Y777158D01*
X815806Y774934D02*
X816966D01*
X795937Y764020D02*
X798519Y761438D01*
X795270Y764020D02*
X795937D01*
X798519Y761438D02*
X802310D01*
X796337Y754575D02*
X798859Y757098D01*
X819190Y777158D02*
Y777356D01*
X825334Y783500D02*
X843500D01*
X825334Y763500D02*
X843500D01*
X798859Y757098D02*
X804108D01*
X795141Y754575D02*
X796337D01*
X819190Y777356D02*
X825334Y783500D01*
X787457Y1125000D02*
X789855Y1122602D01*
X794930D01*
X786250Y1115864D02*
X787457D01*
X786250Y1125000D02*
X787457D01*
Y1115864D02*
X789855Y1118262D01*
X794930Y1122602D02*
X795067Y1122739D01*
X789855Y1118262D02*
X796727D01*
X795067Y1122739D02*
X799180D01*
X800977Y1118399D02*
X806409Y1123830D01*
X796864Y1118399D02*
X800977D01*
X796727Y1118262D02*
X796864Y1118399D01*
X804611Y1128170D02*
X818952D01*
X820440Y1129658D01*
Y1129856D01*
X826584Y1136000D01*
X806409Y1123830D02*
X818952D01*
X820440Y1122342D01*
X826584Y1136000D02*
X844750D01*
X820440Y1122144D02*
Y1122342D01*
Y1122144D02*
X826584Y1116000D01*
X799180Y1122739D02*
X804611Y1128170D01*
X826584Y1116000D02*
X844750D01*
X656346Y899154D02*
X667750Y887750D01*
Y887750D02*
Y887750D01*
X653346Y899154D02*
X656346D01*
X671250Y905000D02*
X679250D01*
X666096Y910154D02*
X666096D01*
X633532Y860032D02*
Y860032D01*
X625250Y868315D02*
X633532Y860032D01*
X626762Y857228D02*
Y857542D01*
X615421Y868883D02*
X626762Y857542D01*
X625250Y868315D02*
Y870750D01*
X663397Y930397D02*
X664250Y931250D01*
X657790Y919983D02*
X663397Y925589D01*
Y930397D01*
X651734Y931174D02*
X651826D01*
X657154Y925846D01*
X791000Y586750D02*
X792207D01*
X792341Y595947D02*
X794917Y593371D01*
X791199Y595947D02*
X792341D01*
X792207Y586750D02*
X794488Y589031D01*
X824834Y607750D02*
X843000D01*
X573000Y744250D02*
Y757500D01*
X615247Y985404D02*
X617029D01*
X617154D01*
X617790Y984767D01*
X649366Y961154D02*
X649708Y960811D01*
X657154Y919346D02*
X657790Y919983D01*
X644154Y908346D02*
Y908346D01*
X638713Y902905D02*
X644154Y908346D01*
X638713Y892233D02*
Y902905D01*
X627654Y891596D02*
X628290Y892233D01*
X638713D01*
X615421Y868883D02*
Y879306D01*
X616058Y879942D01*
X636846Y882404D02*
X638596D01*
X646750Y874250D01*
X611250Y700750D02*
X612750Y702250D01*
X601707Y700750D02*
X611250D01*
X609920Y713520D02*
X612750Y716350D01*
X609020Y713520D02*
X609920D01*
X433330Y663330D02*
X447250Y677250D01*
X433330Y663330D02*
X447830D01*
X644770Y715101D02*
Y715880D01*
X642000Y718650D02*
Y723250D01*
Y718650D02*
X644770Y715880D01*
X657154Y924621D02*
X657790Y923985D01*
Y919983D02*
Y923985D01*
X524000Y1091000D02*
Y1105750D01*
Y1106650D02*
Y1120750D01*
Y1105750D02*
Y1106650D01*
X526250Y1123000D02*
X541250D01*
X524000Y1120750D02*
X526250Y1123000D01*
X598520Y733250D02*
X601250Y735980D01*
X602738Y742000D02*
X629484D01*
X601250Y740512D02*
X602738Y742000D01*
X601250Y735980D02*
Y740512D01*
X598500Y733250D02*
X598520D01*
X629484Y742000D02*
X633194Y738290D01*
X641960D02*
X642000Y738250D01*
X633194Y738290D02*
X641960D01*
X625500Y717500D02*
X625750Y717250D01*
X625500Y717500D02*
Y732000D01*
X625750Y717250D02*
X628330Y719830D01*
X627250Y733750D02*
X639840D01*
X640340Y733250D02*
X642000D01*
X639840Y733750D02*
X640340Y733250D01*
X628330Y719830D02*
Y722480D01*
X635190Y728250D02*
X642000D01*
X629420Y722480D02*
X635190Y728250D01*
X628330Y722480D02*
X629420D01*
X692350Y733250D02*
X701100Y742000D01*
X677500Y733250D02*
X692350D01*
X701100Y742000D02*
X702000D01*
X677500Y733250D02*
X686250Y742000D01*
X670000Y733250D02*
X677500D01*
X686250Y742000D02*
X687000D01*
X664500Y705750D02*
X666720Y707970D01*
Y714310D01*
X670000Y717590D01*
Y723250D01*
X674000D02*
X676750Y720500D01*
Y705452D02*
Y720500D01*
X670000Y723250D02*
X674000D01*
X662250Y759750D02*
Y760500D01*
Y759750D02*
X670000Y752000D01*
Y743250D02*
Y752000D01*
X334500Y764500D02*
X335000Y764000D01*
X319750Y750750D02*
X334750D01*
X319500Y750500D02*
X319750Y750750D01*
X334750D02*
X335000Y751000D01*
X350489Y764000D02*
X351989Y762500D01*
X335000Y764000D02*
X350489D01*
X366250Y762500D02*
X369771Y758979D01*
Y758240D02*
Y758979D01*
X401000Y672500D02*
Y682500D01*
X414150Y684750D02*
X420500D01*
X401900Y672500D02*
X414150Y684750D01*
X401000Y672500D02*
X401900D01*
X496830Y658000D02*
X511500D01*
X613750Y637750D02*
Y650250D01*
X598750Y637250D02*
Y650000D01*
X598500Y650250D02*
X598750Y650000D01*
X584875Y618125D02*
Y631625D01*
X584500Y632000D02*
X584875Y631625D01*
Y618125D02*
X585250Y617750D01*
X496750Y631750D02*
Y644500D01*
X496250Y645000D02*
X496750Y644500D01*
X481250Y632000D02*
Y645000D01*
X481250Y645000D02*
X481250Y645000D01*
X465500Y631500D02*
Y644250D01*
X466250Y645000D01*
X571500Y632000D02*
Y646250D01*
X571500Y632000D02*
X571500Y632000D01*
X597600Y663250D02*
X598500D01*
X585500D02*
X597600D01*
X584500Y662250D02*
X585500Y663250D01*
X584500Y647750D02*
X590230Y653480D01*
Y655880D01*
X597600Y663250D01*
X584500Y647000D02*
Y647750D01*
X511500Y658000D02*
X511500Y658000D01*
X437750Y754000D02*
X438125Y754375D01*
X450875D02*
X451250Y754750D01*
X438125Y754375D02*
X450875D01*
X440000Y737500D02*
X452500D01*
X452750Y737750D01*
X439750Y737250D02*
X440000Y737500D01*
X452750Y737750D02*
X467750D01*
X501520Y739020D02*
X501750Y739250D01*
X494440Y739020D02*
X501520D01*
X482750Y737750D02*
X493170D01*
X494440Y739020D01*
X509053Y743653D02*
Y750497D01*
X512250Y739250D02*
Y740457D01*
X509053Y743653D02*
X512250Y740457D01*
X507500Y752050D02*
X509053Y750497D01*
X544250Y726000D02*
Y739000D01*
X573000Y757500D02*
X573250Y757750D01*
X558500Y744500D02*
Y757750D01*
X558500Y757750D01*
X514500Y710750D02*
X517000Y713250D01*
Y726950D01*
X496336Y724750D02*
X498000Y726414D01*
Y726950D01*
X486480Y721020D02*
Y721920D01*
Y721020D02*
X495178Y712322D01*
X483650Y724750D02*
X486480Y721920D01*
X499928Y712322D02*
X501500Y710750D01*
X495178Y712322D02*
X499928D01*
X498000Y752050D02*
Y753086D01*
X543730Y757230D02*
X555250Y768750D01*
X544250Y754500D02*
X546980Y757230D01*
X544250Y753750D02*
Y754500D01*
X531250Y739000D02*
Y753750D01*
X531250Y739000D02*
X531250Y739000D01*
X530513Y753012D02*
X531250Y753750D01*
X517000Y752050D02*
X517962Y753012D01*
X530513D01*
X482750Y754750D02*
X496336D01*
X498000Y753086D01*
X467750Y724750D02*
X482750D01*
X452750D02*
X467750D01*
X447250Y719250D02*
X449020Y721020D01*
X451850Y724750D02*
X452750D01*
X449020Y721920D02*
X451850Y724750D01*
X449020Y721020D02*
Y721920D01*
X447250Y677250D02*
Y719250D01*
X481250Y658000D02*
X496250D01*
X466250D02*
X481250D01*
X433250D02*
X466250D01*
X431000Y660250D02*
X433250Y658000D01*
X418000Y677207D02*
X420500Y679707D01*
X418000Y660250D02*
Y677207D01*
X420500Y679707D02*
Y679750D01*
X345750Y648750D02*
X407250D01*
X418000Y659500D01*
Y660250D01*
X422414Y689370D02*
X425469Y686314D01*
X375750Y695750D02*
X382130Y689370D01*
X422414D01*
X319050Y794500D02*
X321525Y796975D01*
X572000Y837900D02*
X574730Y835170D01*
X572000Y837900D02*
Y838250D01*
X587258Y825750D02*
X594750D01*
X585770Y827238D02*
X587258Y825750D01*
X585770Y827238D02*
Y830355D01*
X580955Y835170D02*
X585770Y830355D01*
X574730Y835170D02*
X580955D01*
X539150Y827750D02*
X546570Y835170D01*
X556270D01*
X559000Y837900D01*
X538250Y827750D02*
X539150D01*
X571750Y838500D02*
X572000Y838250D01*
X297589Y794500D02*
X319050D01*
X292106Y789017D02*
X297589Y794500D01*
D20*
X597500Y1097750D02*
D03*
Y1110750D02*
D03*
Y1144000D02*
D03*
Y1131000D02*
D03*
X702250Y705000D02*
D03*
Y718000D02*
D03*
X702000Y755000D02*
D03*
Y742000D02*
D03*
X401000Y659500D02*
D03*
Y672500D02*
D03*
X613750Y650250D02*
D03*
Y663250D02*
D03*
X598500Y650250D02*
D03*
Y663250D02*
D03*
X573250Y757750D02*
D03*
Y770750D02*
D03*
X558500Y757750D02*
D03*
Y770750D02*
D03*
X482750Y737750D02*
D03*
Y724750D02*
D03*
X496250Y645000D02*
D03*
Y658000D02*
D03*
X481250Y645000D02*
D03*
Y658000D02*
D03*
X466250Y645000D02*
D03*
Y658000D02*
D03*
X452750Y737750D02*
D03*
Y724750D02*
D03*
X467750Y737750D02*
D03*
Y724750D02*
D03*
X538250Y827750D02*
D03*
Y814750D02*
D03*
X594750Y825750D02*
D03*
Y812750D02*
D03*
X335000Y751000D02*
D03*
Y764000D02*
D03*
D26*
X522000Y1154750D02*
D03*
Y1141750D02*
D03*
X497000Y1108500D02*
D03*
Y1121500D02*
D03*
X582500Y1144000D02*
D03*
Y1131000D02*
D03*
Y1097750D02*
D03*
Y1110750D02*
D03*
X686500Y705250D02*
D03*
Y718250D02*
D03*
X687000Y755000D02*
D03*
Y742000D02*
D03*
X622750Y767250D02*
D03*
Y754250D02*
D03*
X598500Y720250D02*
D03*
Y733250D02*
D03*
X511500Y658000D02*
D03*
Y645000D02*
D03*
D27*
X511000Y1120750D02*
D03*
X524000D02*
D03*
X511000Y1105750D02*
D03*
X524000D02*
D03*
X511000Y1091000D02*
D03*
X524000D02*
D03*
X612750Y702250D02*
D03*
X625750D02*
D03*
X612750Y732250D02*
D03*
X625750D02*
D03*
X612750Y717250D02*
D03*
X625750D02*
D03*
D28*
X351989Y762500D02*
D03*
X365511D02*
D03*
D57*
X338500Y846000D02*
D03*
X338247Y854492D02*
D03*
X555250Y1132500D02*
D03*
X549500Y1123000D02*
D03*
X561000D02*
D03*
X555250Y1113500D02*
D03*
X656000Y742750D02*
D03*
X650250Y733250D02*
D03*
X661750D02*
D03*
X656000Y723750D02*
D03*
D58*
X387800Y1006750D02*
D03*
X413200D02*
D03*
X362400D02*
D03*
X337000D02*
D03*
D59*
X300000Y1170250D02*
D03*
X471750D02*
D03*
X691750Y545750D02*
D03*
X300000D02*
D03*
X863000Y532250D02*
D03*
Y663250D02*
D03*
X864750Y1060500D02*
D03*
Y1191500D02*
D03*
X863500Y708000D02*
D03*
Y839000D02*
D03*
X864250Y884500D02*
D03*
Y1015500D02*
D03*
D60*
X332000Y812250D02*
D03*
Y887750D02*
D03*
D61*
X330000Y794500D02*
D03*
Y905500D02*
D03*
X281500Y792000D02*
D03*
Y908000D02*
D03*
X679360Y772500D02*
D03*
X506000Y680250D02*
D03*
X724500Y820500D02*
D03*
X722250Y906750D02*
D03*
X722000Y1020000D02*
D03*
X645250Y1083750D02*
D03*
X484250Y856250D02*
D03*
Y836500D02*
D03*
X371957Y815250D02*
D03*
X583750Y929520D02*
D03*
X614000D02*
D03*
X565500Y816500D02*
D03*
Y828250D02*
D03*
X653000Y620500D02*
D03*
X345234Y620430D02*
D03*
X425250Y623500D02*
D03*
X427750Y579250D02*
D03*
X510000Y581000D02*
D03*
X595250Y578000D02*
D03*
X656250Y576500D02*
D03*
X662500Y517250D02*
D03*
X593000Y519750D02*
D03*
X510250Y518250D02*
D03*
X426250Y519500D02*
D03*
X344250Y517750D02*
D03*
X344000Y575500D02*
D03*
X276250Y574000D02*
D03*
Y622750D02*
D03*
X277149Y979053D02*
D03*
X437250Y1039500D02*
D03*
X349000Y1038000D02*
D03*
X273750Y1034250D02*
D03*
X275000Y1110500D02*
D03*
X350500Y1109500D02*
D03*
X432250Y1105500D02*
D03*
X348000Y1192000D02*
D03*
X425750Y1191750D02*
D03*
X694750Y1124500D02*
D03*
X588750Y1199750D02*
D03*
X638500Y1147500D02*
D03*
X639500Y1201000D02*
D03*
X728750Y1094500D02*
D03*
X721000Y1199250D02*
D03*
X424170Y931000D02*
D03*
X406500Y696156D02*
D03*
X796500Y951750D02*
D03*
X783750Y957750D02*
D03*
X516770Y851000D02*
D03*
X523701Y848750D02*
D03*
X521541Y858946D02*
D03*
X520332Y867864D02*
D03*
X541581Y878750D02*
D03*
X523313Y889750D02*
D03*
X512384Y884116D02*
D03*
X516974Y876374D02*
D03*
X523701Y876210D02*
D03*
X556726Y860694D02*
D03*
X496819Y870069D02*
D03*
X501000Y890890D02*
D03*
X652238Y830738D02*
D03*
X545713Y869249D02*
D03*
X600000Y915750D02*
D03*
X568000Y945000D02*
D03*
X601250Y944250D02*
D03*
X568750Y915980D02*
D03*
X555912Y932412D02*
D03*
X583750Y959500D02*
D03*
X583500Y899750D02*
D03*
X528583Y966158D02*
D03*
X521791Y953917D02*
D03*
X550084Y946145D02*
D03*
X543013Y919753D02*
D03*
X560691Y902075D02*
D03*
X596753Y892405D02*
D03*
X586147Y977965D02*
D03*
X596529Y967297D02*
D03*
X607360Y903012D02*
D03*
X621280Y942546D02*
D03*
X517525Y940296D02*
D03*
X717750Y699000D02*
D03*
X660338Y976338D02*
D03*
X303946Y853599D02*
D03*
X304886Y844070D02*
D03*
X356517Y838291D02*
D03*
X297520Y860662D02*
D03*
X312516Y859852D02*
D03*
X382218Y846172D02*
D03*
X375010Y857508D02*
D03*
X496770Y910750D02*
D03*
X296641Y838891D02*
D03*
X321397Y893750D02*
D03*
X281000Y889500D02*
D03*
X481750Y811000D02*
D03*
X516250Y922928D02*
D03*
X301500Y874500D02*
D03*
X417000Y959500D02*
D03*
X398626Y920717D02*
D03*
X365500Y864000D02*
D03*
X279480Y834159D02*
D03*
X286250Y819500D02*
D03*
X538750Y1169980D02*
D03*
X511500Y1079750D02*
D03*
X538750Y1107520D02*
D03*
X537750Y1092500D02*
D03*
X595250Y1162750D02*
D03*
X582500Y1154750D02*
D03*
X596770Y1088000D02*
D03*
X526169Y1078750D02*
D03*
X498000Y1095250D02*
D03*
X582000Y1082000D02*
D03*
X416750Y967670D02*
D03*
X396250Y951250D02*
D03*
X446250Y976250D02*
D03*
X408750Y985750D02*
D03*
X473750Y939000D02*
D03*
X481000Y946500D02*
D03*
X545722Y859463D02*
D03*
X504250Y917500D02*
D03*
X637610Y1004437D02*
D03*
X619730Y1011802D02*
D03*
X785864Y948114D02*
D03*
X779500Y941750D02*
D03*
X535766Y1043250D02*
D03*
X534829Y1032171D02*
D03*
X550777Y1022550D02*
D03*
X574750Y998750D02*
D03*
X665254Y951809D02*
D03*
X618500Y813750D02*
D03*
X312750Y765000D02*
D03*
X582750Y857750D02*
D03*
X558875Y850375D02*
D03*
X802730Y773250D02*
D03*
X779250Y930500D02*
D03*
X768250Y937750D02*
D03*
X786750Y1049250D02*
D03*
X788000Y878250D02*
D03*
X666793Y856043D02*
D03*
X619635Y826635D02*
D03*
X574000Y789500D02*
D03*
X560000Y791250D02*
D03*
X452480Y942838D02*
D03*
X483250Y958500D02*
D03*
X505088Y845548D02*
D03*
X497980Y821000D02*
D03*
X545250Y847250D02*
D03*
X573250Y849750D02*
D03*
X556250Y782750D02*
D03*
X483500Y1129000D02*
D03*
X500500Y1136250D02*
D03*
X587500Y1032750D02*
D03*
X564000Y1038000D02*
D03*
X485750Y1040750D02*
D03*
X753750Y903250D02*
D03*
X745989Y1065750D02*
D03*
X779500Y693250D02*
D03*
X745750Y712750D02*
D03*
X492500Y983000D02*
D03*
X495500Y1022000D02*
D03*
X482000Y1009750D02*
D03*
X611000Y763750D02*
D03*
X595000Y784270D02*
D03*
X596750Y764000D02*
D03*
X614000Y786000D02*
D03*
X273750Y750500D02*
D03*
X672750Y690500D02*
D03*
X695250Y765250D02*
D03*
X717250Y753500D02*
D03*
X710000Y687500D02*
D03*
X622000Y688500D02*
D03*
X611750Y674000D02*
D03*
X570250Y703250D02*
D03*
X596500Y680500D02*
D03*
X597500Y697750D02*
D03*
X597000Y707750D02*
D03*
X427213Y672537D02*
D03*
X388250Y659250D02*
D03*
X747250Y538250D02*
D03*
X779000Y523750D02*
D03*
X800750Y745500D02*
D03*
X789000Y746250D02*
D03*
X791750Y773750D02*
D03*
X795270Y764020D02*
D03*
X795141Y754575D02*
D03*
X777500Y1109000D02*
D03*
X794000Y1108000D02*
D03*
Y1133250D02*
D03*
X780500Y1134500D02*
D03*
X786250Y1125000D02*
D03*
Y1115864D02*
D03*
X667750Y887750D02*
D03*
X679250Y905000D02*
D03*
X633532Y860032D02*
D03*
X664250Y931250D02*
D03*
X651734Y931174D02*
D03*
X791000Y586750D02*
D03*
X791199Y595947D02*
D03*
X797750Y579000D02*
D03*
X783750Y579750D02*
D03*
X798000Y604250D02*
D03*
X786500Y605250D02*
D03*
X573000Y744250D02*
D03*
X646750Y874250D02*
D03*
X644770Y715101D02*
D03*
X319500Y750500D02*
D03*
X401000Y682500D02*
D03*
X481250Y632000D02*
D03*
X465500Y631500D02*
D03*
X496750Y631750D02*
D03*
X585250Y617750D02*
D03*
X613750Y637750D02*
D03*
X598750Y637250D02*
D03*
X540750Y653250D02*
D03*
X437750Y754000D02*
D03*
X439750Y737250D02*
D03*
X501750Y739250D02*
D03*
X512250D02*
D03*
X544250Y726000D02*
D03*
X558500Y744500D02*
D03*
X477000Y874140D02*
D03*
X289500Y750250D02*
D03*
X355241Y814957D02*
D03*
X357750Y884750D02*
D03*
D62*
X843000Y562750D02*
D03*
X844750Y1091000D02*
D03*
X843500Y738500D02*
D03*
X844250Y915000D02*
D03*
D63*
X843000Y587750D02*
D03*
Y607750D02*
D03*
Y632750D02*
D03*
X828000Y637750D02*
D03*
Y617750D02*
D03*
Y597750D02*
D03*
Y577750D02*
D03*
Y557750D02*
D03*
X844750Y1116000D02*
D03*
Y1136000D02*
D03*
Y1161000D02*
D03*
X829750Y1166000D02*
D03*
Y1146000D02*
D03*
Y1126000D02*
D03*
Y1106000D02*
D03*
Y1086000D02*
D03*
X843500Y763500D02*
D03*
Y783500D02*
D03*
Y808500D02*
D03*
X828500Y813500D02*
D03*
Y793500D02*
D03*
Y773500D02*
D03*
Y753500D02*
D03*
Y733500D02*
D03*
X844250Y940000D02*
D03*
Y960000D02*
D03*
Y985000D02*
D03*
X829250Y990000D02*
D03*
Y970000D02*
D03*
Y950000D02*
D03*
Y930000D02*
D03*
Y910000D02*
D03*
D64*
X270750Y695750D02*
D03*
D65*
X345750Y648750D02*
D03*
D66*
X315750Y695750D02*
D03*
D67*
X375750D02*
D03*
D68*
X527700Y662250D02*
D03*
Y643250D02*
D03*
X552800D02*
D03*
Y652750D02*
D03*
Y662250D02*
D03*
D69*
X514000Y778000D02*
D03*
X542500D02*
D03*
D70*
X551250Y1095750D02*
D03*
X564250D02*
D03*
X548750Y1150250D02*
D03*
X561750D02*
D03*
X651500Y705750D02*
D03*
X664500D02*
D03*
X649250Y760500D02*
D03*
X662250D02*
D03*
X418000Y660250D02*
D03*
X431000D02*
D03*
X544250Y739000D02*
D03*
X531250D02*
D03*
X531250Y753750D02*
D03*
X544250D02*
D03*
X584500Y632000D02*
D03*
X571500D02*
D03*
X571500Y647000D02*
D03*
X584500D02*
D03*
X584500Y662250D02*
D03*
X571500D02*
D03*
X501500Y710750D02*
D03*
X514500D02*
D03*
X572000Y838250D02*
D03*
X559000D02*
D03*
D71*
X541250Y1113000D02*
D03*
Y1118000D02*
D03*
Y1123000D02*
D03*
Y1128000D02*
D03*
Y1133000D02*
D03*
X569250D02*
D03*
Y1128000D02*
D03*
Y1123000D02*
D03*
Y1118000D02*
D03*
Y1113000D02*
D03*
X642000Y723250D02*
D03*
Y728250D02*
D03*
Y733250D02*
D03*
Y738250D02*
D03*
Y743250D02*
D03*
X670000D02*
D03*
Y738250D02*
D03*
Y733250D02*
D03*
Y728250D02*
D03*
Y723250D02*
D03*
D72*
X555250Y1123000D02*
D03*
X656000Y733250D02*
D03*
D73*
X425500Y684750D02*
D03*
X420500D02*
D03*
X425500Y679750D02*
D03*
X420500D02*
D03*
D74*
X521500Y680500D02*
D03*
X553000D02*
D03*
X451250Y754750D02*
D03*
X482750D02*
D03*
D75*
X498000Y752050D02*
D03*
X507500D02*
D03*
X517000D02*
D03*
Y726950D02*
D03*
X498000D02*
D03*
D76*
X525692Y908442D02*
D03*
X516500Y899250D02*
D03*
X614096Y1006596D02*
D03*
X604904Y997404D02*
D03*
X499846Y929904D02*
D03*
X626346Y994596D02*
D03*
X617154Y985404D02*
D03*
X650596Y970346D02*
D03*
D77*
X577750Y819750D02*
D03*
X552750D02*
D03*
D78*
X490654Y939096D02*
D03*
X573058Y1030442D02*
D03*
X582250Y1021250D02*
D03*
X481500Y929750D02*
D03*
X490692Y920558D02*
D03*
X599096Y838654D02*
D03*
X589904Y847846D02*
D03*
X666346Y910154D02*
D03*
X657154Y919346D02*
D03*
X641404Y961154D02*
D03*
X636846Y882404D02*
D03*
X627654Y891596D02*
D03*
X536404Y901346D02*
D03*
X545596Y892154D02*
D03*
X561654Y1019596D02*
D03*
X570846Y1010404D02*
D03*
X625250Y870750D02*
D03*
X616058Y879942D02*
D03*
X653346Y899154D02*
D03*
X644154Y908346D02*
D03*
M02*
