G04*
G04 #@! TF.GenerationSoftware,Altium Limited,Altium Designer,24.0.1 (36)*
G04*
G04 Layer_Color=32896*
%FSLAX44Y44*%
%MOMM*%
G71*
G04*
G04 #@! TF.SameCoordinates,3B49473D-73B2-42EE-9F38-8EB038721B03*
G04*
G04*
G04 #@! TF.FilePolarity,Positive*
G04*
G01*
G75*
%ADD10C,0.2000*%
%ADD14C,0.1270*%
%ADD88C,0.1200*%
D10*
X565350Y663250D02*
G03*
X565350Y663250I-1000J0D01*
G01*
X532300Y1111000D02*
G03*
X532300Y1111000I-1000J0D01*
G01*
X633050Y721250D02*
G03*
X633050Y721250I-1000J0D01*
G01*
X434840Y684750D02*
G03*
X434840Y684750I-1000J0D01*
G01*
X498000Y763600D02*
G03*
X498000Y763600I-1000J0D01*
G01*
X523750Y770250D02*
X532750D01*
X523750Y785750D02*
X532750D01*
X346459Y771291D02*
X371041D01*
X346459Y753709D02*
X371041D01*
D14*
X536950Y638250D02*
X543550D01*
X532250Y649400D02*
Y656100D01*
X536950Y667250D02*
X543550D01*
X557497Y1091000D02*
X558005D01*
X557497Y1100500D02*
X558005D01*
X554997Y1145500D02*
X555505D01*
X554997Y1155000D02*
X555505D01*
X517250Y1147995D02*
Y1148503D01*
X526750Y1147995D02*
Y1148503D01*
X501750Y1114747D02*
Y1115255D01*
X492250Y1114747D02*
Y1115255D01*
X577750Y1137245D02*
Y1137753D01*
X587250Y1137245D02*
Y1137753D01*
Y1103997D02*
Y1104505D01*
X577750Y1103997D02*
Y1104505D01*
X540250Y1108000D02*
X548300D01*
X540250Y1138000D02*
X548300D01*
X562200Y1108000D02*
X570250D01*
X562200Y1138000D02*
X570250D01*
X691250Y711497D02*
Y712005D01*
X681750Y711497D02*
Y712005D01*
X682250Y748245D02*
Y748753D01*
X691750Y748245D02*
Y748753D01*
X618000Y760495D02*
Y761003D01*
X627500Y760495D02*
Y761003D01*
X657747Y701000D02*
X658255D01*
X657747Y710500D02*
X658255D01*
X603250Y726497D02*
Y727005D01*
X593750Y726497D02*
Y727005D01*
X655497Y755750D02*
X656005D01*
X655497Y765250D02*
X656005D01*
X641000Y718250D02*
X649050D01*
X641000Y748250D02*
X649050D01*
X662950Y718250D02*
X671000D01*
X662950Y748250D02*
X671000D01*
X415950Y675200D02*
X419475D01*
X415950D02*
Y678725D01*
X426525Y675200D02*
X430050D01*
Y678725D01*
X426525Y689300D02*
X430050D01*
Y685775D02*
Y689300D01*
X415950D02*
X419475D01*
X415950Y685775D02*
Y689300D01*
X424247Y655500D02*
X424755D01*
X424247Y665000D02*
X424755D01*
X537495Y743750D02*
X538003D01*
X537495Y734250D02*
X538003D01*
X537497Y749000D02*
X538005D01*
X537497Y758500D02*
X538005D01*
X506750Y651245D02*
Y651753D01*
X516250Y651245D02*
Y651753D01*
X493000Y736200D02*
Y742800D01*
X504150Y731500D02*
X510850D01*
X522000Y736200D02*
Y742800D01*
X577745Y636750D02*
X578253D01*
X577745Y627250D02*
X578253D01*
X577747Y642250D02*
X578255D01*
X577747Y651750D02*
X578255D01*
X577745Y667000D02*
X578253D01*
X577745Y657500D02*
X578253D01*
X507747Y706000D02*
X508255D01*
X507747Y715500D02*
X508255D01*
X565245Y843000D02*
X565753D01*
X565245Y833500D02*
X565753D01*
X560950Y827250D02*
X569550D01*
X560950Y812250D02*
X569550D01*
D88*
X560400Y677400D02*
Y683600D01*
X523250Y689000D02*
X551250D01*
X523250Y672000D02*
X551250D01*
X490150Y751650D02*
Y757850D01*
X453000Y763250D02*
X481000D01*
X453000Y746250D02*
X481000D01*
M02*
