G04*
G04 #@! TF.GenerationSoftware,Altium Limited,Altium Designer,24.0.1 (36)*
G04*
G04 Layer_Physical_Order=3*
G04 Layer_Color=16440176*
%FSLAX44Y44*%
%MOMM*%
G71*
G04*
G04 #@! TF.SameCoordinates,3B49473D-73B2-42EE-9F38-8EB038721B03*
G04*
G04*
G04 #@! TF.FilePolarity,Positive*
G04*
G01*
G75*
%ADD16C,0.2540*%
%ADD57C,0.3000*%
%ADD58R,1.5000X1.5000*%
%ADD59C,3.3160*%
%ADD60C,0.5500*%
%ADD61C,0.7000*%
%ADD63C,1.2080*%
%ADD64C,2.2000*%
%ADD65O,4.5000X2.2500*%
%ADD66O,2.2500X4.5000*%
%ADD67O,2.5000X5.0000*%
G36*
X533000Y1166250D02*
X535409D01*
X535918Y1165741D01*
X537755Y1164980D01*
X539745D01*
X541582Y1165741D01*
X542091Y1166250D01*
X577500D01*
X579761Y1163989D01*
X580253Y1163253D01*
X586500Y1157006D01*
Y1082750D01*
X571500Y1067750D01*
X541500Y1097750D01*
X531500D01*
X532250Y1097000D01*
Y1078994D01*
X530253Y1076997D01*
X529641Y1076081D01*
X529426Y1075000D01*
X515617D01*
X515091Y1076270D01*
X515739Y1076918D01*
X516500Y1078755D01*
Y1080745D01*
X515739Y1082582D01*
X514332Y1083989D01*
X512495Y1084750D01*
X510505D01*
X508668Y1083989D01*
X507261Y1082582D01*
X506500Y1080745D01*
Y1080296D01*
X505230Y1079770D01*
X503750Y1081250D01*
Y1103250D01*
X495000D01*
X491500Y1099750D01*
Y1055500D01*
X453000Y1017000D01*
Y947838D01*
X451485D01*
X449648Y947077D01*
X448241Y945670D01*
X447480Y943832D01*
Y941843D01*
X448241Y940006D01*
X449648Y938599D01*
X451485Y937838D01*
X453000D01*
Y503894D01*
X286250Y503894D01*
X265931D01*
X264423Y504194D01*
X263002Y504782D01*
X261724Y505637D01*
X260637Y506724D01*
X259782Y508002D01*
X259194Y509423D01*
X258894Y510931D01*
Y511700D01*
Y688745D01*
X260164Y689086D01*
X260748Y688075D01*
X263075Y685748D01*
X265925Y684102D01*
X269104Y683250D01*
X272396D01*
X275575Y684102D01*
X278425Y685748D01*
X280753Y688075D01*
X282398Y690925D01*
X283250Y694104D01*
Y697396D01*
X282398Y700575D01*
X280753Y703425D01*
X278425Y705752D01*
X275575Y707398D01*
X272396Y708250D01*
X269104D01*
X265925Y707398D01*
X263075Y705752D01*
X260748Y703425D01*
X260164Y702414D01*
X258894Y702755D01*
Y1208550D01*
Y1209319D01*
X259194Y1210827D01*
X259782Y1212247D01*
X260637Y1213526D01*
X261724Y1214613D01*
X263002Y1215468D01*
X264423Y1216056D01*
X265931Y1216356D01*
X533000D01*
Y1166250D01*
D02*
G37*
G36*
X953577Y1216056D02*
X954997Y1215468D01*
X956276Y1214613D01*
X957363Y1213526D01*
X958218Y1212248D01*
X958806Y1210827D01*
X959106Y1209319D01*
Y1208550D01*
Y945374D01*
X856124D01*
Y991500D01*
X855648Y992648D01*
X854148Y994148D01*
X853000Y994624D01*
X851852Y994148D01*
X850954Y993250D01*
X850672D01*
X850444Y993022D01*
X850145Y992898D01*
X850022Y992600D01*
X849793Y992371D01*
X849635Y991990D01*
X849627Y991979D01*
X848134Y991464D01*
X847160Y992026D01*
X845243Y992540D01*
X843257D01*
X841340Y992026D01*
X839620Y991034D01*
X838216Y989630D01*
X838060Y989359D01*
X836790Y989699D01*
Y990993D01*
X836276Y992910D01*
X835284Y994630D01*
X833880Y996033D01*
X832160Y997026D01*
X830243Y997540D01*
X828257D01*
X826340Y997026D01*
X824620Y996033D01*
X823216Y994630D01*
X822224Y992910D01*
X821710Y990993D01*
Y989007D01*
X822224Y987090D01*
X823216Y985370D01*
X824620Y983967D01*
X826340Y982974D01*
X827213Y982740D01*
X827606Y981320D01*
X826575Y980252D01*
X826407Y979827D01*
X826152Y979447D01*
X826187Y979267D01*
X826120Y979096D01*
X826302Y978677D01*
X826389Y978227D01*
X826396Y978217D01*
X825850Y976743D01*
X824620Y976034D01*
X823216Y974630D01*
X822224Y972910D01*
X820787Y972456D01*
X820548Y972553D01*
X820219Y972550D01*
X819912Y972671D01*
X819622Y972545D01*
X819306Y972542D01*
X819075Y972307D01*
X818772Y972176D01*
X815099Y968374D01*
X775500D01*
X774352Y967898D01*
X757352Y950898D01*
X756876Y949750D01*
Y945374D01*
X682673D01*
X663398Y964648D01*
X662250Y965124D01*
X661102Y964648D01*
X657102Y960648D01*
X656626Y959500D01*
Y946500D01*
X657102Y945352D01*
X661814Y940640D01*
X661158Y939500D01*
X660790Y939500D01*
X660628Y939500D01*
X654750D01*
X659542Y939234D01*
X661678Y939116D01*
X661867Y939034D01*
X662156Y938844D01*
X663054Y937946D01*
X668196Y932804D01*
Y924374D01*
X647304D01*
X646156Y923898D01*
X645008Y922750D01*
X618250D01*
X591500Y896000D01*
X588480D01*
X587885Y897270D01*
X588500Y898755D01*
Y900745D01*
X587739Y902582D01*
X586332Y903989D01*
X584495Y904750D01*
X582505D01*
X580668Y903989D01*
X579261Y902582D01*
X578904Y901721D01*
X577358Y901307D01*
X563684Y911816D01*
X556750Y918750D01*
X554661D01*
X552890Y920111D01*
X552627Y920182D01*
X552423Y920361D01*
X552050Y920337D01*
X551690Y920434D01*
X551454Y920298D01*
X551183Y920281D01*
X551032Y920206D01*
X549858Y920719D01*
X542416Y928161D01*
X541588Y927439D01*
X540293Y927993D01*
X540281Y928022D01*
X540007Y928135D01*
X539805Y928352D01*
X539456Y928363D01*
X539133Y928497D01*
X521035D01*
X520714Y928364D01*
X520368Y928354D01*
X520163Y928136D01*
X519887Y928022D01*
X519357Y927459D01*
X518191Y927536D01*
X517245Y927928D01*
X515255D01*
X514309Y927536D01*
X513143Y927459D01*
X512613Y928022D01*
X512337Y928136D01*
X512132Y928354D01*
X511786Y928364D01*
X511465Y928497D01*
X504439D01*
X504120Y928365D01*
X503776Y928356D01*
X499124Y926275D01*
X498917Y926056D01*
X498639Y925941D01*
X491676Y918978D01*
X491201Y917830D01*
Y906176D01*
X491250Y906057D01*
Y899750D01*
X493500D01*
X507606Y885645D01*
X507384Y885110D01*
Y883121D01*
X507803Y882110D01*
X507874Y880987D01*
X507352Y880418D01*
X507230Y880124D01*
X507004Y879900D01*
X507002Y879572D01*
X506876Y879270D01*
Y871957D01*
X507352Y870809D01*
X510736Y867425D01*
X511080Y866910D01*
X511201Y866303D01*
Y849926D01*
X511676Y848778D01*
X525756Y834698D01*
X526050Y834576D01*
X526274Y834350D01*
X526601Y834348D01*
X526904Y834223D01*
X527198Y834344D01*
X527516Y834343D01*
X528750Y833474D01*
Y808250D01*
X599454Y806780D01*
X616324Y833447D01*
X621412Y830855D01*
X623000Y829743D01*
Y818117D01*
X621730Y817591D01*
X621332Y817989D01*
X619495Y818750D01*
X617505D01*
X615668Y817989D01*
X614261Y816582D01*
X613500Y814745D01*
Y812755D01*
X614261Y810918D01*
X615668Y809511D01*
X617505Y808750D01*
X619495D01*
X621332Y809511D01*
X621730Y809909D01*
X623000Y809383D01*
Y757250D01*
X616915Y751826D01*
X589727Y729761D01*
X589684Y729682D01*
X589602Y729648D01*
X589394Y729146D01*
X589135Y728668D01*
X589160Y728582D01*
X589126Y728500D01*
Y727058D01*
X588500Y726500D01*
Y686750D01*
X589541D01*
X589602Y686602D01*
X590750Y686126D01*
X599080D01*
X599948Y685198D01*
X599750Y685000D01*
Y675750D01*
X566500D01*
X565750Y675000D01*
Y673652D01*
X565376Y672750D01*
Y649250D01*
Y503894D01*
X564106Y503894D01*
X456250D01*
Y939537D01*
X456719Y940006D01*
X457480Y941843D01*
Y943832D01*
X456719Y945670D01*
X456250Y946139D01*
Y1014750D01*
X493750Y1052250D01*
Y1098000D01*
X494000D01*
X496250Y1100250D01*
X502126D01*
Y1081250D01*
X502250Y1080952D01*
Y1076750D01*
X507262Y1071738D01*
X532250D01*
Y1074250D01*
X534250Y1076250D01*
X533250Y1077250D01*
Y1077698D01*
X533398Y1077846D01*
X533874Y1078994D01*
Y1095000D01*
X540250D01*
X550000Y1085250D01*
X551704D01*
X553772Y1083182D01*
X553704Y1083081D01*
X553489Y1082000D01*
X553704Y1080919D01*
X554316Y1080003D01*
X555232Y1079391D01*
X556313Y1079176D01*
X556313Y1079176D01*
X557574D01*
X569750Y1067000D01*
X569954D01*
X570352Y1066602D01*
X571500Y1066126D01*
X572648Y1066602D01*
X573046Y1067000D01*
X575750D01*
Y1068500D01*
X588500Y1081250D01*
Y1160000D01*
X579500Y1169000D01*
X578118Y1167618D01*
X577500Y1167874D01*
X542091D01*
X541189Y1167500D01*
X538000D01*
X535000Y1170500D01*
X535250Y1170750D01*
Y1216356D01*
X952069D01*
X953577Y1216056D01*
D02*
G37*
G36*
X854500Y991500D02*
Y921500D01*
X849072D01*
X847353Y922492D01*
X845308Y923040D01*
X843192D01*
X841147Y922492D01*
X839428Y921500D01*
X833147D01*
X832807Y922770D01*
X834187Y923566D01*
X835684Y925063D01*
X836742Y926897D01*
X837290Y928941D01*
Y931059D01*
X836742Y933103D01*
X835684Y934937D01*
X834187Y936434D01*
X832353Y937492D01*
X830308Y938040D01*
X828192D01*
X826147Y937492D01*
X824313Y936434D01*
X822816Y934937D01*
X821758Y933103D01*
X821210Y931059D01*
Y928941D01*
X821758Y926897D01*
X822816Y925063D01*
X824313Y923566D01*
X825693Y922770D01*
X825352Y921500D01*
X821000D01*
X819750Y920250D01*
X813750Y913250D01*
X758500D01*
Y949750D01*
X775500Y966750D01*
X815788D01*
X819940Y971048D01*
X821210Y970534D01*
Y968941D01*
X821758Y966897D01*
X822816Y965063D01*
X824313Y963566D01*
X826147Y962508D01*
X828192Y961960D01*
X830308D01*
X832353Y962508D01*
X834187Y963566D01*
X835684Y965063D01*
X836742Y966897D01*
X837290Y968941D01*
Y971059D01*
X836742Y973103D01*
X835684Y974937D01*
X834187Y976434D01*
X832353Y977492D01*
X830308Y978040D01*
X828461D01*
X827743Y979124D01*
X830543Y982023D01*
X832353Y982508D01*
X834187Y983566D01*
X834486Y983866D01*
X835800Y983384D01*
X836255Y981688D01*
X837384Y979732D01*
X838982Y978134D01*
X840938Y977005D01*
X842980Y976458D01*
Y985000D01*
X844250D01*
Y986270D01*
X852792D01*
X852245Y988312D01*
X851116Y990268D01*
X850807Y990577D01*
X851293Y991750D01*
X851750D01*
X853000Y993000D01*
X854500Y991500D01*
D02*
G37*
G36*
X682000Y943750D02*
X756876D01*
Y913250D01*
X757352Y912102D01*
X758500Y911626D01*
X813750D01*
X813811Y911652D01*
X813875Y911631D01*
X814377Y911886D01*
X814898Y912102D01*
X814923Y912163D01*
X814983Y912193D01*
X820942Y919146D01*
X821673Y919876D01*
X825352D01*
X825744Y920039D01*
X826164Y920094D01*
X826298Y920268D01*
X826500Y920352D01*
X826663Y920743D01*
X826921Y921080D01*
X827027Y921475D01*
X828226Y922435D01*
X828505Y922460D01*
X829995D01*
X831239Y922350D01*
X831579Y921080D01*
X831837Y920743D01*
X831999Y920352D01*
X832202Y920268D01*
X832336Y920094D01*
X832756Y920039D01*
X833147Y919876D01*
X836892D01*
X837626Y918606D01*
X837224Y917910D01*
X836710Y915993D01*
Y914699D01*
X835440Y914359D01*
X835284Y914630D01*
X833880Y916034D01*
X832160Y917026D01*
X830243Y917540D01*
X828257D01*
X826340Y917026D01*
X824620Y916034D01*
X823216Y914630D01*
X822224Y912910D01*
X821710Y910993D01*
Y909007D01*
X822224Y907090D01*
X823216Y905370D01*
X824620Y903967D01*
X826340Y902974D01*
X828257Y902460D01*
X830243D01*
X832160Y902974D01*
X833880Y903967D01*
X835284Y905370D01*
X836276Y907090D01*
X836790Y909007D01*
Y910301D01*
X838060Y910641D01*
X838216Y910370D01*
X839620Y908967D01*
X841340Y907974D01*
X843257Y907460D01*
X845243D01*
X847160Y907974D01*
X848880Y908967D01*
X850284Y910370D01*
X851276Y912090D01*
X851790Y914007D01*
Y915993D01*
X851276Y917910D01*
X850874Y918606D01*
X851608Y919876D01*
X854500D01*
X855648Y920352D01*
X856124Y921500D01*
Y943750D01*
X959106D01*
Y511700D01*
Y510931D01*
X958806Y509423D01*
X958218Y508003D01*
X957363Y506724D01*
X956276Y505637D01*
X954998Y504782D01*
X953577Y504194D01*
X952069Y503894D01*
X951300D01*
X567000Y503894D01*
Y649250D01*
Y672750D01*
X601750D01*
Y687750D01*
X590750D01*
Y706707D01*
X592000Y706755D01*
X592761Y704918D01*
X594168Y703511D01*
X594596Y703334D01*
X594668Y701989D01*
X593261Y700582D01*
X592500Y698745D01*
Y696755D01*
X593261Y694918D01*
X594668Y693511D01*
X596505Y692750D01*
X598495D01*
X600332Y693511D01*
X601739Y694918D01*
X602500Y696755D01*
Y698745D01*
X601739Y700582D01*
X600332Y701989D01*
X599904Y702166D01*
X599832Y703511D01*
X601239Y704918D01*
X602000Y706755D01*
Y708745D01*
X601239Y710582D01*
X599832Y711989D01*
X597995Y712750D01*
X596005D01*
X594168Y711989D01*
X592761Y710582D01*
X592000Y708745D01*
X590750Y708793D01*
Y728500D01*
X625250Y756500D01*
Y824250D01*
X624750Y830500D01*
X622250Y832250D01*
X584281Y851598D01*
X584336Y852995D01*
X585582Y853511D01*
X586989Y854918D01*
X587750Y856755D01*
Y858745D01*
X586989Y860582D01*
X585582Y861989D01*
X583745Y862750D01*
X581755D01*
X579918Y861989D01*
X578511Y860582D01*
X577750Y858745D01*
Y856930D01*
X576777Y856038D01*
X561179Y865657D01*
X558269Y874530D01*
X558020Y874820D01*
X557874Y875172D01*
X549202Y883844D01*
X548054Y884319D01*
X534887D01*
X534887Y884319D01*
X533739Y883844D01*
Y883844D01*
X532713Y883210D01*
X527618Y886352D01*
X527552Y886918D01*
X528313Y888755D01*
Y890745D01*
X527552Y892582D01*
X526146Y893989D01*
X524308Y894750D01*
X522319D01*
X520481Y893989D01*
X519075Y892582D01*
X518052Y892252D01*
X514000Y894750D01*
X504250D01*
X492824Y906176D01*
Y917830D01*
X499787Y924793D01*
X504439Y926874D01*
X511465D01*
X511946Y925604D01*
X511250Y923922D01*
Y921933D01*
X512011Y920096D01*
X513418Y918689D01*
X515255Y917928D01*
X517245D01*
X519082Y918689D01*
X520489Y920096D01*
X521250Y921933D01*
Y923922D01*
X520554Y925604D01*
X521035Y926874D01*
X539133D01*
X539579Y925685D01*
X534500Y921250D01*
Y919000D01*
X543250Y910250D01*
X551750Y918750D01*
X551900Y918824D01*
X578727Y898208D01*
X579261Y896918D01*
X580668Y895511D01*
X582505Y894750D01*
X583226D01*
X596386Y884636D01*
X631426Y919676D01*
X643060D01*
X643060Y919676D01*
X644141Y919891D01*
X645057Y920503D01*
X647304Y922750D01*
X670000D01*
Y934750D01*
X658250Y946500D01*
Y959500D01*
X662250Y963500D01*
X682000Y943750D01*
D02*
G37*
G36*
X556726Y874024D02*
X561245Y860246D01*
X554600Y853600D01*
X550930Y845635D01*
X526904Y835846D01*
X512824Y849926D01*
Y866463D01*
X512824Y866463D01*
X512609Y867544D01*
X511997Y868460D01*
X511997Y868460D01*
X508500Y871957D01*
Y879270D01*
X509770Y879787D01*
X511390Y879116D01*
X513379D01*
X515216Y879877D01*
X516310Y880971D01*
X518531D01*
X519428Y880371D01*
X520509Y880156D01*
X531177D01*
X531177Y880156D01*
X532258Y880371D01*
X533174Y880983D01*
X534887Y882696D01*
X548054D01*
X556726Y874024D01*
D02*
G37*
G36*
X562750Y855500D02*
X572433Y856160D01*
X572546Y856020D01*
X572431Y855516D01*
X572020Y854652D01*
X570418Y853989D01*
X569011Y852582D01*
X568250Y850745D01*
Y848755D01*
X569011Y846918D01*
X570418Y845511D01*
X572255Y844750D01*
X574245D01*
X576082Y845511D01*
X577489Y846918D01*
X578250Y848755D01*
Y849954D01*
X579520Y850480D01*
X593250Y836750D01*
X601000Y830250D01*
Y812260D01*
X600542Y811536D01*
X597452Y808446D01*
X540617Y809627D01*
X531750Y818494D01*
Y834250D01*
X535334Y837834D01*
X553396Y845184D01*
X553898Y846485D01*
X555380Y846799D01*
X556043Y846136D01*
X557880Y845375D01*
X559870D01*
X561707Y846136D01*
X563114Y847543D01*
X563875Y849380D01*
Y851369D01*
X563114Y853207D01*
X561707Y854614D01*
X559870Y855375D01*
X559774D01*
X559000Y856645D01*
X559143Y856923D01*
X561327D01*
X562750Y855500D01*
D02*
G37*
%LPC*%
G36*
X348995Y1197000D02*
X347005D01*
X345168Y1196239D01*
X343761Y1194832D01*
X343000Y1192995D01*
Y1191005D01*
X343761Y1189168D01*
X345168Y1187761D01*
X347005Y1187000D01*
X348995D01*
X350832Y1187761D01*
X352239Y1189168D01*
X353000Y1191005D01*
Y1192995D01*
X352239Y1194832D01*
X350832Y1196239D01*
X348995Y1197000D01*
D02*
G37*
G36*
X426745Y1196750D02*
X424755D01*
X422918Y1195989D01*
X421511Y1194582D01*
X420750Y1192745D01*
Y1190755D01*
X421511Y1188918D01*
X422918Y1187511D01*
X424755Y1186750D01*
X426745D01*
X428582Y1187511D01*
X429989Y1188918D01*
X430750Y1190755D01*
Y1192745D01*
X429989Y1194582D01*
X428582Y1195989D01*
X426745Y1196750D01*
D02*
G37*
G36*
X473531Y1188330D02*
X469969D01*
X466476Y1187635D01*
X463186Y1186272D01*
X460225Y1184294D01*
X457706Y1181775D01*
X455728Y1178814D01*
X454365Y1175524D01*
X453670Y1172031D01*
Y1168469D01*
X454365Y1164976D01*
X455728Y1161686D01*
X457706Y1158725D01*
X460225Y1156206D01*
X463186Y1154228D01*
X466476Y1152865D01*
X469969Y1152170D01*
X473531D01*
X477024Y1152865D01*
X480314Y1154228D01*
X483275Y1156206D01*
X485794Y1158725D01*
X486980Y1160500D01*
X487772Y1161686D01*
X489135Y1164976D01*
X489830Y1168469D01*
Y1172031D01*
X489135Y1175524D01*
X487772Y1178814D01*
X485794Y1181775D01*
X483275Y1184294D01*
X480314Y1186272D01*
X477024Y1187635D01*
X473531Y1188330D01*
D02*
G37*
G36*
X301781D02*
X298219D01*
X294726Y1187635D01*
X291436Y1186272D01*
X288475Y1184294D01*
X285956Y1181775D01*
X283978Y1178814D01*
X282615Y1175524D01*
X281920Y1172031D01*
Y1168469D01*
X282615Y1164976D01*
X283978Y1161686D01*
X285956Y1158725D01*
X288475Y1156206D01*
X291436Y1154228D01*
X294726Y1152865D01*
X298219Y1152170D01*
X301781D01*
X305274Y1152865D01*
X308564Y1154228D01*
X311525Y1156206D01*
X314044Y1158725D01*
X316022Y1161686D01*
X317385Y1164976D01*
X318080Y1168469D01*
Y1172031D01*
X317385Y1175524D01*
X316022Y1178814D01*
X314044Y1181775D01*
X311525Y1184294D01*
X308564Y1186272D01*
X305274Y1187635D01*
X301781Y1188330D01*
D02*
G37*
G36*
X501495Y1141250D02*
X499505D01*
X497668Y1140489D01*
X496261Y1139082D01*
X495500Y1137245D01*
Y1135255D01*
X496261Y1133418D01*
X497668Y1132011D01*
X499505Y1131250D01*
X501495D01*
X503332Y1132011D01*
X504739Y1133418D01*
X505500Y1135255D01*
Y1137245D01*
X504739Y1139082D01*
X503332Y1140489D01*
X501495Y1141250D01*
D02*
G37*
G36*
X555847Y1135500D02*
X554653D01*
X553551Y1135043D01*
X552707Y1134199D01*
X552250Y1133097D01*
Y1131903D01*
X552707Y1130801D01*
X553551Y1129957D01*
X554653Y1129500D01*
X555847D01*
X556949Y1129957D01*
X557793Y1130801D01*
X558250Y1131903D01*
Y1133097D01*
X557793Y1134199D01*
X556949Y1135043D01*
X555847Y1135500D01*
D02*
G37*
G36*
X484495Y1134000D02*
X482505D01*
X480668Y1133239D01*
X479261Y1131832D01*
X478500Y1129995D01*
Y1128005D01*
X479261Y1126168D01*
X480668Y1124761D01*
X482505Y1124000D01*
X484495D01*
X486332Y1124761D01*
X487739Y1126168D01*
X488500Y1128005D01*
Y1129995D01*
X487739Y1131832D01*
X486332Y1133239D01*
X484495Y1134000D01*
D02*
G37*
G36*
X561597Y1126000D02*
X560403D01*
X559301Y1125543D01*
X558457Y1124699D01*
X558000Y1123597D01*
Y1122403D01*
X558457Y1121301D01*
X559301Y1120457D01*
X560403Y1120000D01*
X561597D01*
X562699Y1120457D01*
X563543Y1121301D01*
X564000Y1122403D01*
Y1123597D01*
X563543Y1124699D01*
X562699Y1125543D01*
X561597Y1126000D01*
D02*
G37*
G36*
X550097D02*
X548903D01*
X547801Y1125543D01*
X546957Y1124699D01*
X546500Y1123597D01*
Y1122403D01*
X546957Y1121301D01*
X547801Y1120457D01*
X548903Y1120000D01*
X550097D01*
X551199Y1120457D01*
X552043Y1121301D01*
X552500Y1122403D01*
Y1123597D01*
X552043Y1124699D01*
X551199Y1125543D01*
X550097Y1126000D01*
D02*
G37*
G36*
X555847Y1116500D02*
X554653D01*
X553551Y1116043D01*
X552707Y1115199D01*
X552250Y1114097D01*
Y1112903D01*
X552707Y1111801D01*
X553551Y1110957D01*
X554653Y1110500D01*
X555847D01*
X556949Y1110957D01*
X557793Y1111801D01*
X558250Y1112903D01*
Y1114097D01*
X557793Y1115199D01*
X556949Y1116043D01*
X555847Y1116500D01*
D02*
G37*
G36*
X275995Y1115500D02*
X274005D01*
X272168Y1114739D01*
X270761Y1113332D01*
X270000Y1111495D01*
Y1109505D01*
X270761Y1107668D01*
X272168Y1106261D01*
X274005Y1105500D01*
X275995D01*
X277832Y1106261D01*
X279239Y1107668D01*
X280000Y1109505D01*
Y1111495D01*
X279239Y1113332D01*
X277832Y1114739D01*
X275995Y1115500D01*
D02*
G37*
G36*
X351495Y1114500D02*
X349505D01*
X347668Y1113739D01*
X346261Y1112332D01*
X345500Y1110495D01*
Y1108505D01*
X346261Y1106668D01*
X347668Y1105261D01*
X349505Y1104500D01*
X351495D01*
X353332Y1105261D01*
X354739Y1106668D01*
X355500Y1108505D01*
Y1110495D01*
X354739Y1112332D01*
X353332Y1113739D01*
X351495Y1114500D01*
D02*
G37*
G36*
X539745Y1112520D02*
X537755D01*
X535918Y1111759D01*
X534511Y1110352D01*
X533750Y1108515D01*
Y1106525D01*
X534511Y1104688D01*
X535918Y1103281D01*
X537755Y1102520D01*
X539745D01*
X541582Y1103281D01*
X542989Y1104688D01*
X543750Y1106525D01*
Y1108515D01*
X542989Y1110352D01*
X541582Y1111759D01*
X539745Y1112520D01*
D02*
G37*
G36*
X433245Y1110500D02*
X431255D01*
X429418Y1109739D01*
X428011Y1108332D01*
X427250Y1106495D01*
Y1104505D01*
X428011Y1102668D01*
X429418Y1101261D01*
X431255Y1100500D01*
X433245D01*
X435082Y1101261D01*
X436489Y1102668D01*
X437250Y1104505D01*
Y1105500D01*
Y1106495D01*
X436489Y1108332D01*
X435082Y1109739D01*
X433245Y1110500D01*
D02*
G37*
G36*
X438245Y1044500D02*
X436255D01*
X434418Y1043739D01*
X433011Y1042332D01*
X432250Y1040495D01*
Y1038505D01*
X433011Y1036668D01*
X434418Y1035261D01*
X436255Y1034500D01*
X438245D01*
X440082Y1035261D01*
X441489Y1036668D01*
X442250Y1038505D01*
Y1040495D01*
X441489Y1042332D01*
X440082Y1043739D01*
X438245Y1044500D01*
D02*
G37*
G36*
X349995Y1043000D02*
X348005D01*
X346168Y1042239D01*
X344761Y1040832D01*
X344000Y1038995D01*
Y1037005D01*
X344761Y1035168D01*
X346168Y1033761D01*
X348005Y1033000D01*
X349995D01*
X351832Y1033761D01*
X353239Y1035168D01*
X354000Y1037005D01*
Y1038995D01*
X353239Y1040832D01*
X351832Y1042239D01*
X349995Y1043000D01*
D02*
G37*
G36*
X274745Y1039250D02*
X272755D01*
X270918Y1038489D01*
X269511Y1037082D01*
X268750Y1035245D01*
Y1033255D01*
X269511Y1031418D01*
X270918Y1030011D01*
X272755Y1029250D01*
X274745D01*
X276582Y1030011D01*
X277989Y1031418D01*
X278750Y1033255D01*
Y1035245D01*
X277989Y1037082D01*
X276582Y1038489D01*
X274745Y1039250D01*
D02*
G37*
G36*
X423240Y1016790D02*
X414470D01*
Y1008020D01*
X423240D01*
Y1016790D01*
D02*
G37*
G36*
X411930D02*
X403160D01*
Y1008020D01*
X411930D01*
Y1016790D01*
D02*
G37*
G36*
X396800Y1015750D02*
X378800D01*
Y997750D01*
X396800D01*
Y1015750D01*
D02*
G37*
G36*
X371400D02*
X353400D01*
Y997750D01*
X371400D01*
Y1015750D01*
D02*
G37*
G36*
X346000D02*
X328000D01*
Y997750D01*
X346000D01*
Y1015750D01*
D02*
G37*
G36*
X423240Y1005480D02*
X414470D01*
Y996710D01*
X423240D01*
Y1005480D01*
D02*
G37*
G36*
X411930D02*
X403160D01*
Y996710D01*
X411930D01*
Y1005480D01*
D02*
G37*
G36*
X409745Y990750D02*
X407755D01*
X405918Y989989D01*
X404511Y988582D01*
X403750Y986745D01*
Y984755D01*
X404511Y982918D01*
X405918Y981511D01*
X407755Y980750D01*
X409745D01*
X411582Y981511D01*
X412989Y982918D01*
X413750Y984755D01*
Y986745D01*
X412989Y988582D01*
X411582Y989989D01*
X409745Y990750D01*
D02*
G37*
G36*
X278144Y984053D02*
X276155D01*
X274317Y983292D01*
X272910Y981885D01*
X272149Y980048D01*
Y978058D01*
X272910Y976221D01*
X274317Y974814D01*
X276155Y974053D01*
X278144D01*
X279982Y974814D01*
X281388Y976221D01*
X282149Y978058D01*
Y980048D01*
X281388Y981885D01*
X279982Y983292D01*
X278144Y984053D01*
D02*
G37*
G36*
X417745Y972670D02*
X415755D01*
X413918Y971909D01*
X412511Y970502D01*
X411750Y968664D01*
Y966675D01*
X412511Y964838D01*
X413889Y963460D01*
X412761Y962332D01*
X412000Y960495D01*
Y958505D01*
X412761Y956668D01*
X414168Y955261D01*
X416005Y954500D01*
X417995D01*
X419832Y955261D01*
X421239Y956668D01*
X422000Y958505D01*
Y960495D01*
X421239Y962332D01*
X419861Y963710D01*
X420989Y964838D01*
X421750Y966675D01*
Y968664D01*
X420989Y970502D01*
X419582Y971909D01*
X417745Y972670D01*
D02*
G37*
G36*
X425165Y936000D02*
X423176D01*
X421338Y935239D01*
X419931Y933832D01*
X419170Y931995D01*
Y930005D01*
X419931Y928168D01*
X421338Y926761D01*
X423176Y926000D01*
X425165D01*
X427003Y926761D01*
X428409Y928168D01*
X429170Y930005D01*
Y931995D01*
X428409Y933832D01*
X427003Y935239D01*
X425165Y936000D01*
D02*
G37*
G36*
X399620Y925717D02*
X397631D01*
X395793Y924956D01*
X394387Y923550D01*
X393626Y921712D01*
Y919723D01*
X394387Y917885D01*
X395793Y916479D01*
X397631Y915717D01*
X399620D01*
X401458Y916479D01*
X402864Y917885D01*
X403626Y919723D01*
Y921712D01*
X402864Y923550D01*
X401458Y924956D01*
X399620Y925717D01*
D02*
G37*
G36*
X282495Y913000D02*
X280505D01*
X278668Y912239D01*
X277261Y910832D01*
X276500Y908995D01*
Y907005D01*
X277261Y905168D01*
X278668Y903761D01*
X280505Y903000D01*
X282495D01*
X284332Y903761D01*
X285739Y905168D01*
X286500Y907005D01*
Y908995D01*
X285739Y910832D01*
X284332Y912239D01*
X282495Y913000D01*
D02*
G37*
G36*
X330995Y910500D02*
X329005D01*
X327168Y909739D01*
X325761Y908332D01*
X325000Y906495D01*
Y904505D01*
X325761Y902668D01*
X327168Y901261D01*
X329005Y900500D01*
X330995D01*
X332832Y901261D01*
X334239Y902668D01*
X335000Y904505D01*
Y906495D01*
X334239Y908332D01*
X332832Y909739D01*
X330995Y910500D01*
D02*
G37*
G36*
X322392Y898750D02*
X320402D01*
X318565Y897989D01*
X317158Y896582D01*
X316397Y894745D01*
Y893951D01*
X314770Y892324D01*
X285242D01*
X285239Y892332D01*
X283832Y893739D01*
X281995Y894500D01*
X280005D01*
X278168Y893739D01*
X276761Y892332D01*
X276000Y890495D01*
Y888505D01*
X276761Y886668D01*
X278168Y885261D01*
X280005Y884500D01*
X281995D01*
X283832Y885261D01*
X285239Y886668D01*
X285242Y886676D01*
X315940D01*
X315940Y886676D01*
X317021Y886891D01*
X317937Y887503D01*
X319541Y889107D01*
X320402Y888750D01*
X322392D01*
X324229Y889511D01*
X325636Y890918D01*
X326397Y892755D01*
Y894745D01*
X325636Y896582D01*
X324229Y897989D01*
X322392Y898750D01*
D02*
G37*
G36*
X332845Y892000D02*
X331155D01*
X329593Y891353D01*
X328397Y890157D01*
X327750Y888595D01*
Y886905D01*
X328397Y885343D01*
X329593Y884147D01*
X331155Y883500D01*
X332845D01*
X334407Y884147D01*
X335603Y885343D01*
X336250Y886905D01*
Y888595D01*
X335603Y890157D01*
X334407Y891353D01*
X332845Y892000D01*
D02*
G37*
G36*
X358745Y889750D02*
X356755D01*
X354918Y888989D01*
X353511Y887582D01*
X352750Y885745D01*
Y883755D01*
X353511Y881918D01*
X354918Y880511D01*
X356755Y879750D01*
X358745D01*
X360582Y880511D01*
X361989Y881918D01*
X362750Y883755D01*
Y885745D01*
X361989Y887582D01*
X360582Y888989D01*
X358745Y889750D01*
D02*
G37*
G36*
X302495Y879500D02*
X300505D01*
X298668Y878739D01*
X297261Y877332D01*
X297258Y877324D01*
X287738D01*
X286657Y877109D01*
X285741Y876497D01*
X285741Y876497D01*
X284253Y875009D01*
X283641Y874093D01*
X283426Y873012D01*
X283426Y873012D01*
Y838944D01*
X282156Y838463D01*
X280474Y839159D01*
X278485D01*
X276648Y838398D01*
X275241Y836992D01*
X274480Y835154D01*
Y833165D01*
X275241Y831327D01*
X276648Y829921D01*
X278485Y829159D01*
X280474D01*
X282156Y829856D01*
X283426Y829375D01*
Y823742D01*
X283418Y823739D01*
X282011Y822332D01*
X281250Y820495D01*
Y818505D01*
X282011Y816668D01*
X283418Y815261D01*
X285255Y814500D01*
X287245D01*
X287253Y814503D01*
X296676Y805080D01*
Y778250D01*
X296676Y778250D01*
X296891Y777169D01*
X297503Y776253D01*
X307753Y766003D01*
X307750Y765995D01*
Y764005D01*
X308511Y762168D01*
X309918Y760761D01*
X311755Y760000D01*
X313745D01*
X315582Y760761D01*
X316989Y762168D01*
X317750Y764005D01*
Y765995D01*
X316989Y767832D01*
X315582Y769239D01*
X313745Y770000D01*
X311755D01*
X311747Y769997D01*
X302324Y779420D01*
Y806250D01*
X302324Y806250D01*
X302109Y807331D01*
X301497Y808247D01*
X301497Y808247D01*
X291247Y818497D01*
X291250Y818505D01*
Y820495D01*
X290683Y821864D01*
X291346Y823134D01*
X337956D01*
X339104Y823610D01*
X339879Y824384D01*
X386750D01*
X387898Y824860D01*
X388374Y826008D01*
X388374Y863448D01*
X387898Y864596D01*
X379596Y872898D01*
X378448Y873374D01*
X334470D01*
X334456Y873368D01*
X334442Y873373D01*
X333884Y873131D01*
X333322Y872898D01*
X333316Y872884D01*
X333302Y872878D01*
X329924Y869381D01*
X305249D01*
X304723Y870651D01*
X305739Y871668D01*
X306500Y873505D01*
Y875495D01*
X305739Y877332D01*
X304332Y878739D01*
X302495Y879500D01*
D02*
G37*
G36*
X372952Y820250D02*
X370962D01*
X369125Y819489D01*
X367718Y818082D01*
X366957Y816245D01*
Y814255D01*
X367718Y812418D01*
X369125Y811011D01*
X370962Y810250D01*
X372952D01*
X374789Y811011D01*
X376196Y812418D01*
X376957Y814255D01*
Y816245D01*
X376196Y818082D01*
X374789Y819489D01*
X372952Y820250D01*
D02*
G37*
G36*
X356235Y819957D02*
X354246D01*
X352409Y819196D01*
X351002Y817789D01*
X350241Y815952D01*
Y813962D01*
X351002Y812125D01*
X352409Y810718D01*
X354246Y809957D01*
X356235D01*
X358073Y810718D01*
X359480Y812125D01*
X360241Y813962D01*
Y815952D01*
X359480Y817789D01*
X358073Y819196D01*
X356235Y819957D01*
D02*
G37*
G36*
X332845Y816500D02*
X331155D01*
X329593Y815853D01*
X328397Y814657D01*
X327750Y813095D01*
Y811405D01*
X328397Y809843D01*
X329593Y808647D01*
X331155Y808000D01*
X332845D01*
X334407Y808647D01*
X335603Y809843D01*
X336250Y811405D01*
Y813095D01*
X335603Y814657D01*
X334407Y815853D01*
X332845Y816500D01*
D02*
G37*
G36*
X330995Y799500D02*
X329005D01*
X327168Y798739D01*
X325761Y797332D01*
X325000Y795495D01*
Y793505D01*
X325761Y791668D01*
X327168Y790261D01*
X329005Y789500D01*
X330995D01*
X332832Y790261D01*
X334239Y791668D01*
X335000Y793505D01*
Y795495D01*
X334239Y797332D01*
X332832Y798739D01*
X330995Y799500D01*
D02*
G37*
G36*
X282495Y797000D02*
X280505D01*
X278668Y796239D01*
X277261Y794832D01*
X276500Y792995D01*
Y791005D01*
X277261Y789168D01*
X278668Y787761D01*
X280505Y787000D01*
X282495D01*
X284332Y787761D01*
X285739Y789168D01*
X286500Y791005D01*
Y792995D01*
X285739Y794832D01*
X284332Y796239D01*
X282495Y797000D01*
D02*
G37*
G36*
X438745Y759000D02*
X436755D01*
X434918Y758239D01*
X433511Y756832D01*
X432750Y754995D01*
Y753005D01*
X433511Y751168D01*
X434918Y749761D01*
X436755Y749000D01*
X438745D01*
X440582Y749761D01*
X441989Y751168D01*
X442750Y753005D01*
Y754995D01*
X441989Y756832D01*
X440582Y758239D01*
X438745Y759000D01*
D02*
G37*
G36*
X320495Y755500D02*
X318505D01*
X316668Y754739D01*
X315261Y753332D01*
X314500Y751495D01*
Y749505D01*
X315261Y747668D01*
X316668Y746261D01*
X318505Y745500D01*
X320495D01*
X322332Y746261D01*
X323739Y747668D01*
X324500Y749505D01*
Y751495D01*
X323739Y753332D01*
X322332Y754739D01*
X320495Y755500D01*
D02*
G37*
G36*
X274745D02*
X272755D01*
X270918Y754739D01*
X269511Y753332D01*
X268750Y751495D01*
Y749505D01*
X269511Y747668D01*
X270918Y746261D01*
X272755Y745500D01*
X274745D01*
X276582Y746261D01*
X277989Y747668D01*
X278750Y749505D01*
Y751495D01*
X277989Y753332D01*
X276582Y754739D01*
X274745Y755500D01*
D02*
G37*
G36*
X290495Y755250D02*
X288505D01*
X286668Y754489D01*
X285261Y753082D01*
X284500Y751245D01*
Y749255D01*
X285261Y747418D01*
X286668Y746011D01*
X288505Y745250D01*
X290495D01*
X292332Y746011D01*
X293739Y747418D01*
X294500Y749255D01*
Y751245D01*
X293739Y753082D01*
X292332Y754489D01*
X290495Y755250D01*
D02*
G37*
G36*
X440745Y742250D02*
X438755D01*
X436918Y741489D01*
X435511Y740082D01*
X434750Y738245D01*
Y736255D01*
X435511Y734418D01*
X436918Y733011D01*
X438755Y732250D01*
X440745D01*
X442582Y733011D01*
X443989Y734418D01*
X444750Y736255D01*
Y738245D01*
X443989Y740082D01*
X442582Y741489D01*
X440745Y742250D01*
D02*
G37*
G36*
X377020Y723238D02*
Y697020D01*
X390863D01*
Y708250D01*
X390572Y711198D01*
X389712Y714033D01*
X388316Y716646D01*
X386436Y718936D01*
X384146Y720816D01*
X381533Y722212D01*
X378698Y723072D01*
X377020Y723238D01*
D02*
G37*
G36*
X374480D02*
X372802Y723072D01*
X369967Y722212D01*
X367354Y720816D01*
X365064Y718936D01*
X363184Y716646D01*
X361788Y714033D01*
X360928Y711198D01*
X360637Y708250D01*
Y697020D01*
X374480D01*
Y723238D01*
D02*
G37*
G36*
X407495Y701156D02*
X405505D01*
X403668Y700395D01*
X402261Y698988D01*
X401500Y697150D01*
Y695161D01*
X402261Y693324D01*
X403477Y692108D01*
Y690016D01*
X400961Y687500D01*
X400005D01*
X398168Y686739D01*
X396761Y685332D01*
X396000Y683495D01*
Y681505D01*
X396761Y679668D01*
X398168Y678261D01*
X400005Y677500D01*
X401995D01*
X403832Y678261D01*
X405239Y679668D01*
X406000Y681505D01*
Y683495D01*
X405691Y684241D01*
X408298Y686849D01*
X408298Y686849D01*
X408911Y687765D01*
X409126Y688846D01*
X409126Y688846D01*
Y691832D01*
X409332Y691917D01*
X410739Y693324D01*
X411500Y695161D01*
Y697150D01*
X410739Y698988D01*
X409332Y700395D01*
X407495Y701156D01*
D02*
G37*
G36*
X315750Y719860D02*
X312422Y719422D01*
X309320Y718137D01*
X306657Y716093D01*
X304613Y713430D01*
X303328Y710328D01*
X302890Y707000D01*
Y684500D01*
X303328Y681172D01*
X304613Y678070D01*
X306657Y675407D01*
X309320Y673363D01*
X312422Y672078D01*
X315750Y671640D01*
X319078Y672078D01*
X322180Y673363D01*
X324843Y675407D01*
X326887Y678070D01*
X328172Y681172D01*
X328610Y684500D01*
Y707000D01*
X328172Y710328D01*
X326887Y713430D01*
X324843Y716093D01*
X322180Y718137D01*
X319078Y719422D01*
X315750Y719860D01*
D02*
G37*
G36*
X390863Y694480D02*
X377020D01*
Y668262D01*
X378698Y668428D01*
X381533Y669288D01*
X384146Y670684D01*
X386436Y672564D01*
X388316Y674854D01*
X389712Y677467D01*
X390572Y680302D01*
X390863Y683250D01*
Y694480D01*
D02*
G37*
G36*
X374480D02*
X360637D01*
Y683250D01*
X360928Y680302D01*
X361788Y677467D01*
X363184Y674854D01*
X365064Y672564D01*
X367354Y670684D01*
X369967Y669288D01*
X372802Y668428D01*
X374480Y668262D01*
Y694480D01*
D02*
G37*
G36*
X428207Y677537D02*
X426218D01*
X424381Y676776D01*
X422974Y675369D01*
X422213Y673532D01*
Y671543D01*
X422974Y669705D01*
X424381Y668298D01*
X426218Y667537D01*
X428207D01*
X430045Y668298D01*
X431452Y669705D01*
X432213Y671543D01*
Y673532D01*
X431452Y675369D01*
X430045Y676776D01*
X428207Y677537D01*
D02*
G37*
G36*
X389245Y664250D02*
X387255D01*
X385418Y663489D01*
X384011Y662082D01*
X383250Y660245D01*
Y658255D01*
X384011Y656418D01*
X385418Y655011D01*
X387255Y654250D01*
X389245D01*
X391082Y655011D01*
X392489Y656418D01*
X393250Y658255D01*
Y660245D01*
X392489Y662082D01*
X391082Y663489D01*
X389245Y664250D01*
D02*
G37*
G36*
X357000Y661610D02*
X334500D01*
X331172Y661172D01*
X328070Y659887D01*
X325407Y657843D01*
X323363Y655180D01*
X322078Y652078D01*
X321640Y648750D01*
X322078Y645422D01*
X323363Y642320D01*
X325407Y639657D01*
X328070Y637613D01*
X331172Y636328D01*
X334500Y635890D01*
X357000D01*
X360328Y636328D01*
X363430Y637613D01*
X366093Y639657D01*
X368137Y642320D01*
X369422Y645422D01*
X369860Y648750D01*
X369422Y652078D01*
X368137Y655180D01*
X366093Y657843D01*
X363430Y659887D01*
X360328Y661172D01*
X357000Y661610D01*
D02*
G37*
G36*
X426245Y628500D02*
X424255D01*
X422418Y627739D01*
X421011Y626332D01*
X420250Y624495D01*
Y622505D01*
X421011Y620668D01*
X422418Y619261D01*
X424255Y618500D01*
X426245D01*
X428082Y619261D01*
X429489Y620668D01*
X430250Y622505D01*
Y624495D01*
X429489Y626332D01*
X428082Y627739D01*
X426245Y628500D01*
D02*
G37*
G36*
X277245Y627750D02*
X275255D01*
X273418Y626989D01*
X272011Y625582D01*
X271250Y623745D01*
Y621755D01*
X272011Y619918D01*
X273418Y618511D01*
X275255Y617750D01*
X277245D01*
X279082Y618511D01*
X280489Y619918D01*
X281250Y621755D01*
Y623745D01*
X280489Y625582D01*
X279082Y626989D01*
X277245Y627750D01*
D02*
G37*
G36*
X346229Y625430D02*
X344240D01*
X342402Y624669D01*
X340995Y623262D01*
X340234Y621425D01*
Y619436D01*
X340995Y617598D01*
X342402Y616191D01*
X344240Y615430D01*
X346229D01*
X348066Y616191D01*
X349473Y617598D01*
X350234Y619436D01*
Y621425D01*
X349473Y623262D01*
X348066Y624669D01*
X346229Y625430D01*
D02*
G37*
G36*
X428745Y584250D02*
X426755D01*
X424918Y583489D01*
X423511Y582082D01*
X422750Y580245D01*
Y578255D01*
X423511Y576418D01*
X424918Y575011D01*
X426755Y574250D01*
X428745D01*
X430582Y575011D01*
X431989Y576418D01*
X432750Y578255D01*
Y580245D01*
X431989Y582082D01*
X430582Y583489D01*
X428745Y584250D01*
D02*
G37*
G36*
X344995Y580500D02*
X343005D01*
X341168Y579739D01*
X339761Y578332D01*
X339000Y576495D01*
Y574505D01*
X339761Y572668D01*
X341168Y571261D01*
X343005Y570500D01*
X344995D01*
X346832Y571261D01*
X348239Y572668D01*
X349000Y574505D01*
Y576495D01*
X348239Y578332D01*
X346832Y579739D01*
X344995Y580500D01*
D02*
G37*
G36*
X277245Y579000D02*
X275255D01*
X273418Y578239D01*
X272011Y576832D01*
X271250Y574995D01*
Y573005D01*
X272011Y571168D01*
X273418Y569761D01*
X275255Y569000D01*
X277245D01*
X279082Y569761D01*
X280489Y571168D01*
X281250Y573005D01*
Y574995D01*
X280489Y576832D01*
X279082Y578239D01*
X277245Y579000D01*
D02*
G37*
G36*
X301781Y563830D02*
X298219D01*
X294726Y563135D01*
X291436Y561772D01*
X288475Y559794D01*
X285956Y557275D01*
X283978Y554314D01*
X282615Y551024D01*
X281920Y547531D01*
Y543969D01*
X282615Y540476D01*
X283978Y537186D01*
X285956Y534225D01*
X288475Y531706D01*
X291436Y529728D01*
X294726Y528365D01*
X298219Y527670D01*
X301781D01*
X305274Y528365D01*
X308564Y529728D01*
X311525Y531706D01*
X314044Y534225D01*
X316022Y537186D01*
X317385Y540476D01*
X318080Y543969D01*
Y547531D01*
X317385Y551024D01*
X316022Y554314D01*
X314044Y557275D01*
X311525Y559794D01*
X308564Y561772D01*
X305274Y563135D01*
X301781Y563830D01*
D02*
G37*
G36*
X427245Y524500D02*
X425255D01*
X423418Y523739D01*
X422011Y522332D01*
X421250Y520495D01*
Y518505D01*
X422011Y516668D01*
X423418Y515261D01*
X425255Y514500D01*
X427245D01*
X429082Y515261D01*
X430489Y516668D01*
X431250Y518505D01*
Y520495D01*
X430489Y522332D01*
X429082Y523739D01*
X427245Y524500D01*
D02*
G37*
G36*
X345245Y522750D02*
X343255D01*
X341418Y521989D01*
X340011Y520582D01*
X339250Y518745D01*
Y516755D01*
X340011Y514918D01*
X341418Y513511D01*
X343255Y512750D01*
X345245D01*
X347082Y513511D01*
X348489Y514918D01*
X349250Y516755D01*
Y518745D01*
X348489Y520582D01*
X347082Y521989D01*
X345245Y522750D01*
D02*
G37*
%LPD*%
G36*
X386750Y863448D02*
X386750Y826008D01*
X339206D01*
X337956Y824758D01*
X289074D01*
Y866086D01*
X290746Y867758D01*
X330613D01*
X334470Y871750D01*
X378448D01*
X386750Y863448D01*
D02*
G37*
%LPC*%
G36*
X366495Y869000D02*
X364505D01*
X362668Y868239D01*
X361261Y866832D01*
X360500Y864995D01*
Y863005D01*
X361261Y861168D01*
X362668Y859761D01*
X364505Y859000D01*
X366495D01*
X368332Y859761D01*
X369739Y861168D01*
X370500Y863005D01*
Y864995D01*
X369739Y866832D01*
X368332Y868239D01*
X366495Y869000D01*
D02*
G37*
G36*
X338843Y857492D02*
X337650D01*
X336547Y857036D01*
X335703Y856192D01*
X335247Y855089D01*
Y853895D01*
X335703Y852793D01*
X336547Y851949D01*
X337650Y851492D01*
X338843D01*
X339946Y851949D01*
X340790Y852793D01*
X341247Y853895D01*
Y855089D01*
X340790Y856192D01*
X339946Y857036D01*
X338843Y857492D01*
D02*
G37*
G36*
X339097Y849000D02*
X337903D01*
X336801Y848543D01*
X335957Y847699D01*
X335500Y846597D01*
Y845403D01*
X335957Y844301D01*
X336801Y843457D01*
X337903Y843000D01*
X339097D01*
X340199Y843457D01*
X341043Y844301D01*
X341500Y845403D01*
Y846597D01*
X341043Y847699D01*
X340199Y848543D01*
X339097Y849000D01*
D02*
G37*
G36*
X304940Y858599D02*
X302951D01*
X301113Y857838D01*
X299707Y856431D01*
X298946Y854593D01*
Y852604D01*
X299707Y850767D01*
X301113Y849360D01*
X301320Y849275D01*
X301549Y847805D01*
X300647Y846902D01*
X299886Y845064D01*
Y843075D01*
X300647Y841238D01*
X302053Y839831D01*
X303891Y839070D01*
X305880D01*
X307718Y839831D01*
X309124Y841238D01*
X309886Y843075D01*
Y845064D01*
X309124Y846902D01*
X307718Y848309D01*
X307512Y848394D01*
X307282Y849864D01*
X308185Y850767D01*
X308946Y852604D01*
Y854593D01*
X308185Y856431D01*
X306778Y857838D01*
X304940Y858599D01*
D02*
G37*
G36*
X640495Y1206000D02*
X638505D01*
X636668Y1205239D01*
X635261Y1203832D01*
X634500Y1201995D01*
Y1200005D01*
X635261Y1198168D01*
X636668Y1196761D01*
X638505Y1196000D01*
X640495D01*
X642332Y1196761D01*
X643739Y1198168D01*
X644500Y1200005D01*
Y1201995D01*
X643739Y1203832D01*
X642332Y1205239D01*
X640495Y1206000D01*
D02*
G37*
G36*
X589745Y1204750D02*
X587755D01*
X585918Y1203989D01*
X584511Y1202582D01*
X583750Y1200745D01*
Y1198755D01*
X584511Y1196918D01*
X585918Y1195511D01*
X587755Y1194750D01*
X589745D01*
X591582Y1195511D01*
X592989Y1196918D01*
X593750Y1198755D01*
Y1200745D01*
X592989Y1202582D01*
X591582Y1203989D01*
X589745Y1204750D01*
D02*
G37*
G36*
X721995Y1204250D02*
X720005D01*
X718168Y1203489D01*
X716761Y1202082D01*
X716000Y1200245D01*
Y1198255D01*
X716761Y1196418D01*
X718168Y1195011D01*
X720005Y1194250D01*
X721995D01*
X723832Y1195011D01*
X725239Y1196418D01*
X726000Y1198255D01*
Y1200245D01*
X725239Y1202082D01*
X723832Y1203489D01*
X721995Y1204250D01*
D02*
G37*
G36*
X866531Y1209580D02*
X862969D01*
X859476Y1208885D01*
X856186Y1207522D01*
X853225Y1205544D01*
X850706Y1203025D01*
X848728Y1200064D01*
X847365Y1196774D01*
X846670Y1193281D01*
Y1189719D01*
X847365Y1186226D01*
X848728Y1182936D01*
X850706Y1179975D01*
X853225Y1177456D01*
X856186Y1175478D01*
X859476Y1174115D01*
X862969Y1173420D01*
X866531D01*
X870024Y1174115D01*
X873314Y1175478D01*
X876275Y1177456D01*
X878794Y1179975D01*
X880772Y1182936D01*
X882135Y1186226D01*
X882830Y1189719D01*
Y1193281D01*
X882135Y1196774D01*
X880772Y1200064D01*
X878794Y1203025D01*
X876275Y1205544D01*
X873314Y1207522D01*
X870024Y1208885D01*
X866531Y1209580D01*
D02*
G37*
G36*
X596245Y1167750D02*
X594255D01*
X592418Y1166989D01*
X591011Y1165582D01*
X590250Y1163745D01*
Y1161755D01*
X591011Y1159918D01*
X592418Y1158511D01*
X594255Y1157750D01*
X596245D01*
X598082Y1158511D01*
X599489Y1159918D01*
X600250Y1161755D01*
Y1163745D01*
X599489Y1165582D01*
X598082Y1166989D01*
X596245Y1167750D01*
D02*
G37*
G36*
X830743Y1173540D02*
X828757D01*
X826840Y1173026D01*
X825120Y1172033D01*
X823716Y1170630D01*
X822724Y1168910D01*
X822210Y1166993D01*
Y1165007D01*
X822724Y1163090D01*
X823716Y1161370D01*
X825120Y1159967D01*
X826840Y1158974D01*
X827979Y1158669D01*
X828372Y1157248D01*
X827589Y1156438D01*
X827474Y1156144D01*
X827252Y1155918D01*
X827255Y1155589D01*
X827134Y1155282D01*
X827260Y1154992D01*
X827263Y1154676D01*
X827347Y1154477D01*
X826840Y1153026D01*
X825120Y1152034D01*
X823716Y1150630D01*
X822724Y1148910D01*
X822721Y1148900D01*
X821204Y1148144D01*
X821048Y1148206D01*
X820719Y1148204D01*
X820412Y1148324D01*
X820122Y1148198D01*
X819806Y1148196D01*
X819575Y1147961D01*
X819272Y1147829D01*
X814968Y1143374D01*
X772250D01*
X771102Y1142898D01*
X770626Y1141750D01*
Y1091750D01*
X771102Y1090602D01*
X772250Y1090126D01*
X817000D01*
X817061Y1090152D01*
X817124Y1090131D01*
X817627Y1090386D01*
X818148Y1090602D01*
X818174Y1090663D01*
X818233Y1090693D01*
X823747Y1097126D01*
X823834D01*
X824132Y1097250D01*
X824455D01*
X824683Y1097478D01*
X824982Y1097602D01*
X825105Y1097900D01*
X825334Y1098129D01*
X825417Y1098329D01*
X826840Y1098974D01*
X828757Y1098460D01*
X830743D01*
X832660Y1098974D01*
X834083Y1098329D01*
X834166Y1098129D01*
X834395Y1097900D01*
X834518Y1097602D01*
X834817Y1097478D01*
X835045Y1097250D01*
X835368D01*
X835666Y1097126D01*
X838417D01*
X838943Y1095856D01*
X838716Y1095630D01*
X837724Y1093910D01*
X837210Y1091993D01*
Y1090699D01*
X835940Y1090359D01*
X835783Y1090630D01*
X834380Y1092034D01*
X832660Y1093026D01*
X830743Y1093540D01*
X828757D01*
X826840Y1093026D01*
X825120Y1092034D01*
X823716Y1090630D01*
X822724Y1088910D01*
X822210Y1086993D01*
Y1085007D01*
X822724Y1083090D01*
X823716Y1081370D01*
X825120Y1079967D01*
X826840Y1078974D01*
X828757Y1078460D01*
X830743D01*
X832660Y1078974D01*
X834380Y1079967D01*
X835783Y1081370D01*
X836776Y1083090D01*
X837290Y1085007D01*
Y1086301D01*
X838560Y1086641D01*
X838716Y1086370D01*
X840120Y1084967D01*
X841840Y1083974D01*
X843757Y1083460D01*
X845743D01*
X847660Y1083974D01*
X849380Y1084967D01*
X850783Y1086370D01*
X851776Y1088090D01*
X852290Y1090007D01*
Y1091993D01*
X851776Y1093910D01*
X850783Y1095630D01*
X850557Y1095856D01*
X851083Y1097126D01*
X857750D01*
X858898Y1097602D01*
X859374Y1098750D01*
Y1170000D01*
X858898Y1171148D01*
X857398Y1172648D01*
X856250Y1173124D01*
X855102Y1172648D01*
X854327Y1171874D01*
X848286D01*
X847835Y1171687D01*
X847358Y1171582D01*
X847277Y1171456D01*
X847138Y1171398D01*
X846951Y1170947D01*
X846688Y1170536D01*
X846528Y1169644D01*
X846086Y1169022D01*
X845387Y1168543D01*
X845288Y1168540D01*
X843757D01*
X841840Y1168026D01*
X840120Y1167034D01*
X838716Y1165630D01*
X838560Y1165359D01*
X837290Y1165699D01*
Y1166993D01*
X836776Y1168910D01*
X835783Y1170630D01*
X834380Y1172033D01*
X832660Y1173026D01*
X830743Y1173540D01*
D02*
G37*
G36*
X639495Y1152500D02*
X637505D01*
X635668Y1151739D01*
X634261Y1150332D01*
X633500Y1148495D01*
Y1146505D01*
X634261Y1144668D01*
X635668Y1143261D01*
X637505Y1142500D01*
X639495D01*
X641332Y1143261D01*
X642739Y1144668D01*
X643500Y1146505D01*
Y1148495D01*
X642739Y1150332D01*
X641332Y1151739D01*
X639495Y1152500D01*
D02*
G37*
G36*
X695745Y1129500D02*
X693755D01*
X691918Y1128739D01*
X690511Y1127332D01*
X689750Y1125495D01*
Y1123505D01*
X690511Y1121668D01*
X691918Y1120261D01*
X693755Y1119500D01*
X695745D01*
X697582Y1120261D01*
X698989Y1121668D01*
X699750Y1123505D01*
Y1125495D01*
X698989Y1127332D01*
X697582Y1128739D01*
X695745Y1129500D01*
D02*
G37*
G36*
X729745Y1099500D02*
X727755D01*
X725918Y1098739D01*
X724511Y1097332D01*
X723750Y1095495D01*
Y1093505D01*
X724511Y1091668D01*
X725918Y1090261D01*
X727755Y1089500D01*
X729745D01*
X731582Y1090261D01*
X732989Y1091668D01*
X733750Y1093505D01*
Y1095495D01*
X732989Y1097332D01*
X731582Y1098739D01*
X729745Y1099500D01*
D02*
G37*
G36*
X597765Y1093000D02*
X595775D01*
X593938Y1092239D01*
X592531Y1090832D01*
X591770Y1088995D01*
Y1087005D01*
X592531Y1085168D01*
X593938Y1083761D01*
X595775Y1083000D01*
X597765D01*
X599602Y1083761D01*
X601009Y1085168D01*
X601770Y1087005D01*
Y1088995D01*
X601009Y1090832D01*
X599602Y1092239D01*
X597765Y1093000D01*
D02*
G37*
G36*
X646245Y1088750D02*
X644255D01*
X642418Y1087989D01*
X641011Y1086582D01*
X640250Y1084745D01*
Y1082755D01*
X641011Y1080918D01*
X642418Y1079511D01*
X644255Y1078750D01*
X646245D01*
X648082Y1079511D01*
X649489Y1080918D01*
X650250Y1082755D01*
Y1084745D01*
X649489Y1086582D01*
X648082Y1087989D01*
X646245Y1088750D01*
D02*
G37*
G36*
X746984Y1070750D02*
X744995D01*
X743157Y1069989D01*
X741750Y1068582D01*
X740989Y1066745D01*
Y1064755D01*
X741750Y1062918D01*
X743157Y1061511D01*
X744995Y1060750D01*
X746984D01*
X748821Y1061511D01*
X750228Y1062918D01*
X750989Y1064755D01*
Y1066745D01*
X750228Y1068582D01*
X748821Y1069989D01*
X746984Y1070750D01*
D02*
G37*
G36*
X787745Y1054250D02*
X785755D01*
X783918Y1053489D01*
X782511Y1052082D01*
X781750Y1050245D01*
Y1048255D01*
X782511Y1046418D01*
X783918Y1045011D01*
X785755Y1044250D01*
X787745D01*
X789582Y1045011D01*
X790989Y1046418D01*
X791750Y1048255D01*
Y1050245D01*
X790989Y1052082D01*
X789582Y1053489D01*
X787745Y1054250D01*
D02*
G37*
G36*
X866531Y1078580D02*
X862969D01*
X859476Y1077885D01*
X856186Y1076522D01*
X853225Y1074544D01*
X850706Y1072025D01*
X848728Y1069064D01*
X847365Y1065774D01*
X846670Y1062281D01*
Y1058719D01*
X847365Y1055226D01*
X848728Y1051936D01*
X850706Y1048975D01*
X853225Y1046456D01*
X856186Y1044478D01*
X859476Y1043115D01*
X862969Y1042420D01*
X866531D01*
X870024Y1043115D01*
X873314Y1044478D01*
X876275Y1046456D01*
X878794Y1048975D01*
X880772Y1051936D01*
X882135Y1055226D01*
X882830Y1058719D01*
Y1062281D01*
X882135Y1065774D01*
X880772Y1069064D01*
X878794Y1072025D01*
X876275Y1074544D01*
X873314Y1076522D01*
X870024Y1077885D01*
X866531Y1078580D01*
D02*
G37*
G36*
X564995Y1043000D02*
X563005D01*
X561168Y1042239D01*
X559761Y1040832D01*
X559000Y1038995D01*
Y1037005D01*
X559761Y1035168D01*
X561168Y1033761D01*
X563005Y1033000D01*
X564995D01*
X566832Y1033761D01*
X568239Y1035168D01*
X569000Y1037005D01*
Y1038995D01*
X568239Y1040832D01*
X566832Y1042239D01*
X564995Y1043000D01*
D02*
G37*
G36*
X536761Y1048250D02*
X534772D01*
X532934Y1047489D01*
X531528Y1046082D01*
X530766Y1044245D01*
Y1042255D01*
X531528Y1040418D01*
X532934Y1039011D01*
X534311Y1038441D01*
X534058Y1037171D01*
X533834D01*
X531997Y1036410D01*
X530590Y1035003D01*
X529829Y1033166D01*
Y1031176D01*
X530590Y1029339D01*
X531997Y1027932D01*
X533834Y1027171D01*
X535824D01*
X537661Y1027932D01*
X539068Y1029339D01*
X539829Y1031176D01*
Y1033166D01*
X539068Y1035003D01*
X537661Y1036410D01*
X536285Y1036980D01*
X536537Y1038250D01*
X536761D01*
X538599Y1039011D01*
X540005Y1040418D01*
X540766Y1042255D01*
Y1044245D01*
X540005Y1046082D01*
X538599Y1047489D01*
X536761Y1048250D01*
D02*
G37*
G36*
X551771Y1027550D02*
X549782D01*
X547945Y1026789D01*
X546538Y1025382D01*
X545777Y1023544D01*
Y1021555D01*
X546538Y1019718D01*
X547945Y1018311D01*
X549782Y1017550D01*
X551771D01*
X553609Y1018311D01*
X555016Y1019718D01*
X555777Y1021555D01*
Y1023544D01*
X555016Y1025382D01*
X553609Y1026789D01*
X551771Y1027550D01*
D02*
G37*
G36*
X496495Y1027000D02*
X494505D01*
X492668Y1026239D01*
X491261Y1024832D01*
X490500Y1022995D01*
Y1021005D01*
X491261Y1019168D01*
X492668Y1017761D01*
X494505Y1017000D01*
X496495D01*
X498332Y1017761D01*
X499739Y1019168D01*
X500500Y1021005D01*
Y1022995D01*
X499739Y1024832D01*
X498332Y1026239D01*
X496495Y1027000D01*
D02*
G37*
G36*
X722995Y1025000D02*
X721005D01*
X719168Y1024239D01*
X717761Y1022832D01*
X717000Y1020995D01*
Y1019005D01*
X717761Y1017168D01*
X719168Y1015761D01*
X721005Y1015000D01*
X722995D01*
X724832Y1015761D01*
X726239Y1017168D01*
X727000Y1019005D01*
Y1020995D01*
X726239Y1022832D01*
X724832Y1024239D01*
X722995Y1025000D01*
D02*
G37*
G36*
X620724Y1016802D02*
X618735D01*
X616898Y1016040D01*
X615491Y1014634D01*
X614730Y1012796D01*
Y1010807D01*
X615491Y1008969D01*
X616898Y1007563D01*
X618735Y1006802D01*
X620724D01*
X622562Y1007563D01*
X623969Y1008969D01*
X624730Y1010807D01*
Y1012796D01*
X623969Y1014634D01*
X622562Y1016040D01*
X620724Y1016802D01*
D02*
G37*
G36*
X482995Y1014750D02*
X481005D01*
X479168Y1013989D01*
X477761Y1012582D01*
X477000Y1010745D01*
Y1008755D01*
X477761Y1006918D01*
X479168Y1005511D01*
X481005Y1004750D01*
X482995D01*
X484832Y1005511D01*
X486239Y1006918D01*
X487000Y1008755D01*
Y1010745D01*
X486239Y1012582D01*
X484832Y1013989D01*
X482995Y1014750D01*
D02*
G37*
G36*
X638605Y1009437D02*
X636615D01*
X634778Y1008676D01*
X633371Y1007270D01*
X632610Y1005432D01*
Y1003443D01*
X633371Y1001605D01*
X634778Y1000198D01*
X636615Y999437D01*
X638605D01*
X640442Y1000198D01*
X641849Y1001605D01*
X642610Y1003443D01*
Y1005432D01*
X641849Y1007270D01*
X640442Y1008676D01*
X638605Y1009437D01*
D02*
G37*
G36*
X866031Y1033580D02*
X862469D01*
X858976Y1032885D01*
X855686Y1031522D01*
X852725Y1029544D01*
X850206Y1027025D01*
X848228Y1024064D01*
X846865Y1020774D01*
X846170Y1017281D01*
Y1013719D01*
X846865Y1010226D01*
X848228Y1006936D01*
X850206Y1003975D01*
X852725Y1001456D01*
X855686Y999478D01*
X858976Y998115D01*
X862469Y997420D01*
X866031D01*
X869524Y998115D01*
X872814Y999478D01*
X875775Y1001456D01*
X878294Y1003975D01*
X880272Y1006936D01*
X881635Y1010226D01*
X882330Y1013719D01*
Y1017281D01*
X881635Y1020774D01*
X880272Y1024064D01*
X878294Y1027025D01*
X875775Y1029544D01*
X872814Y1031522D01*
X869524Y1032885D01*
X866031Y1033580D01*
D02*
G37*
G36*
X493495Y988000D02*
X491505D01*
X489668Y987239D01*
X488261Y985832D01*
X487500Y983995D01*
Y982005D01*
X488261Y980168D01*
X489668Y978761D01*
X491505Y978000D01*
X493495D01*
X495332Y978761D01*
X496739Y980168D01*
X497500Y982005D01*
Y983995D01*
X496739Y985832D01*
X495332Y987239D01*
X493495Y988000D01*
D02*
G37*
G36*
X587141Y982965D02*
X585152D01*
X583314Y982204D01*
X581908Y980797D01*
X581147Y978960D01*
Y976971D01*
X581908Y975133D01*
X583314Y973726D01*
X585152Y972965D01*
X587141D01*
X588979Y973726D01*
X590385Y975133D01*
X591146Y976971D01*
Y978960D01*
X590385Y980797D01*
X588979Y982204D01*
X587141Y982965D01*
D02*
G37*
G36*
X661332Y981338D02*
X659343D01*
X657506Y980577D01*
X656099Y979170D01*
X655338Y977332D01*
Y975343D01*
X656099Y973506D01*
X657506Y972099D01*
X659343Y971338D01*
X661332D01*
X663170Y972099D01*
X664577Y973506D01*
X665338Y975343D01*
Y977332D01*
X664577Y979170D01*
X663170Y980577D01*
X661332Y981338D01*
D02*
G37*
G36*
X597524Y972297D02*
X595535D01*
X593697Y971536D01*
X592290Y970129D01*
X591529Y968292D01*
Y966303D01*
X592290Y964465D01*
X593697Y963058D01*
X595535Y962297D01*
X597524D01*
X599361Y963058D01*
X600768Y964465D01*
X601529Y966303D01*
Y968292D01*
X600768Y970129D01*
X599361Y971536D01*
X597524Y972297D01*
D02*
G37*
G36*
X529578Y971158D02*
X527589D01*
X525751Y970396D01*
X524345Y968990D01*
X523583Y967152D01*
Y965163D01*
X524345Y963326D01*
X525751Y961919D01*
X527589Y961158D01*
X529578D01*
X531416Y961919D01*
X532822Y963326D01*
X533583Y965163D01*
Y967152D01*
X532822Y968990D01*
X531416Y970396D01*
X529578Y971158D01*
D02*
G37*
G36*
X584745Y964500D02*
X582755D01*
X580918Y963739D01*
X579511Y962332D01*
X578750Y960495D01*
Y958505D01*
X579511Y956668D01*
X580918Y955261D01*
X582755Y954500D01*
X584745D01*
X586582Y955261D01*
X587989Y956668D01*
X588750Y958505D01*
Y960495D01*
X587989Y962332D01*
X586582Y963739D01*
X584745Y964500D01*
D02*
G37*
G36*
X484245Y963500D02*
X482255D01*
X480418Y962739D01*
X479011Y961332D01*
X478250Y959495D01*
Y957505D01*
X479011Y955668D01*
X480418Y954261D01*
X482255Y953500D01*
X484245D01*
X486082Y954261D01*
X487489Y955668D01*
X488250Y957505D01*
Y959495D01*
X487489Y961332D01*
X486082Y962739D01*
X484245Y963500D01*
D02*
G37*
G36*
X522786Y958917D02*
X520797D01*
X518959Y958156D01*
X517552Y956749D01*
X516791Y954911D01*
Y952922D01*
X517552Y951085D01*
X518959Y949678D01*
X520797Y948917D01*
X522786D01*
X524624Y949678D01*
X526030Y951085D01*
X526791Y952922D01*
Y954911D01*
X526030Y956749D01*
X524624Y958156D01*
X522786Y958917D01*
D02*
G37*
G36*
X481995Y951500D02*
X480005D01*
X478168Y950739D01*
X476761Y949332D01*
X476000Y947495D01*
Y945505D01*
X476325Y944720D01*
X475353Y943748D01*
X474745Y944000D01*
X472755D01*
X470918Y943239D01*
X469511Y941832D01*
X468750Y939995D01*
Y938005D01*
X469511Y936168D01*
X470918Y934761D01*
X472755Y934000D01*
X474745D01*
X476582Y934761D01*
X477989Y936168D01*
X478750Y938005D01*
Y939995D01*
X478425Y940780D01*
X479397Y941752D01*
X480005Y941500D01*
X481995D01*
X483832Y942261D01*
X485239Y943668D01*
X486000Y945505D01*
Y947495D01*
X485239Y949332D01*
X483832Y950739D01*
X481995Y951500D01*
D02*
G37*
G36*
X551079Y951145D02*
X549089D01*
X547252Y950384D01*
X545845Y948978D01*
X545084Y947140D01*
Y945151D01*
X545845Y943313D01*
X547252Y941906D01*
X549089Y941145D01*
X551079D01*
X552916Y941906D01*
X554323Y943313D01*
X555084Y945151D01*
Y947140D01*
X554323Y948978D01*
X552916Y950384D01*
X551079Y951145D01*
D02*
G37*
G36*
X568995Y950000D02*
X567005D01*
X565168Y949239D01*
X563761Y947832D01*
X563000Y945995D01*
Y944005D01*
X563761Y942168D01*
X565168Y940761D01*
X567005Y940000D01*
X568995D01*
X570832Y940761D01*
X572239Y942168D01*
X573000Y944005D01*
Y945995D01*
X572239Y947832D01*
X570832Y949239D01*
X568995Y950000D01*
D02*
G37*
G36*
X602245Y949250D02*
X600255D01*
X598418Y948489D01*
X597011Y947082D01*
X596250Y945245D01*
Y943255D01*
X597011Y941418D01*
X598418Y940011D01*
X600255Y939250D01*
X602245D01*
X604082Y940011D01*
X605489Y941418D01*
X606250Y943255D01*
Y945245D01*
X605489Y947082D01*
X604082Y948489D01*
X602245Y949250D01*
D02*
G37*
G36*
X622275Y947546D02*
X620286D01*
X618448Y946785D01*
X617042Y945378D01*
X616280Y943541D01*
Y941551D01*
X617042Y939714D01*
X618448Y938307D01*
X620286Y937546D01*
X622275D01*
X624113Y938307D01*
X625519Y939714D01*
X626280Y941551D01*
Y943541D01*
X625519Y945378D01*
X624113Y946785D01*
X622275Y947546D01*
D02*
G37*
G36*
X518520Y945296D02*
X516531D01*
X514693Y944535D01*
X513287Y943128D01*
X512525Y941290D01*
Y939301D01*
X513287Y937464D01*
X514693Y936057D01*
X516531Y935296D01*
X518520D01*
X520358Y936057D01*
X521764Y937464D01*
X522525Y939301D01*
Y941290D01*
X521764Y943128D01*
X520358Y944535D01*
X518520Y945296D01*
D02*
G37*
G36*
X556907Y937412D02*
X554917D01*
X553080Y936651D01*
X551673Y935244D01*
X550912Y933407D01*
Y931417D01*
X551673Y929580D01*
X553080Y928173D01*
X554917Y927412D01*
X556907D01*
X558744Y928173D01*
X560151Y929580D01*
X560912Y931417D01*
Y933407D01*
X560151Y935244D01*
X558744Y936651D01*
X556907Y937412D01*
D02*
G37*
G36*
X614995Y934520D02*
X613005D01*
X611168Y933759D01*
X609761Y932352D01*
X609000Y930515D01*
Y928525D01*
X609761Y926688D01*
X611168Y925281D01*
X613005Y924520D01*
X614995D01*
X616832Y925281D01*
X618239Y926688D01*
X619000Y928525D01*
Y930515D01*
X618239Y932352D01*
X616832Y933759D01*
X614995Y934520D01*
D02*
G37*
G36*
X584745D02*
X582755D01*
X580918Y933759D01*
X579511Y932352D01*
X578750Y930515D01*
Y928525D01*
X579511Y926688D01*
X580918Y925281D01*
X582755Y924520D01*
X584745D01*
X586582Y925281D01*
X587989Y926688D01*
X588750Y928525D01*
Y930515D01*
X587989Y932352D01*
X586582Y933759D01*
X584745Y934520D01*
D02*
G37*
G36*
X569745Y920980D02*
X567755D01*
X565918Y920219D01*
X564511Y918812D01*
X563750Y916974D01*
Y914985D01*
X564511Y913148D01*
X565918Y911741D01*
X567755Y910980D01*
X569745D01*
X571582Y911741D01*
X572989Y913148D01*
X573750Y914985D01*
Y916974D01*
X572989Y918812D01*
X571582Y920219D01*
X569745Y920980D01*
D02*
G37*
G36*
X600995Y920750D02*
X599005D01*
X597168Y919989D01*
X595761Y918582D01*
X595000Y916745D01*
Y914755D01*
X595761Y912918D01*
X597168Y911511D01*
X599005Y910750D01*
X600995D01*
X602832Y911511D01*
X604239Y912918D01*
X605000Y914755D01*
Y916745D01*
X604239Y918582D01*
X602832Y919989D01*
X600995Y920750D01*
D02*
G37*
G36*
X477995Y879140D02*
X476005D01*
X474168Y878379D01*
X472761Y876972D01*
X472000Y875135D01*
Y873145D01*
X472761Y871308D01*
X474168Y869901D01*
X476005Y869140D01*
X477995D01*
X479832Y869901D01*
X481239Y871308D01*
X482000Y873145D01*
Y875135D01*
X481239Y876972D01*
X479832Y878379D01*
X477995Y879140D01*
D02*
G37*
G36*
X497814Y875069D02*
X495825D01*
X493987Y874308D01*
X492580Y872902D01*
X491819Y871064D01*
Y869075D01*
X492580Y867237D01*
X493987Y865831D01*
X495825Y865069D01*
X497814D01*
X499652Y865831D01*
X501058Y867237D01*
X501819Y869075D01*
Y871064D01*
X501058Y872902D01*
X499652Y874308D01*
X497814Y875069D01*
D02*
G37*
G36*
X485245Y861250D02*
X483255D01*
X481418Y860489D01*
X480011Y859082D01*
X479250Y857245D01*
Y855255D01*
X480011Y853418D01*
X481418Y852011D01*
X483255Y851250D01*
X485245D01*
X487082Y852011D01*
X488489Y853418D01*
X489250Y855255D01*
Y857245D01*
X488489Y859082D01*
X487082Y860489D01*
X485245Y861250D01*
D02*
G37*
G36*
Y841500D02*
X483255D01*
X481418Y840739D01*
X480011Y839332D01*
X479250Y837495D01*
Y835505D01*
X480011Y833668D01*
X481418Y832261D01*
X483255Y831500D01*
X485245D01*
X487082Y832261D01*
X488489Y833668D01*
X489250Y835505D01*
Y837495D01*
X488489Y839332D01*
X487082Y840739D01*
X485245Y841500D01*
D02*
G37*
G36*
X498974Y826000D02*
X496985D01*
X495148Y825239D01*
X493741Y823832D01*
X492980Y821995D01*
Y820005D01*
X493741Y818168D01*
X495148Y816761D01*
X496985Y816000D01*
X498974D01*
X500812Y816761D01*
X502219Y818168D01*
X502980Y820005D01*
Y821995D01*
X502219Y823832D01*
X500812Y825239D01*
X498974Y826000D01*
D02*
G37*
G36*
X482745Y816000D02*
X480755D01*
X478918Y815239D01*
X477511Y813832D01*
X476750Y811995D01*
Y810005D01*
X477511Y808168D01*
X478918Y806761D01*
X480755Y806000D01*
X482745D01*
X484582Y806761D01*
X485989Y808168D01*
X486750Y810005D01*
Y811995D01*
X485989Y813832D01*
X484582Y815239D01*
X482745Y816000D01*
D02*
G37*
G36*
X595995Y789270D02*
X594005D01*
X592168Y788509D01*
X590761Y787102D01*
X590000Y785265D01*
Y783275D01*
X590761Y781438D01*
X592168Y780031D01*
X593926Y779303D01*
Y768242D01*
X593918Y768239D01*
X592511Y766832D01*
X591750Y764995D01*
Y763005D01*
X592511Y761168D01*
X593918Y759761D01*
X595755Y759000D01*
X597744D01*
X599582Y759761D01*
X600989Y761168D01*
X601750Y763005D01*
Y764995D01*
X600989Y766832D01*
X599582Y768239D01*
X599574Y768242D01*
Y781313D01*
X599449Y781945D01*
X600000Y783275D01*
Y785265D01*
X599239Y787102D01*
X597832Y788509D01*
X595995Y789270D01*
D02*
G37*
G36*
X614995Y791000D02*
X613005D01*
X611168Y790239D01*
X609761Y788832D01*
X609000Y786995D01*
Y785005D01*
X609357Y784144D01*
X609003Y783790D01*
X608391Y782874D01*
X608176Y781793D01*
X608176Y781793D01*
Y767992D01*
X608168Y767989D01*
X606761Y766582D01*
X606000Y764745D01*
Y762755D01*
X606761Y760918D01*
X608168Y759511D01*
X610005Y758750D01*
X611995D01*
X613832Y759511D01*
X615239Y760918D01*
X616000Y762755D01*
Y764745D01*
X615239Y766582D01*
X613832Y767989D01*
X613824Y767992D01*
Y780623D01*
X614201Y781000D01*
X614995D01*
X616832Y781761D01*
X618239Y783168D01*
X619000Y785005D01*
Y786995D01*
X618239Y788832D01*
X616832Y790239D01*
X614995Y791000D01*
D02*
G37*
G36*
X513245Y744250D02*
X511255D01*
X509418Y743489D01*
X508011Y742082D01*
X507687Y741300D01*
X506313D01*
X505989Y742082D01*
X504582Y743489D01*
X502745Y744250D01*
X500755D01*
X498918Y743489D01*
X497511Y742082D01*
X496750Y740245D01*
Y738255D01*
X497511Y736418D01*
X498918Y735011D01*
X500755Y734250D01*
X502745D01*
X504582Y735011D01*
X505989Y736418D01*
X506313Y737200D01*
X507687D01*
X508011Y736418D01*
X509418Y735011D01*
X511255Y734250D01*
X513245D01*
X515082Y735011D01*
X516489Y736418D01*
X517250Y738255D01*
Y740245D01*
X516489Y742082D01*
X515082Y743489D01*
X513245Y744250D01*
D02*
G37*
G36*
X559495Y749500D02*
X557505D01*
X555668Y748739D01*
X554261Y747332D01*
X553500Y745495D01*
Y743505D01*
X554261Y741668D01*
X555668Y740261D01*
X557505Y739500D01*
X559495D01*
X561332Y740261D01*
X562739Y741668D01*
X563500Y743505D01*
Y745495D01*
X562739Y747332D01*
X561332Y748739D01*
X559495Y749500D01*
D02*
G37*
G36*
X573995Y749250D02*
X572005D01*
X570168Y748489D01*
X568761Y747082D01*
X568000Y745245D01*
Y743255D01*
X568761Y741418D01*
X570168Y740011D01*
X572005Y739250D01*
X573995D01*
X575832Y740011D01*
X577239Y741418D01*
X578000Y743255D01*
Y745245D01*
X577239Y747082D01*
X575832Y748489D01*
X573995Y749250D01*
D02*
G37*
G36*
X545245Y731000D02*
X543255D01*
X541418Y730239D01*
X540011Y728832D01*
X539250Y726995D01*
Y725005D01*
X540011Y723168D01*
X541418Y721761D01*
X543255Y721000D01*
X545245D01*
X547082Y721761D01*
X548489Y723168D01*
X549250Y725005D01*
Y726995D01*
X548489Y728832D01*
X547082Y730239D01*
X545245Y731000D01*
D02*
G37*
G36*
X506995Y685250D02*
X505005D01*
X503168Y684489D01*
X501761Y683082D01*
X501000Y681245D01*
Y679255D01*
X501761Y677418D01*
X503168Y676011D01*
X505005Y675250D01*
X506995D01*
X508832Y676011D01*
X510239Y677418D01*
X511000Y679255D01*
Y681245D01*
X510239Y683082D01*
X508832Y684489D01*
X506995Y685250D01*
D02*
G37*
G36*
X541745Y658250D02*
X539755D01*
X537918Y657489D01*
X536511Y656082D01*
X535750Y654245D01*
Y652255D01*
X536511Y650418D01*
X537918Y649011D01*
X539755Y648250D01*
X541745D01*
X543582Y649011D01*
X544989Y650418D01*
X545750Y652255D01*
Y654245D01*
X544989Y656082D01*
X543582Y657489D01*
X541745Y658250D01*
D02*
G37*
G36*
X482245Y637000D02*
X480255D01*
X478418Y636239D01*
X477011Y634832D01*
X476250Y632995D01*
Y631005D01*
X477011Y629168D01*
X478418Y627761D01*
X480255Y627000D01*
X482245D01*
X484082Y627761D01*
X485489Y629168D01*
X486250Y631005D01*
Y632995D01*
X485489Y634832D01*
X484082Y636239D01*
X482245Y637000D01*
D02*
G37*
G36*
X497745Y636750D02*
X495755D01*
X493918Y635989D01*
X492511Y634582D01*
X491750Y632745D01*
Y630755D01*
X492511Y628918D01*
X493918Y627511D01*
X495755Y626750D01*
X497745D01*
X499582Y627511D01*
X500989Y628918D01*
X501750Y630755D01*
Y632745D01*
X500989Y634582D01*
X499582Y635989D01*
X497745Y636750D01*
D02*
G37*
G36*
X466495Y636500D02*
X464505D01*
X462668Y635739D01*
X461261Y634332D01*
X460500Y632495D01*
Y630505D01*
X461261Y628668D01*
X462668Y627261D01*
X464505Y626500D01*
X466495D01*
X468332Y627261D01*
X469739Y628668D01*
X470500Y630505D01*
Y632495D01*
X469739Y634332D01*
X468332Y635739D01*
X466495Y636500D01*
D02*
G37*
G36*
X510995Y586000D02*
X509005D01*
X507168Y585239D01*
X505761Y583832D01*
X505000Y581995D01*
Y580005D01*
X505761Y578168D01*
X507168Y576761D01*
X509005Y576000D01*
X510995D01*
X512832Y576761D01*
X514239Y578168D01*
X515000Y580005D01*
Y581995D01*
X514239Y583832D01*
X512832Y585239D01*
X510995Y586000D01*
D02*
G37*
G36*
X511245Y523250D02*
X509255D01*
X507418Y522489D01*
X506011Y521082D01*
X505250Y519245D01*
Y517255D01*
X506011Y515418D01*
X507418Y514011D01*
X509255Y513250D01*
X511245D01*
X513082Y514011D01*
X514489Y515418D01*
X515250Y517255D01*
Y519245D01*
X514489Y521082D01*
X513082Y522489D01*
X511245Y523250D01*
D02*
G37*
%LPD*%
G36*
X857750Y1170000D02*
Y1098750D01*
X846891D01*
X845808Y1099040D01*
X843691D01*
X842609Y1098750D01*
X835666D01*
X835140Y1100020D01*
X836183Y1101063D01*
X837242Y1102897D01*
X837790Y1104941D01*
Y1107058D01*
X837242Y1109103D01*
X836183Y1110937D01*
X834687Y1112434D01*
X832853Y1113492D01*
X830808Y1114040D01*
X828691D01*
X826647Y1113492D01*
X824813Y1112434D01*
X823316Y1110937D01*
X822258Y1109103D01*
X821710Y1107058D01*
Y1104941D01*
X822258Y1102897D01*
X823316Y1101063D01*
X824360Y1100020D01*
X823834Y1098750D01*
X823000D01*
X817000Y1091750D01*
X772250D01*
Y1141750D01*
X815657D01*
X820440Y1146701D01*
X821710Y1146188D01*
Y1144942D01*
X822258Y1142897D01*
X823316Y1141063D01*
X824813Y1139566D01*
X826647Y1138508D01*
X828691Y1137960D01*
X830808D01*
X832853Y1138508D01*
X834687Y1139566D01*
X836183Y1141063D01*
X837242Y1142897D01*
X837790Y1144942D01*
Y1147058D01*
X837242Y1149103D01*
X836183Y1150937D01*
X834687Y1152434D01*
X832853Y1153492D01*
X830808Y1154040D01*
X829296D01*
X828757Y1155310D01*
X831495Y1158144D01*
X832853Y1158508D01*
X834687Y1159566D01*
X834986Y1159866D01*
X836300Y1159384D01*
X836755Y1157688D01*
X837884Y1155732D01*
X839482Y1154134D01*
X841438Y1153005D01*
X843480Y1152458D01*
Y1161000D01*
X844750D01*
Y1162270D01*
X853292D01*
X852745Y1164312D01*
X851616Y1166268D01*
X850018Y1167866D01*
X848062Y1168995D01*
X848286Y1170250D01*
X855000D01*
X856250Y1171500D01*
X857750Y1170000D01*
D02*
G37*
%LPC*%
G36*
X853292Y1159730D02*
X846020D01*
Y1152458D01*
X848062Y1153005D01*
X850018Y1154134D01*
X851616Y1155732D01*
X852745Y1157688D01*
X853292Y1159730D01*
D02*
G37*
G36*
X845808Y1144040D02*
X843691D01*
X841647Y1143492D01*
X839813Y1142434D01*
X838316Y1140937D01*
X837258Y1139103D01*
X836710Y1137058D01*
Y1134941D01*
X837258Y1132897D01*
X838316Y1131063D01*
X839813Y1129566D01*
X841647Y1128508D01*
X843691Y1127960D01*
X845808D01*
X847853Y1128508D01*
X849687Y1129566D01*
X851183Y1131063D01*
X852242Y1132897D01*
X852790Y1134941D01*
Y1137058D01*
X852242Y1139103D01*
X851183Y1140937D01*
X849687Y1142434D01*
X847853Y1143492D01*
X845808Y1144040D01*
D02*
G37*
G36*
X831020Y1134542D02*
Y1127270D01*
X838292D01*
X837745Y1129312D01*
X836616Y1131268D01*
X835018Y1132866D01*
X833062Y1133995D01*
X831020Y1134542D01*
D02*
G37*
G36*
X828480D02*
X826438Y1133995D01*
X824482Y1132866D01*
X822884Y1131268D01*
X821755Y1129312D01*
X821208Y1127270D01*
X828480D01*
Y1134542D01*
D02*
G37*
G36*
X838292Y1124730D02*
X831020D01*
Y1117458D01*
X833062Y1118005D01*
X835018Y1119134D01*
X836616Y1120732D01*
X837745Y1122688D01*
X838292Y1124730D01*
D02*
G37*
G36*
X828480D02*
X821208D01*
X821755Y1122688D01*
X822884Y1120732D01*
X824482Y1119134D01*
X826438Y1118005D01*
X828480Y1117458D01*
Y1124730D01*
D02*
G37*
G36*
X787344Y1130500D02*
X785156D01*
X783135Y1129663D01*
X781587Y1128115D01*
X780750Y1126094D01*
Y1123906D01*
X781587Y1121885D01*
X783040Y1120432D01*
X781587Y1118979D01*
X780750Y1116958D01*
Y1114770D01*
X781587Y1112748D01*
X783135Y1111201D01*
X785156Y1110364D01*
X787344D01*
X789365Y1111201D01*
X790913Y1112748D01*
X791750Y1114770D01*
Y1116958D01*
X790913Y1118979D01*
X789460Y1120432D01*
X790913Y1121885D01*
X791750Y1123906D01*
Y1126094D01*
X790913Y1128115D01*
X789365Y1129663D01*
X787344Y1130500D01*
D02*
G37*
G36*
X845808Y1124040D02*
X843691D01*
X841647Y1123492D01*
X839813Y1122434D01*
X838316Y1120937D01*
X837258Y1119103D01*
X836710Y1117058D01*
Y1114941D01*
X837258Y1112897D01*
X838316Y1111063D01*
X839813Y1109566D01*
X841647Y1108508D01*
X843691Y1107960D01*
X845808D01*
X847853Y1108508D01*
X849687Y1109566D01*
X851183Y1111063D01*
X852242Y1112897D01*
X852790Y1114941D01*
Y1117058D01*
X852242Y1119103D01*
X851183Y1120937D01*
X849687Y1122434D01*
X847853Y1123492D01*
X845808Y1124040D01*
D02*
G37*
G36*
X852792Y983730D02*
X845520D01*
Y976458D01*
X847562Y977005D01*
X849518Y978134D01*
X851116Y979732D01*
X852245Y981688D01*
X852792Y983730D01*
D02*
G37*
G36*
X845308Y968040D02*
X843192D01*
X841147Y967492D01*
X839313Y966434D01*
X837816Y964937D01*
X836758Y963103D01*
X836210Y961059D01*
Y958941D01*
X836758Y956897D01*
X837816Y955063D01*
X839313Y953566D01*
X841147Y952508D01*
X843192Y951960D01*
X845308D01*
X847353Y952508D01*
X849187Y953566D01*
X850684Y955063D01*
X851742Y956897D01*
X852290Y958941D01*
Y961059D01*
X851742Y963103D01*
X850684Y964937D01*
X849187Y966434D01*
X847353Y967492D01*
X845308Y968040D01*
D02*
G37*
G36*
X830520Y958542D02*
Y951270D01*
X837792D01*
X837245Y953312D01*
X836116Y955268D01*
X834518Y956866D01*
X832562Y957995D01*
X830520Y958542D01*
D02*
G37*
G36*
X827980D02*
X825938Y957995D01*
X823982Y956866D01*
X822384Y955268D01*
X821255Y953312D01*
X820708Y951270D01*
X827980D01*
Y958542D01*
D02*
G37*
G36*
X837792Y948730D02*
X830520D01*
Y941458D01*
X832562Y942005D01*
X834518Y943134D01*
X836116Y944732D01*
X837245Y946688D01*
X837792Y948730D01*
D02*
G37*
G36*
X827980D02*
X820708D01*
X821255Y946688D01*
X822384Y944732D01*
X823982Y943134D01*
X825938Y942005D01*
X827980Y941458D01*
Y948730D01*
D02*
G37*
G36*
X786958Y953614D02*
X784770D01*
X782748Y952777D01*
X781201Y951229D01*
X780364Y949208D01*
Y947250D01*
X778406D01*
X776385Y946413D01*
X774837Y944865D01*
X774000Y942844D01*
Y940656D01*
X774837Y938634D01*
X776385Y937087D01*
X778406Y936250D01*
X780594D01*
X782616Y937087D01*
X784163Y938634D01*
X785000Y940656D01*
Y942614D01*
X786958D01*
X788979Y943451D01*
X790527Y944998D01*
X791364Y947020D01*
Y949208D01*
X790527Y951229D01*
X788979Y952777D01*
X786958Y953614D01*
D02*
G37*
G36*
X845308Y948040D02*
X843192D01*
X841147Y947492D01*
X839313Y946434D01*
X837816Y944937D01*
X836758Y943103D01*
X836210Y941059D01*
Y938941D01*
X836758Y936897D01*
X837816Y935063D01*
X839313Y933566D01*
X841147Y932508D01*
X843192Y931960D01*
X845308D01*
X847353Y932508D01*
X849187Y933566D01*
X850684Y935063D01*
X851742Y936897D01*
X852290Y938941D01*
Y941059D01*
X851742Y943103D01*
X850684Y944937D01*
X849187Y946434D01*
X847353Y947492D01*
X845308Y948040D01*
D02*
G37*
G36*
X504500Y924250D02*
X499500Y919250D01*
Y915250D01*
X504125Y910625D01*
X509750Y916250D01*
Y919000D01*
X504500Y924250D01*
D02*
G37*
G36*
X723245Y911750D02*
X721255D01*
X719418Y910989D01*
X718011Y909582D01*
X717250Y907745D01*
Y905755D01*
X718011Y903918D01*
X719418Y902511D01*
X721255Y901750D01*
X723245D01*
X725082Y902511D01*
X726489Y903918D01*
X727250Y905755D01*
Y907745D01*
X726489Y909582D01*
X725082Y910989D01*
X723245Y911750D01*
D02*
G37*
G36*
X680245Y910000D02*
X678255D01*
X676418Y909239D01*
X675011Y907832D01*
X674250Y905995D01*
Y904005D01*
X675011Y902168D01*
X676418Y900761D01*
X678255Y900000D01*
X680245D01*
X682082Y900761D01*
X683489Y902168D01*
X684250Y904005D01*
Y905995D01*
X683489Y907832D01*
X682082Y909239D01*
X680245Y910000D01*
D02*
G37*
G36*
X754745Y908250D02*
X752755D01*
X750918Y907489D01*
X749511Y906082D01*
X748750Y904245D01*
Y902255D01*
X749511Y900418D01*
X750918Y899011D01*
X752755Y898250D01*
X754745D01*
X756582Y899011D01*
X757989Y900418D01*
X758750Y902255D01*
Y904245D01*
X757989Y906082D01*
X756582Y907489D01*
X754745Y908250D01*
D02*
G37*
G36*
X560750Y908500D02*
X560250D01*
X553250Y901500D01*
X560250Y894500D01*
Y894500D01*
X567500Y901750D01*
X560750Y908500D01*
D02*
G37*
G36*
X668745Y892750D02*
X666755D01*
X664918Y891989D01*
X663511Y890582D01*
X662750Y888745D01*
Y886755D01*
X663511Y884918D01*
X664918Y883511D01*
X666755Y882750D01*
X668745D01*
X670582Y883511D01*
X671989Y884918D01*
X672750Y886755D01*
Y888745D01*
X671989Y890582D01*
X670582Y891989D01*
X668745Y892750D01*
D02*
G37*
G36*
X788995Y883250D02*
X787005D01*
X785168Y882489D01*
X783761Y881082D01*
X783000Y879245D01*
Y877255D01*
X783761Y875418D01*
X785168Y874011D01*
X787005Y873250D01*
X788995D01*
X790832Y874011D01*
X792239Y875418D01*
X793000Y877255D01*
Y879245D01*
X792239Y881082D01*
X790832Y882489D01*
X788995Y883250D01*
D02*
G37*
G36*
X647745Y879250D02*
X645755D01*
X643918Y878489D01*
X642511Y877082D01*
X641750Y875245D01*
Y873255D01*
X642511Y871418D01*
X643918Y870011D01*
X645755Y869250D01*
X647745D01*
X649582Y870011D01*
X650989Y871418D01*
X651750Y873255D01*
Y875245D01*
X650989Y877082D01*
X649582Y878489D01*
X647745Y879250D01*
D02*
G37*
G36*
X866031Y902580D02*
X862469D01*
X858976Y901885D01*
X855686Y900522D01*
X852725Y898544D01*
X850206Y896025D01*
X848228Y893064D01*
X846865Y889774D01*
X846170Y886281D01*
Y882719D01*
X846865Y879226D01*
X848228Y875936D01*
X850206Y872975D01*
X852725Y870456D01*
X855686Y868478D01*
X858976Y867115D01*
X862469Y866420D01*
X866031D01*
X869524Y867115D01*
X872814Y868478D01*
X875775Y870456D01*
X878294Y872975D01*
X880272Y875936D01*
X881635Y879226D01*
X882330Y882719D01*
Y886281D01*
X881635Y889774D01*
X880272Y893064D01*
X878294Y896025D01*
X875775Y898544D01*
X872814Y900522D01*
X869524Y901885D01*
X866031Y902580D01*
D02*
G37*
G36*
X634527Y865032D02*
X632538D01*
X630700Y864271D01*
X629294Y862865D01*
X628532Y861027D01*
Y859038D01*
X629294Y857200D01*
X630700Y855794D01*
X632538Y855032D01*
X634527D01*
X636365Y855794D01*
X637771Y857200D01*
X638532Y859038D01*
Y861027D01*
X637771Y862865D01*
X636365Y864271D01*
X634527Y865032D01*
D02*
G37*
G36*
X865281Y857080D02*
X861719D01*
X858226Y856385D01*
X854936Y855022D01*
X851975Y853044D01*
X849456Y850525D01*
X847478Y847564D01*
X846115Y844274D01*
X845420Y840781D01*
Y837219D01*
X846115Y833726D01*
X847478Y830436D01*
X849456Y827475D01*
X851975Y824956D01*
X854936Y822978D01*
X858226Y821615D01*
X861719Y820920D01*
X865281D01*
X868774Y821615D01*
X872064Y822978D01*
X875025Y824956D01*
X877544Y827475D01*
X879522Y830436D01*
X880885Y833726D01*
X881580Y837219D01*
Y840781D01*
X880885Y844274D01*
X879522Y847564D01*
X877544Y850525D01*
X875025Y853044D01*
X872064Y855022D01*
X868774Y856385D01*
X865281Y857080D01*
D02*
G37*
G36*
X725495Y825500D02*
X723505D01*
X721668Y824739D01*
X720261Y823332D01*
X719500Y821495D01*
Y819505D01*
X720261Y817668D01*
X721668Y816261D01*
X723505Y815500D01*
X725495D01*
X727332Y816261D01*
X728739Y817668D01*
X729500Y819505D01*
Y821495D01*
X728739Y823332D01*
X727332Y824739D01*
X725495Y825500D01*
D02*
G37*
G36*
X829493Y821040D02*
X827507D01*
X825590Y820526D01*
X823870Y819533D01*
X822466Y818130D01*
X821474Y816410D01*
X820960Y814493D01*
Y812507D01*
X821474Y810590D01*
X822466Y808870D01*
X823870Y807467D01*
X825590Y806474D01*
X826722Y806171D01*
X827115Y804750D01*
X826331Y803938D01*
X826215Y803644D01*
X825993Y803418D01*
X825996Y803089D01*
X825875Y802782D01*
X826001Y802492D01*
X826004Y802176D01*
X826089Y801975D01*
X825590Y800526D01*
X823870Y799534D01*
X822466Y798130D01*
X821474Y796410D01*
X821473Y796408D01*
X819956Y795651D01*
X819798Y795715D01*
X819469Y795712D01*
X819162Y795833D01*
X818872Y795707D01*
X818556Y795704D01*
X818325Y795469D01*
X818022Y795338D01*
X813468Y790624D01*
X783000D01*
X781852Y790148D01*
X775352Y783648D01*
X774876Y782500D01*
Y739000D01*
X775352Y737852D01*
X776500Y737376D01*
X815500D01*
X815561Y737402D01*
X815624Y737381D01*
X816127Y737636D01*
X816648Y737852D01*
X816674Y737913D01*
X816733Y737943D01*
X822692Y744896D01*
X823898Y746102D01*
X824889Y746560D01*
X825566Y746487D01*
X825590Y746474D01*
X827507Y745960D01*
X829493D01*
X831410Y746474D01*
X832265Y746967D01*
X833780Y746629D01*
X834008Y746400D01*
X834131Y746102D01*
X834430Y745978D01*
X834658Y745750D01*
X834981D01*
X835279Y745626D01*
X838230D01*
X838551Y745079D01*
X838693Y744356D01*
X837466Y743130D01*
X836474Y741410D01*
X835960Y739493D01*
Y738199D01*
X834690Y737859D01*
X834533Y738130D01*
X833130Y739533D01*
X831410Y740526D01*
X829493Y741040D01*
X827507D01*
X825590Y740526D01*
X823870Y739533D01*
X822466Y738130D01*
X821474Y736410D01*
X820960Y734493D01*
Y732507D01*
X821474Y730590D01*
X822466Y728870D01*
X823870Y727467D01*
X825590Y726474D01*
X827507Y725960D01*
X829493D01*
X831410Y726474D01*
X833130Y727467D01*
X834533Y728870D01*
X835526Y730590D01*
X836040Y732507D01*
Y733801D01*
X837310Y734141D01*
X837466Y733870D01*
X838870Y732467D01*
X840590Y731474D01*
X842507Y730960D01*
X844493D01*
X846410Y731474D01*
X848130Y732467D01*
X849533Y733870D01*
X850526Y735590D01*
X851040Y737507D01*
Y739493D01*
X850526Y741410D01*
X849533Y743130D01*
X848307Y744356D01*
X848449Y745079D01*
X848770Y745626D01*
X856250D01*
X857398Y746102D01*
X857874Y747250D01*
Y817250D01*
X857398Y818398D01*
X855898Y819898D01*
X854750Y820374D01*
X853602Y819898D01*
X852828Y819124D01*
X847612D01*
X847220Y818961D01*
X846800Y818906D01*
X846666Y818732D01*
X846463Y818648D01*
X846301Y818257D01*
X846043Y817920D01*
X845703Y816650D01*
X844544Y816048D01*
X844493Y816040D01*
X842507D01*
X840590Y815526D01*
X838870Y814533D01*
X837466Y813130D01*
X837310Y812859D01*
X836040Y813199D01*
Y814493D01*
X835526Y816410D01*
X834533Y818130D01*
X833130Y819533D01*
X831410Y820526D01*
X829493Y821040D01*
D02*
G37*
G36*
X680355Y777500D02*
X678365D01*
X676528Y776739D01*
X675121Y775332D01*
X674360Y773495D01*
Y771505D01*
X675121Y769668D01*
X676528Y768261D01*
X676536Y768258D01*
Y698658D01*
X673378Y695500D01*
X671755D01*
X669918Y694739D01*
X668511Y693332D01*
X667750Y691495D01*
Y689505D01*
X668446Y687824D01*
X667965Y686554D01*
X628738D01*
X627000Y688292D01*
Y689495D01*
X626239Y691332D01*
X624832Y692739D01*
X622995Y693500D01*
X621005D01*
X619168Y692739D01*
X617761Y691332D01*
X617000Y689495D01*
Y687505D01*
X617761Y685668D01*
X619168Y684261D01*
X621005Y683500D01*
X622995D01*
X623567Y683737D01*
X625571Y681733D01*
X625571Y681733D01*
X626487Y681121D01*
X627568Y680906D01*
X627568Y680906D01*
X705023D01*
X705023Y680906D01*
X706104Y681121D01*
X707020Y681733D01*
X708144Y682857D01*
X709005Y682500D01*
X710995D01*
X712832Y683261D01*
X714239Y684668D01*
X715000Y686505D01*
Y688495D01*
X714239Y690332D01*
X712832Y691739D01*
X712824Y691742D01*
Y695059D01*
X714094Y695585D01*
X714918Y694761D01*
X716755Y694000D01*
X718745D01*
X720582Y694761D01*
X721989Y696168D01*
X722750Y698005D01*
Y699995D01*
X721989Y701832D01*
X720582Y703239D01*
X718745Y704000D01*
X716755D01*
X714918Y703239D01*
X714094Y702415D01*
X712824Y702941D01*
Y749059D01*
X714094Y749585D01*
X714418Y749261D01*
X716255Y748500D01*
X718245D01*
X720082Y749261D01*
X721489Y750668D01*
X722250Y752505D01*
Y754495D01*
X721489Y756332D01*
X720082Y757739D01*
X718245Y758500D01*
X716255D01*
X714418Y757739D01*
X713011Y756332D01*
X712250Y754495D01*
Y754040D01*
X710980Y753514D01*
X700247Y764248D01*
X700250Y764255D01*
Y766245D01*
X699489Y768082D01*
X698082Y769489D01*
X696245Y770250D01*
X694255D01*
X692418Y769489D01*
X691011Y768082D01*
X690250Y766245D01*
Y764255D01*
X691011Y762418D01*
X692418Y761011D01*
X694255Y760250D01*
X696245D01*
X696253Y760253D01*
X707176Y749330D01*
Y691742D01*
X707168Y691739D01*
X705761Y690332D01*
X705000Y688495D01*
Y687701D01*
X703853Y686554D01*
X677535D01*
X677054Y687824D01*
X677750Y689505D01*
Y691495D01*
X677636Y691770D01*
X681357Y695491D01*
X681357Y695491D01*
X681969Y696407D01*
X682184Y697488D01*
X682184Y697488D01*
Y768258D01*
X682192Y768261D01*
X683599Y769668D01*
X684360Y771505D01*
Y773495D01*
X683599Y775332D01*
X682192Y776739D01*
X680355Y777500D01*
D02*
G37*
G36*
X656597Y745750D02*
X655403D01*
X654301Y745293D01*
X653457Y744449D01*
X653000Y743347D01*
Y742153D01*
X653457Y741051D01*
X654301Y740207D01*
X655403Y739750D01*
X656597D01*
X657699Y740207D01*
X658543Y741051D01*
X659000Y742153D01*
Y743347D01*
X658543Y744449D01*
X657699Y745293D01*
X656597Y745750D01*
D02*
G37*
G36*
X662347Y736250D02*
X661153D01*
X660051Y735793D01*
X659207Y734949D01*
X658750Y733847D01*
Y732653D01*
X659207Y731551D01*
X660051Y730707D01*
X661153Y730250D01*
X662347D01*
X663449Y730707D01*
X664293Y731551D01*
X664750Y732653D01*
Y733847D01*
X664293Y734949D01*
X663449Y735793D01*
X662347Y736250D01*
D02*
G37*
G36*
X650847D02*
X649653D01*
X648551Y735793D01*
X647707Y734949D01*
X647250Y733847D01*
Y732653D01*
X647707Y731551D01*
X648551Y730707D01*
X649653Y730250D01*
X650847D01*
X651949Y730707D01*
X652793Y731551D01*
X653250Y732653D01*
Y733847D01*
X652793Y734949D01*
X651949Y735793D01*
X650847Y736250D01*
D02*
G37*
G36*
X656597Y726750D02*
X655403D01*
X654301Y726293D01*
X653457Y725449D01*
X653000Y724347D01*
Y723153D01*
X653457Y722051D01*
X654301Y721207D01*
X655403Y720750D01*
X656597D01*
X657699Y721207D01*
X658543Y722051D01*
X659000Y723153D01*
Y724347D01*
X658543Y725449D01*
X657699Y726293D01*
X656597Y726750D01*
D02*
G37*
G36*
X645765Y720101D02*
X643775D01*
X641938Y719340D01*
X640531Y717934D01*
X639770Y716096D01*
Y714107D01*
X640531Y712269D01*
X641938Y710863D01*
X643775Y710101D01*
X645765D01*
X647602Y710863D01*
X649009Y712269D01*
X649770Y714107D01*
Y716096D01*
X649009Y717934D01*
X647602Y719340D01*
X645765Y720101D01*
D02*
G37*
G36*
X746745Y717750D02*
X744755D01*
X742918Y716989D01*
X741511Y715582D01*
X740750Y713745D01*
Y711755D01*
X741511Y709918D01*
X742918Y708511D01*
X744755Y707750D01*
X746745D01*
X748582Y708511D01*
X749989Y709918D01*
X750750Y711755D01*
Y713745D01*
X749989Y715582D01*
X748582Y716989D01*
X746745Y717750D01*
D02*
G37*
G36*
X865281Y726080D02*
X861719D01*
X858226Y725385D01*
X854936Y724022D01*
X851975Y722044D01*
X849456Y719525D01*
X847478Y716564D01*
X846115Y713274D01*
X845420Y709781D01*
Y706219D01*
X846115Y702726D01*
X847478Y699436D01*
X849456Y696475D01*
X851975Y693956D01*
X854936Y691978D01*
X858226Y690615D01*
X861719Y689920D01*
X865281D01*
X868774Y690615D01*
X872064Y691978D01*
X875025Y693956D01*
X877544Y696475D01*
X879522Y699436D01*
X880885Y702726D01*
X881580Y706219D01*
Y709781D01*
X880885Y713274D01*
X879522Y716564D01*
X877544Y719525D01*
X875025Y722044D01*
X872064Y724022D01*
X868774Y725385D01*
X865281Y726080D01*
D02*
G37*
G36*
X780495Y698250D02*
X778505D01*
X776668Y697489D01*
X775261Y696082D01*
X774500Y694245D01*
Y692255D01*
X775261Y690418D01*
X776668Y689011D01*
X778505Y688250D01*
X780495D01*
X782332Y689011D01*
X783739Y690418D01*
X784500Y692255D01*
Y694245D01*
X783739Y696082D01*
X782332Y697489D01*
X780495Y698250D01*
D02*
G37*
G36*
X864781Y681330D02*
X861219D01*
X857726Y680635D01*
X854436Y679272D01*
X851475Y677294D01*
X848956Y674775D01*
X846978Y671814D01*
X845615Y668524D01*
X844920Y665031D01*
Y661469D01*
X845615Y657976D01*
X846978Y654686D01*
X848956Y651725D01*
X851475Y649206D01*
X854436Y647228D01*
X857726Y645865D01*
X861219Y645170D01*
X864781D01*
X868274Y645865D01*
X871564Y647228D01*
X874525Y649206D01*
X877044Y651725D01*
X879022Y654686D01*
X880385Y657976D01*
X881080Y661469D01*
Y665031D01*
X880385Y668524D01*
X879022Y671814D01*
X877044Y674775D01*
X874525Y677294D01*
X871564Y679272D01*
X868274Y680635D01*
X864781Y681330D01*
D02*
G37*
G36*
X614745Y642750D02*
X612755D01*
X610918Y641989D01*
X609511Y640582D01*
X608750Y638745D01*
Y636755D01*
X609511Y634918D01*
X610918Y633511D01*
X612755Y632750D01*
X614745D01*
X616582Y633511D01*
X617989Y634918D01*
X618750Y636755D01*
Y638745D01*
X617989Y640582D01*
X616582Y641989D01*
X614745Y642750D01*
D02*
G37*
G36*
X599745Y642250D02*
X597755D01*
X595918Y641489D01*
X594511Y640082D01*
X593750Y638245D01*
Y636255D01*
X594511Y634418D01*
X595918Y633011D01*
X597755Y632250D01*
X599745D01*
X601582Y633011D01*
X602989Y634418D01*
X603750Y636255D01*
Y638245D01*
X602989Y640082D01*
X601582Y641489D01*
X599745Y642250D01*
D02*
G37*
G36*
X828993Y645290D02*
X827007D01*
X825090Y644776D01*
X823370Y643783D01*
X821966Y642380D01*
X820974Y640660D01*
X820460Y638743D01*
Y636757D01*
X820974Y634840D01*
X821966Y633120D01*
X823370Y631716D01*
X825090Y630724D01*
X825409Y630638D01*
X825749Y629414D01*
X824200Y627811D01*
X824047Y627423D01*
X823796Y627090D01*
X823827Y626866D01*
X823744Y626655D01*
X823911Y626272D01*
X823969Y625859D01*
X824084Y625662D01*
X823690Y623968D01*
X823370Y623784D01*
X821966Y622380D01*
X821086Y620855D01*
X820926Y620843D01*
X819784Y621489D01*
X819357Y621542D01*
X818957Y621700D01*
X818762Y621615D01*
X818551Y621641D01*
X818212Y621376D01*
X817817Y621205D01*
X811218Y614374D01*
X780750D01*
X779602Y613898D01*
X773102Y607398D01*
X772626Y606250D01*
Y571000D01*
X773102Y569852D01*
X774250Y569376D01*
X817327D01*
X818102Y568602D01*
X819250Y568126D01*
X820398Y568602D01*
X821172Y569376D01*
X821584D01*
X821882Y569500D01*
X822205D01*
X822433Y569728D01*
X822732Y569852D01*
X822855Y570150D01*
X823084Y570379D01*
X823218Y570702D01*
X824420Y571110D01*
X825090Y570724D01*
X827007Y570210D01*
X828993D01*
X830910Y570724D01*
X831580Y571110D01*
X832782Y570702D01*
X832916Y570379D01*
X833145Y570150D01*
X833268Y569852D01*
X833567Y569728D01*
X833795Y569500D01*
X834118D01*
X834416Y569376D01*
X837167D01*
X837693Y568106D01*
X836966Y567380D01*
X835974Y565660D01*
X835460Y563743D01*
Y562449D01*
X834190Y562109D01*
X834034Y562380D01*
X832630Y563784D01*
X830910Y564776D01*
X828993Y565290D01*
X827007D01*
X825090Y564776D01*
X823370Y563784D01*
X821966Y562380D01*
X820974Y560660D01*
X820460Y558743D01*
Y556757D01*
X820974Y554840D01*
X821966Y553120D01*
X823370Y551716D01*
X825090Y550724D01*
X827007Y550210D01*
X828993D01*
X830910Y550724D01*
X832630Y551716D01*
X834034Y553120D01*
X835026Y554840D01*
X835540Y556757D01*
Y558051D01*
X836810Y558391D01*
X836966Y558120D01*
X838370Y556716D01*
X840090Y555724D01*
X842007Y555210D01*
X843993D01*
X845910Y555724D01*
X847630Y556716D01*
X849034Y558120D01*
X850026Y559840D01*
X850540Y561757D01*
Y563743D01*
X850026Y565660D01*
X849034Y567380D01*
X848307Y568106D01*
X848833Y569376D01*
X854000D01*
X855148Y569852D01*
X855624Y571000D01*
Y641000D01*
X855148Y642148D01*
X853648Y643648D01*
X852500Y644124D01*
X851352Y643648D01*
X850577Y642874D01*
X847978D01*
X847586Y642711D01*
X847166Y642656D01*
X847032Y642482D01*
X846830Y642398D01*
X846667Y642007D01*
X846409Y641670D01*
X846069Y640400D01*
X844832Y640065D01*
X843993Y640290D01*
X842007D01*
X840090Y639776D01*
X838370Y638784D01*
X836966Y637380D01*
X836810Y637109D01*
X835540Y637449D01*
Y638743D01*
X835026Y640660D01*
X834034Y642380D01*
X832630Y643783D01*
X830910Y644776D01*
X828993Y645290D01*
D02*
G37*
G36*
X653995Y625500D02*
X652005D01*
X650168Y624739D01*
X648761Y623332D01*
X648000Y621495D01*
Y619505D01*
X648761Y617668D01*
X650168Y616261D01*
X652005Y615500D01*
X653995D01*
X655832Y616261D01*
X657239Y617668D01*
X658000Y619505D01*
Y621495D01*
X657239Y623332D01*
X655832Y624739D01*
X653995Y625500D01*
D02*
G37*
G36*
X586245Y622750D02*
X584255D01*
X582418Y621989D01*
X581011Y620582D01*
X580250Y618745D01*
Y616755D01*
X581011Y614918D01*
X582418Y613511D01*
X584255Y612750D01*
X586245D01*
X588082Y613511D01*
X589489Y614918D01*
X590250Y616755D01*
Y618745D01*
X589489Y620582D01*
X588082Y621989D01*
X586245Y622750D01*
D02*
G37*
G36*
X596245Y583000D02*
X594255D01*
X592418Y582239D01*
X591011Y580832D01*
X590250Y578995D01*
Y577005D01*
X591011Y575168D01*
X592418Y573761D01*
X594255Y573000D01*
X596245D01*
X598082Y573761D01*
X599489Y575168D01*
X600250Y577005D01*
Y578995D01*
X599489Y580832D01*
X598082Y582239D01*
X596245Y583000D01*
D02*
G37*
G36*
X657245Y581500D02*
X655255D01*
X653418Y580739D01*
X652011Y579332D01*
X651250Y577495D01*
Y575505D01*
X652011Y573668D01*
X653418Y572261D01*
X655255Y571500D01*
X657245D01*
X659082Y572261D01*
X660489Y573668D01*
X661250Y575505D01*
Y577495D01*
X660489Y579332D01*
X659082Y580739D01*
X657245Y581500D01*
D02*
G37*
G36*
X748245Y543250D02*
X746255D01*
X744418Y542489D01*
X743011Y541082D01*
X742250Y539245D01*
Y537255D01*
X743011Y535418D01*
X744418Y534011D01*
X746255Y533250D01*
X748245D01*
X750082Y534011D01*
X751489Y535418D01*
X752250Y537255D01*
Y539245D01*
X751489Y541082D01*
X750082Y542489D01*
X748245Y543250D01*
D02*
G37*
G36*
X693531Y563830D02*
X689969D01*
X686476Y563135D01*
X683186Y561772D01*
X680225Y559794D01*
X677706Y557275D01*
X675728Y554314D01*
X674365Y551024D01*
X673670Y547531D01*
Y543969D01*
X674365Y540476D01*
X675728Y537186D01*
X677706Y534225D01*
X680225Y531706D01*
X683186Y529728D01*
X686476Y528365D01*
X689969Y527670D01*
X693531D01*
X697024Y528365D01*
X700314Y529728D01*
X703275Y531706D01*
X705794Y534225D01*
X707772Y537186D01*
X709135Y540476D01*
X709830Y543969D01*
Y547531D01*
X709135Y551024D01*
X707772Y554314D01*
X705794Y557275D01*
X703275Y559794D01*
X700314Y561772D01*
X697024Y563135D01*
X693531Y563830D01*
D02*
G37*
G36*
X779995Y528750D02*
X778005D01*
X776168Y527989D01*
X774761Y526582D01*
X774000Y524745D01*
Y522755D01*
X774761Y520918D01*
X776168Y519511D01*
X778005Y518750D01*
X779995D01*
X781832Y519511D01*
X783239Y520918D01*
X784000Y522755D01*
Y524745D01*
X783239Y526582D01*
X781832Y527989D01*
X779995Y528750D01*
D02*
G37*
G36*
X593995Y524750D02*
X592005D01*
X590168Y523989D01*
X588761Y522582D01*
X588000Y520745D01*
Y518755D01*
X588761Y516918D01*
X590168Y515511D01*
X592005Y514750D01*
X593995D01*
X595832Y515511D01*
X597239Y516918D01*
X598000Y518755D01*
Y520745D01*
X597239Y522582D01*
X595832Y523989D01*
X593995Y524750D01*
D02*
G37*
G36*
X864781Y550330D02*
X861219D01*
X857726Y549635D01*
X854436Y548272D01*
X851475Y546294D01*
X848956Y543775D01*
X846978Y540814D01*
X845615Y537524D01*
X844920Y534031D01*
Y530469D01*
X845615Y526976D01*
X846978Y523686D01*
X848956Y520725D01*
X851475Y518206D01*
X854436Y516228D01*
X857726Y514865D01*
X861219Y514170D01*
X864781D01*
X868274Y514865D01*
X871564Y516228D01*
X874525Y518206D01*
X877044Y520725D01*
X879022Y523686D01*
X880385Y526976D01*
X881080Y530469D01*
Y534031D01*
X880385Y537524D01*
X879022Y540814D01*
X877044Y543775D01*
X874525Y546294D01*
X871564Y548272D01*
X868274Y549635D01*
X864781Y550330D01*
D02*
G37*
G36*
X663495Y522250D02*
X661505D01*
X659668Y521489D01*
X658261Y520082D01*
X657500Y518245D01*
Y516255D01*
X658261Y514418D01*
X659668Y513011D01*
X661505Y512250D01*
X663495D01*
X665332Y513011D01*
X666739Y514418D01*
X667500Y516255D01*
Y518245D01*
X666739Y520082D01*
X665332Y521489D01*
X663495Y522250D01*
D02*
G37*
%LPD*%
G36*
X856250Y817250D02*
Y747250D01*
X835279D01*
X834793Y748423D01*
X834933Y748563D01*
X835992Y750397D01*
X836540Y752441D01*
Y754558D01*
X835992Y756603D01*
X834933Y758437D01*
X833437Y759934D01*
X831603Y760992D01*
X829558Y761540D01*
X827441D01*
X825397Y760992D01*
X823563Y759934D01*
X822066Y758437D01*
X821008Y756603D01*
X820460Y754558D01*
Y752441D01*
X821008Y750397D01*
X822066Y748563D01*
X822934Y747695D01*
X822750Y747250D01*
X821500Y746000D01*
X815500Y739000D01*
X776500D01*
Y782500D01*
X783000Y789000D01*
X814157D01*
X819190Y794210D01*
X820460Y793697D01*
Y792441D01*
X821008Y790397D01*
X822066Y788563D01*
X823563Y787066D01*
X825397Y786008D01*
X827441Y785460D01*
X829558D01*
X831603Y786008D01*
X833437Y787066D01*
X834933Y788563D01*
X835992Y790397D01*
X836540Y792441D01*
Y794558D01*
X835992Y796603D01*
X834933Y798437D01*
X833437Y799934D01*
X831603Y800992D01*
X829558Y801540D01*
X828038D01*
X827499Y802810D01*
X830234Y805641D01*
X831603Y806008D01*
X833437Y807066D01*
X833736Y807366D01*
X835050Y806884D01*
X835505Y805188D01*
X836634Y803232D01*
X838232Y801634D01*
X840188Y800505D01*
X842230Y799958D01*
Y808500D01*
X843500D01*
Y809770D01*
X852042D01*
X851495Y811812D01*
X850366Y813768D01*
X848768Y815366D01*
X847271Y816230D01*
X847612Y817500D01*
X853500D01*
X854750Y818750D01*
X856250Y817250D01*
D02*
G37*
%LPC*%
G36*
X852042Y807230D02*
X844770D01*
Y799958D01*
X846812Y800505D01*
X848768Y801634D01*
X850366Y803232D01*
X851495Y805188D01*
X852042Y807230D01*
D02*
G37*
G36*
X844558Y791540D02*
X842441D01*
X840397Y790992D01*
X838563Y789934D01*
X837066Y788437D01*
X836008Y786603D01*
X835460Y784558D01*
Y782441D01*
X836008Y780397D01*
X837066Y778563D01*
X838563Y777066D01*
X840397Y776008D01*
X842441Y775460D01*
X844558D01*
X846603Y776008D01*
X848437Y777066D01*
X849933Y778563D01*
X850992Y780397D01*
X851540Y782441D01*
Y784558D01*
X850992Y786603D01*
X849933Y788437D01*
X848437Y789934D01*
X846603Y790992D01*
X844558Y791540D01*
D02*
G37*
G36*
X829770Y782042D02*
Y774770D01*
X837042D01*
X836495Y776812D01*
X835366Y778768D01*
X833768Y780366D01*
X831812Y781495D01*
X829770Y782042D01*
D02*
G37*
G36*
X827230D02*
X825188Y781495D01*
X823232Y780366D01*
X821634Y778768D01*
X820505Y776812D01*
X819958Y774770D01*
X827230D01*
Y782042D01*
D02*
G37*
G36*
Y772230D02*
X819958D01*
X820505Y770188D01*
X821634Y768232D01*
X823232Y766634D01*
X825188Y765505D01*
X827230Y764958D01*
Y772230D01*
D02*
G37*
G36*
X837042D02*
X829770D01*
Y764958D01*
X831812Y765505D01*
X833768Y766634D01*
X835366Y768232D01*
X836495Y770188D01*
X837042Y772230D01*
D02*
G37*
G36*
X844558Y771540D02*
X842441D01*
X840397Y770992D01*
X838563Y769934D01*
X837066Y768437D01*
X836008Y766603D01*
X835460Y764558D01*
Y762441D01*
X836008Y760397D01*
X837066Y758563D01*
X838563Y757066D01*
X840397Y756008D01*
X842441Y755460D01*
X844558D01*
X846603Y756008D01*
X848437Y757066D01*
X849933Y758563D01*
X850992Y760397D01*
X851540Y762441D01*
Y764558D01*
X850992Y766603D01*
X849933Y768437D01*
X848437Y769934D01*
X846603Y770992D01*
X844558Y771540D01*
D02*
G37*
G36*
X796364Y769520D02*
X794176D01*
X792155Y768683D01*
X790608Y767136D01*
X789770Y765114D01*
Y762926D01*
X790608Y760905D01*
X791321Y760192D01*
X792026Y759238D01*
X790479Y757691D01*
X789641Y755669D01*
Y753481D01*
X790479Y751460D01*
X792026Y749912D01*
X794047Y749075D01*
X796235D01*
X798257Y749912D01*
X799804Y751460D01*
X800641Y753481D01*
Y755669D01*
X799804Y757691D01*
X799091Y758404D01*
X798386Y759358D01*
X799933Y760905D01*
X800770Y762926D01*
Y765114D01*
X799933Y767136D01*
X798386Y768683D01*
X796364Y769520D01*
D02*
G37*
%LPD*%
G36*
X854000Y641000D02*
Y571000D01*
X834416D01*
X833890Y572270D01*
X834434Y572813D01*
X835492Y574647D01*
X836040Y576692D01*
Y578809D01*
X835492Y580853D01*
X834434Y582687D01*
X832937Y584184D01*
X831103Y585242D01*
X829058Y585790D01*
X826941D01*
X824897Y585242D01*
X823063Y584184D01*
X821566Y582687D01*
X820508Y580853D01*
X819960Y578809D01*
Y576692D01*
X820508Y574647D01*
X821566Y572813D01*
X822110Y572270D01*
X821584Y571000D01*
X820500D01*
X819250Y569750D01*
X818000Y571000D01*
X774250D01*
Y606250D01*
X780750Y612750D01*
X811907D01*
X818985Y620076D01*
X820127Y619430D01*
X819960Y618809D01*
Y616692D01*
X820508Y614647D01*
X821566Y612813D01*
X823063Y611316D01*
X824897Y610258D01*
X826941Y609710D01*
X829058D01*
X831103Y610258D01*
X832937Y611316D01*
X834434Y612813D01*
X835492Y614647D01*
X836040Y616692D01*
Y618809D01*
X835492Y620853D01*
X834434Y622687D01*
X832937Y624184D01*
X831103Y625242D01*
X829058Y625790D01*
X826941D01*
X826036Y625547D01*
X825368Y626683D01*
X828292Y629710D01*
X829058D01*
X831103Y630258D01*
X832937Y631316D01*
X833236Y631616D01*
X834550Y631134D01*
X835005Y629438D01*
X836134Y627482D01*
X837732Y625884D01*
X839688Y624755D01*
X841730Y624208D01*
Y632750D01*
X843000D01*
Y634020D01*
X851542D01*
X850995Y636062D01*
X849866Y638018D01*
X848268Y639616D01*
X847637Y639980D01*
X847978Y641250D01*
X851250D01*
X852500Y642500D01*
X854000Y641000D01*
D02*
G37*
%LPC*%
G36*
X851542Y631480D02*
X844270D01*
Y624208D01*
X846312Y624755D01*
X848268Y625884D01*
X849866Y627482D01*
X850995Y629438D01*
X851542Y631480D01*
D02*
G37*
G36*
X844058Y615790D02*
X841941D01*
X839897Y615242D01*
X838063Y614184D01*
X836566Y612687D01*
X835508Y610853D01*
X834960Y608809D01*
Y606692D01*
X835508Y604647D01*
X836566Y602813D01*
X838063Y601316D01*
X839897Y600258D01*
X841941Y599710D01*
X844058D01*
X846103Y600258D01*
X847937Y601316D01*
X849434Y602813D01*
X850492Y604647D01*
X851040Y606692D01*
Y608809D01*
X850492Y610853D01*
X849434Y612687D01*
X847937Y614184D01*
X846103Y615242D01*
X844058Y615790D01*
D02*
G37*
G36*
X829270Y606292D02*
Y599020D01*
X836542D01*
X835995Y601062D01*
X834866Y603018D01*
X833268Y604616D01*
X831312Y605745D01*
X829270Y606292D01*
D02*
G37*
G36*
X826730D02*
X824688Y605745D01*
X822732Y604616D01*
X821134Y603018D01*
X820005Y601062D01*
X819458Y599020D01*
X826730D01*
Y606292D01*
D02*
G37*
G36*
X836542Y596480D02*
X829270D01*
Y589208D01*
X831312Y589755D01*
X833268Y590884D01*
X834866Y592482D01*
X835995Y594438D01*
X836542Y596480D01*
D02*
G37*
G36*
X826730D02*
X819458D01*
X820005Y594438D01*
X821134Y592482D01*
X822732Y590884D01*
X824688Y589755D01*
X826730Y589208D01*
Y596480D01*
D02*
G37*
G36*
X792293Y601447D02*
X790105D01*
X788083Y600610D01*
X786536Y599063D01*
X785699Y597041D01*
Y594853D01*
X786536Y592832D01*
X787896Y591472D01*
X787885Y591413D01*
X786337Y589865D01*
X785500Y587844D01*
Y585656D01*
X786337Y583634D01*
X787885Y582087D01*
X789906Y581250D01*
X792094D01*
X794116Y582087D01*
X795663Y583634D01*
X796500Y585656D01*
Y587844D01*
X795663Y589865D01*
X794303Y591225D01*
X794314Y591284D01*
X795862Y592832D01*
X796699Y594853D01*
Y597041D01*
X795862Y599063D01*
X794314Y600610D01*
X792293Y601447D01*
D02*
G37*
G36*
X844058Y595790D02*
X841941D01*
X839897Y595242D01*
X838063Y594184D01*
X836566Y592687D01*
X835508Y590853D01*
X834960Y588809D01*
Y586692D01*
X835508Y584647D01*
X836566Y582813D01*
X838063Y581316D01*
X839897Y580258D01*
X841941Y579710D01*
X844058D01*
X846103Y580258D01*
X847937Y581316D01*
X849434Y582813D01*
X850492Y584647D01*
X851040Y586692D01*
Y588809D01*
X850492Y590853D01*
X849434Y592687D01*
X847937Y594184D01*
X846103Y595242D01*
X844058Y595790D01*
D02*
G37*
G36*
X546707Y874249D02*
X544718D01*
X542881Y873488D01*
X541474Y872081D01*
X540713Y870244D01*
Y868254D01*
X541474Y866417D01*
X542881Y865010D01*
X542932Y864989D01*
Y863719D01*
X542889Y863701D01*
X541483Y862295D01*
X540722Y860457D01*
Y858468D01*
X541483Y856630D01*
X542889Y855224D01*
X544727Y854463D01*
X546716D01*
X548554Y855224D01*
X549960Y856630D01*
X550722Y858468D01*
Y860457D01*
X549960Y862295D01*
X548554Y863701D01*
X548503Y863723D01*
Y864993D01*
X548545Y865010D01*
X549952Y866417D01*
X550713Y868254D01*
Y870244D01*
X549952Y872081D01*
X548545Y873488D01*
X546707Y874249D01*
D02*
G37*
G36*
X521326Y872864D02*
X519337D01*
X517500Y872103D01*
X516093Y870697D01*
X515332Y868859D01*
Y866870D01*
X516093Y865032D01*
X517427Y863699D01*
X517654Y863360D01*
X517858Y862334D01*
X517302Y861778D01*
X516541Y859940D01*
Y857951D01*
X517302Y856114D01*
X518709Y854707D01*
X520547Y853946D01*
X522536D01*
X524374Y854707D01*
X525780Y856114D01*
X526541Y857951D01*
Y859940D01*
X525780Y861778D01*
X524446Y863112D01*
X524219Y863450D01*
X524015Y864476D01*
X524571Y865032D01*
X525332Y866870D01*
Y868859D01*
X524571Y870697D01*
X523164Y872103D01*
X521326Y872864D01*
D02*
G37*
%LPD*%
D16*
X679360Y697488D02*
Y772500D01*
X672750Y690878D02*
X679360Y697488D01*
X535500Y907250D02*
X552500Y890250D01*
X518201Y907250D02*
X535500D01*
X515756Y904804D02*
X518201Y907250D01*
X643060Y922500D02*
X651734Y931174D01*
X556250Y922500D02*
X643060D01*
X549052Y929698D02*
X556250Y922500D01*
X510000Y836250D02*
Y866463D01*
X554871Y791379D02*
X559871D01*
X510000Y836250D02*
X554871Y791379D01*
X559871D02*
X560000Y791250D01*
X401000Y682500D02*
Y683545D01*
X406301Y688846D02*
Y695957D01*
X401000Y683545D02*
X406301Y688846D01*
Y695957D02*
X406500Y696156D01*
X550396Y885170D02*
X569784D01*
X550046Y885520D02*
X550396Y885170D01*
X571272Y886658D02*
Y890250D01*
X533717Y885520D02*
X550046D01*
X531177Y882980D02*
X533717Y885520D01*
X519694Y883795D02*
X520509Y882980D01*
X512384Y884116D02*
X512705Y883795D01*
X519694D01*
X520509Y882980D02*
X531177D01*
X569784Y885170D02*
X571272Y886658D01*
X501000Y875463D02*
Y891000D01*
X459250Y932500D02*
X489875Y901875D01*
X490000Y902000D02*
X501000Y891000D01*
Y875463D02*
X510000Y866463D01*
X552500Y890250D02*
X571272D01*
X631522Y830000D01*
X500698Y929698D02*
X549052D01*
X496770Y910750D02*
X497623Y909897D01*
X502997D01*
X508089Y904804D01*
X281000Y889500D02*
X315940D01*
X320190Y893750D02*
X321397D01*
X315940Y889500D02*
X320190Y893750D01*
X286250Y873012D02*
X287738Y874500D01*
X286250Y819500D02*
Y873012D01*
X287738Y874500D02*
X301500D01*
X508089Y904804D02*
X515756D01*
X608000Y722626D02*
X642410Y757036D01*
X650012D01*
X651500Y758524D01*
X608000Y694103D02*
Y722626D01*
X651500Y758524D02*
Y830000D01*
X332000Y887750D02*
Y888527D01*
X299500Y778250D02*
Y806250D01*
Y778250D02*
X312750Y765000D01*
X286250Y819500D02*
X299500Y806250D01*
X538750Y1169980D02*
X538770Y1170000D01*
X561031D01*
X527750Y1100750D02*
X575063D01*
X556313Y1082000D02*
X575063Y1100750D01*
X526169Y1099169D02*
X527750Y1100750D01*
X575063D02*
X582500Y1108187D01*
X537750Y1092500D02*
X538603Y1091647D01*
Y1086687D02*
X540000Y1085290D01*
X538603Y1086687D02*
Y1091647D01*
X540000Y1082750D02*
Y1085290D01*
X590000Y1065040D02*
Y1157500D01*
X582250Y1165250D02*
X590000Y1157500D01*
X567439Y1176408D02*
X580762D01*
X582250Y1165250D02*
Y1174920D01*
X580762Y1176408D02*
X582250Y1174920D01*
X582500Y1108187D02*
Y1154750D01*
X508750Y1070250D02*
X530762D01*
X498000Y1081000D02*
X508750Y1070250D01*
X498000Y1081000D02*
Y1088796D01*
X497147Y1094397D02*
X498000Y1095250D01*
X497147Y1088796D02*
Y1094397D01*
X561031Y1170000D02*
X567439Y1176408D01*
X574980Y1050020D02*
X590000Y1065040D01*
X532250Y1071738D02*
Y1075000D01*
X540000Y1082750D01*
X530762Y1070250D02*
X532250Y1071738D01*
X525956Y1078964D02*
Y1092294D01*
Y1078964D02*
X526169Y1078750D01*
X651734Y931250D02*
X664250D01*
X526169Y1092294D02*
Y1099169D01*
X510000Y1108250D02*
X525956Y1092294D01*
X486000Y1108250D02*
X510000D01*
X495020Y1050020D02*
Y1086670D01*
X497147Y1088796D01*
X413250Y1035500D02*
X486000Y1108250D01*
X413250Y1006750D02*
Y1035500D01*
X411074Y993000D02*
X419037Y1000963D01*
X556313Y1082000D02*
X582000D01*
X365375Y706980D02*
X375750Y696605D01*
X346203Y706980D02*
X365375D01*
X375750Y695750D02*
Y696605D01*
X415520Y981982D02*
Y988554D01*
X260270Y782370D02*
Y931512D01*
X286473Y766710D02*
X346203Y706980D01*
X415520Y981982D02*
X440518D01*
X399500Y993000D02*
X411074D01*
X275929Y766710D02*
X286473D01*
X260270Y782370D02*
X275929Y766710D01*
X396250Y951250D02*
Y962712D01*
X294774Y966016D02*
X372516D01*
X399500Y993000D01*
X260270Y931512D02*
X294774Y966016D01*
X440518Y981982D02*
X446250Y976250D01*
X396250Y962712D02*
X415520Y981982D01*
X411074Y993000D02*
X415520Y988554D01*
X631522Y830000D02*
X651500D01*
X490000Y902000D02*
Y919000D01*
X459250Y932500D02*
Y986926D01*
X490000Y919000D02*
X500698Y929698D01*
X485750Y1040750D02*
X495020Y1050020D01*
X574980D01*
X582448Y1042552D01*
X665254Y951809D02*
X671020Y946043D01*
X660980Y900411D02*
X671020Y910451D01*
Y946043D01*
X660980Y876808D02*
Y900411D01*
Y876808D02*
X666793Y870995D01*
Y856043D02*
Y870995D01*
X459250Y997574D02*
Y1005250D01*
X456730Y995054D02*
X459250Y997574D01*
X456730Y989446D02*
Y995054D01*
Y989446D02*
X459250Y986926D01*
Y1005250D02*
X485750Y1031750D01*
X651500Y830000D02*
X666793Y845293D01*
Y856043D01*
X574000Y789500D02*
X582500D01*
X619635Y826635D01*
X485750Y1031750D02*
Y1040750D01*
X505088Y802162D02*
X512250Y795000D01*
X505088Y802162D02*
Y845548D01*
X544000Y795000D02*
X556250Y782750D01*
X512250Y795000D02*
X544000D01*
X582448Y1038036D02*
Y1042552D01*
X587500Y1032750D02*
Y1032984D01*
X582448Y1038036D02*
X587500Y1032984D01*
X611000Y763750D02*
Y781793D01*
X614000Y784793D01*
Y786000D01*
X595000Y783063D02*
X596750Y781313D01*
Y764000D02*
Y781313D01*
X595000Y783063D02*
Y784270D01*
X708793Y687500D02*
X710000D01*
X622000Y688500D02*
X622798D01*
X672750Y690500D02*
Y690878D01*
X627568Y683730D02*
X705023D01*
X622798Y688500D02*
X627568Y683730D01*
X705023D02*
X708793Y687500D01*
X695250Y765250D02*
X710000Y750500D01*
Y687500D02*
Y750500D01*
X611750Y674000D02*
Y690353D01*
X608000Y694103D02*
X611750Y690353D01*
X579625Y689875D02*
Y693875D01*
X570250Y703250D02*
X579625Y693875D01*
Y689875D02*
X588147Y681353D01*
X595647D02*
X596500Y680500D01*
X588147Y681353D02*
X595647D01*
D57*
X338500Y846000D02*
D03*
X338247Y854492D02*
D03*
X555250Y1132500D02*
D03*
X549500Y1123000D02*
D03*
X561000D02*
D03*
X555250Y1113500D02*
D03*
X656000Y742750D02*
D03*
X650250Y733250D02*
D03*
X661750D02*
D03*
X656000Y723750D02*
D03*
D58*
X387800Y1006750D02*
D03*
X413200D02*
D03*
X362400D02*
D03*
X337000D02*
D03*
D59*
X300000Y1170250D02*
D03*
X471750D02*
D03*
X691750Y545750D02*
D03*
X300000D02*
D03*
X863000Y532250D02*
D03*
Y663250D02*
D03*
X864750Y1060500D02*
D03*
Y1191500D02*
D03*
X863500Y708000D02*
D03*
Y839000D02*
D03*
X864250Y884500D02*
D03*
Y1015500D02*
D03*
D60*
X332000Y812250D02*
D03*
Y887750D02*
D03*
D61*
X330000Y794500D02*
D03*
Y905500D02*
D03*
X281500Y792000D02*
D03*
Y908000D02*
D03*
X679360Y772500D02*
D03*
X506000Y680250D02*
D03*
X724500Y820500D02*
D03*
X722250Y906750D02*
D03*
X722000Y1020000D02*
D03*
X645250Y1083750D02*
D03*
X484250Y856250D02*
D03*
Y836500D02*
D03*
X371957Y815250D02*
D03*
X583750Y929520D02*
D03*
X614000D02*
D03*
X565500Y816500D02*
D03*
Y828250D02*
D03*
X653000Y620500D02*
D03*
X345234Y620430D02*
D03*
X425250Y623500D02*
D03*
X427750Y579250D02*
D03*
X510000Y581000D02*
D03*
X595250Y578000D02*
D03*
X656250Y576500D02*
D03*
X662500Y517250D02*
D03*
X593000Y519750D02*
D03*
X510250Y518250D02*
D03*
X426250Y519500D02*
D03*
X344250Y517750D02*
D03*
X344000Y575500D02*
D03*
X276250Y574000D02*
D03*
Y622750D02*
D03*
X277149Y979053D02*
D03*
X437250Y1039500D02*
D03*
X349000Y1038000D02*
D03*
X273750Y1034250D02*
D03*
X275000Y1110500D02*
D03*
X350500Y1109500D02*
D03*
X432250Y1105500D02*
D03*
X348000Y1192000D02*
D03*
X425750Y1191750D02*
D03*
X694750Y1124500D02*
D03*
X588750Y1199750D02*
D03*
X638500Y1147500D02*
D03*
X639500Y1201000D02*
D03*
X728750Y1094500D02*
D03*
X721000Y1199250D02*
D03*
X424170Y931000D02*
D03*
X406500Y696156D02*
D03*
X796500Y951750D02*
D03*
X783750Y957750D02*
D03*
X516770Y851000D02*
D03*
X523701Y848750D02*
D03*
X521541Y858946D02*
D03*
X520332Y867864D02*
D03*
X541581Y878750D02*
D03*
X523313Y889750D02*
D03*
X512384Y884116D02*
D03*
X516974Y876374D02*
D03*
X523701Y876210D02*
D03*
X556726Y860694D02*
D03*
X496819Y870069D02*
D03*
X501000Y890890D02*
D03*
X652238Y830738D02*
D03*
X545713Y869249D02*
D03*
X600000Y915750D02*
D03*
X568000Y945000D02*
D03*
X601250Y944250D02*
D03*
X568750Y915980D02*
D03*
X555912Y932412D02*
D03*
X583750Y959500D02*
D03*
X583500Y899750D02*
D03*
X528583Y966158D02*
D03*
X521791Y953917D02*
D03*
X550084Y946145D02*
D03*
X543013Y919753D02*
D03*
X560691Y902075D02*
D03*
X596753Y892405D02*
D03*
X586147Y977965D02*
D03*
X596529Y967297D02*
D03*
X607360Y903012D02*
D03*
X621280Y942546D02*
D03*
X517525Y940296D02*
D03*
X717750Y699000D02*
D03*
X660338Y976338D02*
D03*
X303946Y853599D02*
D03*
X304886Y844070D02*
D03*
X356517Y838291D02*
D03*
X297520Y860662D02*
D03*
X312516Y859852D02*
D03*
X382218Y846172D02*
D03*
X375010Y857508D02*
D03*
X496770Y910750D02*
D03*
X296641Y838891D02*
D03*
X321397Y893750D02*
D03*
X281000Y889500D02*
D03*
X481750Y811000D02*
D03*
X516250Y922928D02*
D03*
X301500Y874500D02*
D03*
X417000Y959500D02*
D03*
X398626Y920717D02*
D03*
X365500Y864000D02*
D03*
X279480Y834159D02*
D03*
X286250Y819500D02*
D03*
X538750Y1169980D02*
D03*
X511500Y1079750D02*
D03*
X538750Y1107520D02*
D03*
X537750Y1092500D02*
D03*
X595250Y1162750D02*
D03*
X582500Y1154750D02*
D03*
X596770Y1088000D02*
D03*
X526169Y1078750D02*
D03*
X498000Y1095250D02*
D03*
X582000Y1082000D02*
D03*
X416750Y967670D02*
D03*
X396250Y951250D02*
D03*
X446250Y976250D02*
D03*
X408750Y985750D02*
D03*
X473750Y939000D02*
D03*
X481000Y946500D02*
D03*
X545722Y859463D02*
D03*
X504250Y917500D02*
D03*
X637610Y1004437D02*
D03*
X619730Y1011802D02*
D03*
X785864Y948114D02*
D03*
X779500Y941750D02*
D03*
X535766Y1043250D02*
D03*
X534829Y1032171D02*
D03*
X550777Y1022550D02*
D03*
X574750Y998750D02*
D03*
X665254Y951809D02*
D03*
X618500Y813750D02*
D03*
X312750Y765000D02*
D03*
X582750Y857750D02*
D03*
X558875Y850375D02*
D03*
X802730Y773250D02*
D03*
X779250Y930500D02*
D03*
X768250Y937750D02*
D03*
X786750Y1049250D02*
D03*
X788000Y878250D02*
D03*
X666793Y856043D02*
D03*
X619635Y826635D02*
D03*
X574000Y789500D02*
D03*
X560000Y791250D02*
D03*
X452480Y942838D02*
D03*
X483250Y958500D02*
D03*
X505088Y845548D02*
D03*
X497980Y821000D02*
D03*
X545250Y847250D02*
D03*
X573250Y849750D02*
D03*
X556250Y782750D02*
D03*
X483500Y1129000D02*
D03*
X500500Y1136250D02*
D03*
X587500Y1032750D02*
D03*
X564000Y1038000D02*
D03*
X485750Y1040750D02*
D03*
X753750Y903250D02*
D03*
X745989Y1065750D02*
D03*
X779500Y693250D02*
D03*
X745750Y712750D02*
D03*
X492500Y983000D02*
D03*
X495500Y1022000D02*
D03*
X482000Y1009750D02*
D03*
X611000Y763750D02*
D03*
X595000Y784270D02*
D03*
X596750Y764000D02*
D03*
X614000Y786000D02*
D03*
X273750Y750500D02*
D03*
X672750Y690500D02*
D03*
X695250Y765250D02*
D03*
X717250Y753500D02*
D03*
X710000Y687500D02*
D03*
X622000Y688500D02*
D03*
X611750Y674000D02*
D03*
X570250Y703250D02*
D03*
X596500Y680500D02*
D03*
X597500Y697750D02*
D03*
X597000Y707750D02*
D03*
X427213Y672537D02*
D03*
X388250Y659250D02*
D03*
X747250Y538250D02*
D03*
X779000Y523750D02*
D03*
X800750Y745500D02*
D03*
X789000Y746250D02*
D03*
X791750Y773750D02*
D03*
X795270Y764020D02*
D03*
X795141Y754575D02*
D03*
X777500Y1109000D02*
D03*
X794000Y1108000D02*
D03*
Y1133250D02*
D03*
X780500Y1134500D02*
D03*
X786250Y1125000D02*
D03*
Y1115864D02*
D03*
X667750Y887750D02*
D03*
X679250Y905000D02*
D03*
X633532Y860032D02*
D03*
X664250Y931250D02*
D03*
X651734Y931174D02*
D03*
X791000Y586750D02*
D03*
X791199Y595947D02*
D03*
X797750Y579000D02*
D03*
X783750Y579750D02*
D03*
X798000Y604250D02*
D03*
X786500Y605250D02*
D03*
X573000Y744250D02*
D03*
X646750Y874250D02*
D03*
X644770Y715101D02*
D03*
X319500Y750500D02*
D03*
X401000Y682500D02*
D03*
X481250Y632000D02*
D03*
X465500Y631500D02*
D03*
X496750Y631750D02*
D03*
X585250Y617750D02*
D03*
X613750Y637750D02*
D03*
X598750Y637250D02*
D03*
X540750Y653250D02*
D03*
X437750Y754000D02*
D03*
X439750Y737250D02*
D03*
X501750Y739250D02*
D03*
X512250D02*
D03*
X544250Y726000D02*
D03*
X558500Y744500D02*
D03*
X477000Y874140D02*
D03*
X289500Y750250D02*
D03*
X355241Y814957D02*
D03*
X357750Y884750D02*
D03*
D63*
X843000Y562750D02*
D03*
Y587750D02*
D03*
Y607750D02*
D03*
Y632750D02*
D03*
X828000Y637750D02*
D03*
Y617750D02*
D03*
Y597750D02*
D03*
Y577750D02*
D03*
Y557750D02*
D03*
X844750Y1091000D02*
D03*
Y1116000D02*
D03*
Y1136000D02*
D03*
Y1161000D02*
D03*
X829750Y1166000D02*
D03*
Y1146000D02*
D03*
Y1126000D02*
D03*
Y1106000D02*
D03*
Y1086000D02*
D03*
X843500Y738500D02*
D03*
Y763500D02*
D03*
Y783500D02*
D03*
Y808500D02*
D03*
X828500Y813500D02*
D03*
Y793500D02*
D03*
Y773500D02*
D03*
Y753500D02*
D03*
Y733500D02*
D03*
X844250Y915000D02*
D03*
Y940000D02*
D03*
Y960000D02*
D03*
Y985000D02*
D03*
X829250Y990000D02*
D03*
Y970000D02*
D03*
Y950000D02*
D03*
Y930000D02*
D03*
Y910000D02*
D03*
D64*
X270750Y695750D02*
D03*
D65*
X345750Y648750D02*
D03*
D66*
X315750Y695750D02*
D03*
D67*
X375750D02*
D03*
M02*
